%TF.GenerationSoftware,KiCad,Pcbnew,9.0.7*%
%TF.CreationDate,2026-05-03T21:26:08+01:00*%
%TF.ProjectId,PDS_ZXSpectrum,5044535f-5a58-4537-9065-637472756d2e,rev?*%
%TF.SameCoordinates,Original*%
%TF.FileFunction,Legend,Top*%
%TF.FilePolarity,Positive*%
%FSLAX46Y46*%
G04 Gerber Fmt 4.6, Leading zero omitted, Abs format (unit mm)*
G04 Created by KiCad (PCBNEW 9.0.7) date 2026-05-03 21:26:08*
%MOMM*%
%LPD*%
G01*
G04 APERTURE LIST*
%ADD10C,0.100000*%
%ADD11C,0.150000*%
%ADD12C,0.120000*%
G04 APERTURE END LIST*
D10*
X63500000Y-110890000D02*
X63500000Y-118980000D01*
X62230000Y-110950000D02*
X62230000Y-119040000D01*
X51040000Y-110950000D02*
X122620000Y-110950000D01*
X122620000Y-119040000D01*
X51040000Y-119040000D01*
X51040000Y-110950000D01*
X97044285Y-52107964D02*
X97234761Y-52107964D01*
X97234761Y-52107964D02*
X97329999Y-52155583D01*
X97329999Y-52155583D02*
X97425237Y-52250821D01*
X97425237Y-52250821D02*
X97472856Y-52441297D01*
X97472856Y-52441297D02*
X97472856Y-52774630D01*
X97472856Y-52774630D02*
X97425237Y-52965106D01*
X97425237Y-52965106D02*
X97329999Y-53060345D01*
X97329999Y-53060345D02*
X97234761Y-53107964D01*
X97234761Y-53107964D02*
X97044285Y-53107964D01*
X97044285Y-53107964D02*
X96949047Y-53060345D01*
X96949047Y-53060345D02*
X96853809Y-52965106D01*
X96853809Y-52965106D02*
X96806190Y-52774630D01*
X96806190Y-52774630D02*
X96806190Y-52441297D01*
X96806190Y-52441297D02*
X96853809Y-52250821D01*
X96853809Y-52250821D02*
X96949047Y-52155583D01*
X96949047Y-52155583D02*
X97044285Y-52107964D01*
X97901428Y-53107964D02*
X97901428Y-52107964D01*
X97901428Y-52107964D02*
X98472856Y-53107964D01*
X98472856Y-53107964D02*
X98472856Y-52107964D01*
X100425237Y-52060345D02*
X99568095Y-53346059D01*
X101710952Y-52107964D02*
X101901428Y-52107964D01*
X101901428Y-52107964D02*
X101996666Y-52155583D01*
X101996666Y-52155583D02*
X102091904Y-52250821D01*
X102091904Y-52250821D02*
X102139523Y-52441297D01*
X102139523Y-52441297D02*
X102139523Y-52774630D01*
X102139523Y-52774630D02*
X102091904Y-52965106D01*
X102091904Y-52965106D02*
X101996666Y-53060345D01*
X101996666Y-53060345D02*
X101901428Y-53107964D01*
X101901428Y-53107964D02*
X101710952Y-53107964D01*
X101710952Y-53107964D02*
X101615714Y-53060345D01*
X101615714Y-53060345D02*
X101520476Y-52965106D01*
X101520476Y-52965106D02*
X101472857Y-52774630D01*
X101472857Y-52774630D02*
X101472857Y-52441297D01*
X101472857Y-52441297D02*
X101520476Y-52250821D01*
X101520476Y-52250821D02*
X101615714Y-52155583D01*
X101615714Y-52155583D02*
X101710952Y-52107964D01*
X102901428Y-52584154D02*
X102568095Y-52584154D01*
X102568095Y-53107964D02*
X102568095Y-52107964D01*
X102568095Y-52107964D02*
X103044285Y-52107964D01*
X103758571Y-52584154D02*
X103425238Y-52584154D01*
X103425238Y-53107964D02*
X103425238Y-52107964D01*
X103425238Y-52107964D02*
X103901428Y-52107964D01*
X66485713Y-102352475D02*
X66485713Y-101352475D01*
X66485713Y-101352475D02*
X66866665Y-101352475D01*
X66866665Y-101352475D02*
X66961903Y-101400094D01*
X66961903Y-101400094D02*
X67009522Y-101447713D01*
X67009522Y-101447713D02*
X67057141Y-101542951D01*
X67057141Y-101542951D02*
X67057141Y-101685808D01*
X67057141Y-101685808D02*
X67009522Y-101781046D01*
X67009522Y-101781046D02*
X66961903Y-101828665D01*
X66961903Y-101828665D02*
X66866665Y-101876284D01*
X66866665Y-101876284D02*
X66485713Y-101876284D01*
X67485713Y-102352475D02*
X67485713Y-101352475D01*
X67485713Y-101352475D02*
X67723808Y-101352475D01*
X67723808Y-101352475D02*
X67866665Y-101400094D01*
X67866665Y-101400094D02*
X67961903Y-101495332D01*
X67961903Y-101495332D02*
X68009522Y-101590570D01*
X68009522Y-101590570D02*
X68057141Y-101781046D01*
X68057141Y-101781046D02*
X68057141Y-101923903D01*
X68057141Y-101923903D02*
X68009522Y-102114379D01*
X68009522Y-102114379D02*
X67961903Y-102209617D01*
X67961903Y-102209617D02*
X67866665Y-102304856D01*
X67866665Y-102304856D02*
X67723808Y-102352475D01*
X67723808Y-102352475D02*
X67485713Y-102352475D01*
X68438094Y-102304856D02*
X68580951Y-102352475D01*
X68580951Y-102352475D02*
X68819046Y-102352475D01*
X68819046Y-102352475D02*
X68914284Y-102304856D01*
X68914284Y-102304856D02*
X68961903Y-102257236D01*
X68961903Y-102257236D02*
X69009522Y-102161998D01*
X69009522Y-102161998D02*
X69009522Y-102066760D01*
X69009522Y-102066760D02*
X68961903Y-101971522D01*
X68961903Y-101971522D02*
X68914284Y-101923903D01*
X68914284Y-101923903D02*
X68819046Y-101876284D01*
X68819046Y-101876284D02*
X68628570Y-101828665D01*
X68628570Y-101828665D02*
X68533332Y-101781046D01*
X68533332Y-101781046D02*
X68485713Y-101733427D01*
X68485713Y-101733427D02*
X68438094Y-101638189D01*
X68438094Y-101638189D02*
X68438094Y-101542951D01*
X68438094Y-101542951D02*
X68485713Y-101447713D01*
X68485713Y-101447713D02*
X68533332Y-101400094D01*
X68533332Y-101400094D02*
X68628570Y-101352475D01*
X68628570Y-101352475D02*
X68866665Y-101352475D01*
X68866665Y-101352475D02*
X69009522Y-101400094D01*
X70771427Y-102352475D02*
X70438094Y-101876284D01*
X70199999Y-102352475D02*
X70199999Y-101352475D01*
X70199999Y-101352475D02*
X70580951Y-101352475D01*
X70580951Y-101352475D02*
X70676189Y-101400094D01*
X70676189Y-101400094D02*
X70723808Y-101447713D01*
X70723808Y-101447713D02*
X70771427Y-101542951D01*
X70771427Y-101542951D02*
X70771427Y-101685808D01*
X70771427Y-101685808D02*
X70723808Y-101781046D01*
X70723808Y-101781046D02*
X70676189Y-101828665D01*
X70676189Y-101828665D02*
X70580951Y-101876284D01*
X70580951Y-101876284D02*
X70199999Y-101876284D01*
X71580951Y-102304856D02*
X71485713Y-102352475D01*
X71485713Y-102352475D02*
X71295237Y-102352475D01*
X71295237Y-102352475D02*
X71199999Y-102304856D01*
X71199999Y-102304856D02*
X71152380Y-102209617D01*
X71152380Y-102209617D02*
X71152380Y-101828665D01*
X71152380Y-101828665D02*
X71199999Y-101733427D01*
X71199999Y-101733427D02*
X71295237Y-101685808D01*
X71295237Y-101685808D02*
X71485713Y-101685808D01*
X71485713Y-101685808D02*
X71580951Y-101733427D01*
X71580951Y-101733427D02*
X71628570Y-101828665D01*
X71628570Y-101828665D02*
X71628570Y-101923903D01*
X71628570Y-101923903D02*
X71152380Y-102019141D01*
X72057142Y-102352475D02*
X72057142Y-101685808D01*
X72057142Y-101781046D02*
X72104761Y-101733427D01*
X72104761Y-101733427D02*
X72199999Y-101685808D01*
X72199999Y-101685808D02*
X72342856Y-101685808D01*
X72342856Y-101685808D02*
X72438094Y-101733427D01*
X72438094Y-101733427D02*
X72485713Y-101828665D01*
X72485713Y-101828665D02*
X72485713Y-102352475D01*
X72485713Y-101828665D02*
X72533332Y-101733427D01*
X72533332Y-101733427D02*
X72628570Y-101685808D01*
X72628570Y-101685808D02*
X72771427Y-101685808D01*
X72771427Y-101685808D02*
X72866666Y-101733427D01*
X72866666Y-101733427D02*
X72914285Y-101828665D01*
X72914285Y-101828665D02*
X72914285Y-102352475D01*
X73819046Y-102352475D02*
X73819046Y-101828665D01*
X73819046Y-101828665D02*
X73771427Y-101733427D01*
X73771427Y-101733427D02*
X73676189Y-101685808D01*
X73676189Y-101685808D02*
X73485713Y-101685808D01*
X73485713Y-101685808D02*
X73390475Y-101733427D01*
X73819046Y-102304856D02*
X73723808Y-102352475D01*
X73723808Y-102352475D02*
X73485713Y-102352475D01*
X73485713Y-102352475D02*
X73390475Y-102304856D01*
X73390475Y-102304856D02*
X73342856Y-102209617D01*
X73342856Y-102209617D02*
X73342856Y-102114379D01*
X73342856Y-102114379D02*
X73390475Y-102019141D01*
X73390475Y-102019141D02*
X73485713Y-101971522D01*
X73485713Y-101971522D02*
X73723808Y-101971522D01*
X73723808Y-101971522D02*
X73819046Y-101923903D01*
X74295237Y-102352475D02*
X74295237Y-101352475D01*
X74390475Y-101971522D02*
X74676189Y-102352475D01*
X74676189Y-101685808D02*
X74295237Y-102066760D01*
X75485713Y-102304856D02*
X75390475Y-102352475D01*
X75390475Y-102352475D02*
X75199999Y-102352475D01*
X75199999Y-102352475D02*
X75104761Y-102304856D01*
X75104761Y-102304856D02*
X75057142Y-102209617D01*
X75057142Y-102209617D02*
X75057142Y-101828665D01*
X75057142Y-101828665D02*
X75104761Y-101733427D01*
X75104761Y-101733427D02*
X75199999Y-101685808D01*
X75199999Y-101685808D02*
X75390475Y-101685808D01*
X75390475Y-101685808D02*
X75485713Y-101733427D01*
X75485713Y-101733427D02*
X75533332Y-101828665D01*
X75533332Y-101828665D02*
X75533332Y-101923903D01*
X75533332Y-101923903D02*
X75057142Y-102019141D01*
X76628571Y-101352475D02*
X77295237Y-101352475D01*
X77295237Y-101352475D02*
X76628571Y-102352475D01*
X76628571Y-102352475D02*
X77295237Y-102352475D01*
X77580952Y-101352475D02*
X78247618Y-102352475D01*
X78247618Y-101352475D02*
X77580952Y-102352475D01*
X79342857Y-102304856D02*
X79485714Y-102352475D01*
X79485714Y-102352475D02*
X79723809Y-102352475D01*
X79723809Y-102352475D02*
X79819047Y-102304856D01*
X79819047Y-102304856D02*
X79866666Y-102257236D01*
X79866666Y-102257236D02*
X79914285Y-102161998D01*
X79914285Y-102161998D02*
X79914285Y-102066760D01*
X79914285Y-102066760D02*
X79866666Y-101971522D01*
X79866666Y-101971522D02*
X79819047Y-101923903D01*
X79819047Y-101923903D02*
X79723809Y-101876284D01*
X79723809Y-101876284D02*
X79533333Y-101828665D01*
X79533333Y-101828665D02*
X79438095Y-101781046D01*
X79438095Y-101781046D02*
X79390476Y-101733427D01*
X79390476Y-101733427D02*
X79342857Y-101638189D01*
X79342857Y-101638189D02*
X79342857Y-101542951D01*
X79342857Y-101542951D02*
X79390476Y-101447713D01*
X79390476Y-101447713D02*
X79438095Y-101400094D01*
X79438095Y-101400094D02*
X79533333Y-101352475D01*
X79533333Y-101352475D02*
X79771428Y-101352475D01*
X79771428Y-101352475D02*
X79914285Y-101400094D01*
X80342857Y-101685808D02*
X80342857Y-102685808D01*
X80342857Y-101733427D02*
X80438095Y-101685808D01*
X80438095Y-101685808D02*
X80628571Y-101685808D01*
X80628571Y-101685808D02*
X80723809Y-101733427D01*
X80723809Y-101733427D02*
X80771428Y-101781046D01*
X80771428Y-101781046D02*
X80819047Y-101876284D01*
X80819047Y-101876284D02*
X80819047Y-102161998D01*
X80819047Y-102161998D02*
X80771428Y-102257236D01*
X80771428Y-102257236D02*
X80723809Y-102304856D01*
X80723809Y-102304856D02*
X80628571Y-102352475D01*
X80628571Y-102352475D02*
X80438095Y-102352475D01*
X80438095Y-102352475D02*
X80342857Y-102304856D01*
X81628571Y-102304856D02*
X81533333Y-102352475D01*
X81533333Y-102352475D02*
X81342857Y-102352475D01*
X81342857Y-102352475D02*
X81247619Y-102304856D01*
X81247619Y-102304856D02*
X81200000Y-102209617D01*
X81200000Y-102209617D02*
X81200000Y-101828665D01*
X81200000Y-101828665D02*
X81247619Y-101733427D01*
X81247619Y-101733427D02*
X81342857Y-101685808D01*
X81342857Y-101685808D02*
X81533333Y-101685808D01*
X81533333Y-101685808D02*
X81628571Y-101733427D01*
X81628571Y-101733427D02*
X81676190Y-101828665D01*
X81676190Y-101828665D02*
X81676190Y-101923903D01*
X81676190Y-101923903D02*
X81200000Y-102019141D01*
X82533333Y-102304856D02*
X82438095Y-102352475D01*
X82438095Y-102352475D02*
X82247619Y-102352475D01*
X82247619Y-102352475D02*
X82152381Y-102304856D01*
X82152381Y-102304856D02*
X82104762Y-102257236D01*
X82104762Y-102257236D02*
X82057143Y-102161998D01*
X82057143Y-102161998D02*
X82057143Y-101876284D01*
X82057143Y-101876284D02*
X82104762Y-101781046D01*
X82104762Y-101781046D02*
X82152381Y-101733427D01*
X82152381Y-101733427D02*
X82247619Y-101685808D01*
X82247619Y-101685808D02*
X82438095Y-101685808D01*
X82438095Y-101685808D02*
X82533333Y-101733427D01*
X82819048Y-101685808D02*
X83200000Y-101685808D01*
X82961905Y-101352475D02*
X82961905Y-102209617D01*
X82961905Y-102209617D02*
X83009524Y-102304856D01*
X83009524Y-102304856D02*
X83104762Y-102352475D01*
X83104762Y-102352475D02*
X83200000Y-102352475D01*
X83533334Y-102352475D02*
X83533334Y-101685808D01*
X83533334Y-101876284D02*
X83580953Y-101781046D01*
X83580953Y-101781046D02*
X83628572Y-101733427D01*
X83628572Y-101733427D02*
X83723810Y-101685808D01*
X83723810Y-101685808D02*
X83819048Y-101685808D01*
X84580953Y-101685808D02*
X84580953Y-102352475D01*
X84152382Y-101685808D02*
X84152382Y-102209617D01*
X84152382Y-102209617D02*
X84200001Y-102304856D01*
X84200001Y-102304856D02*
X84295239Y-102352475D01*
X84295239Y-102352475D02*
X84438096Y-102352475D01*
X84438096Y-102352475D02*
X84533334Y-102304856D01*
X84533334Y-102304856D02*
X84580953Y-102257236D01*
X85057144Y-102352475D02*
X85057144Y-101685808D01*
X85057144Y-101781046D02*
X85104763Y-101733427D01*
X85104763Y-101733427D02*
X85200001Y-101685808D01*
X85200001Y-101685808D02*
X85342858Y-101685808D01*
X85342858Y-101685808D02*
X85438096Y-101733427D01*
X85438096Y-101733427D02*
X85485715Y-101828665D01*
X85485715Y-101828665D02*
X85485715Y-102352475D01*
X85485715Y-101828665D02*
X85533334Y-101733427D01*
X85533334Y-101733427D02*
X85628572Y-101685808D01*
X85628572Y-101685808D02*
X85771429Y-101685808D01*
X85771429Y-101685808D02*
X85866668Y-101733427D01*
X85866668Y-101733427D02*
X85914287Y-101828665D01*
X85914287Y-101828665D02*
X85914287Y-102352475D01*
X57509523Y-103962419D02*
X57509523Y-102962419D01*
X57938094Y-103962419D02*
X57938094Y-103438609D01*
X57938094Y-103438609D02*
X57890475Y-103343371D01*
X57890475Y-103343371D02*
X57795237Y-103295752D01*
X57795237Y-103295752D02*
X57652380Y-103295752D01*
X57652380Y-103295752D02*
X57557142Y-103343371D01*
X57557142Y-103343371D02*
X57509523Y-103390990D01*
X58271428Y-103295752D02*
X58652380Y-103295752D01*
X58414285Y-102962419D02*
X58414285Y-103819561D01*
X58414285Y-103819561D02*
X58461904Y-103914800D01*
X58461904Y-103914800D02*
X58557142Y-103962419D01*
X58557142Y-103962419D02*
X58652380Y-103962419D01*
X58842857Y-103295752D02*
X59223809Y-103295752D01*
X58985714Y-102962419D02*
X58985714Y-103819561D01*
X58985714Y-103819561D02*
X59033333Y-103914800D01*
X59033333Y-103914800D02*
X59128571Y-103962419D01*
X59128571Y-103962419D02*
X59223809Y-103962419D01*
X59557143Y-103295752D02*
X59557143Y-104295752D01*
X59557143Y-103343371D02*
X59652381Y-103295752D01*
X59652381Y-103295752D02*
X59842857Y-103295752D01*
X59842857Y-103295752D02*
X59938095Y-103343371D01*
X59938095Y-103343371D02*
X59985714Y-103390990D01*
X59985714Y-103390990D02*
X60033333Y-103486228D01*
X60033333Y-103486228D02*
X60033333Y-103771942D01*
X60033333Y-103771942D02*
X59985714Y-103867180D01*
X59985714Y-103867180D02*
X59938095Y-103914800D01*
X59938095Y-103914800D02*
X59842857Y-103962419D01*
X59842857Y-103962419D02*
X59652381Y-103962419D01*
X59652381Y-103962419D02*
X59557143Y-103914800D01*
X60414286Y-103914800D02*
X60509524Y-103962419D01*
X60509524Y-103962419D02*
X60700000Y-103962419D01*
X60700000Y-103962419D02*
X60795238Y-103914800D01*
X60795238Y-103914800D02*
X60842857Y-103819561D01*
X60842857Y-103819561D02*
X60842857Y-103771942D01*
X60842857Y-103771942D02*
X60795238Y-103676704D01*
X60795238Y-103676704D02*
X60700000Y-103629085D01*
X60700000Y-103629085D02*
X60557143Y-103629085D01*
X60557143Y-103629085D02*
X60461905Y-103581466D01*
X60461905Y-103581466D02*
X60414286Y-103486228D01*
X60414286Y-103486228D02*
X60414286Y-103438609D01*
X60414286Y-103438609D02*
X60461905Y-103343371D01*
X60461905Y-103343371D02*
X60557143Y-103295752D01*
X60557143Y-103295752D02*
X60700000Y-103295752D01*
X60700000Y-103295752D02*
X60795238Y-103343371D01*
X61271429Y-103867180D02*
X61319048Y-103914800D01*
X61319048Y-103914800D02*
X61271429Y-103962419D01*
X61271429Y-103962419D02*
X61223810Y-103914800D01*
X61223810Y-103914800D02*
X61271429Y-103867180D01*
X61271429Y-103867180D02*
X61271429Y-103962419D01*
X61271429Y-103343371D02*
X61319048Y-103390990D01*
X61319048Y-103390990D02*
X61271429Y-103438609D01*
X61271429Y-103438609D02*
X61223810Y-103390990D01*
X61223810Y-103390990D02*
X61271429Y-103343371D01*
X61271429Y-103343371D02*
X61271429Y-103438609D01*
X62461904Y-102914800D02*
X61604762Y-104200514D01*
X63509523Y-102914800D02*
X62652381Y-104200514D01*
X64271428Y-103295752D02*
X64271428Y-104105276D01*
X64271428Y-104105276D02*
X64223809Y-104200514D01*
X64223809Y-104200514D02*
X64176190Y-104248133D01*
X64176190Y-104248133D02*
X64080952Y-104295752D01*
X64080952Y-104295752D02*
X63938095Y-104295752D01*
X63938095Y-104295752D02*
X63842857Y-104248133D01*
X64271428Y-103914800D02*
X64176190Y-103962419D01*
X64176190Y-103962419D02*
X63985714Y-103962419D01*
X63985714Y-103962419D02*
X63890476Y-103914800D01*
X63890476Y-103914800D02*
X63842857Y-103867180D01*
X63842857Y-103867180D02*
X63795238Y-103771942D01*
X63795238Y-103771942D02*
X63795238Y-103486228D01*
X63795238Y-103486228D02*
X63842857Y-103390990D01*
X63842857Y-103390990D02*
X63890476Y-103343371D01*
X63890476Y-103343371D02*
X63985714Y-103295752D01*
X63985714Y-103295752D02*
X64176190Y-103295752D01*
X64176190Y-103295752D02*
X64271428Y-103343371D01*
X64747619Y-103962419D02*
X64747619Y-103295752D01*
X64747619Y-102962419D02*
X64700000Y-103010038D01*
X64700000Y-103010038D02*
X64747619Y-103057657D01*
X64747619Y-103057657D02*
X64795238Y-103010038D01*
X64795238Y-103010038D02*
X64747619Y-102962419D01*
X64747619Y-102962419D02*
X64747619Y-103057657D01*
X65080952Y-103295752D02*
X65461904Y-103295752D01*
X65223809Y-102962419D02*
X65223809Y-103819561D01*
X65223809Y-103819561D02*
X65271428Y-103914800D01*
X65271428Y-103914800D02*
X65366666Y-103962419D01*
X65366666Y-103962419D02*
X65461904Y-103962419D01*
X65795238Y-103962419D02*
X65795238Y-102962419D01*
X66223809Y-103962419D02*
X66223809Y-103438609D01*
X66223809Y-103438609D02*
X66176190Y-103343371D01*
X66176190Y-103343371D02*
X66080952Y-103295752D01*
X66080952Y-103295752D02*
X65938095Y-103295752D01*
X65938095Y-103295752D02*
X65842857Y-103343371D01*
X65842857Y-103343371D02*
X65795238Y-103390990D01*
X67128571Y-103295752D02*
X67128571Y-103962419D01*
X66700000Y-103295752D02*
X66700000Y-103819561D01*
X66700000Y-103819561D02*
X66747619Y-103914800D01*
X66747619Y-103914800D02*
X66842857Y-103962419D01*
X66842857Y-103962419D02*
X66985714Y-103962419D01*
X66985714Y-103962419D02*
X67080952Y-103914800D01*
X67080952Y-103914800D02*
X67128571Y-103867180D01*
X67604762Y-103962419D02*
X67604762Y-102962419D01*
X67604762Y-103343371D02*
X67700000Y-103295752D01*
X67700000Y-103295752D02*
X67890476Y-103295752D01*
X67890476Y-103295752D02*
X67985714Y-103343371D01*
X67985714Y-103343371D02*
X68033333Y-103390990D01*
X68033333Y-103390990D02*
X68080952Y-103486228D01*
X68080952Y-103486228D02*
X68080952Y-103771942D01*
X68080952Y-103771942D02*
X68033333Y-103867180D01*
X68033333Y-103867180D02*
X67985714Y-103914800D01*
X67985714Y-103914800D02*
X67890476Y-103962419D01*
X67890476Y-103962419D02*
X67700000Y-103962419D01*
X67700000Y-103962419D02*
X67604762Y-103914800D01*
X68509524Y-103867180D02*
X68557143Y-103914800D01*
X68557143Y-103914800D02*
X68509524Y-103962419D01*
X68509524Y-103962419D02*
X68461905Y-103914800D01*
X68461905Y-103914800D02*
X68509524Y-103867180D01*
X68509524Y-103867180D02*
X68509524Y-103962419D01*
X69414285Y-103914800D02*
X69319047Y-103962419D01*
X69319047Y-103962419D02*
X69128571Y-103962419D01*
X69128571Y-103962419D02*
X69033333Y-103914800D01*
X69033333Y-103914800D02*
X68985714Y-103867180D01*
X68985714Y-103867180D02*
X68938095Y-103771942D01*
X68938095Y-103771942D02*
X68938095Y-103486228D01*
X68938095Y-103486228D02*
X68985714Y-103390990D01*
X68985714Y-103390990D02*
X69033333Y-103343371D01*
X69033333Y-103343371D02*
X69128571Y-103295752D01*
X69128571Y-103295752D02*
X69319047Y-103295752D01*
X69319047Y-103295752D02*
X69414285Y-103343371D01*
X69985714Y-103962419D02*
X69890476Y-103914800D01*
X69890476Y-103914800D02*
X69842857Y-103867180D01*
X69842857Y-103867180D02*
X69795238Y-103771942D01*
X69795238Y-103771942D02*
X69795238Y-103486228D01*
X69795238Y-103486228D02*
X69842857Y-103390990D01*
X69842857Y-103390990D02*
X69890476Y-103343371D01*
X69890476Y-103343371D02*
X69985714Y-103295752D01*
X69985714Y-103295752D02*
X70128571Y-103295752D01*
X70128571Y-103295752D02*
X70223809Y-103343371D01*
X70223809Y-103343371D02*
X70271428Y-103390990D01*
X70271428Y-103390990D02*
X70319047Y-103486228D01*
X70319047Y-103486228D02*
X70319047Y-103771942D01*
X70319047Y-103771942D02*
X70271428Y-103867180D01*
X70271428Y-103867180D02*
X70223809Y-103914800D01*
X70223809Y-103914800D02*
X70128571Y-103962419D01*
X70128571Y-103962419D02*
X69985714Y-103962419D01*
X70747619Y-103962419D02*
X70747619Y-103295752D01*
X70747619Y-103390990D02*
X70795238Y-103343371D01*
X70795238Y-103343371D02*
X70890476Y-103295752D01*
X70890476Y-103295752D02*
X71033333Y-103295752D01*
X71033333Y-103295752D02*
X71128571Y-103343371D01*
X71128571Y-103343371D02*
X71176190Y-103438609D01*
X71176190Y-103438609D02*
X71176190Y-103962419D01*
X71176190Y-103438609D02*
X71223809Y-103343371D01*
X71223809Y-103343371D02*
X71319047Y-103295752D01*
X71319047Y-103295752D02*
X71461904Y-103295752D01*
X71461904Y-103295752D02*
X71557143Y-103343371D01*
X71557143Y-103343371D02*
X71604762Y-103438609D01*
X71604762Y-103438609D02*
X71604762Y-103962419D01*
X72795237Y-102914800D02*
X71938095Y-104200514D01*
X73557142Y-103962419D02*
X73557142Y-102962419D01*
X73557142Y-103914800D02*
X73461904Y-103962419D01*
X73461904Y-103962419D02*
X73271428Y-103962419D01*
X73271428Y-103962419D02*
X73176190Y-103914800D01*
X73176190Y-103914800D02*
X73128571Y-103867180D01*
X73128571Y-103867180D02*
X73080952Y-103771942D01*
X73080952Y-103771942D02*
X73080952Y-103486228D01*
X73080952Y-103486228D02*
X73128571Y-103390990D01*
X73128571Y-103390990D02*
X73176190Y-103343371D01*
X73176190Y-103343371D02*
X73271428Y-103295752D01*
X73271428Y-103295752D02*
X73461904Y-103295752D01*
X73461904Y-103295752D02*
X73557142Y-103343371D01*
X74033333Y-103962419D02*
X74033333Y-103295752D01*
X74033333Y-102962419D02*
X73985714Y-103010038D01*
X73985714Y-103010038D02*
X74033333Y-103057657D01*
X74033333Y-103057657D02*
X74080952Y-103010038D01*
X74080952Y-103010038D02*
X74033333Y-102962419D01*
X74033333Y-102962419D02*
X74033333Y-103057657D01*
X74414285Y-103295752D02*
X74652380Y-103962419D01*
X74890475Y-103295752D02*
X74652380Y-103962419D01*
X74652380Y-103962419D02*
X74557142Y-104200514D01*
X74557142Y-104200514D02*
X74509523Y-104248133D01*
X74509523Y-104248133D02*
X74414285Y-104295752D01*
X75652380Y-103914800D02*
X75557142Y-103962419D01*
X75557142Y-103962419D02*
X75366666Y-103962419D01*
X75366666Y-103962419D02*
X75271428Y-103914800D01*
X75271428Y-103914800D02*
X75223809Y-103819561D01*
X75223809Y-103819561D02*
X75223809Y-103438609D01*
X75223809Y-103438609D02*
X75271428Y-103343371D01*
X75271428Y-103343371D02*
X75366666Y-103295752D01*
X75366666Y-103295752D02*
X75557142Y-103295752D01*
X75557142Y-103295752D02*
X75652380Y-103343371D01*
X75652380Y-103343371D02*
X75699999Y-103438609D01*
X75699999Y-103438609D02*
X75699999Y-103533847D01*
X75699999Y-103533847D02*
X75223809Y-103629085D01*
X76271428Y-103962419D02*
X76176190Y-103914800D01*
X76176190Y-103914800D02*
X76128571Y-103819561D01*
X76128571Y-103819561D02*
X76128571Y-102962419D01*
X77033333Y-103914800D02*
X76938095Y-103962419D01*
X76938095Y-103962419D02*
X76747619Y-103962419D01*
X76747619Y-103962419D02*
X76652381Y-103914800D01*
X76652381Y-103914800D02*
X76604762Y-103819561D01*
X76604762Y-103819561D02*
X76604762Y-103438609D01*
X76604762Y-103438609D02*
X76652381Y-103343371D01*
X76652381Y-103343371D02*
X76747619Y-103295752D01*
X76747619Y-103295752D02*
X76938095Y-103295752D01*
X76938095Y-103295752D02*
X77033333Y-103343371D01*
X77033333Y-103343371D02*
X77080952Y-103438609D01*
X77080952Y-103438609D02*
X77080952Y-103533847D01*
X77080952Y-103533847D02*
X76604762Y-103629085D01*
X77938095Y-103914800D02*
X77842857Y-103962419D01*
X77842857Y-103962419D02*
X77652381Y-103962419D01*
X77652381Y-103962419D02*
X77557143Y-103914800D01*
X77557143Y-103914800D02*
X77509524Y-103867180D01*
X77509524Y-103867180D02*
X77461905Y-103771942D01*
X77461905Y-103771942D02*
X77461905Y-103486228D01*
X77461905Y-103486228D02*
X77509524Y-103390990D01*
X77509524Y-103390990D02*
X77557143Y-103343371D01*
X77557143Y-103343371D02*
X77652381Y-103295752D01*
X77652381Y-103295752D02*
X77842857Y-103295752D01*
X77842857Y-103295752D02*
X77938095Y-103343371D01*
X78223810Y-103295752D02*
X78604762Y-103295752D01*
X78366667Y-102962419D02*
X78366667Y-103819561D01*
X78366667Y-103819561D02*
X78414286Y-103914800D01*
X78414286Y-103914800D02*
X78509524Y-103962419D01*
X78509524Y-103962419D02*
X78604762Y-103962419D01*
X78938096Y-103962419D02*
X78938096Y-103295752D01*
X78938096Y-103486228D02*
X78985715Y-103390990D01*
X78985715Y-103390990D02*
X79033334Y-103343371D01*
X79033334Y-103343371D02*
X79128572Y-103295752D01*
X79128572Y-103295752D02*
X79223810Y-103295752D01*
X79700001Y-103962419D02*
X79604763Y-103914800D01*
X79604763Y-103914800D02*
X79557144Y-103867180D01*
X79557144Y-103867180D02*
X79509525Y-103771942D01*
X79509525Y-103771942D02*
X79509525Y-103486228D01*
X79509525Y-103486228D02*
X79557144Y-103390990D01*
X79557144Y-103390990D02*
X79604763Y-103343371D01*
X79604763Y-103343371D02*
X79700001Y-103295752D01*
X79700001Y-103295752D02*
X79842858Y-103295752D01*
X79842858Y-103295752D02*
X79938096Y-103343371D01*
X79938096Y-103343371D02*
X79985715Y-103390990D01*
X79985715Y-103390990D02*
X80033334Y-103486228D01*
X80033334Y-103486228D02*
X80033334Y-103771942D01*
X80033334Y-103771942D02*
X79985715Y-103867180D01*
X79985715Y-103867180D02*
X79938096Y-103914800D01*
X79938096Y-103914800D02*
X79842858Y-103962419D01*
X79842858Y-103962419D02*
X79700001Y-103962419D01*
X80461906Y-103962419D02*
X80461906Y-103295752D01*
X80461906Y-103390990D02*
X80509525Y-103343371D01*
X80509525Y-103343371D02*
X80604763Y-103295752D01*
X80604763Y-103295752D02*
X80747620Y-103295752D01*
X80747620Y-103295752D02*
X80842858Y-103343371D01*
X80842858Y-103343371D02*
X80890477Y-103438609D01*
X80890477Y-103438609D02*
X80890477Y-103962419D01*
X80890477Y-103438609D02*
X80938096Y-103343371D01*
X80938096Y-103343371D02*
X81033334Y-103295752D01*
X81033334Y-103295752D02*
X81176191Y-103295752D01*
X81176191Y-103295752D02*
X81271430Y-103343371D01*
X81271430Y-103343371D02*
X81319049Y-103438609D01*
X81319049Y-103438609D02*
X81319049Y-103962419D01*
X82223810Y-103295752D02*
X82223810Y-103962419D01*
X81795239Y-103295752D02*
X81795239Y-103819561D01*
X81795239Y-103819561D02*
X81842858Y-103914800D01*
X81842858Y-103914800D02*
X81938096Y-103962419D01*
X81938096Y-103962419D02*
X82080953Y-103962419D01*
X82080953Y-103962419D02*
X82176191Y-103914800D01*
X82176191Y-103914800D02*
X82223810Y-103867180D01*
X82652382Y-103914800D02*
X82747620Y-103962419D01*
X82747620Y-103962419D02*
X82938096Y-103962419D01*
X82938096Y-103962419D02*
X83033334Y-103914800D01*
X83033334Y-103914800D02*
X83080953Y-103819561D01*
X83080953Y-103819561D02*
X83080953Y-103771942D01*
X83080953Y-103771942D02*
X83033334Y-103676704D01*
X83033334Y-103676704D02*
X82938096Y-103629085D01*
X82938096Y-103629085D02*
X82795239Y-103629085D01*
X82795239Y-103629085D02*
X82700001Y-103581466D01*
X82700001Y-103581466D02*
X82652382Y-103486228D01*
X82652382Y-103486228D02*
X82652382Y-103438609D01*
X82652382Y-103438609D02*
X82700001Y-103343371D01*
X82700001Y-103343371D02*
X82795239Y-103295752D01*
X82795239Y-103295752D02*
X82938096Y-103295752D01*
X82938096Y-103295752D02*
X83033334Y-103343371D01*
X83509525Y-103962419D02*
X83509525Y-103295752D01*
X83509525Y-102962419D02*
X83461906Y-103010038D01*
X83461906Y-103010038D02*
X83509525Y-103057657D01*
X83509525Y-103057657D02*
X83557144Y-103010038D01*
X83557144Y-103010038D02*
X83509525Y-102962419D01*
X83509525Y-102962419D02*
X83509525Y-103057657D01*
X84414286Y-103914800D02*
X84319048Y-103962419D01*
X84319048Y-103962419D02*
X84128572Y-103962419D01*
X84128572Y-103962419D02*
X84033334Y-103914800D01*
X84033334Y-103914800D02*
X83985715Y-103867180D01*
X83985715Y-103867180D02*
X83938096Y-103771942D01*
X83938096Y-103771942D02*
X83938096Y-103486228D01*
X83938096Y-103486228D02*
X83985715Y-103390990D01*
X83985715Y-103390990D02*
X84033334Y-103343371D01*
X84033334Y-103343371D02*
X84128572Y-103295752D01*
X84128572Y-103295752D02*
X84319048Y-103295752D01*
X84319048Y-103295752D02*
X84414286Y-103343371D01*
X85557143Y-102914800D02*
X84700001Y-104200514D01*
X85890477Y-103962419D02*
X85890477Y-102962419D01*
X85890477Y-102962419D02*
X86271429Y-102962419D01*
X86271429Y-102962419D02*
X86366667Y-103010038D01*
X86366667Y-103010038D02*
X86414286Y-103057657D01*
X86414286Y-103057657D02*
X86461905Y-103152895D01*
X86461905Y-103152895D02*
X86461905Y-103295752D01*
X86461905Y-103295752D02*
X86414286Y-103390990D01*
X86414286Y-103390990D02*
X86366667Y-103438609D01*
X86366667Y-103438609D02*
X86271429Y-103486228D01*
X86271429Y-103486228D02*
X85890477Y-103486228D01*
X86890477Y-103962419D02*
X86890477Y-102962419D01*
X86890477Y-102962419D02*
X87128572Y-102962419D01*
X87128572Y-102962419D02*
X87271429Y-103010038D01*
X87271429Y-103010038D02*
X87366667Y-103105276D01*
X87366667Y-103105276D02*
X87414286Y-103200514D01*
X87414286Y-103200514D02*
X87461905Y-103390990D01*
X87461905Y-103390990D02*
X87461905Y-103533847D01*
X87461905Y-103533847D02*
X87414286Y-103724323D01*
X87414286Y-103724323D02*
X87366667Y-103819561D01*
X87366667Y-103819561D02*
X87271429Y-103914800D01*
X87271429Y-103914800D02*
X87128572Y-103962419D01*
X87128572Y-103962419D02*
X86890477Y-103962419D01*
X87842858Y-103914800D02*
X87985715Y-103962419D01*
X87985715Y-103962419D02*
X88223810Y-103962419D01*
X88223810Y-103962419D02*
X88319048Y-103914800D01*
X88319048Y-103914800D02*
X88366667Y-103867180D01*
X88366667Y-103867180D02*
X88414286Y-103771942D01*
X88414286Y-103771942D02*
X88414286Y-103676704D01*
X88414286Y-103676704D02*
X88366667Y-103581466D01*
X88366667Y-103581466D02*
X88319048Y-103533847D01*
X88319048Y-103533847D02*
X88223810Y-103486228D01*
X88223810Y-103486228D02*
X88033334Y-103438609D01*
X88033334Y-103438609D02*
X87938096Y-103390990D01*
X87938096Y-103390990D02*
X87890477Y-103343371D01*
X87890477Y-103343371D02*
X87842858Y-103248133D01*
X87842858Y-103248133D02*
X87842858Y-103152895D01*
X87842858Y-103152895D02*
X87890477Y-103057657D01*
X87890477Y-103057657D02*
X87938096Y-103010038D01*
X87938096Y-103010038D02*
X88033334Y-102962419D01*
X88033334Y-102962419D02*
X88271429Y-102962419D01*
X88271429Y-102962419D02*
X88414286Y-103010038D01*
X88604763Y-104057657D02*
X89366667Y-104057657D01*
X90176191Y-103962419D02*
X89842858Y-103486228D01*
X89604763Y-103962419D02*
X89604763Y-102962419D01*
X89604763Y-102962419D02*
X89985715Y-102962419D01*
X89985715Y-102962419D02*
X90080953Y-103010038D01*
X90080953Y-103010038D02*
X90128572Y-103057657D01*
X90128572Y-103057657D02*
X90176191Y-103152895D01*
X90176191Y-103152895D02*
X90176191Y-103295752D01*
X90176191Y-103295752D02*
X90128572Y-103390990D01*
X90128572Y-103390990D02*
X90080953Y-103438609D01*
X90080953Y-103438609D02*
X89985715Y-103486228D01*
X89985715Y-103486228D02*
X89604763Y-103486228D01*
X90985715Y-103914800D02*
X90890477Y-103962419D01*
X90890477Y-103962419D02*
X90700001Y-103962419D01*
X90700001Y-103962419D02*
X90604763Y-103914800D01*
X90604763Y-103914800D02*
X90557144Y-103819561D01*
X90557144Y-103819561D02*
X90557144Y-103438609D01*
X90557144Y-103438609D02*
X90604763Y-103343371D01*
X90604763Y-103343371D02*
X90700001Y-103295752D01*
X90700001Y-103295752D02*
X90890477Y-103295752D01*
X90890477Y-103295752D02*
X90985715Y-103343371D01*
X90985715Y-103343371D02*
X91033334Y-103438609D01*
X91033334Y-103438609D02*
X91033334Y-103533847D01*
X91033334Y-103533847D02*
X90557144Y-103629085D01*
X91461906Y-103962419D02*
X91461906Y-103295752D01*
X91461906Y-103390990D02*
X91509525Y-103343371D01*
X91509525Y-103343371D02*
X91604763Y-103295752D01*
X91604763Y-103295752D02*
X91747620Y-103295752D01*
X91747620Y-103295752D02*
X91842858Y-103343371D01*
X91842858Y-103343371D02*
X91890477Y-103438609D01*
X91890477Y-103438609D02*
X91890477Y-103962419D01*
X91890477Y-103438609D02*
X91938096Y-103343371D01*
X91938096Y-103343371D02*
X92033334Y-103295752D01*
X92033334Y-103295752D02*
X92176191Y-103295752D01*
X92176191Y-103295752D02*
X92271430Y-103343371D01*
X92271430Y-103343371D02*
X92319049Y-103438609D01*
X92319049Y-103438609D02*
X92319049Y-103962419D01*
X93223810Y-103962419D02*
X93223810Y-103438609D01*
X93223810Y-103438609D02*
X93176191Y-103343371D01*
X93176191Y-103343371D02*
X93080953Y-103295752D01*
X93080953Y-103295752D02*
X92890477Y-103295752D01*
X92890477Y-103295752D02*
X92795239Y-103343371D01*
X93223810Y-103914800D02*
X93128572Y-103962419D01*
X93128572Y-103962419D02*
X92890477Y-103962419D01*
X92890477Y-103962419D02*
X92795239Y-103914800D01*
X92795239Y-103914800D02*
X92747620Y-103819561D01*
X92747620Y-103819561D02*
X92747620Y-103724323D01*
X92747620Y-103724323D02*
X92795239Y-103629085D01*
X92795239Y-103629085D02*
X92890477Y-103581466D01*
X92890477Y-103581466D02*
X93128572Y-103581466D01*
X93128572Y-103581466D02*
X93223810Y-103533847D01*
X93700001Y-103962419D02*
X93700001Y-102962419D01*
X93795239Y-103581466D02*
X94080953Y-103962419D01*
X94080953Y-103295752D02*
X93700001Y-103676704D01*
X94890477Y-103914800D02*
X94795239Y-103962419D01*
X94795239Y-103962419D02*
X94604763Y-103962419D01*
X94604763Y-103962419D02*
X94509525Y-103914800D01*
X94509525Y-103914800D02*
X94461906Y-103819561D01*
X94461906Y-103819561D02*
X94461906Y-103438609D01*
X94461906Y-103438609D02*
X94509525Y-103343371D01*
X94509525Y-103343371D02*
X94604763Y-103295752D01*
X94604763Y-103295752D02*
X94795239Y-103295752D01*
X94795239Y-103295752D02*
X94890477Y-103343371D01*
X94890477Y-103343371D02*
X94938096Y-103438609D01*
X94938096Y-103438609D02*
X94938096Y-103533847D01*
X94938096Y-103533847D02*
X94461906Y-103629085D01*
X70104762Y-104905696D02*
X70342857Y-105572363D01*
X70342857Y-105572363D02*
X70580952Y-104905696D01*
X71152381Y-104572363D02*
X71247619Y-104572363D01*
X71247619Y-104572363D02*
X71342857Y-104619982D01*
X71342857Y-104619982D02*
X71390476Y-104667601D01*
X71390476Y-104667601D02*
X71438095Y-104762839D01*
X71438095Y-104762839D02*
X71485714Y-104953315D01*
X71485714Y-104953315D02*
X71485714Y-105191410D01*
X71485714Y-105191410D02*
X71438095Y-105381886D01*
X71438095Y-105381886D02*
X71390476Y-105477124D01*
X71390476Y-105477124D02*
X71342857Y-105524744D01*
X71342857Y-105524744D02*
X71247619Y-105572363D01*
X71247619Y-105572363D02*
X71152381Y-105572363D01*
X71152381Y-105572363D02*
X71057143Y-105524744D01*
X71057143Y-105524744D02*
X71009524Y-105477124D01*
X71009524Y-105477124D02*
X70961905Y-105381886D01*
X70961905Y-105381886D02*
X70914286Y-105191410D01*
X70914286Y-105191410D02*
X70914286Y-104953315D01*
X70914286Y-104953315D02*
X70961905Y-104762839D01*
X70961905Y-104762839D02*
X71009524Y-104667601D01*
X71009524Y-104667601D02*
X71057143Y-104619982D01*
X71057143Y-104619982D02*
X71152381Y-104572363D01*
X71914286Y-105477124D02*
X71961905Y-105524744D01*
X71961905Y-105524744D02*
X71914286Y-105572363D01*
X71914286Y-105572363D02*
X71866667Y-105524744D01*
X71866667Y-105524744D02*
X71914286Y-105477124D01*
X71914286Y-105477124D02*
X71914286Y-105572363D01*
X72914285Y-105572363D02*
X72342857Y-105572363D01*
X72628571Y-105572363D02*
X72628571Y-104572363D01*
X72628571Y-104572363D02*
X72533333Y-104715220D01*
X72533333Y-104715220D02*
X72438095Y-104810458D01*
X72438095Y-104810458D02*
X72342857Y-104858077D01*
X74104762Y-105572363D02*
X74104762Y-104572363D01*
X74676190Y-105572363D02*
X74247619Y-105000934D01*
X74676190Y-104572363D02*
X74104762Y-105143791D01*
X75485714Y-105524744D02*
X75390476Y-105572363D01*
X75390476Y-105572363D02*
X75200000Y-105572363D01*
X75200000Y-105572363D02*
X75104762Y-105524744D01*
X75104762Y-105524744D02*
X75057143Y-105429505D01*
X75057143Y-105429505D02*
X75057143Y-105048553D01*
X75057143Y-105048553D02*
X75104762Y-104953315D01*
X75104762Y-104953315D02*
X75200000Y-104905696D01*
X75200000Y-104905696D02*
X75390476Y-104905696D01*
X75390476Y-104905696D02*
X75485714Y-104953315D01*
X75485714Y-104953315D02*
X75533333Y-105048553D01*
X75533333Y-105048553D02*
X75533333Y-105143791D01*
X75533333Y-105143791D02*
X75057143Y-105239029D01*
X75866667Y-104905696D02*
X76104762Y-105572363D01*
X76104762Y-105572363D02*
X76342857Y-104905696D01*
X76723810Y-105572363D02*
X76723810Y-104905696D01*
X76723810Y-104572363D02*
X76676191Y-104619982D01*
X76676191Y-104619982D02*
X76723810Y-104667601D01*
X76723810Y-104667601D02*
X76771429Y-104619982D01*
X76771429Y-104619982D02*
X76723810Y-104572363D01*
X76723810Y-104572363D02*
X76723810Y-104667601D01*
X77200000Y-104905696D02*
X77200000Y-105572363D01*
X77200000Y-105000934D02*
X77247619Y-104953315D01*
X77247619Y-104953315D02*
X77342857Y-104905696D01*
X77342857Y-104905696D02*
X77485714Y-104905696D01*
X77485714Y-104905696D02*
X77580952Y-104953315D01*
X77580952Y-104953315D02*
X77628571Y-105048553D01*
X77628571Y-105048553D02*
X77628571Y-105572363D01*
X78819048Y-104667601D02*
X78866667Y-104619982D01*
X78866667Y-104619982D02*
X78961905Y-104572363D01*
X78961905Y-104572363D02*
X79200000Y-104572363D01*
X79200000Y-104572363D02*
X79295238Y-104619982D01*
X79295238Y-104619982D02*
X79342857Y-104667601D01*
X79342857Y-104667601D02*
X79390476Y-104762839D01*
X79390476Y-104762839D02*
X79390476Y-104858077D01*
X79390476Y-104858077D02*
X79342857Y-105000934D01*
X79342857Y-105000934D02*
X78771429Y-105572363D01*
X78771429Y-105572363D02*
X79390476Y-105572363D01*
X80009524Y-104572363D02*
X80104762Y-104572363D01*
X80104762Y-104572363D02*
X80200000Y-104619982D01*
X80200000Y-104619982D02*
X80247619Y-104667601D01*
X80247619Y-104667601D02*
X80295238Y-104762839D01*
X80295238Y-104762839D02*
X80342857Y-104953315D01*
X80342857Y-104953315D02*
X80342857Y-105191410D01*
X80342857Y-105191410D02*
X80295238Y-105381886D01*
X80295238Y-105381886D02*
X80247619Y-105477124D01*
X80247619Y-105477124D02*
X80200000Y-105524744D01*
X80200000Y-105524744D02*
X80104762Y-105572363D01*
X80104762Y-105572363D02*
X80009524Y-105572363D01*
X80009524Y-105572363D02*
X79914286Y-105524744D01*
X79914286Y-105524744D02*
X79866667Y-105477124D01*
X79866667Y-105477124D02*
X79819048Y-105381886D01*
X79819048Y-105381886D02*
X79771429Y-105191410D01*
X79771429Y-105191410D02*
X79771429Y-104953315D01*
X79771429Y-104953315D02*
X79819048Y-104762839D01*
X79819048Y-104762839D02*
X79866667Y-104667601D01*
X79866667Y-104667601D02*
X79914286Y-104619982D01*
X79914286Y-104619982D02*
X80009524Y-104572363D01*
X80723810Y-104667601D02*
X80771429Y-104619982D01*
X80771429Y-104619982D02*
X80866667Y-104572363D01*
X80866667Y-104572363D02*
X81104762Y-104572363D01*
X81104762Y-104572363D02*
X81200000Y-104619982D01*
X81200000Y-104619982D02*
X81247619Y-104667601D01*
X81247619Y-104667601D02*
X81295238Y-104762839D01*
X81295238Y-104762839D02*
X81295238Y-104858077D01*
X81295238Y-104858077D02*
X81247619Y-105000934D01*
X81247619Y-105000934D02*
X80676191Y-105572363D01*
X80676191Y-105572363D02*
X81295238Y-105572363D01*
X82152381Y-104572363D02*
X81961905Y-104572363D01*
X81961905Y-104572363D02*
X81866667Y-104619982D01*
X81866667Y-104619982D02*
X81819048Y-104667601D01*
X81819048Y-104667601D02*
X81723810Y-104810458D01*
X81723810Y-104810458D02*
X81676191Y-105000934D01*
X81676191Y-105000934D02*
X81676191Y-105381886D01*
X81676191Y-105381886D02*
X81723810Y-105477124D01*
X81723810Y-105477124D02*
X81771429Y-105524744D01*
X81771429Y-105524744D02*
X81866667Y-105572363D01*
X81866667Y-105572363D02*
X82057143Y-105572363D01*
X82057143Y-105572363D02*
X82152381Y-105524744D01*
X82152381Y-105524744D02*
X82200000Y-105477124D01*
X82200000Y-105477124D02*
X82247619Y-105381886D01*
X82247619Y-105381886D02*
X82247619Y-105143791D01*
X82247619Y-105143791D02*
X82200000Y-105048553D01*
X82200000Y-105048553D02*
X82152381Y-105000934D01*
X82152381Y-105000934D02*
X82057143Y-104953315D01*
X82057143Y-104953315D02*
X81866667Y-104953315D01*
X81866667Y-104953315D02*
X81771429Y-105000934D01*
X81771429Y-105000934D02*
X81723810Y-105048553D01*
X81723810Y-105048553D02*
X81676191Y-105143791D01*
D11*
X92607143Y-68034819D02*
X93273809Y-68034819D01*
X93273809Y-68034819D02*
X92845238Y-69034819D01*
X94083333Y-68368152D02*
X94083333Y-69034819D01*
X93845238Y-67987200D02*
X93607143Y-68701485D01*
X93607143Y-68701485D02*
X94226190Y-68701485D01*
X95083333Y-69034819D02*
X94607143Y-69034819D01*
X94607143Y-69034819D02*
X94607143Y-68034819D01*
X95369048Y-68987200D02*
X95511905Y-69034819D01*
X95511905Y-69034819D02*
X95750000Y-69034819D01*
X95750000Y-69034819D02*
X95845238Y-68987200D01*
X95845238Y-68987200D02*
X95892857Y-68939580D01*
X95892857Y-68939580D02*
X95940476Y-68844342D01*
X95940476Y-68844342D02*
X95940476Y-68749104D01*
X95940476Y-68749104D02*
X95892857Y-68653866D01*
X95892857Y-68653866D02*
X95845238Y-68606247D01*
X95845238Y-68606247D02*
X95750000Y-68558628D01*
X95750000Y-68558628D02*
X95559524Y-68511009D01*
X95559524Y-68511009D02*
X95464286Y-68463390D01*
X95464286Y-68463390D02*
X95416667Y-68415771D01*
X95416667Y-68415771D02*
X95369048Y-68320533D01*
X95369048Y-68320533D02*
X95369048Y-68225295D01*
X95369048Y-68225295D02*
X95416667Y-68130057D01*
X95416667Y-68130057D02*
X95464286Y-68082438D01*
X95464286Y-68082438D02*
X95559524Y-68034819D01*
X95559524Y-68034819D02*
X95797619Y-68034819D01*
X95797619Y-68034819D02*
X95940476Y-68082438D01*
X96559524Y-68034819D02*
X96654762Y-68034819D01*
X96654762Y-68034819D02*
X96750000Y-68082438D01*
X96750000Y-68082438D02*
X96797619Y-68130057D01*
X96797619Y-68130057D02*
X96845238Y-68225295D01*
X96845238Y-68225295D02*
X96892857Y-68415771D01*
X96892857Y-68415771D02*
X96892857Y-68653866D01*
X96892857Y-68653866D02*
X96845238Y-68844342D01*
X96845238Y-68844342D02*
X96797619Y-68939580D01*
X96797619Y-68939580D02*
X96750000Y-68987200D01*
X96750000Y-68987200D02*
X96654762Y-69034819D01*
X96654762Y-69034819D02*
X96559524Y-69034819D01*
X96559524Y-69034819D02*
X96464286Y-68987200D01*
X96464286Y-68987200D02*
X96416667Y-68939580D01*
X96416667Y-68939580D02*
X96369048Y-68844342D01*
X96369048Y-68844342D02*
X96321429Y-68653866D01*
X96321429Y-68653866D02*
X96321429Y-68415771D01*
X96321429Y-68415771D02*
X96369048Y-68225295D01*
X96369048Y-68225295D02*
X96416667Y-68130057D01*
X96416667Y-68130057D02*
X96464286Y-68082438D01*
X96464286Y-68082438D02*
X96559524Y-68034819D01*
X97750000Y-68368152D02*
X97750000Y-69034819D01*
X97511905Y-67987200D02*
X97273810Y-68701485D01*
X97273810Y-68701485D02*
X97892857Y-68701485D01*
X113482618Y-51594819D02*
X113149285Y-51118628D01*
X112911190Y-51594819D02*
X112911190Y-50594819D01*
X112911190Y-50594819D02*
X113292142Y-50594819D01*
X113292142Y-50594819D02*
X113387380Y-50642438D01*
X113387380Y-50642438D02*
X113434999Y-50690057D01*
X113434999Y-50690057D02*
X113482618Y-50785295D01*
X113482618Y-50785295D02*
X113482618Y-50928152D01*
X113482618Y-50928152D02*
X113434999Y-51023390D01*
X113434999Y-51023390D02*
X113387380Y-51071009D01*
X113387380Y-51071009D02*
X113292142Y-51118628D01*
X113292142Y-51118628D02*
X112911190Y-51118628D01*
X113911190Y-51071009D02*
X114244523Y-51071009D01*
X114387380Y-51594819D02*
X113911190Y-51594819D01*
X113911190Y-51594819D02*
X113911190Y-50594819D01*
X113911190Y-50594819D02*
X114387380Y-50594819D01*
X114768333Y-51547200D02*
X114911190Y-51594819D01*
X114911190Y-51594819D02*
X115149285Y-51594819D01*
X115149285Y-51594819D02*
X115244523Y-51547200D01*
X115244523Y-51547200D02*
X115292142Y-51499580D01*
X115292142Y-51499580D02*
X115339761Y-51404342D01*
X115339761Y-51404342D02*
X115339761Y-51309104D01*
X115339761Y-51309104D02*
X115292142Y-51213866D01*
X115292142Y-51213866D02*
X115244523Y-51166247D01*
X115244523Y-51166247D02*
X115149285Y-51118628D01*
X115149285Y-51118628D02*
X114958809Y-51071009D01*
X114958809Y-51071009D02*
X114863571Y-51023390D01*
X114863571Y-51023390D02*
X114815952Y-50975771D01*
X114815952Y-50975771D02*
X114768333Y-50880533D01*
X114768333Y-50880533D02*
X114768333Y-50785295D01*
X114768333Y-50785295D02*
X114815952Y-50690057D01*
X114815952Y-50690057D02*
X114863571Y-50642438D01*
X114863571Y-50642438D02*
X114958809Y-50594819D01*
X114958809Y-50594819D02*
X115196904Y-50594819D01*
X115196904Y-50594819D02*
X115339761Y-50642438D01*
X115768333Y-51071009D02*
X116101666Y-51071009D01*
X116244523Y-51594819D02*
X115768333Y-51594819D01*
X115768333Y-51594819D02*
X115768333Y-50594819D01*
X115768333Y-50594819D02*
X116244523Y-50594819D01*
X116530238Y-50594819D02*
X117101666Y-50594819D01*
X116815952Y-51594819D02*
X116815952Y-50594819D01*
X76124048Y-84544819D02*
X76790714Y-84544819D01*
X76790714Y-84544819D02*
X76124048Y-85544819D01*
X76124048Y-85544819D02*
X76790714Y-85544819D01*
X77314524Y-84973390D02*
X77219286Y-84925771D01*
X77219286Y-84925771D02*
X77171667Y-84878152D01*
X77171667Y-84878152D02*
X77124048Y-84782914D01*
X77124048Y-84782914D02*
X77124048Y-84735295D01*
X77124048Y-84735295D02*
X77171667Y-84640057D01*
X77171667Y-84640057D02*
X77219286Y-84592438D01*
X77219286Y-84592438D02*
X77314524Y-84544819D01*
X77314524Y-84544819D02*
X77505000Y-84544819D01*
X77505000Y-84544819D02*
X77600238Y-84592438D01*
X77600238Y-84592438D02*
X77647857Y-84640057D01*
X77647857Y-84640057D02*
X77695476Y-84735295D01*
X77695476Y-84735295D02*
X77695476Y-84782914D01*
X77695476Y-84782914D02*
X77647857Y-84878152D01*
X77647857Y-84878152D02*
X77600238Y-84925771D01*
X77600238Y-84925771D02*
X77505000Y-84973390D01*
X77505000Y-84973390D02*
X77314524Y-84973390D01*
X77314524Y-84973390D02*
X77219286Y-85021009D01*
X77219286Y-85021009D02*
X77171667Y-85068628D01*
X77171667Y-85068628D02*
X77124048Y-85163866D01*
X77124048Y-85163866D02*
X77124048Y-85354342D01*
X77124048Y-85354342D02*
X77171667Y-85449580D01*
X77171667Y-85449580D02*
X77219286Y-85497200D01*
X77219286Y-85497200D02*
X77314524Y-85544819D01*
X77314524Y-85544819D02*
X77505000Y-85544819D01*
X77505000Y-85544819D02*
X77600238Y-85497200D01*
X77600238Y-85497200D02*
X77647857Y-85449580D01*
X77647857Y-85449580D02*
X77695476Y-85354342D01*
X77695476Y-85354342D02*
X77695476Y-85163866D01*
X77695476Y-85163866D02*
X77647857Y-85068628D01*
X77647857Y-85068628D02*
X77600238Y-85021009D01*
X77600238Y-85021009D02*
X77505000Y-84973390D01*
X78552619Y-84878152D02*
X78552619Y-85544819D01*
X78314524Y-84497200D02*
X78076429Y-85211485D01*
X78076429Y-85211485D02*
X78695476Y-85211485D01*
X79028810Y-84640057D02*
X79076429Y-84592438D01*
X79076429Y-84592438D02*
X79171667Y-84544819D01*
X79171667Y-84544819D02*
X79409762Y-84544819D01*
X79409762Y-84544819D02*
X79505000Y-84592438D01*
X79505000Y-84592438D02*
X79552619Y-84640057D01*
X79552619Y-84640057D02*
X79600238Y-84735295D01*
X79600238Y-84735295D02*
X79600238Y-84830533D01*
X79600238Y-84830533D02*
X79552619Y-84973390D01*
X79552619Y-84973390D02*
X78981191Y-85544819D01*
X78981191Y-85544819D02*
X79600238Y-85544819D01*
X80219286Y-84544819D02*
X80314524Y-84544819D01*
X80314524Y-84544819D02*
X80409762Y-84592438D01*
X80409762Y-84592438D02*
X80457381Y-84640057D01*
X80457381Y-84640057D02*
X80505000Y-84735295D01*
X80505000Y-84735295D02*
X80552619Y-84925771D01*
X80552619Y-84925771D02*
X80552619Y-85163866D01*
X80552619Y-85163866D02*
X80505000Y-85354342D01*
X80505000Y-85354342D02*
X80457381Y-85449580D01*
X80457381Y-85449580D02*
X80409762Y-85497200D01*
X80409762Y-85497200D02*
X80314524Y-85544819D01*
X80314524Y-85544819D02*
X80219286Y-85544819D01*
X80219286Y-85544819D02*
X80124048Y-85497200D01*
X80124048Y-85497200D02*
X80076429Y-85449580D01*
X80076429Y-85449580D02*
X80028810Y-85354342D01*
X80028810Y-85354342D02*
X79981191Y-85163866D01*
X79981191Y-85163866D02*
X79981191Y-84925771D01*
X79981191Y-84925771D02*
X80028810Y-84735295D01*
X80028810Y-84735295D02*
X80076429Y-84640057D01*
X80076429Y-84640057D02*
X80124048Y-84592438D01*
X80124048Y-84592438D02*
X80219286Y-84544819D01*
X81743096Y-85544819D02*
X81743096Y-84544819D01*
X81743096Y-84544819D02*
X82124048Y-84544819D01*
X82124048Y-84544819D02*
X82219286Y-84592438D01*
X82219286Y-84592438D02*
X82266905Y-84640057D01*
X82266905Y-84640057D02*
X82314524Y-84735295D01*
X82314524Y-84735295D02*
X82314524Y-84878152D01*
X82314524Y-84878152D02*
X82266905Y-84973390D01*
X82266905Y-84973390D02*
X82219286Y-85021009D01*
X82219286Y-85021009D02*
X82124048Y-85068628D01*
X82124048Y-85068628D02*
X81743096Y-85068628D01*
X82743096Y-85544819D02*
X82743096Y-84544819D01*
X83409762Y-84544819D02*
X83600238Y-84544819D01*
X83600238Y-84544819D02*
X83695476Y-84592438D01*
X83695476Y-84592438D02*
X83790714Y-84687676D01*
X83790714Y-84687676D02*
X83838333Y-84878152D01*
X83838333Y-84878152D02*
X83838333Y-85211485D01*
X83838333Y-85211485D02*
X83790714Y-85401961D01*
X83790714Y-85401961D02*
X83695476Y-85497200D01*
X83695476Y-85497200D02*
X83600238Y-85544819D01*
X83600238Y-85544819D02*
X83409762Y-85544819D01*
X83409762Y-85544819D02*
X83314524Y-85497200D01*
X83314524Y-85497200D02*
X83219286Y-85401961D01*
X83219286Y-85401961D02*
X83171667Y-85211485D01*
X83171667Y-85211485D02*
X83171667Y-84878152D01*
X83171667Y-84878152D02*
X83219286Y-84687676D01*
X83219286Y-84687676D02*
X83314524Y-84592438D01*
X83314524Y-84592438D02*
X83409762Y-84544819D01*
X84179580Y-69508570D02*
X84227200Y-69460951D01*
X84227200Y-69460951D02*
X84274819Y-69508570D01*
X84274819Y-69508570D02*
X84227200Y-69556189D01*
X84227200Y-69556189D02*
X84179580Y-69508570D01*
X84179580Y-69508570D02*
X84274819Y-69508570D01*
X84274819Y-68508571D02*
X84274819Y-69079999D01*
X84274819Y-68794285D02*
X83274819Y-68794285D01*
X83274819Y-68794285D02*
X83417676Y-68889523D01*
X83417676Y-68889523D02*
X83512914Y-68984761D01*
X83512914Y-68984761D02*
X83560533Y-69079999D01*
X83608152Y-67651428D02*
X84274819Y-67651428D01*
X83608152Y-68079999D02*
X84131961Y-68079999D01*
X84131961Y-68079999D02*
X84227200Y-68032380D01*
X84227200Y-68032380D02*
X84274819Y-67937142D01*
X84274819Y-67937142D02*
X84274819Y-67794285D01*
X84274819Y-67794285D02*
X84227200Y-67699047D01*
X84227200Y-67699047D02*
X84179580Y-67651428D01*
X52429580Y-69508570D02*
X52477200Y-69460951D01*
X52477200Y-69460951D02*
X52524819Y-69508570D01*
X52524819Y-69508570D02*
X52477200Y-69556189D01*
X52477200Y-69556189D02*
X52429580Y-69508570D01*
X52429580Y-69508570D02*
X52524819Y-69508570D01*
X52524819Y-68508571D02*
X52524819Y-69079999D01*
X52524819Y-68794285D02*
X51524819Y-68794285D01*
X51524819Y-68794285D02*
X51667676Y-68889523D01*
X51667676Y-68889523D02*
X51762914Y-68984761D01*
X51762914Y-68984761D02*
X51810533Y-69079999D01*
X51858152Y-67651428D02*
X52524819Y-67651428D01*
X51858152Y-68079999D02*
X52381961Y-68079999D01*
X52381961Y-68079999D02*
X52477200Y-68032380D01*
X52477200Y-68032380D02*
X52524819Y-67937142D01*
X52524819Y-67937142D02*
X52524819Y-67794285D01*
X52524819Y-67794285D02*
X52477200Y-67699047D01*
X52477200Y-67699047D02*
X52429580Y-67651428D01*
X118564819Y-69270476D02*
X118564819Y-69841904D01*
X118564819Y-69556190D02*
X117564819Y-69556190D01*
X117564819Y-69556190D02*
X117707676Y-69651428D01*
X117707676Y-69651428D02*
X117802914Y-69746666D01*
X117802914Y-69746666D02*
X117850533Y-69841904D01*
X117564819Y-68651428D02*
X117564819Y-68556190D01*
X117564819Y-68556190D02*
X117612438Y-68460952D01*
X117612438Y-68460952D02*
X117660057Y-68413333D01*
X117660057Y-68413333D02*
X117755295Y-68365714D01*
X117755295Y-68365714D02*
X117945771Y-68318095D01*
X117945771Y-68318095D02*
X118183866Y-68318095D01*
X118183866Y-68318095D02*
X118374342Y-68365714D01*
X118374342Y-68365714D02*
X118469580Y-68413333D01*
X118469580Y-68413333D02*
X118517200Y-68460952D01*
X118517200Y-68460952D02*
X118564819Y-68556190D01*
X118564819Y-68556190D02*
X118564819Y-68651428D01*
X118564819Y-68651428D02*
X118517200Y-68746666D01*
X118517200Y-68746666D02*
X118469580Y-68794285D01*
X118469580Y-68794285D02*
X118374342Y-68841904D01*
X118374342Y-68841904D02*
X118183866Y-68889523D01*
X118183866Y-68889523D02*
X117945771Y-68889523D01*
X117945771Y-68889523D02*
X117755295Y-68841904D01*
X117755295Y-68841904D02*
X117660057Y-68794285D01*
X117660057Y-68794285D02*
X117612438Y-68746666D01*
X117612438Y-68746666D02*
X117564819Y-68651428D01*
X118564819Y-67889523D02*
X117564819Y-67889523D01*
X118564819Y-67318095D02*
X117993390Y-67746666D01*
X117564819Y-67318095D02*
X118136247Y-67889523D01*
X52429580Y-86018570D02*
X52477200Y-85970951D01*
X52477200Y-85970951D02*
X52524819Y-86018570D01*
X52524819Y-86018570D02*
X52477200Y-86066189D01*
X52477200Y-86066189D02*
X52429580Y-86018570D01*
X52429580Y-86018570D02*
X52524819Y-86018570D01*
X52524819Y-85018571D02*
X52524819Y-85589999D01*
X52524819Y-85304285D02*
X51524819Y-85304285D01*
X51524819Y-85304285D02*
X51667676Y-85399523D01*
X51667676Y-85399523D02*
X51762914Y-85494761D01*
X51762914Y-85494761D02*
X51810533Y-85589999D01*
X51858152Y-84161428D02*
X52524819Y-84161428D01*
X51858152Y-84589999D02*
X52381961Y-84589999D01*
X52381961Y-84589999D02*
X52477200Y-84542380D01*
X52477200Y-84542380D02*
X52524819Y-84447142D01*
X52524819Y-84447142D02*
X52524819Y-84304285D01*
X52524819Y-84304285D02*
X52477200Y-84209047D01*
X52477200Y-84209047D02*
X52429580Y-84161428D01*
X114754819Y-68794285D02*
X114754819Y-69365713D01*
X114754819Y-69079999D02*
X113754819Y-69079999D01*
X113754819Y-69079999D02*
X113897676Y-69175237D01*
X113897676Y-69175237D02*
X113992914Y-69270475D01*
X113992914Y-69270475D02*
X114040533Y-69365713D01*
X114754819Y-68365713D02*
X113754819Y-68365713D01*
X114754819Y-67794285D02*
X114183390Y-68222856D01*
X113754819Y-67794285D02*
X114326247Y-68365713D01*
X64190952Y-68034819D02*
X64857618Y-68034819D01*
X64857618Y-68034819D02*
X64429047Y-69034819D01*
X65667142Y-68368152D02*
X65667142Y-69034819D01*
X65429047Y-67987200D02*
X65190952Y-68701485D01*
X65190952Y-68701485D02*
X65809999Y-68701485D01*
X66667142Y-69034819D02*
X66190952Y-69034819D01*
X66190952Y-69034819D02*
X66190952Y-68034819D01*
X66952857Y-68987200D02*
X67095714Y-69034819D01*
X67095714Y-69034819D02*
X67333809Y-69034819D01*
X67333809Y-69034819D02*
X67429047Y-68987200D01*
X67429047Y-68987200D02*
X67476666Y-68939580D01*
X67476666Y-68939580D02*
X67524285Y-68844342D01*
X67524285Y-68844342D02*
X67524285Y-68749104D01*
X67524285Y-68749104D02*
X67476666Y-68653866D01*
X67476666Y-68653866D02*
X67429047Y-68606247D01*
X67429047Y-68606247D02*
X67333809Y-68558628D01*
X67333809Y-68558628D02*
X67143333Y-68511009D01*
X67143333Y-68511009D02*
X67048095Y-68463390D01*
X67048095Y-68463390D02*
X67000476Y-68415771D01*
X67000476Y-68415771D02*
X66952857Y-68320533D01*
X66952857Y-68320533D02*
X66952857Y-68225295D01*
X66952857Y-68225295D02*
X67000476Y-68130057D01*
X67000476Y-68130057D02*
X67048095Y-68082438D01*
X67048095Y-68082438D02*
X67143333Y-68034819D01*
X67143333Y-68034819D02*
X67381428Y-68034819D01*
X67381428Y-68034819D02*
X67524285Y-68082438D01*
X67905238Y-68130057D02*
X67952857Y-68082438D01*
X67952857Y-68082438D02*
X68048095Y-68034819D01*
X68048095Y-68034819D02*
X68286190Y-68034819D01*
X68286190Y-68034819D02*
X68381428Y-68082438D01*
X68381428Y-68082438D02*
X68429047Y-68130057D01*
X68429047Y-68130057D02*
X68476666Y-68225295D01*
X68476666Y-68225295D02*
X68476666Y-68320533D01*
X68476666Y-68320533D02*
X68429047Y-68463390D01*
X68429047Y-68463390D02*
X67857619Y-69034819D01*
X67857619Y-69034819D02*
X68476666Y-69034819D01*
X69333809Y-68368152D02*
X69333809Y-69034819D01*
X69095714Y-67987200D02*
X68857619Y-68701485D01*
X68857619Y-68701485D02*
X69476666Y-68701485D01*
X70333809Y-68034819D02*
X69857619Y-68034819D01*
X69857619Y-68034819D02*
X69810000Y-68511009D01*
X69810000Y-68511009D02*
X69857619Y-68463390D01*
X69857619Y-68463390D02*
X69952857Y-68415771D01*
X69952857Y-68415771D02*
X70190952Y-68415771D01*
X70190952Y-68415771D02*
X70286190Y-68463390D01*
X70286190Y-68463390D02*
X70333809Y-68511009D01*
X70333809Y-68511009D02*
X70381428Y-68606247D01*
X70381428Y-68606247D02*
X70381428Y-68844342D01*
X70381428Y-68844342D02*
X70333809Y-68939580D01*
X70333809Y-68939580D02*
X70286190Y-68987200D01*
X70286190Y-68987200D02*
X70190952Y-69034819D01*
X70190952Y-69034819D02*
X69952857Y-69034819D01*
X69952857Y-69034819D02*
X69857619Y-68987200D01*
X69857619Y-68987200D02*
X69810000Y-68939580D01*
X110278152Y-69365714D02*
X110944819Y-69365714D01*
X109897200Y-69603809D02*
X110611485Y-69841904D01*
X110611485Y-69841904D02*
X110611485Y-69222857D01*
X110944819Y-68841904D02*
X109944819Y-68841904D01*
X110944819Y-68270476D02*
X110373390Y-68699047D01*
X109944819Y-68270476D02*
X110516247Y-68841904D01*
X109944819Y-67937142D02*
X109944819Y-67270476D01*
X109944819Y-67270476D02*
X110944819Y-67699047D01*
D12*
%TO.C,U3*%
X86300000Y-65930000D02*
X86300000Y-67580000D01*
X86300000Y-69580000D02*
X86300000Y-71230000D01*
X86300000Y-71230000D02*
X104200000Y-71230000D01*
X104200000Y-65930000D02*
X86300000Y-65930000D01*
X104200000Y-71230000D02*
X104200000Y-65930000D01*
X86240000Y-73720000D02*
X104260000Y-73720000D01*
X104260000Y-63440000D01*
X86240000Y-63440000D01*
X86240000Y-73720000D01*
X86300000Y-67580000D02*
G75*
G02*
X86300000Y-69580000I0J-1000000D01*
G01*
%TO.C,J2*%
X51940000Y-51790000D02*
X80140000Y-51790000D01*
X51940000Y-60910000D02*
X51940000Y-51790000D01*
X53240000Y-53100000D02*
X63990000Y-53100000D01*
X53240000Y-59600000D02*
X53240000Y-53100000D01*
X63990000Y-53100000D02*
X63990000Y-51790000D01*
X68090000Y-51790000D02*
X68090000Y-53100000D01*
X68090000Y-53100000D02*
X78840000Y-53100000D01*
X74430000Y-50400000D02*
X74930000Y-51400000D01*
X74930000Y-51400000D02*
X75430000Y-50400000D01*
X75430000Y-50400000D02*
X74430000Y-50400000D01*
X78840000Y-53100000D02*
X78840000Y-59600000D01*
X78840000Y-59600000D02*
X53240000Y-59600000D01*
X80140000Y-51790000D02*
X80140000Y-60910000D01*
X80140000Y-60910000D02*
X51940000Y-60910000D01*
%TO.C,SW2*%
X96410000Y-57260000D02*
X96410000Y-55880000D01*
X97790000Y-57260000D02*
X96410000Y-57260000D01*
X99060000Y-54500000D02*
X104250000Y-54500000D01*
X99060000Y-57260000D02*
X99060000Y-54500000D01*
X99060000Y-57260000D02*
X104250000Y-57260000D01*
X104250000Y-57260000D02*
X104250000Y-54500000D01*
%TO.C,SW1*%
X111360000Y-54840000D02*
X111360000Y-56340000D01*
X112610000Y-58840000D02*
X117110000Y-58840000D01*
X117110000Y-52340000D02*
X112610000Y-52340000D01*
X118360000Y-56340000D02*
X118360000Y-54840000D01*
%TO.C,U1*%
X54550000Y-78630000D02*
X54550000Y-84090000D01*
X54550000Y-86090000D02*
X54550000Y-91550000D01*
X54550000Y-91550000D02*
X105470000Y-91550000D01*
X105470000Y-78630000D02*
X54550000Y-78630000D01*
X105470000Y-91550000D02*
X105470000Y-78630000D01*
X54490000Y-94040000D02*
X105530000Y-94040000D01*
X105530000Y-76140000D01*
X54490000Y-76140000D01*
X54490000Y-94040000D01*
X54550000Y-84090000D02*
G75*
G02*
X54550000Y-86090000I0J-1000000D01*
G01*
%TO.C,C3*%
X82750000Y-70850000D02*
X82750000Y-66310000D01*
X82806000Y-70850000D02*
X82750000Y-70850000D01*
X84834000Y-66310000D02*
X84890000Y-66310000D01*
X84890000Y-66310000D02*
X84890000Y-70850000D01*
%TO.C,C2*%
X51000000Y-70810000D02*
X51000000Y-66270000D01*
X51056000Y-70810000D02*
X51000000Y-70810000D01*
X53084000Y-66270000D02*
X53140000Y-66270000D01*
X53140000Y-66270000D02*
X53140000Y-70810000D01*
%TO.C,R1*%
X116740000Y-65310000D02*
X117070000Y-65310000D01*
X116740000Y-71850000D02*
X116740000Y-65310000D01*
X117070000Y-71850000D02*
X116740000Y-71850000D01*
X119150000Y-71850000D02*
X119480000Y-71850000D01*
X119480000Y-65310000D02*
X119150000Y-65310000D01*
X119480000Y-71850000D02*
X119480000Y-65310000D01*
%TO.C,C1*%
X51000000Y-87320000D02*
X51000000Y-82780000D01*
X51056000Y-87320000D02*
X51000000Y-87320000D01*
X53084000Y-82780000D02*
X53140000Y-82780000D01*
X53140000Y-82780000D02*
X53140000Y-87320000D01*
%TO.C,R2*%
X112930000Y-65310000D02*
X113260000Y-65310000D01*
X112930000Y-71850000D02*
X112930000Y-65310000D01*
X113260000Y-71850000D02*
X112930000Y-71850000D01*
X115340000Y-71850000D02*
X115670000Y-71850000D01*
X115670000Y-65310000D02*
X115340000Y-65310000D01*
X115670000Y-71850000D02*
X115670000Y-65310000D01*
%TO.C,U2*%
X54550000Y-65930000D02*
X54550000Y-67580000D01*
X54550000Y-69580000D02*
X54550000Y-71230000D01*
X54550000Y-71230000D02*
X80070000Y-71230000D01*
X80070000Y-65930000D02*
X54550000Y-65930000D01*
X80070000Y-71230000D02*
X80070000Y-65930000D01*
X54490000Y-73720000D02*
X80130000Y-73720000D01*
X80130000Y-63440000D01*
X54490000Y-63440000D01*
X54490000Y-73720000D01*
X54550000Y-67580000D02*
G75*
G02*
X54550000Y-69580000I0J-1000000D01*
G01*
%TO.C,R3*%
X109120000Y-65310000D02*
X109450000Y-65310000D01*
X109120000Y-71850000D02*
X109120000Y-65310000D01*
X109450000Y-71850000D02*
X109120000Y-71850000D01*
X111530000Y-71850000D02*
X111860000Y-71850000D01*
X111860000Y-65310000D02*
X111530000Y-65310000D01*
X111860000Y-71850000D02*
X111860000Y-65310000D01*
%TD*%
M02*
