M48
; DRILL file {KiCad 9.0.7} date 2026-05-03T21:26:10+0100
; FORMAT={-:-/ absolute / metric / decimal}
; #@! TF.CreationDate,2026-05-03T21:26:10+01:00
; #@! TF.GenerationSoftware,Kicad,Pcbnew,9.0.7
; #@! TF.FileFunction,MixedPlating,1,2
FMAT,2
METRIC
; #@! TA.AperFunction,Plated,PTH,ViaDrill
T1C0.300
; #@! TA.AperFunction,Plated,PTH,ComponentDrill
T2C0.800
; #@! TA.AperFunction,Plated,PTH,ComponentDrill
T3C1.000
; #@! TA.AperFunction,Plated,PTH,ComponentDrill
T4C1.100
%
G90
G05
T1
X72.39Y-70.485
X92.075Y-81.28
X92.075Y-99.06
X92.075Y-100.33
X92.075Y-101.6
T2
X52.07Y-66.04
X52.07Y-71.04
X52.07Y-82.55
X52.07Y-87.55
X55.88Y-64.77
X55.88Y-72.39
X55.88Y-77.47
X55.88Y-92.71
X58.42Y-64.77
X58.42Y-72.39
X58.42Y-77.47
X58.42Y-92.71
X60.96Y-64.77
X60.96Y-72.39
X60.96Y-77.47
X60.96Y-92.71
X63.5Y-64.77
X63.5Y-72.39
X63.5Y-77.47
X63.5Y-92.71
X66.04Y-64.77
X66.04Y-72.39
X66.04Y-77.47
X66.04Y-92.71
X68.58Y-64.77
X68.58Y-72.39
X68.58Y-77.47
X68.58Y-92.71
X71.12Y-64.77
X71.12Y-72.39
X71.12Y-77.47
X71.12Y-92.71
X73.66Y-64.77
X73.66Y-72.39
X73.66Y-77.47
X73.66Y-92.71
X76.2Y-64.77
X76.2Y-72.39
X76.2Y-77.47
X76.2Y-92.71
X78.74Y-64.77
X78.74Y-72.39
X78.74Y-77.47
X78.74Y-92.71
X81.28Y-77.47
X81.28Y-92.71
X83.82Y-66.08
X83.82Y-71.08
X83.82Y-77.47
X83.82Y-92.71
X86.36Y-77.47
X86.36Y-92.71
X87.63Y-64.77
X87.63Y-72.39
X88.9Y-77.47
X88.9Y-92.71
X90.17Y-64.77
X90.17Y-72.39
X91.44Y-77.47
X91.44Y-92.71
X92.71Y-64.77
X92.71Y-72.39
X93.98Y-77.47
X93.98Y-92.71
X95.25Y-64.77
X95.25Y-72.39
X96.52Y-77.47
X96.52Y-92.71
X97.79Y-64.77
X97.79Y-72.39
X99.06Y-77.47
X99.06Y-92.71
X100.33Y-64.77
X100.33Y-72.39
X101.6Y-77.47
X101.6Y-92.71
X102.87Y-64.77
X102.87Y-72.39
X104.14Y-77.47
X104.14Y-92.71
X110.49Y-64.77
X110.49Y-72.39
X114.3Y-64.77
X114.3Y-72.39
X118.11Y-64.77
X118.11Y-72.39
T3
X52.54Y-112.46
X52.54Y-117.54
X55.08Y-112.46
X55.08Y-117.54
X57.15Y-55.08
X57.15Y-57.62
X57.62Y-112.46
X57.62Y-117.54
X59.69Y-55.08
X59.69Y-57.62
X60.16Y-112.46
X60.16Y-117.54
X62.23Y-55.08
X62.23Y-57.62
X64.77Y-55.08
X64.77Y-57.62
X65.24Y-112.46
X65.24Y-117.54
X67.31Y-55.08
X67.31Y-57.62
X67.78Y-112.46
X67.78Y-117.54
X69.85Y-55.08
X69.85Y-57.62
X70.32Y-112.46
X70.32Y-117.54
X72.39Y-55.08
X72.39Y-57.62
X72.86Y-112.46
X72.86Y-117.54
X74.93Y-55.08
X74.93Y-57.62
X75.4Y-112.46
X75.4Y-117.54
X77.94Y-112.46
X77.94Y-117.54
X80.48Y-112.46
X80.48Y-117.54
X83.02Y-112.46
X83.02Y-117.54
X85.56Y-112.46
X85.56Y-117.54
X86.36Y-54.61
X86.36Y-59.69
X88.1Y-112.46
X88.1Y-117.54
X90.17Y-54.61
X90.17Y-59.69
X90.64Y-112.46
X90.64Y-117.54
X93.18Y-112.46
X93.18Y-117.54
X95.72Y-112.46
X95.72Y-117.54
X97.79Y-55.88
X98.26Y-112.46
X98.26Y-117.54
X100.33Y-55.88
X100.8Y-112.46
X100.8Y-117.54
X102.87Y-55.88
X103.34Y-112.46
X103.34Y-117.54
X105.88Y-112.46
X105.88Y-117.54
X108.42Y-112.46
X108.42Y-117.54
X110.96Y-112.46
X110.96Y-117.54
X113.5Y-112.46
X113.5Y-117.54
X116.04Y-112.46
X116.04Y-117.54
X118.58Y-112.46
X118.58Y-117.54
X121.12Y-112.46
X121.12Y-117.54
T4
X111.61Y-53.34
X111.61Y-57.84
X118.11Y-53.34
X118.11Y-57.84
M30
