%TF.GenerationSoftware,KiCad,Pcbnew,9.0.7*%
%TF.CreationDate,2026-05-10T09:52:20+01:00*%
%TF.ProjectId,PDS_PCISA,5044535f-5043-4495-9341-2e6b69636164,rev?*%
%TF.SameCoordinates,Original*%
%TF.FileFunction,Soldermask,Bot*%
%TF.FilePolarity,Negative*%
%FSLAX46Y46*%
G04 Gerber Fmt 4.6, Leading zero omitted, Abs format (unit mm)*
G04 Created by KiCad (PCBNEW 9.0.7) date 2026-05-10 09:52:20*
%MOMM*%
%LPD*%
G01*
G04 APERTURE LIST*
G04 Aperture macros list*
%AMRoundRect*
0 Rectangle with rounded corners*
0 $1 Rounding radius*
0 $2 $3 $4 $5 $6 $7 $8 $9 X,Y pos of 4 corners*
0 Add a 4 corners polygon primitive as box body*
4,1,4,$2,$3,$4,$5,$6,$7,$8,$9,$2,$3,0*
0 Add four circle primitives for the rounded corners*
1,1,$1+$1,$2,$3*
1,1,$1+$1,$4,$5*
1,1,$1+$1,$6,$7*
1,1,$1+$1,$8,$9*
0 Add four rect primitives between the rounded corners*
20,1,$1+$1,$2,$3,$4,$5,0*
20,1,$1+$1,$4,$5,$6,$7,0*
20,1,$1+$1,$6,$7,$8,$9,0*
20,1,$1+$1,$8,$9,$2,$3,0*%
G04 Aperture macros list end*
%ADD10R,1.780000X7.620000*%
%ADD11RoundRect,0.250000X-0.600000X-0.600000X0.600000X-0.600000X0.600000X0.600000X-0.600000X0.600000X0*%
%ADD12C,1.700000*%
%ADD13RoundRect,0.250000X-0.550000X-0.550000X0.550000X-0.550000X0.550000X0.550000X-0.550000X0.550000X0*%
%ADD14C,1.600000*%
%ADD15RoundRect,0.250000X0.550000X-0.550000X0.550000X0.550000X-0.550000X0.550000X-0.550000X-0.550000X0*%
%ADD16R,1.600000X1.600000*%
G04 APERTURE END LIST*
D10*
%TO.C,J1*%
X131318000Y-145796000D03*
X128778000Y-145796000D03*
X126238000Y-145796000D03*
X123698000Y-145796000D03*
X121158000Y-145796000D03*
X118618000Y-145796000D03*
X116078000Y-145796000D03*
X113538000Y-145796000D03*
X110998000Y-145796000D03*
X108458000Y-145796000D03*
X105918000Y-145796000D03*
X103378000Y-145796000D03*
X100838000Y-145796000D03*
X98298000Y-145796000D03*
X95758000Y-145796000D03*
X93218000Y-145796000D03*
X90678000Y-145796000D03*
X88138000Y-145796000D03*
X85598000Y-145796000D03*
X83058000Y-145796000D03*
X80518000Y-145796000D03*
X77978000Y-145796000D03*
X75438000Y-145796000D03*
X72898000Y-145796000D03*
X70358000Y-145796000D03*
X67818000Y-145796000D03*
X65278000Y-145796000D03*
X62738000Y-145796000D03*
X60198000Y-145796000D03*
X57658000Y-145796000D03*
X55118000Y-145796000D03*
%TD*%
D11*
%TO.C,J3*%
X139810000Y-99314000D03*
D12*
X142350000Y-99314000D03*
X139810000Y-101854000D03*
X142350000Y-101854000D03*
X139810000Y-104394000D03*
X142350000Y-104394000D03*
X139810000Y-106934000D03*
X142350000Y-106934000D03*
X139810000Y-109474000D03*
X142350000Y-109474000D03*
X139810000Y-112014000D03*
X142350000Y-112014000D03*
X139810000Y-114554000D03*
X142350000Y-114554000D03*
X139810000Y-117094000D03*
X142350000Y-117094000D03*
%TD*%
D13*
%TO.C,U4*%
X103340000Y-110080000D03*
D14*
X103340000Y-112620000D03*
X103340000Y-115160000D03*
X103340000Y-117700000D03*
X103340000Y-120240000D03*
X103340000Y-122780000D03*
X103340000Y-125320000D03*
X103340000Y-127860000D03*
X103340000Y-130400000D03*
X103340000Y-132940000D03*
X110960000Y-132940000D03*
X110960000Y-130400000D03*
X110960000Y-127860000D03*
X110960000Y-125320000D03*
X110960000Y-122780000D03*
X110960000Y-120240000D03*
X110960000Y-117700000D03*
X110960000Y-115160000D03*
X110960000Y-112620000D03*
X110960000Y-110080000D03*
%TD*%
D15*
%TO.C,U2*%
X57093000Y-132956000D03*
D14*
X59633000Y-132956000D03*
X62173000Y-132956000D03*
X64713000Y-132956000D03*
X67253000Y-132956000D03*
X69793000Y-132956000D03*
X72333000Y-132956000D03*
X74873000Y-132956000D03*
X74873000Y-125336000D03*
X72333000Y-125336000D03*
X69793000Y-125336000D03*
X67253000Y-125336000D03*
X64713000Y-125336000D03*
X62173000Y-125336000D03*
X59633000Y-125336000D03*
X57093000Y-125336000D03*
%TD*%
D13*
%TO.C,U6*%
X107696000Y-83058000D03*
D14*
X107696000Y-85598000D03*
X107696000Y-88138000D03*
X107696000Y-90678000D03*
X107696000Y-93218000D03*
X107696000Y-95758000D03*
X107696000Y-98298000D03*
X107696000Y-100838000D03*
X107696000Y-103378000D03*
X107696000Y-105918000D03*
X115316000Y-105918000D03*
X115316000Y-103378000D03*
X115316000Y-100838000D03*
X115316000Y-98298000D03*
X115316000Y-95758000D03*
X115316000Y-93218000D03*
X115316000Y-90678000D03*
X115316000Y-88138000D03*
X115316000Y-85598000D03*
X115316000Y-83058000D03*
%TD*%
%TO.C,C1*%
X70612000Y-55158000D03*
X70612000Y-60158000D03*
%TD*%
%TO.C,C2*%
X57133000Y-122288000D03*
X62133000Y-122288000D03*
%TD*%
D13*
%TO.C,U5*%
X103340000Y-55080000D03*
D14*
X103340000Y-57620000D03*
X103340000Y-60160000D03*
X103340000Y-62700000D03*
X103340000Y-65240000D03*
X103340000Y-67780000D03*
X103340000Y-70320000D03*
X103340000Y-72860000D03*
X103340000Y-75400000D03*
X103340000Y-77940000D03*
X110960000Y-77940000D03*
X110960000Y-75400000D03*
X110960000Y-72860000D03*
X110960000Y-70320000D03*
X110960000Y-67780000D03*
X110960000Y-65240000D03*
X110960000Y-62700000D03*
X110960000Y-60160000D03*
X110960000Y-57620000D03*
X110960000Y-55080000D03*
%TD*%
%TO.C,C4*%
X113792000Y-110022000D03*
X113792000Y-115022000D03*
%TD*%
%TO.C,C5*%
X114300000Y-73954000D03*
X114300000Y-78954000D03*
%TD*%
D13*
%TO.C,U1*%
X60160000Y-55080000D03*
D14*
X60160000Y-57620000D03*
X60160000Y-60160000D03*
X60160000Y-62700000D03*
X60160000Y-65240000D03*
X60160000Y-67780000D03*
X60160000Y-70320000D03*
X67780000Y-70320000D03*
X67780000Y-67780000D03*
X67780000Y-65240000D03*
X67780000Y-62700000D03*
X67780000Y-60160000D03*
X67780000Y-57620000D03*
X67780000Y-55080000D03*
%TD*%
D11*
%TO.C,J2*%
X139810000Y-60160000D03*
D12*
X142350000Y-60160000D03*
X139810000Y-62700000D03*
X142350000Y-62700000D03*
X139810000Y-65240000D03*
X142350000Y-65240000D03*
X139810000Y-67780000D03*
X142350000Y-67780000D03*
X139810000Y-70320000D03*
X142350000Y-70320000D03*
X139810000Y-72860000D03*
X142350000Y-72860000D03*
X139810000Y-75400000D03*
X142350000Y-75400000D03*
X139810000Y-77940000D03*
X142350000Y-77940000D03*
%TD*%
D14*
%TO.C,C6*%
X118110000Y-80558000D03*
X118110000Y-85558000D03*
%TD*%
D16*
%TO.C,RN1*%
X55080000Y-55080000D03*
D14*
X55080000Y-57620000D03*
X55080000Y-60160000D03*
X55080000Y-62700000D03*
X55080000Y-65240000D03*
X55080000Y-67780000D03*
%TD*%
D13*
%TO.C,U3*%
X75400000Y-57620000D03*
D14*
X75400000Y-60160000D03*
X75400000Y-62700000D03*
X75400000Y-65240000D03*
X75400000Y-67780000D03*
X75400000Y-70320000D03*
X75400000Y-72860000D03*
X75400000Y-75400000D03*
X75400000Y-77940000D03*
X75400000Y-80480000D03*
X75400000Y-83020000D03*
X75400000Y-85560000D03*
X75400000Y-88100000D03*
X75400000Y-90640000D03*
X75400000Y-93180000D03*
X75400000Y-95720000D03*
X75400000Y-98260000D03*
X75400000Y-100800000D03*
X75400000Y-103340000D03*
X75400000Y-105880000D03*
X90640000Y-105880000D03*
X90640000Y-103340000D03*
X90640000Y-100800000D03*
X90640000Y-98260000D03*
X90640000Y-95720000D03*
X90640000Y-93180000D03*
X90640000Y-90640000D03*
X90640000Y-88100000D03*
X90640000Y-85560000D03*
X90640000Y-83020000D03*
X90640000Y-80480000D03*
X90640000Y-77940000D03*
X90640000Y-75400000D03*
X90640000Y-72860000D03*
X90640000Y-70320000D03*
X90640000Y-67780000D03*
X90640000Y-65240000D03*
X90640000Y-62700000D03*
X90640000Y-60160000D03*
X90640000Y-57620000D03*
%TD*%
%TO.C,C3*%
X85558000Y-70866000D03*
X80558000Y-70866000D03*
%TD*%
M02*
