%TF.GenerationSoftware,KiCad,Pcbnew,9.0.7*%
%TF.CreationDate,2026-05-10T11:23:45+01:00*%
%TF.ProjectId,PDS_PCISA,5044535f-5043-4495-9341-2e6b69636164,rev?*%
%TF.SameCoordinates,Original*%
%TF.FileFunction,Legend,Top*%
%TF.FilePolarity,Positive*%
%FSLAX46Y46*%
G04 Gerber Fmt 4.6, Leading zero omitted, Abs format (unit mm)*
G04 Created by KiCad (PCBNEW 9.0.7) date 2026-05-10 11:23:45*
%MOMM*%
%LPD*%
G01*
G04 APERTURE LIST*
%ADD10C,0.100000*%
%ADD11C,0.150000*%
%ADD12C,0.120000*%
G04 APERTURE END LIST*
D10*
X64413999Y-114163475D02*
X64413999Y-113163475D01*
X64413999Y-113163475D02*
X64794951Y-113163475D01*
X64794951Y-113163475D02*
X64890189Y-113211094D01*
X64890189Y-113211094D02*
X64937808Y-113258713D01*
X64937808Y-113258713D02*
X64985427Y-113353951D01*
X64985427Y-113353951D02*
X64985427Y-113496808D01*
X64985427Y-113496808D02*
X64937808Y-113592046D01*
X64937808Y-113592046D02*
X64890189Y-113639665D01*
X64890189Y-113639665D02*
X64794951Y-113687284D01*
X64794951Y-113687284D02*
X64413999Y-113687284D01*
X65413999Y-114163475D02*
X65413999Y-113163475D01*
X65413999Y-113163475D02*
X65652094Y-113163475D01*
X65652094Y-113163475D02*
X65794951Y-113211094D01*
X65794951Y-113211094D02*
X65890189Y-113306332D01*
X65890189Y-113306332D02*
X65937808Y-113401570D01*
X65937808Y-113401570D02*
X65985427Y-113592046D01*
X65985427Y-113592046D02*
X65985427Y-113734903D01*
X65985427Y-113734903D02*
X65937808Y-113925379D01*
X65937808Y-113925379D02*
X65890189Y-114020617D01*
X65890189Y-114020617D02*
X65794951Y-114115856D01*
X65794951Y-114115856D02*
X65652094Y-114163475D01*
X65652094Y-114163475D02*
X65413999Y-114163475D01*
X66366380Y-114115856D02*
X66509237Y-114163475D01*
X66509237Y-114163475D02*
X66747332Y-114163475D01*
X66747332Y-114163475D02*
X66842570Y-114115856D01*
X66842570Y-114115856D02*
X66890189Y-114068236D01*
X66890189Y-114068236D02*
X66937808Y-113972998D01*
X66937808Y-113972998D02*
X66937808Y-113877760D01*
X66937808Y-113877760D02*
X66890189Y-113782522D01*
X66890189Y-113782522D02*
X66842570Y-113734903D01*
X66842570Y-113734903D02*
X66747332Y-113687284D01*
X66747332Y-113687284D02*
X66556856Y-113639665D01*
X66556856Y-113639665D02*
X66461618Y-113592046D01*
X66461618Y-113592046D02*
X66413999Y-113544427D01*
X66413999Y-113544427D02*
X66366380Y-113449189D01*
X66366380Y-113449189D02*
X66366380Y-113353951D01*
X66366380Y-113353951D02*
X66413999Y-113258713D01*
X66413999Y-113258713D02*
X66461618Y-113211094D01*
X66461618Y-113211094D02*
X66556856Y-113163475D01*
X66556856Y-113163475D02*
X66794951Y-113163475D01*
X66794951Y-113163475D02*
X66937808Y-113211094D01*
X68699713Y-114163475D02*
X68366380Y-113687284D01*
X68128285Y-114163475D02*
X68128285Y-113163475D01*
X68128285Y-113163475D02*
X68509237Y-113163475D01*
X68509237Y-113163475D02*
X68604475Y-113211094D01*
X68604475Y-113211094D02*
X68652094Y-113258713D01*
X68652094Y-113258713D02*
X68699713Y-113353951D01*
X68699713Y-113353951D02*
X68699713Y-113496808D01*
X68699713Y-113496808D02*
X68652094Y-113592046D01*
X68652094Y-113592046D02*
X68604475Y-113639665D01*
X68604475Y-113639665D02*
X68509237Y-113687284D01*
X68509237Y-113687284D02*
X68128285Y-113687284D01*
X69509237Y-114115856D02*
X69413999Y-114163475D01*
X69413999Y-114163475D02*
X69223523Y-114163475D01*
X69223523Y-114163475D02*
X69128285Y-114115856D01*
X69128285Y-114115856D02*
X69080666Y-114020617D01*
X69080666Y-114020617D02*
X69080666Y-113639665D01*
X69080666Y-113639665D02*
X69128285Y-113544427D01*
X69128285Y-113544427D02*
X69223523Y-113496808D01*
X69223523Y-113496808D02*
X69413999Y-113496808D01*
X69413999Y-113496808D02*
X69509237Y-113544427D01*
X69509237Y-113544427D02*
X69556856Y-113639665D01*
X69556856Y-113639665D02*
X69556856Y-113734903D01*
X69556856Y-113734903D02*
X69080666Y-113830141D01*
X69985428Y-114163475D02*
X69985428Y-113496808D01*
X69985428Y-113592046D02*
X70033047Y-113544427D01*
X70033047Y-113544427D02*
X70128285Y-113496808D01*
X70128285Y-113496808D02*
X70271142Y-113496808D01*
X70271142Y-113496808D02*
X70366380Y-113544427D01*
X70366380Y-113544427D02*
X70413999Y-113639665D01*
X70413999Y-113639665D02*
X70413999Y-114163475D01*
X70413999Y-113639665D02*
X70461618Y-113544427D01*
X70461618Y-113544427D02*
X70556856Y-113496808D01*
X70556856Y-113496808D02*
X70699713Y-113496808D01*
X70699713Y-113496808D02*
X70794952Y-113544427D01*
X70794952Y-113544427D02*
X70842571Y-113639665D01*
X70842571Y-113639665D02*
X70842571Y-114163475D01*
X71747332Y-114163475D02*
X71747332Y-113639665D01*
X71747332Y-113639665D02*
X71699713Y-113544427D01*
X71699713Y-113544427D02*
X71604475Y-113496808D01*
X71604475Y-113496808D02*
X71413999Y-113496808D01*
X71413999Y-113496808D02*
X71318761Y-113544427D01*
X71747332Y-114115856D02*
X71652094Y-114163475D01*
X71652094Y-114163475D02*
X71413999Y-114163475D01*
X71413999Y-114163475D02*
X71318761Y-114115856D01*
X71318761Y-114115856D02*
X71271142Y-114020617D01*
X71271142Y-114020617D02*
X71271142Y-113925379D01*
X71271142Y-113925379D02*
X71318761Y-113830141D01*
X71318761Y-113830141D02*
X71413999Y-113782522D01*
X71413999Y-113782522D02*
X71652094Y-113782522D01*
X71652094Y-113782522D02*
X71747332Y-113734903D01*
X72223523Y-114163475D02*
X72223523Y-113163475D01*
X72318761Y-113782522D02*
X72604475Y-114163475D01*
X72604475Y-113496808D02*
X72223523Y-113877760D01*
X73413999Y-114115856D02*
X73318761Y-114163475D01*
X73318761Y-114163475D02*
X73128285Y-114163475D01*
X73128285Y-114163475D02*
X73033047Y-114115856D01*
X73033047Y-114115856D02*
X72985428Y-114020617D01*
X72985428Y-114020617D02*
X72985428Y-113639665D01*
X72985428Y-113639665D02*
X73033047Y-113544427D01*
X73033047Y-113544427D02*
X73128285Y-113496808D01*
X73128285Y-113496808D02*
X73318761Y-113496808D01*
X73318761Y-113496808D02*
X73413999Y-113544427D01*
X73413999Y-113544427D02*
X73461618Y-113639665D01*
X73461618Y-113639665D02*
X73461618Y-113734903D01*
X73461618Y-113734903D02*
X72985428Y-113830141D01*
X74652095Y-114163475D02*
X74652095Y-113163475D01*
X74652095Y-113163475D02*
X75033047Y-113163475D01*
X75033047Y-113163475D02*
X75128285Y-113211094D01*
X75128285Y-113211094D02*
X75175904Y-113258713D01*
X75175904Y-113258713D02*
X75223523Y-113353951D01*
X75223523Y-113353951D02*
X75223523Y-113496808D01*
X75223523Y-113496808D02*
X75175904Y-113592046D01*
X75175904Y-113592046D02*
X75128285Y-113639665D01*
X75128285Y-113639665D02*
X75033047Y-113687284D01*
X75033047Y-113687284D02*
X74652095Y-113687284D01*
X76223523Y-114068236D02*
X76175904Y-114115856D01*
X76175904Y-114115856D02*
X76033047Y-114163475D01*
X76033047Y-114163475D02*
X75937809Y-114163475D01*
X75937809Y-114163475D02*
X75794952Y-114115856D01*
X75794952Y-114115856D02*
X75699714Y-114020617D01*
X75699714Y-114020617D02*
X75652095Y-113925379D01*
X75652095Y-113925379D02*
X75604476Y-113734903D01*
X75604476Y-113734903D02*
X75604476Y-113592046D01*
X75604476Y-113592046D02*
X75652095Y-113401570D01*
X75652095Y-113401570D02*
X75699714Y-113306332D01*
X75699714Y-113306332D02*
X75794952Y-113211094D01*
X75794952Y-113211094D02*
X75937809Y-113163475D01*
X75937809Y-113163475D02*
X76033047Y-113163475D01*
X76033047Y-113163475D02*
X76175904Y-113211094D01*
X76175904Y-113211094D02*
X76223523Y-113258713D01*
X77414000Y-114163475D02*
X77414000Y-113163475D01*
X77842571Y-114115856D02*
X77985428Y-114163475D01*
X77985428Y-114163475D02*
X78223523Y-114163475D01*
X78223523Y-114163475D02*
X78318761Y-114115856D01*
X78318761Y-114115856D02*
X78366380Y-114068236D01*
X78366380Y-114068236D02*
X78413999Y-113972998D01*
X78413999Y-113972998D02*
X78413999Y-113877760D01*
X78413999Y-113877760D02*
X78366380Y-113782522D01*
X78366380Y-113782522D02*
X78318761Y-113734903D01*
X78318761Y-113734903D02*
X78223523Y-113687284D01*
X78223523Y-113687284D02*
X78033047Y-113639665D01*
X78033047Y-113639665D02*
X77937809Y-113592046D01*
X77937809Y-113592046D02*
X77890190Y-113544427D01*
X77890190Y-113544427D02*
X77842571Y-113449189D01*
X77842571Y-113449189D02*
X77842571Y-113353951D01*
X77842571Y-113353951D02*
X77890190Y-113258713D01*
X77890190Y-113258713D02*
X77937809Y-113211094D01*
X77937809Y-113211094D02*
X78033047Y-113163475D01*
X78033047Y-113163475D02*
X78271142Y-113163475D01*
X78271142Y-113163475D02*
X78413999Y-113211094D01*
X78794952Y-113877760D02*
X79271142Y-113877760D01*
X78699714Y-114163475D02*
X79033047Y-113163475D01*
X79033047Y-113163475D02*
X79366380Y-114163475D01*
X81033047Y-114068236D02*
X80985428Y-114115856D01*
X80985428Y-114115856D02*
X80842571Y-114163475D01*
X80842571Y-114163475D02*
X80747333Y-114163475D01*
X80747333Y-114163475D02*
X80604476Y-114115856D01*
X80604476Y-114115856D02*
X80509238Y-114020617D01*
X80509238Y-114020617D02*
X80461619Y-113925379D01*
X80461619Y-113925379D02*
X80414000Y-113734903D01*
X80414000Y-113734903D02*
X80414000Y-113592046D01*
X80414000Y-113592046D02*
X80461619Y-113401570D01*
X80461619Y-113401570D02*
X80509238Y-113306332D01*
X80509238Y-113306332D02*
X80604476Y-113211094D01*
X80604476Y-113211094D02*
X80747333Y-113163475D01*
X80747333Y-113163475D02*
X80842571Y-113163475D01*
X80842571Y-113163475D02*
X80985428Y-113211094D01*
X80985428Y-113211094D02*
X81033047Y-113258713D01*
X81890190Y-114163475D02*
X81890190Y-113639665D01*
X81890190Y-113639665D02*
X81842571Y-113544427D01*
X81842571Y-113544427D02*
X81747333Y-113496808D01*
X81747333Y-113496808D02*
X81556857Y-113496808D01*
X81556857Y-113496808D02*
X81461619Y-113544427D01*
X81890190Y-114115856D02*
X81794952Y-114163475D01*
X81794952Y-114163475D02*
X81556857Y-114163475D01*
X81556857Y-114163475D02*
X81461619Y-114115856D01*
X81461619Y-114115856D02*
X81414000Y-114020617D01*
X81414000Y-114020617D02*
X81414000Y-113925379D01*
X81414000Y-113925379D02*
X81461619Y-113830141D01*
X81461619Y-113830141D02*
X81556857Y-113782522D01*
X81556857Y-113782522D02*
X81794952Y-113782522D01*
X81794952Y-113782522D02*
X81890190Y-113734903D01*
X82366381Y-114163475D02*
X82366381Y-113496808D01*
X82366381Y-113687284D02*
X82414000Y-113592046D01*
X82414000Y-113592046D02*
X82461619Y-113544427D01*
X82461619Y-113544427D02*
X82556857Y-113496808D01*
X82556857Y-113496808D02*
X82652095Y-113496808D01*
X83414000Y-114163475D02*
X83414000Y-113163475D01*
X83414000Y-114115856D02*
X83318762Y-114163475D01*
X83318762Y-114163475D02*
X83128286Y-114163475D01*
X83128286Y-114163475D02*
X83033048Y-114115856D01*
X83033048Y-114115856D02*
X82985429Y-114068236D01*
X82985429Y-114068236D02*
X82937810Y-113972998D01*
X82937810Y-113972998D02*
X82937810Y-113687284D01*
X82937810Y-113687284D02*
X82985429Y-113592046D01*
X82985429Y-113592046D02*
X83033048Y-113544427D01*
X83033048Y-113544427D02*
X83128286Y-113496808D01*
X83128286Y-113496808D02*
X83318762Y-113496808D01*
X83318762Y-113496808D02*
X83414000Y-113544427D01*
X55223523Y-115773419D02*
X55223523Y-114773419D01*
X55652094Y-115773419D02*
X55652094Y-115249609D01*
X55652094Y-115249609D02*
X55604475Y-115154371D01*
X55604475Y-115154371D02*
X55509237Y-115106752D01*
X55509237Y-115106752D02*
X55366380Y-115106752D01*
X55366380Y-115106752D02*
X55271142Y-115154371D01*
X55271142Y-115154371D02*
X55223523Y-115201990D01*
X55985428Y-115106752D02*
X56366380Y-115106752D01*
X56128285Y-114773419D02*
X56128285Y-115630561D01*
X56128285Y-115630561D02*
X56175904Y-115725800D01*
X56175904Y-115725800D02*
X56271142Y-115773419D01*
X56271142Y-115773419D02*
X56366380Y-115773419D01*
X56556857Y-115106752D02*
X56937809Y-115106752D01*
X56699714Y-114773419D02*
X56699714Y-115630561D01*
X56699714Y-115630561D02*
X56747333Y-115725800D01*
X56747333Y-115725800D02*
X56842571Y-115773419D01*
X56842571Y-115773419D02*
X56937809Y-115773419D01*
X57271143Y-115106752D02*
X57271143Y-116106752D01*
X57271143Y-115154371D02*
X57366381Y-115106752D01*
X57366381Y-115106752D02*
X57556857Y-115106752D01*
X57556857Y-115106752D02*
X57652095Y-115154371D01*
X57652095Y-115154371D02*
X57699714Y-115201990D01*
X57699714Y-115201990D02*
X57747333Y-115297228D01*
X57747333Y-115297228D02*
X57747333Y-115582942D01*
X57747333Y-115582942D02*
X57699714Y-115678180D01*
X57699714Y-115678180D02*
X57652095Y-115725800D01*
X57652095Y-115725800D02*
X57556857Y-115773419D01*
X57556857Y-115773419D02*
X57366381Y-115773419D01*
X57366381Y-115773419D02*
X57271143Y-115725800D01*
X58128286Y-115725800D02*
X58223524Y-115773419D01*
X58223524Y-115773419D02*
X58414000Y-115773419D01*
X58414000Y-115773419D02*
X58509238Y-115725800D01*
X58509238Y-115725800D02*
X58556857Y-115630561D01*
X58556857Y-115630561D02*
X58556857Y-115582942D01*
X58556857Y-115582942D02*
X58509238Y-115487704D01*
X58509238Y-115487704D02*
X58414000Y-115440085D01*
X58414000Y-115440085D02*
X58271143Y-115440085D01*
X58271143Y-115440085D02*
X58175905Y-115392466D01*
X58175905Y-115392466D02*
X58128286Y-115297228D01*
X58128286Y-115297228D02*
X58128286Y-115249609D01*
X58128286Y-115249609D02*
X58175905Y-115154371D01*
X58175905Y-115154371D02*
X58271143Y-115106752D01*
X58271143Y-115106752D02*
X58414000Y-115106752D01*
X58414000Y-115106752D02*
X58509238Y-115154371D01*
X58985429Y-115678180D02*
X59033048Y-115725800D01*
X59033048Y-115725800D02*
X58985429Y-115773419D01*
X58985429Y-115773419D02*
X58937810Y-115725800D01*
X58937810Y-115725800D02*
X58985429Y-115678180D01*
X58985429Y-115678180D02*
X58985429Y-115773419D01*
X58985429Y-115154371D02*
X59033048Y-115201990D01*
X59033048Y-115201990D02*
X58985429Y-115249609D01*
X58985429Y-115249609D02*
X58937810Y-115201990D01*
X58937810Y-115201990D02*
X58985429Y-115154371D01*
X58985429Y-115154371D02*
X58985429Y-115249609D01*
X60175904Y-114725800D02*
X59318762Y-116011514D01*
X61223523Y-114725800D02*
X60366381Y-116011514D01*
X61985428Y-115106752D02*
X61985428Y-115916276D01*
X61985428Y-115916276D02*
X61937809Y-116011514D01*
X61937809Y-116011514D02*
X61890190Y-116059133D01*
X61890190Y-116059133D02*
X61794952Y-116106752D01*
X61794952Y-116106752D02*
X61652095Y-116106752D01*
X61652095Y-116106752D02*
X61556857Y-116059133D01*
X61985428Y-115725800D02*
X61890190Y-115773419D01*
X61890190Y-115773419D02*
X61699714Y-115773419D01*
X61699714Y-115773419D02*
X61604476Y-115725800D01*
X61604476Y-115725800D02*
X61556857Y-115678180D01*
X61556857Y-115678180D02*
X61509238Y-115582942D01*
X61509238Y-115582942D02*
X61509238Y-115297228D01*
X61509238Y-115297228D02*
X61556857Y-115201990D01*
X61556857Y-115201990D02*
X61604476Y-115154371D01*
X61604476Y-115154371D02*
X61699714Y-115106752D01*
X61699714Y-115106752D02*
X61890190Y-115106752D01*
X61890190Y-115106752D02*
X61985428Y-115154371D01*
X62461619Y-115773419D02*
X62461619Y-115106752D01*
X62461619Y-114773419D02*
X62414000Y-114821038D01*
X62414000Y-114821038D02*
X62461619Y-114868657D01*
X62461619Y-114868657D02*
X62509238Y-114821038D01*
X62509238Y-114821038D02*
X62461619Y-114773419D01*
X62461619Y-114773419D02*
X62461619Y-114868657D01*
X62794952Y-115106752D02*
X63175904Y-115106752D01*
X62937809Y-114773419D02*
X62937809Y-115630561D01*
X62937809Y-115630561D02*
X62985428Y-115725800D01*
X62985428Y-115725800D02*
X63080666Y-115773419D01*
X63080666Y-115773419D02*
X63175904Y-115773419D01*
X63509238Y-115773419D02*
X63509238Y-114773419D01*
X63937809Y-115773419D02*
X63937809Y-115249609D01*
X63937809Y-115249609D02*
X63890190Y-115154371D01*
X63890190Y-115154371D02*
X63794952Y-115106752D01*
X63794952Y-115106752D02*
X63652095Y-115106752D01*
X63652095Y-115106752D02*
X63556857Y-115154371D01*
X63556857Y-115154371D02*
X63509238Y-115201990D01*
X64842571Y-115106752D02*
X64842571Y-115773419D01*
X64414000Y-115106752D02*
X64414000Y-115630561D01*
X64414000Y-115630561D02*
X64461619Y-115725800D01*
X64461619Y-115725800D02*
X64556857Y-115773419D01*
X64556857Y-115773419D02*
X64699714Y-115773419D01*
X64699714Y-115773419D02*
X64794952Y-115725800D01*
X64794952Y-115725800D02*
X64842571Y-115678180D01*
X65318762Y-115773419D02*
X65318762Y-114773419D01*
X65318762Y-115154371D02*
X65414000Y-115106752D01*
X65414000Y-115106752D02*
X65604476Y-115106752D01*
X65604476Y-115106752D02*
X65699714Y-115154371D01*
X65699714Y-115154371D02*
X65747333Y-115201990D01*
X65747333Y-115201990D02*
X65794952Y-115297228D01*
X65794952Y-115297228D02*
X65794952Y-115582942D01*
X65794952Y-115582942D02*
X65747333Y-115678180D01*
X65747333Y-115678180D02*
X65699714Y-115725800D01*
X65699714Y-115725800D02*
X65604476Y-115773419D01*
X65604476Y-115773419D02*
X65414000Y-115773419D01*
X65414000Y-115773419D02*
X65318762Y-115725800D01*
X66223524Y-115678180D02*
X66271143Y-115725800D01*
X66271143Y-115725800D02*
X66223524Y-115773419D01*
X66223524Y-115773419D02*
X66175905Y-115725800D01*
X66175905Y-115725800D02*
X66223524Y-115678180D01*
X66223524Y-115678180D02*
X66223524Y-115773419D01*
X67128285Y-115725800D02*
X67033047Y-115773419D01*
X67033047Y-115773419D02*
X66842571Y-115773419D01*
X66842571Y-115773419D02*
X66747333Y-115725800D01*
X66747333Y-115725800D02*
X66699714Y-115678180D01*
X66699714Y-115678180D02*
X66652095Y-115582942D01*
X66652095Y-115582942D02*
X66652095Y-115297228D01*
X66652095Y-115297228D02*
X66699714Y-115201990D01*
X66699714Y-115201990D02*
X66747333Y-115154371D01*
X66747333Y-115154371D02*
X66842571Y-115106752D01*
X66842571Y-115106752D02*
X67033047Y-115106752D01*
X67033047Y-115106752D02*
X67128285Y-115154371D01*
X67699714Y-115773419D02*
X67604476Y-115725800D01*
X67604476Y-115725800D02*
X67556857Y-115678180D01*
X67556857Y-115678180D02*
X67509238Y-115582942D01*
X67509238Y-115582942D02*
X67509238Y-115297228D01*
X67509238Y-115297228D02*
X67556857Y-115201990D01*
X67556857Y-115201990D02*
X67604476Y-115154371D01*
X67604476Y-115154371D02*
X67699714Y-115106752D01*
X67699714Y-115106752D02*
X67842571Y-115106752D01*
X67842571Y-115106752D02*
X67937809Y-115154371D01*
X67937809Y-115154371D02*
X67985428Y-115201990D01*
X67985428Y-115201990D02*
X68033047Y-115297228D01*
X68033047Y-115297228D02*
X68033047Y-115582942D01*
X68033047Y-115582942D02*
X67985428Y-115678180D01*
X67985428Y-115678180D02*
X67937809Y-115725800D01*
X67937809Y-115725800D02*
X67842571Y-115773419D01*
X67842571Y-115773419D02*
X67699714Y-115773419D01*
X68461619Y-115773419D02*
X68461619Y-115106752D01*
X68461619Y-115201990D02*
X68509238Y-115154371D01*
X68509238Y-115154371D02*
X68604476Y-115106752D01*
X68604476Y-115106752D02*
X68747333Y-115106752D01*
X68747333Y-115106752D02*
X68842571Y-115154371D01*
X68842571Y-115154371D02*
X68890190Y-115249609D01*
X68890190Y-115249609D02*
X68890190Y-115773419D01*
X68890190Y-115249609D02*
X68937809Y-115154371D01*
X68937809Y-115154371D02*
X69033047Y-115106752D01*
X69033047Y-115106752D02*
X69175904Y-115106752D01*
X69175904Y-115106752D02*
X69271143Y-115154371D01*
X69271143Y-115154371D02*
X69318762Y-115249609D01*
X69318762Y-115249609D02*
X69318762Y-115773419D01*
X70509237Y-114725800D02*
X69652095Y-116011514D01*
X71271142Y-115773419D02*
X71271142Y-114773419D01*
X71271142Y-115725800D02*
X71175904Y-115773419D01*
X71175904Y-115773419D02*
X70985428Y-115773419D01*
X70985428Y-115773419D02*
X70890190Y-115725800D01*
X70890190Y-115725800D02*
X70842571Y-115678180D01*
X70842571Y-115678180D02*
X70794952Y-115582942D01*
X70794952Y-115582942D02*
X70794952Y-115297228D01*
X70794952Y-115297228D02*
X70842571Y-115201990D01*
X70842571Y-115201990D02*
X70890190Y-115154371D01*
X70890190Y-115154371D02*
X70985428Y-115106752D01*
X70985428Y-115106752D02*
X71175904Y-115106752D01*
X71175904Y-115106752D02*
X71271142Y-115154371D01*
X71747333Y-115773419D02*
X71747333Y-115106752D01*
X71747333Y-114773419D02*
X71699714Y-114821038D01*
X71699714Y-114821038D02*
X71747333Y-114868657D01*
X71747333Y-114868657D02*
X71794952Y-114821038D01*
X71794952Y-114821038D02*
X71747333Y-114773419D01*
X71747333Y-114773419D02*
X71747333Y-114868657D01*
X72128285Y-115106752D02*
X72366380Y-115773419D01*
X72604475Y-115106752D02*
X72366380Y-115773419D01*
X72366380Y-115773419D02*
X72271142Y-116011514D01*
X72271142Y-116011514D02*
X72223523Y-116059133D01*
X72223523Y-116059133D02*
X72128285Y-116106752D01*
X73366380Y-115725800D02*
X73271142Y-115773419D01*
X73271142Y-115773419D02*
X73080666Y-115773419D01*
X73080666Y-115773419D02*
X72985428Y-115725800D01*
X72985428Y-115725800D02*
X72937809Y-115630561D01*
X72937809Y-115630561D02*
X72937809Y-115249609D01*
X72937809Y-115249609D02*
X72985428Y-115154371D01*
X72985428Y-115154371D02*
X73080666Y-115106752D01*
X73080666Y-115106752D02*
X73271142Y-115106752D01*
X73271142Y-115106752D02*
X73366380Y-115154371D01*
X73366380Y-115154371D02*
X73413999Y-115249609D01*
X73413999Y-115249609D02*
X73413999Y-115344847D01*
X73413999Y-115344847D02*
X72937809Y-115440085D01*
X73985428Y-115773419D02*
X73890190Y-115725800D01*
X73890190Y-115725800D02*
X73842571Y-115630561D01*
X73842571Y-115630561D02*
X73842571Y-114773419D01*
X74747333Y-115725800D02*
X74652095Y-115773419D01*
X74652095Y-115773419D02*
X74461619Y-115773419D01*
X74461619Y-115773419D02*
X74366381Y-115725800D01*
X74366381Y-115725800D02*
X74318762Y-115630561D01*
X74318762Y-115630561D02*
X74318762Y-115249609D01*
X74318762Y-115249609D02*
X74366381Y-115154371D01*
X74366381Y-115154371D02*
X74461619Y-115106752D01*
X74461619Y-115106752D02*
X74652095Y-115106752D01*
X74652095Y-115106752D02*
X74747333Y-115154371D01*
X74747333Y-115154371D02*
X74794952Y-115249609D01*
X74794952Y-115249609D02*
X74794952Y-115344847D01*
X74794952Y-115344847D02*
X74318762Y-115440085D01*
X75652095Y-115725800D02*
X75556857Y-115773419D01*
X75556857Y-115773419D02*
X75366381Y-115773419D01*
X75366381Y-115773419D02*
X75271143Y-115725800D01*
X75271143Y-115725800D02*
X75223524Y-115678180D01*
X75223524Y-115678180D02*
X75175905Y-115582942D01*
X75175905Y-115582942D02*
X75175905Y-115297228D01*
X75175905Y-115297228D02*
X75223524Y-115201990D01*
X75223524Y-115201990D02*
X75271143Y-115154371D01*
X75271143Y-115154371D02*
X75366381Y-115106752D01*
X75366381Y-115106752D02*
X75556857Y-115106752D01*
X75556857Y-115106752D02*
X75652095Y-115154371D01*
X75937810Y-115106752D02*
X76318762Y-115106752D01*
X76080667Y-114773419D02*
X76080667Y-115630561D01*
X76080667Y-115630561D02*
X76128286Y-115725800D01*
X76128286Y-115725800D02*
X76223524Y-115773419D01*
X76223524Y-115773419D02*
X76318762Y-115773419D01*
X76652096Y-115773419D02*
X76652096Y-115106752D01*
X76652096Y-115297228D02*
X76699715Y-115201990D01*
X76699715Y-115201990D02*
X76747334Y-115154371D01*
X76747334Y-115154371D02*
X76842572Y-115106752D01*
X76842572Y-115106752D02*
X76937810Y-115106752D01*
X77414001Y-115773419D02*
X77318763Y-115725800D01*
X77318763Y-115725800D02*
X77271144Y-115678180D01*
X77271144Y-115678180D02*
X77223525Y-115582942D01*
X77223525Y-115582942D02*
X77223525Y-115297228D01*
X77223525Y-115297228D02*
X77271144Y-115201990D01*
X77271144Y-115201990D02*
X77318763Y-115154371D01*
X77318763Y-115154371D02*
X77414001Y-115106752D01*
X77414001Y-115106752D02*
X77556858Y-115106752D01*
X77556858Y-115106752D02*
X77652096Y-115154371D01*
X77652096Y-115154371D02*
X77699715Y-115201990D01*
X77699715Y-115201990D02*
X77747334Y-115297228D01*
X77747334Y-115297228D02*
X77747334Y-115582942D01*
X77747334Y-115582942D02*
X77699715Y-115678180D01*
X77699715Y-115678180D02*
X77652096Y-115725800D01*
X77652096Y-115725800D02*
X77556858Y-115773419D01*
X77556858Y-115773419D02*
X77414001Y-115773419D01*
X78175906Y-115773419D02*
X78175906Y-115106752D01*
X78175906Y-115201990D02*
X78223525Y-115154371D01*
X78223525Y-115154371D02*
X78318763Y-115106752D01*
X78318763Y-115106752D02*
X78461620Y-115106752D01*
X78461620Y-115106752D02*
X78556858Y-115154371D01*
X78556858Y-115154371D02*
X78604477Y-115249609D01*
X78604477Y-115249609D02*
X78604477Y-115773419D01*
X78604477Y-115249609D02*
X78652096Y-115154371D01*
X78652096Y-115154371D02*
X78747334Y-115106752D01*
X78747334Y-115106752D02*
X78890191Y-115106752D01*
X78890191Y-115106752D02*
X78985430Y-115154371D01*
X78985430Y-115154371D02*
X79033049Y-115249609D01*
X79033049Y-115249609D02*
X79033049Y-115773419D01*
X79937810Y-115106752D02*
X79937810Y-115773419D01*
X79509239Y-115106752D02*
X79509239Y-115630561D01*
X79509239Y-115630561D02*
X79556858Y-115725800D01*
X79556858Y-115725800D02*
X79652096Y-115773419D01*
X79652096Y-115773419D02*
X79794953Y-115773419D01*
X79794953Y-115773419D02*
X79890191Y-115725800D01*
X79890191Y-115725800D02*
X79937810Y-115678180D01*
X80366382Y-115725800D02*
X80461620Y-115773419D01*
X80461620Y-115773419D02*
X80652096Y-115773419D01*
X80652096Y-115773419D02*
X80747334Y-115725800D01*
X80747334Y-115725800D02*
X80794953Y-115630561D01*
X80794953Y-115630561D02*
X80794953Y-115582942D01*
X80794953Y-115582942D02*
X80747334Y-115487704D01*
X80747334Y-115487704D02*
X80652096Y-115440085D01*
X80652096Y-115440085D02*
X80509239Y-115440085D01*
X80509239Y-115440085D02*
X80414001Y-115392466D01*
X80414001Y-115392466D02*
X80366382Y-115297228D01*
X80366382Y-115297228D02*
X80366382Y-115249609D01*
X80366382Y-115249609D02*
X80414001Y-115154371D01*
X80414001Y-115154371D02*
X80509239Y-115106752D01*
X80509239Y-115106752D02*
X80652096Y-115106752D01*
X80652096Y-115106752D02*
X80747334Y-115154371D01*
X81223525Y-115773419D02*
X81223525Y-115106752D01*
X81223525Y-114773419D02*
X81175906Y-114821038D01*
X81175906Y-114821038D02*
X81223525Y-114868657D01*
X81223525Y-114868657D02*
X81271144Y-114821038D01*
X81271144Y-114821038D02*
X81223525Y-114773419D01*
X81223525Y-114773419D02*
X81223525Y-114868657D01*
X82128286Y-115725800D02*
X82033048Y-115773419D01*
X82033048Y-115773419D02*
X81842572Y-115773419D01*
X81842572Y-115773419D02*
X81747334Y-115725800D01*
X81747334Y-115725800D02*
X81699715Y-115678180D01*
X81699715Y-115678180D02*
X81652096Y-115582942D01*
X81652096Y-115582942D02*
X81652096Y-115297228D01*
X81652096Y-115297228D02*
X81699715Y-115201990D01*
X81699715Y-115201990D02*
X81747334Y-115154371D01*
X81747334Y-115154371D02*
X81842572Y-115106752D01*
X81842572Y-115106752D02*
X82033048Y-115106752D01*
X82033048Y-115106752D02*
X82128286Y-115154371D01*
X83271143Y-114725800D02*
X82414001Y-116011514D01*
X83604477Y-115773419D02*
X83604477Y-114773419D01*
X83604477Y-114773419D02*
X83985429Y-114773419D01*
X83985429Y-114773419D02*
X84080667Y-114821038D01*
X84080667Y-114821038D02*
X84128286Y-114868657D01*
X84128286Y-114868657D02*
X84175905Y-114963895D01*
X84175905Y-114963895D02*
X84175905Y-115106752D01*
X84175905Y-115106752D02*
X84128286Y-115201990D01*
X84128286Y-115201990D02*
X84080667Y-115249609D01*
X84080667Y-115249609D02*
X83985429Y-115297228D01*
X83985429Y-115297228D02*
X83604477Y-115297228D01*
X84604477Y-115773419D02*
X84604477Y-114773419D01*
X84604477Y-114773419D02*
X84842572Y-114773419D01*
X84842572Y-114773419D02*
X84985429Y-114821038D01*
X84985429Y-114821038D02*
X85080667Y-114916276D01*
X85080667Y-114916276D02*
X85128286Y-115011514D01*
X85128286Y-115011514D02*
X85175905Y-115201990D01*
X85175905Y-115201990D02*
X85175905Y-115344847D01*
X85175905Y-115344847D02*
X85128286Y-115535323D01*
X85128286Y-115535323D02*
X85080667Y-115630561D01*
X85080667Y-115630561D02*
X84985429Y-115725800D01*
X84985429Y-115725800D02*
X84842572Y-115773419D01*
X84842572Y-115773419D02*
X84604477Y-115773419D01*
X85556858Y-115725800D02*
X85699715Y-115773419D01*
X85699715Y-115773419D02*
X85937810Y-115773419D01*
X85937810Y-115773419D02*
X86033048Y-115725800D01*
X86033048Y-115725800D02*
X86080667Y-115678180D01*
X86080667Y-115678180D02*
X86128286Y-115582942D01*
X86128286Y-115582942D02*
X86128286Y-115487704D01*
X86128286Y-115487704D02*
X86080667Y-115392466D01*
X86080667Y-115392466D02*
X86033048Y-115344847D01*
X86033048Y-115344847D02*
X85937810Y-115297228D01*
X85937810Y-115297228D02*
X85747334Y-115249609D01*
X85747334Y-115249609D02*
X85652096Y-115201990D01*
X85652096Y-115201990D02*
X85604477Y-115154371D01*
X85604477Y-115154371D02*
X85556858Y-115059133D01*
X85556858Y-115059133D02*
X85556858Y-114963895D01*
X85556858Y-114963895D02*
X85604477Y-114868657D01*
X85604477Y-114868657D02*
X85652096Y-114821038D01*
X85652096Y-114821038D02*
X85747334Y-114773419D01*
X85747334Y-114773419D02*
X85985429Y-114773419D01*
X85985429Y-114773419D02*
X86128286Y-114821038D01*
X86318763Y-115868657D02*
X87080667Y-115868657D01*
X87890191Y-115773419D02*
X87556858Y-115297228D01*
X87318763Y-115773419D02*
X87318763Y-114773419D01*
X87318763Y-114773419D02*
X87699715Y-114773419D01*
X87699715Y-114773419D02*
X87794953Y-114821038D01*
X87794953Y-114821038D02*
X87842572Y-114868657D01*
X87842572Y-114868657D02*
X87890191Y-114963895D01*
X87890191Y-114963895D02*
X87890191Y-115106752D01*
X87890191Y-115106752D02*
X87842572Y-115201990D01*
X87842572Y-115201990D02*
X87794953Y-115249609D01*
X87794953Y-115249609D02*
X87699715Y-115297228D01*
X87699715Y-115297228D02*
X87318763Y-115297228D01*
X88699715Y-115725800D02*
X88604477Y-115773419D01*
X88604477Y-115773419D02*
X88414001Y-115773419D01*
X88414001Y-115773419D02*
X88318763Y-115725800D01*
X88318763Y-115725800D02*
X88271144Y-115630561D01*
X88271144Y-115630561D02*
X88271144Y-115249609D01*
X88271144Y-115249609D02*
X88318763Y-115154371D01*
X88318763Y-115154371D02*
X88414001Y-115106752D01*
X88414001Y-115106752D02*
X88604477Y-115106752D01*
X88604477Y-115106752D02*
X88699715Y-115154371D01*
X88699715Y-115154371D02*
X88747334Y-115249609D01*
X88747334Y-115249609D02*
X88747334Y-115344847D01*
X88747334Y-115344847D02*
X88271144Y-115440085D01*
X89175906Y-115773419D02*
X89175906Y-115106752D01*
X89175906Y-115201990D02*
X89223525Y-115154371D01*
X89223525Y-115154371D02*
X89318763Y-115106752D01*
X89318763Y-115106752D02*
X89461620Y-115106752D01*
X89461620Y-115106752D02*
X89556858Y-115154371D01*
X89556858Y-115154371D02*
X89604477Y-115249609D01*
X89604477Y-115249609D02*
X89604477Y-115773419D01*
X89604477Y-115249609D02*
X89652096Y-115154371D01*
X89652096Y-115154371D02*
X89747334Y-115106752D01*
X89747334Y-115106752D02*
X89890191Y-115106752D01*
X89890191Y-115106752D02*
X89985430Y-115154371D01*
X89985430Y-115154371D02*
X90033049Y-115249609D01*
X90033049Y-115249609D02*
X90033049Y-115773419D01*
X90937810Y-115773419D02*
X90937810Y-115249609D01*
X90937810Y-115249609D02*
X90890191Y-115154371D01*
X90890191Y-115154371D02*
X90794953Y-115106752D01*
X90794953Y-115106752D02*
X90604477Y-115106752D01*
X90604477Y-115106752D02*
X90509239Y-115154371D01*
X90937810Y-115725800D02*
X90842572Y-115773419D01*
X90842572Y-115773419D02*
X90604477Y-115773419D01*
X90604477Y-115773419D02*
X90509239Y-115725800D01*
X90509239Y-115725800D02*
X90461620Y-115630561D01*
X90461620Y-115630561D02*
X90461620Y-115535323D01*
X90461620Y-115535323D02*
X90509239Y-115440085D01*
X90509239Y-115440085D02*
X90604477Y-115392466D01*
X90604477Y-115392466D02*
X90842572Y-115392466D01*
X90842572Y-115392466D02*
X90937810Y-115344847D01*
X91414001Y-115773419D02*
X91414001Y-114773419D01*
X91509239Y-115392466D02*
X91794953Y-115773419D01*
X91794953Y-115106752D02*
X91414001Y-115487704D01*
X92604477Y-115725800D02*
X92509239Y-115773419D01*
X92509239Y-115773419D02*
X92318763Y-115773419D01*
X92318763Y-115773419D02*
X92223525Y-115725800D01*
X92223525Y-115725800D02*
X92175906Y-115630561D01*
X92175906Y-115630561D02*
X92175906Y-115249609D01*
X92175906Y-115249609D02*
X92223525Y-115154371D01*
X92223525Y-115154371D02*
X92318763Y-115106752D01*
X92318763Y-115106752D02*
X92509239Y-115106752D01*
X92509239Y-115106752D02*
X92604477Y-115154371D01*
X92604477Y-115154371D02*
X92652096Y-115249609D01*
X92652096Y-115249609D02*
X92652096Y-115344847D01*
X92652096Y-115344847D02*
X92175906Y-115440085D01*
X67818762Y-116716696D02*
X68056857Y-117383363D01*
X68056857Y-117383363D02*
X68294952Y-116716696D01*
X68866381Y-116383363D02*
X68961619Y-116383363D01*
X68961619Y-116383363D02*
X69056857Y-116430982D01*
X69056857Y-116430982D02*
X69104476Y-116478601D01*
X69104476Y-116478601D02*
X69152095Y-116573839D01*
X69152095Y-116573839D02*
X69199714Y-116764315D01*
X69199714Y-116764315D02*
X69199714Y-117002410D01*
X69199714Y-117002410D02*
X69152095Y-117192886D01*
X69152095Y-117192886D02*
X69104476Y-117288124D01*
X69104476Y-117288124D02*
X69056857Y-117335744D01*
X69056857Y-117335744D02*
X68961619Y-117383363D01*
X68961619Y-117383363D02*
X68866381Y-117383363D01*
X68866381Y-117383363D02*
X68771143Y-117335744D01*
X68771143Y-117335744D02*
X68723524Y-117288124D01*
X68723524Y-117288124D02*
X68675905Y-117192886D01*
X68675905Y-117192886D02*
X68628286Y-117002410D01*
X68628286Y-117002410D02*
X68628286Y-116764315D01*
X68628286Y-116764315D02*
X68675905Y-116573839D01*
X68675905Y-116573839D02*
X68723524Y-116478601D01*
X68723524Y-116478601D02*
X68771143Y-116430982D01*
X68771143Y-116430982D02*
X68866381Y-116383363D01*
X69628286Y-117288124D02*
X69675905Y-117335744D01*
X69675905Y-117335744D02*
X69628286Y-117383363D01*
X69628286Y-117383363D02*
X69580667Y-117335744D01*
X69580667Y-117335744D02*
X69628286Y-117288124D01*
X69628286Y-117288124D02*
X69628286Y-117383363D01*
X70628285Y-117383363D02*
X70056857Y-117383363D01*
X70342571Y-117383363D02*
X70342571Y-116383363D01*
X70342571Y-116383363D02*
X70247333Y-116526220D01*
X70247333Y-116526220D02*
X70152095Y-116621458D01*
X70152095Y-116621458D02*
X70056857Y-116669077D01*
X71818762Y-117383363D02*
X71818762Y-116383363D01*
X72390190Y-117383363D02*
X71961619Y-116811934D01*
X72390190Y-116383363D02*
X71818762Y-116954791D01*
X73199714Y-117335744D02*
X73104476Y-117383363D01*
X73104476Y-117383363D02*
X72914000Y-117383363D01*
X72914000Y-117383363D02*
X72818762Y-117335744D01*
X72818762Y-117335744D02*
X72771143Y-117240505D01*
X72771143Y-117240505D02*
X72771143Y-116859553D01*
X72771143Y-116859553D02*
X72818762Y-116764315D01*
X72818762Y-116764315D02*
X72914000Y-116716696D01*
X72914000Y-116716696D02*
X73104476Y-116716696D01*
X73104476Y-116716696D02*
X73199714Y-116764315D01*
X73199714Y-116764315D02*
X73247333Y-116859553D01*
X73247333Y-116859553D02*
X73247333Y-116954791D01*
X73247333Y-116954791D02*
X72771143Y-117050029D01*
X73580667Y-116716696D02*
X73818762Y-117383363D01*
X73818762Y-117383363D02*
X74056857Y-116716696D01*
X74437810Y-117383363D02*
X74437810Y-116716696D01*
X74437810Y-116383363D02*
X74390191Y-116430982D01*
X74390191Y-116430982D02*
X74437810Y-116478601D01*
X74437810Y-116478601D02*
X74485429Y-116430982D01*
X74485429Y-116430982D02*
X74437810Y-116383363D01*
X74437810Y-116383363D02*
X74437810Y-116478601D01*
X74914000Y-116716696D02*
X74914000Y-117383363D01*
X74914000Y-116811934D02*
X74961619Y-116764315D01*
X74961619Y-116764315D02*
X75056857Y-116716696D01*
X75056857Y-116716696D02*
X75199714Y-116716696D01*
X75199714Y-116716696D02*
X75294952Y-116764315D01*
X75294952Y-116764315D02*
X75342571Y-116859553D01*
X75342571Y-116859553D02*
X75342571Y-117383363D01*
X76533048Y-116478601D02*
X76580667Y-116430982D01*
X76580667Y-116430982D02*
X76675905Y-116383363D01*
X76675905Y-116383363D02*
X76914000Y-116383363D01*
X76914000Y-116383363D02*
X77009238Y-116430982D01*
X77009238Y-116430982D02*
X77056857Y-116478601D01*
X77056857Y-116478601D02*
X77104476Y-116573839D01*
X77104476Y-116573839D02*
X77104476Y-116669077D01*
X77104476Y-116669077D02*
X77056857Y-116811934D01*
X77056857Y-116811934D02*
X76485429Y-117383363D01*
X76485429Y-117383363D02*
X77104476Y-117383363D01*
X77723524Y-116383363D02*
X77818762Y-116383363D01*
X77818762Y-116383363D02*
X77914000Y-116430982D01*
X77914000Y-116430982D02*
X77961619Y-116478601D01*
X77961619Y-116478601D02*
X78009238Y-116573839D01*
X78009238Y-116573839D02*
X78056857Y-116764315D01*
X78056857Y-116764315D02*
X78056857Y-117002410D01*
X78056857Y-117002410D02*
X78009238Y-117192886D01*
X78009238Y-117192886D02*
X77961619Y-117288124D01*
X77961619Y-117288124D02*
X77914000Y-117335744D01*
X77914000Y-117335744D02*
X77818762Y-117383363D01*
X77818762Y-117383363D02*
X77723524Y-117383363D01*
X77723524Y-117383363D02*
X77628286Y-117335744D01*
X77628286Y-117335744D02*
X77580667Y-117288124D01*
X77580667Y-117288124D02*
X77533048Y-117192886D01*
X77533048Y-117192886D02*
X77485429Y-117002410D01*
X77485429Y-117002410D02*
X77485429Y-116764315D01*
X77485429Y-116764315D02*
X77533048Y-116573839D01*
X77533048Y-116573839D02*
X77580667Y-116478601D01*
X77580667Y-116478601D02*
X77628286Y-116430982D01*
X77628286Y-116430982D02*
X77723524Y-116383363D01*
X78437810Y-116478601D02*
X78485429Y-116430982D01*
X78485429Y-116430982D02*
X78580667Y-116383363D01*
X78580667Y-116383363D02*
X78818762Y-116383363D01*
X78818762Y-116383363D02*
X78914000Y-116430982D01*
X78914000Y-116430982D02*
X78961619Y-116478601D01*
X78961619Y-116478601D02*
X79009238Y-116573839D01*
X79009238Y-116573839D02*
X79009238Y-116669077D01*
X79009238Y-116669077D02*
X78961619Y-116811934D01*
X78961619Y-116811934D02*
X78390191Y-117383363D01*
X78390191Y-117383363D02*
X79009238Y-117383363D01*
X79866381Y-116383363D02*
X79675905Y-116383363D01*
X79675905Y-116383363D02*
X79580667Y-116430982D01*
X79580667Y-116430982D02*
X79533048Y-116478601D01*
X79533048Y-116478601D02*
X79437810Y-116621458D01*
X79437810Y-116621458D02*
X79390191Y-116811934D01*
X79390191Y-116811934D02*
X79390191Y-117192886D01*
X79390191Y-117192886D02*
X79437810Y-117288124D01*
X79437810Y-117288124D02*
X79485429Y-117335744D01*
X79485429Y-117335744D02*
X79580667Y-117383363D01*
X79580667Y-117383363D02*
X79771143Y-117383363D01*
X79771143Y-117383363D02*
X79866381Y-117335744D01*
X79866381Y-117335744D02*
X79914000Y-117288124D01*
X79914000Y-117288124D02*
X79961619Y-117192886D01*
X79961619Y-117192886D02*
X79961619Y-116954791D01*
X79961619Y-116954791D02*
X79914000Y-116859553D01*
X79914000Y-116859553D02*
X79866381Y-116811934D01*
X79866381Y-116811934D02*
X79771143Y-116764315D01*
X79771143Y-116764315D02*
X79580667Y-116764315D01*
X79580667Y-116764315D02*
X79485429Y-116811934D01*
X79485429Y-116811934D02*
X79437810Y-116859553D01*
X79437810Y-116859553D02*
X79390191Y-116954791D01*
D11*
X132119666Y-97668819D02*
X132119666Y-98383104D01*
X132119666Y-98383104D02*
X132072047Y-98525961D01*
X132072047Y-98525961D02*
X131976809Y-98621200D01*
X131976809Y-98621200D02*
X131833952Y-98668819D01*
X131833952Y-98668819D02*
X131738714Y-98668819D01*
X132500619Y-97668819D02*
X133119666Y-97668819D01*
X133119666Y-97668819D02*
X132786333Y-98049771D01*
X132786333Y-98049771D02*
X132929190Y-98049771D01*
X132929190Y-98049771D02*
X133024428Y-98097390D01*
X133024428Y-98097390D02*
X133072047Y-98145009D01*
X133072047Y-98145009D02*
X133119666Y-98240247D01*
X133119666Y-98240247D02*
X133119666Y-98478342D01*
X133119666Y-98478342D02*
X133072047Y-98573580D01*
X133072047Y-98573580D02*
X133024428Y-98621200D01*
X133024428Y-98621200D02*
X132929190Y-98668819D01*
X132929190Y-98668819D02*
X132643476Y-98668819D01*
X132643476Y-98668819D02*
X132548238Y-98621200D01*
X132548238Y-98621200D02*
X132500619Y-98573580D01*
X132119666Y-53514819D02*
X132119666Y-54229104D01*
X132119666Y-54229104D02*
X132072047Y-54371961D01*
X132072047Y-54371961D02*
X131976809Y-54467200D01*
X131976809Y-54467200D02*
X131833952Y-54514819D01*
X131833952Y-54514819D02*
X131738714Y-54514819D01*
X132548238Y-53610057D02*
X132595857Y-53562438D01*
X132595857Y-53562438D02*
X132691095Y-53514819D01*
X132691095Y-53514819D02*
X132929190Y-53514819D01*
X132929190Y-53514819D02*
X133024428Y-53562438D01*
X133024428Y-53562438D02*
X133072047Y-53610057D01*
X133072047Y-53610057D02*
X133119666Y-53705295D01*
X133119666Y-53705295D02*
X133119666Y-53800533D01*
X133119666Y-53800533D02*
X133072047Y-53943390D01*
X133072047Y-53943390D02*
X132500619Y-54514819D01*
X132500619Y-54514819D02*
X133119666Y-54514819D01*
X81875429Y-71225580D02*
X81923048Y-71273200D01*
X81923048Y-71273200D02*
X81875429Y-71320819D01*
X81875429Y-71320819D02*
X81827810Y-71273200D01*
X81827810Y-71273200D02*
X81875429Y-71225580D01*
X81875429Y-71225580D02*
X81875429Y-71320819D01*
X82875428Y-71320819D02*
X82304000Y-71320819D01*
X82589714Y-71320819D02*
X82589714Y-70320819D01*
X82589714Y-70320819D02*
X82494476Y-70463676D01*
X82494476Y-70463676D02*
X82399238Y-70558914D01*
X82399238Y-70558914D02*
X82304000Y-70606533D01*
X83732571Y-70654152D02*
X83732571Y-71320819D01*
X83304000Y-70654152D02*
X83304000Y-71177961D01*
X83304000Y-71177961D02*
X83351619Y-71273200D01*
X83351619Y-71273200D02*
X83446857Y-71320819D01*
X83446857Y-71320819D02*
X83589714Y-71320819D01*
X83589714Y-71320819D02*
X83684952Y-71273200D01*
X83684952Y-71273200D02*
X83732571Y-71225580D01*
X106604819Y-124629047D02*
X106604819Y-123962381D01*
X106604819Y-123962381D02*
X107604819Y-124390952D01*
X106938152Y-123152857D02*
X107604819Y-123152857D01*
X106557200Y-123390952D02*
X107271485Y-123629047D01*
X107271485Y-123629047D02*
X107271485Y-123010000D01*
X107604819Y-122152857D02*
X107604819Y-122629047D01*
X107604819Y-122629047D02*
X106604819Y-122629047D01*
X107557200Y-121867142D02*
X107604819Y-121724285D01*
X107604819Y-121724285D02*
X107604819Y-121486190D01*
X107604819Y-121486190D02*
X107557200Y-121390952D01*
X107557200Y-121390952D02*
X107509580Y-121343333D01*
X107509580Y-121343333D02*
X107414342Y-121295714D01*
X107414342Y-121295714D02*
X107319104Y-121295714D01*
X107319104Y-121295714D02*
X107223866Y-121343333D01*
X107223866Y-121343333D02*
X107176247Y-121390952D01*
X107176247Y-121390952D02*
X107128628Y-121486190D01*
X107128628Y-121486190D02*
X107081009Y-121676666D01*
X107081009Y-121676666D02*
X107033390Y-121771904D01*
X107033390Y-121771904D02*
X106985771Y-121819523D01*
X106985771Y-121819523D02*
X106890533Y-121867142D01*
X106890533Y-121867142D02*
X106795295Y-121867142D01*
X106795295Y-121867142D02*
X106700057Y-121819523D01*
X106700057Y-121819523D02*
X106652438Y-121771904D01*
X106652438Y-121771904D02*
X106604819Y-121676666D01*
X106604819Y-121676666D02*
X106604819Y-121438571D01*
X106604819Y-121438571D02*
X106652438Y-121295714D01*
X106700057Y-120914761D02*
X106652438Y-120867142D01*
X106652438Y-120867142D02*
X106604819Y-120771904D01*
X106604819Y-120771904D02*
X106604819Y-120533809D01*
X106604819Y-120533809D02*
X106652438Y-120438571D01*
X106652438Y-120438571D02*
X106700057Y-120390952D01*
X106700057Y-120390952D02*
X106795295Y-120343333D01*
X106795295Y-120343333D02*
X106890533Y-120343333D01*
X106890533Y-120343333D02*
X107033390Y-120390952D01*
X107033390Y-120390952D02*
X107604819Y-120962380D01*
X107604819Y-120962380D02*
X107604819Y-120343333D01*
X106938152Y-119486190D02*
X107604819Y-119486190D01*
X106557200Y-119724285D02*
X107271485Y-119962380D01*
X107271485Y-119962380D02*
X107271485Y-119343333D01*
X106938152Y-118533809D02*
X107604819Y-118533809D01*
X106557200Y-118771904D02*
X107271485Y-119009999D01*
X107271485Y-119009999D02*
X107271485Y-118390952D01*
X62863952Y-128600819D02*
X63530618Y-128600819D01*
X63530618Y-128600819D02*
X63102047Y-129600819D01*
X64340142Y-128934152D02*
X64340142Y-129600819D01*
X64102047Y-128553200D02*
X63863952Y-129267485D01*
X63863952Y-129267485D02*
X64482999Y-129267485D01*
X65340142Y-129600819D02*
X64863952Y-129600819D01*
X64863952Y-129600819D02*
X64863952Y-128600819D01*
X65625857Y-129553200D02*
X65768714Y-129600819D01*
X65768714Y-129600819D02*
X66006809Y-129600819D01*
X66006809Y-129600819D02*
X66102047Y-129553200D01*
X66102047Y-129553200D02*
X66149666Y-129505580D01*
X66149666Y-129505580D02*
X66197285Y-129410342D01*
X66197285Y-129410342D02*
X66197285Y-129315104D01*
X66197285Y-129315104D02*
X66149666Y-129219866D01*
X66149666Y-129219866D02*
X66102047Y-129172247D01*
X66102047Y-129172247D02*
X66006809Y-129124628D01*
X66006809Y-129124628D02*
X65816333Y-129077009D01*
X65816333Y-129077009D02*
X65721095Y-129029390D01*
X65721095Y-129029390D02*
X65673476Y-128981771D01*
X65673476Y-128981771D02*
X65625857Y-128886533D01*
X65625857Y-128886533D02*
X65625857Y-128791295D01*
X65625857Y-128791295D02*
X65673476Y-128696057D01*
X65673476Y-128696057D02*
X65721095Y-128648438D01*
X65721095Y-128648438D02*
X65816333Y-128600819D01*
X65816333Y-128600819D02*
X66054428Y-128600819D01*
X66054428Y-128600819D02*
X66197285Y-128648438D01*
X67149666Y-129600819D02*
X66578238Y-129600819D01*
X66863952Y-129600819D02*
X66863952Y-128600819D01*
X66863952Y-128600819D02*
X66768714Y-128743676D01*
X66768714Y-128743676D02*
X66673476Y-128838914D01*
X66673476Y-128838914D02*
X66578238Y-128886533D01*
X67483000Y-128600819D02*
X68102047Y-128600819D01*
X68102047Y-128600819D02*
X67768714Y-128981771D01*
X67768714Y-128981771D02*
X67911571Y-128981771D01*
X67911571Y-128981771D02*
X68006809Y-129029390D01*
X68006809Y-129029390D02*
X68054428Y-129077009D01*
X68054428Y-129077009D02*
X68102047Y-129172247D01*
X68102047Y-129172247D02*
X68102047Y-129410342D01*
X68102047Y-129410342D02*
X68054428Y-129505580D01*
X68054428Y-129505580D02*
X68006809Y-129553200D01*
X68006809Y-129553200D02*
X67911571Y-129600819D01*
X67911571Y-129600819D02*
X67625857Y-129600819D01*
X67625857Y-129600819D02*
X67530619Y-129553200D01*
X67530619Y-129553200D02*
X67483000Y-129505580D01*
X68673476Y-129029390D02*
X68578238Y-128981771D01*
X68578238Y-128981771D02*
X68530619Y-128934152D01*
X68530619Y-128934152D02*
X68483000Y-128838914D01*
X68483000Y-128838914D02*
X68483000Y-128791295D01*
X68483000Y-128791295D02*
X68530619Y-128696057D01*
X68530619Y-128696057D02*
X68578238Y-128648438D01*
X68578238Y-128648438D02*
X68673476Y-128600819D01*
X68673476Y-128600819D02*
X68863952Y-128600819D01*
X68863952Y-128600819D02*
X68959190Y-128648438D01*
X68959190Y-128648438D02*
X69006809Y-128696057D01*
X69006809Y-128696057D02*
X69054428Y-128791295D01*
X69054428Y-128791295D02*
X69054428Y-128838914D01*
X69054428Y-128838914D02*
X69006809Y-128934152D01*
X69006809Y-128934152D02*
X68959190Y-128981771D01*
X68959190Y-128981771D02*
X68863952Y-129029390D01*
X68863952Y-129029390D02*
X68673476Y-129029390D01*
X68673476Y-129029390D02*
X68578238Y-129077009D01*
X68578238Y-129077009D02*
X68530619Y-129124628D01*
X68530619Y-129124628D02*
X68483000Y-129219866D01*
X68483000Y-129219866D02*
X68483000Y-129410342D01*
X68483000Y-129410342D02*
X68530619Y-129505580D01*
X68530619Y-129505580D02*
X68578238Y-129553200D01*
X68578238Y-129553200D02*
X68673476Y-129600819D01*
X68673476Y-129600819D02*
X68863952Y-129600819D01*
X68863952Y-129600819D02*
X68959190Y-129553200D01*
X68959190Y-129553200D02*
X69006809Y-129505580D01*
X69006809Y-129505580D02*
X69054428Y-129410342D01*
X69054428Y-129410342D02*
X69054428Y-129219866D01*
X69054428Y-129219866D02*
X69006809Y-129124628D01*
X69006809Y-129124628D02*
X68959190Y-129077009D01*
X68959190Y-129077009D02*
X68863952Y-129029390D01*
X70717580Y-58586570D02*
X70765200Y-58538951D01*
X70765200Y-58538951D02*
X70812819Y-58586570D01*
X70812819Y-58586570D02*
X70765200Y-58634189D01*
X70765200Y-58634189D02*
X70717580Y-58586570D01*
X70717580Y-58586570D02*
X70812819Y-58586570D01*
X70812819Y-57586571D02*
X70812819Y-58157999D01*
X70812819Y-57872285D02*
X69812819Y-57872285D01*
X69812819Y-57872285D02*
X69955676Y-57967523D01*
X69955676Y-57967523D02*
X70050914Y-58062761D01*
X70050914Y-58062761D02*
X70098533Y-58157999D01*
X70146152Y-56729428D02*
X70812819Y-56729428D01*
X70146152Y-57157999D02*
X70669961Y-57157999D01*
X70669961Y-57157999D02*
X70765200Y-57110380D01*
X70765200Y-57110380D02*
X70812819Y-57015142D01*
X70812819Y-57015142D02*
X70812819Y-56872285D01*
X70812819Y-56872285D02*
X70765200Y-56777047D01*
X70765200Y-56777047D02*
X70717580Y-56729428D01*
X58704429Y-122647580D02*
X58752048Y-122695200D01*
X58752048Y-122695200D02*
X58704429Y-122742819D01*
X58704429Y-122742819D02*
X58656810Y-122695200D01*
X58656810Y-122695200D02*
X58704429Y-122647580D01*
X58704429Y-122647580D02*
X58704429Y-122742819D01*
X59704428Y-122742819D02*
X59133000Y-122742819D01*
X59418714Y-122742819D02*
X59418714Y-121742819D01*
X59418714Y-121742819D02*
X59323476Y-121885676D01*
X59323476Y-121885676D02*
X59228238Y-121980914D01*
X59228238Y-121980914D02*
X59133000Y-122028533D01*
X60561571Y-122076152D02*
X60561571Y-122742819D01*
X60133000Y-122076152D02*
X60133000Y-122599961D01*
X60133000Y-122599961D02*
X60180619Y-122695200D01*
X60180619Y-122695200D02*
X60275857Y-122742819D01*
X60275857Y-122742819D02*
X60418714Y-122742819D01*
X60418714Y-122742819D02*
X60513952Y-122695200D01*
X60513952Y-122695200D02*
X60561571Y-122647580D01*
X106604819Y-69629047D02*
X106604819Y-68962381D01*
X106604819Y-68962381D02*
X107604819Y-69390952D01*
X106938152Y-68152857D02*
X107604819Y-68152857D01*
X106557200Y-68390952D02*
X107271485Y-68629047D01*
X107271485Y-68629047D02*
X107271485Y-68010000D01*
X107604819Y-67152857D02*
X107604819Y-67629047D01*
X107604819Y-67629047D02*
X106604819Y-67629047D01*
X107557200Y-66867142D02*
X107604819Y-66724285D01*
X107604819Y-66724285D02*
X107604819Y-66486190D01*
X107604819Y-66486190D02*
X107557200Y-66390952D01*
X107557200Y-66390952D02*
X107509580Y-66343333D01*
X107509580Y-66343333D02*
X107414342Y-66295714D01*
X107414342Y-66295714D02*
X107319104Y-66295714D01*
X107319104Y-66295714D02*
X107223866Y-66343333D01*
X107223866Y-66343333D02*
X107176247Y-66390952D01*
X107176247Y-66390952D02*
X107128628Y-66486190D01*
X107128628Y-66486190D02*
X107081009Y-66676666D01*
X107081009Y-66676666D02*
X107033390Y-66771904D01*
X107033390Y-66771904D02*
X106985771Y-66819523D01*
X106985771Y-66819523D02*
X106890533Y-66867142D01*
X106890533Y-66867142D02*
X106795295Y-66867142D01*
X106795295Y-66867142D02*
X106700057Y-66819523D01*
X106700057Y-66819523D02*
X106652438Y-66771904D01*
X106652438Y-66771904D02*
X106604819Y-66676666D01*
X106604819Y-66676666D02*
X106604819Y-66438571D01*
X106604819Y-66438571D02*
X106652438Y-66295714D01*
X106700057Y-65914761D02*
X106652438Y-65867142D01*
X106652438Y-65867142D02*
X106604819Y-65771904D01*
X106604819Y-65771904D02*
X106604819Y-65533809D01*
X106604819Y-65533809D02*
X106652438Y-65438571D01*
X106652438Y-65438571D02*
X106700057Y-65390952D01*
X106700057Y-65390952D02*
X106795295Y-65343333D01*
X106795295Y-65343333D02*
X106890533Y-65343333D01*
X106890533Y-65343333D02*
X107033390Y-65390952D01*
X107033390Y-65390952D02*
X107604819Y-65962380D01*
X107604819Y-65962380D02*
X107604819Y-65343333D01*
X106938152Y-64486190D02*
X107604819Y-64486190D01*
X106557200Y-64724285D02*
X107271485Y-64962380D01*
X107271485Y-64962380D02*
X107271485Y-64343333D01*
X106938152Y-63533809D02*
X107604819Y-63533809D01*
X106557200Y-63771904D02*
X107271485Y-64009999D01*
X107271485Y-64009999D02*
X107271485Y-63390952D01*
X114151580Y-113744570D02*
X114199200Y-113696951D01*
X114199200Y-113696951D02*
X114246819Y-113744570D01*
X114246819Y-113744570D02*
X114199200Y-113792189D01*
X114199200Y-113792189D02*
X114151580Y-113744570D01*
X114151580Y-113744570D02*
X114246819Y-113744570D01*
X114246819Y-112744571D02*
X114246819Y-113315999D01*
X114246819Y-113030285D02*
X113246819Y-113030285D01*
X113246819Y-113030285D02*
X113389676Y-113125523D01*
X113389676Y-113125523D02*
X113484914Y-113220761D01*
X113484914Y-113220761D02*
X113532533Y-113315999D01*
X113580152Y-111887428D02*
X114246819Y-111887428D01*
X113580152Y-112315999D02*
X114103961Y-112315999D01*
X114103961Y-112315999D02*
X114199200Y-112268380D01*
X114199200Y-112268380D02*
X114246819Y-112173142D01*
X114246819Y-112173142D02*
X114246819Y-112030285D01*
X114246819Y-112030285D02*
X114199200Y-111935047D01*
X114199200Y-111935047D02*
X114151580Y-111887428D01*
X114659580Y-77382570D02*
X114707200Y-77334951D01*
X114707200Y-77334951D02*
X114754819Y-77382570D01*
X114754819Y-77382570D02*
X114707200Y-77430189D01*
X114707200Y-77430189D02*
X114659580Y-77382570D01*
X114659580Y-77382570D02*
X114754819Y-77382570D01*
X114754819Y-76382571D02*
X114754819Y-76953999D01*
X114754819Y-76668285D02*
X113754819Y-76668285D01*
X113754819Y-76668285D02*
X113897676Y-76763523D01*
X113897676Y-76763523D02*
X113992914Y-76858761D01*
X113992914Y-76858761D02*
X114040533Y-76953999D01*
X114088152Y-75525428D02*
X114754819Y-75525428D01*
X114088152Y-75953999D02*
X114611961Y-75953999D01*
X114611961Y-75953999D02*
X114707200Y-75906380D01*
X114707200Y-75906380D02*
X114754819Y-75811142D01*
X114754819Y-75811142D02*
X114754819Y-75668285D01*
X114754819Y-75668285D02*
X114707200Y-75573047D01*
X114707200Y-75573047D02*
X114659580Y-75525428D01*
X63424819Y-65342856D02*
X63424819Y-64676190D01*
X63424819Y-64676190D02*
X64424819Y-65104761D01*
X63758152Y-63866666D02*
X64424819Y-63866666D01*
X63377200Y-64104761D02*
X64091485Y-64342856D01*
X64091485Y-64342856D02*
X64091485Y-63723809D01*
X64424819Y-62866666D02*
X64424819Y-63342856D01*
X64424819Y-63342856D02*
X63424819Y-63342856D01*
X64377200Y-62580951D02*
X64424819Y-62438094D01*
X64424819Y-62438094D02*
X64424819Y-62199999D01*
X64424819Y-62199999D02*
X64377200Y-62104761D01*
X64377200Y-62104761D02*
X64329580Y-62057142D01*
X64329580Y-62057142D02*
X64234342Y-62009523D01*
X64234342Y-62009523D02*
X64139104Y-62009523D01*
X64139104Y-62009523D02*
X64043866Y-62057142D01*
X64043866Y-62057142D02*
X63996247Y-62104761D01*
X63996247Y-62104761D02*
X63948628Y-62199999D01*
X63948628Y-62199999D02*
X63901009Y-62390475D01*
X63901009Y-62390475D02*
X63853390Y-62485713D01*
X63853390Y-62485713D02*
X63805771Y-62533332D01*
X63805771Y-62533332D02*
X63710533Y-62580951D01*
X63710533Y-62580951D02*
X63615295Y-62580951D01*
X63615295Y-62580951D02*
X63520057Y-62533332D01*
X63520057Y-62533332D02*
X63472438Y-62485713D01*
X63472438Y-62485713D02*
X63424819Y-62390475D01*
X63424819Y-62390475D02*
X63424819Y-62152380D01*
X63424819Y-62152380D02*
X63472438Y-62009523D01*
X63424819Y-61390475D02*
X63424819Y-61295237D01*
X63424819Y-61295237D02*
X63472438Y-61199999D01*
X63472438Y-61199999D02*
X63520057Y-61152380D01*
X63520057Y-61152380D02*
X63615295Y-61104761D01*
X63615295Y-61104761D02*
X63805771Y-61057142D01*
X63805771Y-61057142D02*
X64043866Y-61057142D01*
X64043866Y-61057142D02*
X64234342Y-61104761D01*
X64234342Y-61104761D02*
X64329580Y-61152380D01*
X64329580Y-61152380D02*
X64377200Y-61199999D01*
X64377200Y-61199999D02*
X64424819Y-61295237D01*
X64424819Y-61295237D02*
X64424819Y-61390475D01*
X64424819Y-61390475D02*
X64377200Y-61485713D01*
X64377200Y-61485713D02*
X64329580Y-61533332D01*
X64329580Y-61533332D02*
X64234342Y-61580951D01*
X64234342Y-61580951D02*
X64043866Y-61628570D01*
X64043866Y-61628570D02*
X63805771Y-61628570D01*
X63805771Y-61628570D02*
X63615295Y-61580951D01*
X63615295Y-61580951D02*
X63520057Y-61533332D01*
X63520057Y-61533332D02*
X63472438Y-61485713D01*
X63472438Y-61485713D02*
X63424819Y-61390475D01*
X63758152Y-60199999D02*
X64424819Y-60199999D01*
X63377200Y-60438094D02*
X64091485Y-60676189D01*
X64091485Y-60676189D02*
X64091485Y-60057142D01*
X52558152Y-63485714D02*
X53224819Y-63485714D01*
X52177200Y-63723809D02*
X52891485Y-63961904D01*
X52891485Y-63961904D02*
X52891485Y-63342857D01*
X53224819Y-62961904D02*
X52224819Y-62961904D01*
X53224819Y-62390476D02*
X52653390Y-62819047D01*
X52224819Y-62390476D02*
X52796247Y-62961904D01*
X52224819Y-62057142D02*
X52224819Y-61390476D01*
X52224819Y-61390476D02*
X53224819Y-61819047D01*
X82941390Y-82041809D02*
X82893771Y-82137047D01*
X82893771Y-82137047D02*
X82846152Y-82184666D01*
X82846152Y-82184666D02*
X82750914Y-82232285D01*
X82750914Y-82232285D02*
X82703295Y-82232285D01*
X82703295Y-82232285D02*
X82608057Y-82184666D01*
X82608057Y-82184666D02*
X82560438Y-82137047D01*
X82560438Y-82137047D02*
X82512819Y-82041809D01*
X82512819Y-82041809D02*
X82512819Y-81851333D01*
X82512819Y-81851333D02*
X82560438Y-81756095D01*
X82560438Y-81756095D02*
X82608057Y-81708476D01*
X82608057Y-81708476D02*
X82703295Y-81660857D01*
X82703295Y-81660857D02*
X82750914Y-81660857D01*
X82750914Y-81660857D02*
X82846152Y-81708476D01*
X82846152Y-81708476D02*
X82893771Y-81756095D01*
X82893771Y-81756095D02*
X82941390Y-81851333D01*
X82941390Y-81851333D02*
X82941390Y-82041809D01*
X82941390Y-82041809D02*
X82989009Y-82137047D01*
X82989009Y-82137047D02*
X83036628Y-82184666D01*
X83036628Y-82184666D02*
X83131866Y-82232285D01*
X83131866Y-82232285D02*
X83322342Y-82232285D01*
X83322342Y-82232285D02*
X83417580Y-82184666D01*
X83417580Y-82184666D02*
X83465200Y-82137047D01*
X83465200Y-82137047D02*
X83512819Y-82041809D01*
X83512819Y-82041809D02*
X83512819Y-81851333D01*
X83512819Y-81851333D02*
X83465200Y-81756095D01*
X83465200Y-81756095D02*
X83417580Y-81708476D01*
X83417580Y-81708476D02*
X83322342Y-81660857D01*
X83322342Y-81660857D02*
X83131866Y-81660857D01*
X83131866Y-81660857D02*
X83036628Y-81708476D01*
X83036628Y-81708476D02*
X82989009Y-81756095D01*
X82989009Y-81756095D02*
X82941390Y-81851333D01*
X82608057Y-81279904D02*
X82560438Y-81232285D01*
X82560438Y-81232285D02*
X82512819Y-81137047D01*
X82512819Y-81137047D02*
X82512819Y-80898952D01*
X82512819Y-80898952D02*
X82560438Y-80803714D01*
X82560438Y-80803714D02*
X82608057Y-80756095D01*
X82608057Y-80756095D02*
X82703295Y-80708476D01*
X82703295Y-80708476D02*
X82798533Y-80708476D01*
X82798533Y-80708476D02*
X82941390Y-80756095D01*
X82941390Y-80756095D02*
X83512819Y-81327523D01*
X83512819Y-81327523D02*
X83512819Y-80708476D01*
X82512819Y-79803714D02*
X82512819Y-80279904D01*
X82512819Y-80279904D02*
X82989009Y-80327523D01*
X82989009Y-80327523D02*
X82941390Y-80279904D01*
X82941390Y-80279904D02*
X82893771Y-80184666D01*
X82893771Y-80184666D02*
X82893771Y-79946571D01*
X82893771Y-79946571D02*
X82941390Y-79851333D01*
X82941390Y-79851333D02*
X82989009Y-79803714D01*
X82989009Y-79803714D02*
X83084247Y-79756095D01*
X83084247Y-79756095D02*
X83322342Y-79756095D01*
X83322342Y-79756095D02*
X83417580Y-79803714D01*
X83417580Y-79803714D02*
X83465200Y-79851333D01*
X83465200Y-79851333D02*
X83512819Y-79946571D01*
X83512819Y-79946571D02*
X83512819Y-80184666D01*
X83512819Y-80184666D02*
X83465200Y-80279904D01*
X83465200Y-80279904D02*
X83417580Y-80327523D01*
X82512819Y-78851333D02*
X82512819Y-79327523D01*
X82512819Y-79327523D02*
X82989009Y-79375142D01*
X82989009Y-79375142D02*
X82941390Y-79327523D01*
X82941390Y-79327523D02*
X82893771Y-79232285D01*
X82893771Y-79232285D02*
X82893771Y-78994190D01*
X82893771Y-78994190D02*
X82941390Y-78898952D01*
X82941390Y-78898952D02*
X82989009Y-78851333D01*
X82989009Y-78851333D02*
X83084247Y-78803714D01*
X83084247Y-78803714D02*
X83322342Y-78803714D01*
X83322342Y-78803714D02*
X83417580Y-78851333D01*
X83417580Y-78851333D02*
X83465200Y-78898952D01*
X83465200Y-78898952D02*
X83512819Y-78994190D01*
X83512819Y-78994190D02*
X83512819Y-79232285D01*
X83512819Y-79232285D02*
X83465200Y-79327523D01*
X83465200Y-79327523D02*
X83417580Y-79375142D01*
X110960819Y-97607047D02*
X110960819Y-96940381D01*
X110960819Y-96940381D02*
X111960819Y-97368952D01*
X111294152Y-96130857D02*
X111960819Y-96130857D01*
X110913200Y-96368952D02*
X111627485Y-96607047D01*
X111627485Y-96607047D02*
X111627485Y-95988000D01*
X111960819Y-95130857D02*
X111960819Y-95607047D01*
X111960819Y-95607047D02*
X110960819Y-95607047D01*
X111913200Y-94845142D02*
X111960819Y-94702285D01*
X111960819Y-94702285D02*
X111960819Y-94464190D01*
X111960819Y-94464190D02*
X111913200Y-94368952D01*
X111913200Y-94368952D02*
X111865580Y-94321333D01*
X111865580Y-94321333D02*
X111770342Y-94273714D01*
X111770342Y-94273714D02*
X111675104Y-94273714D01*
X111675104Y-94273714D02*
X111579866Y-94321333D01*
X111579866Y-94321333D02*
X111532247Y-94368952D01*
X111532247Y-94368952D02*
X111484628Y-94464190D01*
X111484628Y-94464190D02*
X111437009Y-94654666D01*
X111437009Y-94654666D02*
X111389390Y-94749904D01*
X111389390Y-94749904D02*
X111341771Y-94797523D01*
X111341771Y-94797523D02*
X111246533Y-94845142D01*
X111246533Y-94845142D02*
X111151295Y-94845142D01*
X111151295Y-94845142D02*
X111056057Y-94797523D01*
X111056057Y-94797523D02*
X111008438Y-94749904D01*
X111008438Y-94749904D02*
X110960819Y-94654666D01*
X110960819Y-94654666D02*
X110960819Y-94416571D01*
X110960819Y-94416571D02*
X111008438Y-94273714D01*
X111056057Y-93892761D02*
X111008438Y-93845142D01*
X111008438Y-93845142D02*
X110960819Y-93749904D01*
X110960819Y-93749904D02*
X110960819Y-93511809D01*
X110960819Y-93511809D02*
X111008438Y-93416571D01*
X111008438Y-93416571D02*
X111056057Y-93368952D01*
X111056057Y-93368952D02*
X111151295Y-93321333D01*
X111151295Y-93321333D02*
X111246533Y-93321333D01*
X111246533Y-93321333D02*
X111389390Y-93368952D01*
X111389390Y-93368952D02*
X111960819Y-93940380D01*
X111960819Y-93940380D02*
X111960819Y-93321333D01*
X111294152Y-92464190D02*
X111960819Y-92464190D01*
X110913200Y-92702285D02*
X111627485Y-92940380D01*
X111627485Y-92940380D02*
X111627485Y-92321333D01*
X111294152Y-91511809D02*
X111960819Y-91511809D01*
X110913200Y-91749904D02*
X111627485Y-91987999D01*
X111627485Y-91987999D02*
X111627485Y-91368952D01*
D12*
%TO.C,J3*%
X123888000Y-103814000D02*
X123888000Y-104814000D01*
X123888000Y-104814000D02*
X124888000Y-104314000D01*
X124888000Y-104314000D02*
X123888000Y-103814000D01*
X130508000Y-99104000D02*
X139628000Y-99104000D01*
X130508000Y-111154000D02*
X139628000Y-111154000D01*
X130508000Y-115254000D02*
X139628000Y-115254000D01*
X130508000Y-127304000D02*
X130508000Y-99104000D01*
X139628000Y-99104000D02*
X139628000Y-127304000D01*
X139628000Y-127304000D02*
X130508000Y-127304000D01*
%TO.C,J2*%
X123888000Y-59660000D02*
X123888000Y-60660000D01*
X123888000Y-60660000D02*
X124888000Y-60160000D01*
X124888000Y-60160000D02*
X123888000Y-59660000D01*
X130508000Y-54950000D02*
X139628000Y-54950000D01*
X130508000Y-67000000D02*
X139628000Y-67000000D01*
X130508000Y-71100000D02*
X139628000Y-71100000D01*
X130508000Y-83150000D02*
X130508000Y-54950000D01*
X139628000Y-54950000D02*
X139628000Y-83150000D01*
X139628000Y-83150000D02*
X130508000Y-83150000D01*
%TO.C,C3*%
X85328000Y-71880000D02*
X85328000Y-71936000D01*
X85328000Y-71936000D02*
X80788000Y-71936000D01*
X80788000Y-69796000D02*
X85328000Y-69796000D01*
X80788000Y-69852000D02*
X80788000Y-69796000D01*
%TO.C,U4*%
X104500000Y-108750000D02*
X104500000Y-134270000D01*
X104500000Y-134270000D02*
X109800000Y-134270000D01*
X106150000Y-108750000D02*
X104500000Y-108750000D01*
X109800000Y-108750000D02*
X108150000Y-108750000D01*
X109800000Y-134270000D02*
X109800000Y-108750000D01*
X102010000Y-108690000D02*
X112290000Y-108690000D01*
X112290000Y-134330000D01*
X102010000Y-134330000D01*
X102010000Y-108690000D01*
X108150000Y-108750000D02*
G75*
G02*
X106150000Y-108750000I-1000000J0D01*
G01*
%TO.C,U2*%
X55763000Y-126496000D02*
X55763000Y-128146000D01*
X55763000Y-130146000D02*
X55763000Y-131796000D01*
X55763000Y-131796000D02*
X76203000Y-131796000D01*
X76203000Y-126496000D02*
X55763000Y-126496000D01*
X76203000Y-131796000D02*
X76203000Y-126496000D01*
X55703000Y-134286000D02*
X76263000Y-134286000D01*
X76263000Y-124006000D01*
X55703000Y-124006000D01*
X55703000Y-134286000D01*
X55763000Y-128146000D02*
G75*
G02*
X55763000Y-130146000I0J-1000000D01*
G01*
%TO.C,C1*%
X69542000Y-59928000D02*
X69542000Y-55388000D01*
X69598000Y-59928000D02*
X69542000Y-59928000D01*
X71626000Y-55388000D02*
X71682000Y-55388000D01*
X71682000Y-55388000D02*
X71682000Y-59928000D01*
%TO.C,C2*%
X57363000Y-121218000D02*
X61903000Y-121218000D01*
X57363000Y-121274000D02*
X57363000Y-121218000D01*
X61903000Y-123302000D02*
X61903000Y-123358000D01*
X61903000Y-123358000D02*
X57363000Y-123358000D01*
%TO.C,U5*%
X104500000Y-53750000D02*
X104500000Y-79270000D01*
X104500000Y-79270000D02*
X109800000Y-79270000D01*
X106150000Y-53750000D02*
X104500000Y-53750000D01*
X109800000Y-53750000D02*
X108150000Y-53750000D01*
X109800000Y-79270000D02*
X109800000Y-53750000D01*
X102010000Y-53690000D02*
X112290000Y-53690000D01*
X112290000Y-79330000D01*
X102010000Y-79330000D01*
X102010000Y-53690000D01*
X108150000Y-53750000D02*
G75*
G02*
X106150000Y-53750000I-1000000J0D01*
G01*
%TO.C,C4*%
X112722000Y-114792000D02*
X112722000Y-110252000D01*
X112778000Y-114792000D02*
X112722000Y-114792000D01*
X114806000Y-110252000D02*
X114862000Y-110252000D01*
X114862000Y-110252000D02*
X114862000Y-114792000D01*
%TO.C,C5*%
X113230000Y-78724000D02*
X113230000Y-74184000D01*
X113286000Y-78724000D02*
X113230000Y-78724000D01*
X115314000Y-74184000D02*
X115370000Y-74184000D01*
X115370000Y-74184000D02*
X115370000Y-78724000D01*
%TO.C,U1*%
X61320000Y-53750000D02*
X61320000Y-71650000D01*
X61320000Y-71650000D02*
X66620000Y-71650000D01*
X62970000Y-53750000D02*
X61320000Y-53750000D01*
X66620000Y-53750000D02*
X64970000Y-53750000D01*
X66620000Y-71650000D02*
X66620000Y-53750000D01*
X58830000Y-53690000D02*
X69110000Y-53690000D01*
X69110000Y-71710000D01*
X58830000Y-71710000D01*
X58830000Y-53690000D01*
X64970000Y-53750000D02*
G75*
G02*
X62970000Y-53750000I-1000000J0D01*
G01*
%TO.C,RN1*%
X56390000Y-56350000D02*
X53770000Y-56350000D01*
X56390000Y-53730000D02*
X53770000Y-53730000D01*
X53770000Y-69130000D01*
X56390000Y-69130000D01*
X56390000Y-53730000D01*
%TO.C,U3*%
X76560000Y-56290000D02*
X76560000Y-107210000D01*
X76560000Y-107210000D02*
X89480000Y-107210000D01*
X82020000Y-56290000D02*
X76560000Y-56290000D01*
X89480000Y-56290000D02*
X84020000Y-56290000D01*
X89480000Y-107210000D02*
X89480000Y-56290000D01*
X84020000Y-56290000D02*
G75*
G02*
X82020000Y-56290000I-1000000J0D01*
G01*
%TO.C,U6*%
X108856000Y-81728000D02*
X108856000Y-107248000D01*
X108856000Y-107248000D02*
X114156000Y-107248000D01*
X110506000Y-81728000D02*
X108856000Y-81728000D01*
X114156000Y-81728000D02*
X112506000Y-81728000D01*
X114156000Y-107248000D02*
X114156000Y-81728000D01*
X106366000Y-81668000D02*
X116646000Y-81668000D01*
X116646000Y-107308000D01*
X106366000Y-107308000D01*
X106366000Y-81668000D01*
X112506000Y-81728000D02*
G75*
G02*
X110506000Y-81728000I-1000000J0D01*
G01*
%TD*%
M02*
