M48
; DRILL file {KiCad 9.0.7} date 2026-05-10T09:52:22+0100
; FORMAT={-:-/ absolute / metric / decimal}
; #@! TF.CreationDate,2026-05-10T09:52:22+01:00
; #@! TF.GenerationSoftware,Kicad,Pcbnew,9.0.7
; #@! TF.FileFunction,MixedPlating,1,2
FMAT,2
METRIC
; #@! TA.AperFunction,Plated,PTH,ViaDrill
T1C0.300
; #@! TA.AperFunction,Plated,PTH,ComponentDrill
T2C0.800
; #@! TA.AperFunction,Plated,PTH,ComponentDrill
T3C1.000
%
G90
G05
T1
X59.633Y-139.306
X59.69Y-108.458
X86.868Y-137.922
X86.868Y-140.462
X88.392Y-137.922
X88.392Y-140.462
X92.71Y-108.458
X95.25Y-109.728
X95.25Y-111.125
X97.536Y-107.315
X97.79Y-108.585
X97.79Y-109.855
X98.298Y-106.172
X99.06Y-92.71
X100.33Y-92.71
X100.838Y-97.282
X101.219Y-94.361
X104.14Y-98.044
X104.394Y-93.218
X127.732Y-106.934
X128.494Y-104.394
X129.256Y-101.854
X130.048Y-99.314
X130.78Y-100.838
X130.81Y-110.744
X131.542Y-93.218
X131.572Y-113.284
X132.304Y-98.298
X132.304Y-102.616
X133.096Y-105.156
X134.59Y-95.758
X136.114Y-105.806
X136.144Y-97.79
X137.638Y-88.138
X137.638Y-100.584
T2
X55.08Y-55.08
X55.08Y-57.62
X55.08Y-60.16
X55.08Y-62.7
X55.08Y-65.24
X55.08Y-67.78
X57.093Y-125.336
X57.093Y-132.956
X57.133Y-122.288
X59.633Y-125.336
X59.633Y-132.956
X60.16Y-55.08
X60.16Y-57.62
X60.16Y-60.16
X60.16Y-62.7
X60.16Y-65.24
X60.16Y-67.78
X60.16Y-70.32
X62.133Y-122.288
X62.173Y-125.336
X62.173Y-132.956
X64.713Y-125.336
X64.713Y-132.956
X67.253Y-125.336
X67.253Y-132.956
X67.78Y-55.08
X67.78Y-57.62
X67.78Y-60.16
X67.78Y-62.7
X67.78Y-65.24
X67.78Y-67.78
X67.78Y-70.32
X69.793Y-125.336
X69.793Y-132.956
X70.612Y-55.158
X70.612Y-60.158
X72.333Y-125.336
X72.333Y-132.956
X74.873Y-125.336
X74.873Y-132.956
X75.4Y-57.62
X75.4Y-60.16
X75.4Y-62.7
X75.4Y-65.24
X75.4Y-67.78
X75.4Y-70.32
X75.4Y-72.86
X75.4Y-75.4
X75.4Y-77.94
X75.4Y-80.48
X75.4Y-83.02
X75.4Y-85.56
X75.4Y-88.1
X75.4Y-90.64
X75.4Y-93.18
X75.4Y-95.72
X75.4Y-98.26
X75.4Y-100.8
X75.4Y-103.34
X75.4Y-105.88
X80.558Y-70.866
X85.558Y-70.866
X90.64Y-57.62
X90.64Y-60.16
X90.64Y-62.7
X90.64Y-65.24
X90.64Y-67.78
X90.64Y-70.32
X90.64Y-72.86
X90.64Y-75.4
X90.64Y-77.94
X90.64Y-80.48
X90.64Y-83.02
X90.64Y-85.56
X90.64Y-88.1
X90.64Y-90.64
X90.64Y-93.18
X90.64Y-95.72
X90.64Y-98.26
X90.64Y-100.8
X90.64Y-103.34
X90.64Y-105.88
X103.34Y-55.08
X103.34Y-57.62
X103.34Y-60.16
X103.34Y-62.7
X103.34Y-65.24
X103.34Y-67.78
X103.34Y-70.32
X103.34Y-72.86
X103.34Y-75.4
X103.34Y-77.94
X103.34Y-110.08
X103.34Y-112.62
X103.34Y-115.16
X103.34Y-117.7
X103.34Y-120.24
X103.34Y-122.78
X103.34Y-125.32
X103.34Y-127.86
X103.34Y-130.4
X103.34Y-132.94
X107.696Y-83.058
X107.696Y-85.598
X107.696Y-88.138
X107.696Y-90.678
X107.696Y-93.218
X107.696Y-95.758
X107.696Y-98.298
X107.696Y-100.838
X107.696Y-103.378
X107.696Y-105.918
X110.96Y-55.08
X110.96Y-57.62
X110.96Y-60.16
X110.96Y-62.7
X110.96Y-65.24
X110.96Y-67.78
X110.96Y-70.32
X110.96Y-72.86
X110.96Y-75.4
X110.96Y-77.94
X110.96Y-110.08
X110.96Y-112.62
X110.96Y-115.16
X110.96Y-117.7
X110.96Y-120.24
X110.96Y-122.78
X110.96Y-125.32
X110.96Y-127.86
X110.96Y-130.4
X110.96Y-132.94
X113.792Y-110.022
X113.792Y-115.022
X114.3Y-73.954
X114.3Y-78.954
X115.316Y-83.058
X115.316Y-85.598
X115.316Y-88.138
X115.316Y-90.678
X115.316Y-93.218
X115.316Y-95.758
X115.316Y-98.298
X115.316Y-100.838
X115.316Y-103.378
X115.316Y-105.918
X118.11Y-80.558
X118.11Y-85.558
T3
X139.81Y-60.16
X139.81Y-62.7
X139.81Y-65.24
X139.81Y-67.78
X139.81Y-70.32
X139.81Y-72.86
X139.81Y-75.4
X139.81Y-77.94
X139.81Y-99.314
X139.81Y-101.854
X139.81Y-104.394
X139.81Y-106.934
X139.81Y-109.474
X139.81Y-112.014
X139.81Y-114.554
X139.81Y-117.094
X142.35Y-60.16
X142.35Y-62.7
X142.35Y-65.24
X142.35Y-67.78
X142.35Y-70.32
X142.35Y-72.86
X142.35Y-75.4
X142.35Y-77.94
X142.35Y-99.314
X142.35Y-101.854
X142.35Y-104.394
X142.35Y-106.934
X142.35Y-109.474
X142.35Y-112.014
X142.35Y-114.554
X142.35Y-117.094
M30
