%TF.GenerationSoftware,KiCad,Pcbnew,9.0.7*%
%TF.CreationDate,2026-05-10T11:23:45+01:00*%
%TF.ProjectId,PDS_PCISA,5044535f-5043-4495-9341-2e6b69636164,rev?*%
%TF.SameCoordinates,Original*%
%TF.FileFunction,Copper,L1,Top*%
%TF.FilePolarity,Positive*%
%FSLAX46Y46*%
G04 Gerber Fmt 4.6, Leading zero omitted, Abs format (unit mm)*
G04 Created by KiCad (PCBNEW 9.0.7) date 2026-05-10 11:23:45*
%MOMM*%
%LPD*%
G01*
G04 APERTURE LIST*
G04 Aperture macros list*
%AMRoundRect*
0 Rectangle with rounded corners*
0 $1 Rounding radius*
0 $2 $3 $4 $5 $6 $7 $8 $9 X,Y pos of 4 corners*
0 Add a 4 corners polygon primitive as box body*
4,1,4,$2,$3,$4,$5,$6,$7,$8,$9,$2,$3,0*
0 Add four circle primitives for the rounded corners*
1,1,$1+$1,$2,$3*
1,1,$1+$1,$4,$5*
1,1,$1+$1,$6,$7*
1,1,$1+$1,$8,$9*
0 Add four rect primitives between the rounded corners*
20,1,$1+$1,$2,$3,$4,$5,0*
20,1,$1+$1,$4,$5,$6,$7,0*
20,1,$1+$1,$6,$7,$8,$9,0*
20,1,$1+$1,$8,$9,$2,$3,0*%
G04 Aperture macros list end*
%TA.AperFunction,ComponentPad*%
%ADD10RoundRect,0.250000X-0.600000X-0.600000X0.600000X-0.600000X0.600000X0.600000X-0.600000X0.600000X0*%
%TD*%
%TA.AperFunction,ComponentPad*%
%ADD11C,1.700000*%
%TD*%
%TA.AperFunction,ComponentPad*%
%ADD12C,1.600000*%
%TD*%
%TA.AperFunction,ComponentPad*%
%ADD13RoundRect,0.250000X-0.550000X-0.550000X0.550000X-0.550000X0.550000X0.550000X-0.550000X0.550000X0*%
%TD*%
%TA.AperFunction,ComponentPad*%
%ADD14RoundRect,0.250000X0.550000X-0.550000X0.550000X0.550000X-0.550000X0.550000X-0.550000X-0.550000X0*%
%TD*%
%TA.AperFunction,ComponentPad*%
%ADD15R,1.600000X1.600000*%
%TD*%
%TA.AperFunction,ConnectorPad*%
%ADD16R,1.780000X7.620000*%
%TD*%
%TA.AperFunction,ViaPad*%
%ADD17C,0.600000*%
%TD*%
%TA.AperFunction,Conductor*%
%ADD18C,0.300000*%
%TD*%
%TA.AperFunction,Conductor*%
%ADD19C,0.400000*%
%TD*%
%TA.AperFunction,Conductor*%
%ADD20C,0.600000*%
%TD*%
%TA.AperFunction,Conductor*%
%ADD21C,1.200000*%
%TD*%
G04 APERTURE END LIST*
D10*
%TO.P,J3,1,Pin_1*%
%TO.N,Net-(J2-Pin_1)*%
X126238000Y-104314000D03*
D11*
%TO.P,J3,2,Pin_2*%
%TO.N,Net-(J2-Pin_12)*%
X128778000Y-104314000D03*
%TO.P,J3,3,Pin_3*%
%TO.N,Net-(J2-Pin_3)*%
X126238000Y-106854000D03*
%TO.P,J3,4,Pin_4*%
%TO.N,Net-(J2-Pin_14)*%
X128778000Y-106854000D03*
%TO.P,J3,5,Pin_5*%
%TO.N,Net-(J2-Pin_5)*%
X126238000Y-109394000D03*
%TO.P,J3,6,Pin_6*%
%TO.N,Net-(J2-Pin_6)*%
X128778000Y-109394000D03*
%TO.P,J3,7,Pin_7*%
%TO.N,Net-(J2-Pin_7)*%
X126238000Y-111934000D03*
%TO.P,J3,8,Pin_8*%
%TO.N,Net-(J2-Pin_8)*%
X128778000Y-111934000D03*
%TO.P,J3,9,Pin_9*%
%TO.N,Net-(J2-Pin_9)*%
X126238000Y-114474000D03*
%TO.P,J3,10,Pin_10*%
%TO.N,Net-(J3-Pin_10)*%
X128778000Y-114474000D03*
%TO.P,J3,11,Pin_11*%
%TO.N,Net-(J2-Pin_11)*%
X126238000Y-117014000D03*
%TO.P,J3,12,Pin_12*%
%TO.N,Net-(J2-Pin_2)*%
X128778000Y-117014000D03*
%TO.P,J3,13,Pin_13*%
%TO.N,Net-(J2-Pin_13)*%
X126238000Y-119554000D03*
%TO.P,J3,14,Pin_14*%
%TO.N,Net-(J2-Pin_4)*%
X128778000Y-119554000D03*
%TO.P,J3,15,Pin_15*%
%TO.N,Net-(J2-Pin_15)*%
X126238000Y-122094000D03*
%TO.P,J3,16,Pin_16*%
%TO.N,GND*%
X128778000Y-122094000D03*
%TD*%
D10*
%TO.P,J2,1,Pin_1*%
%TO.N,Net-(J2-Pin_1)*%
X126238000Y-60160000D03*
D11*
%TO.P,J2,2,Pin_2*%
%TO.N,Net-(J2-Pin_2)*%
X128778000Y-60160000D03*
%TO.P,J2,3,Pin_3*%
%TO.N,Net-(J2-Pin_3)*%
X126238000Y-62700000D03*
%TO.P,J2,4,Pin_4*%
%TO.N,Net-(J2-Pin_4)*%
X128778000Y-62700000D03*
%TO.P,J2,5,Pin_5*%
%TO.N,Net-(J2-Pin_5)*%
X126238000Y-65240000D03*
%TO.P,J2,6,Pin_6*%
%TO.N,Net-(J2-Pin_6)*%
X128778000Y-65240000D03*
%TO.P,J2,7,Pin_7*%
%TO.N,Net-(J2-Pin_7)*%
X126238000Y-67780000D03*
%TO.P,J2,8,Pin_8*%
%TO.N,Net-(J2-Pin_8)*%
X128778000Y-67780000D03*
%TO.P,J2,9,Pin_9*%
%TO.N,Net-(J2-Pin_9)*%
X126238000Y-70320000D03*
%TO.P,J2,10,Pin_10*%
%TO.N,Net-(J2-Pin_10)*%
X128778000Y-70320000D03*
%TO.P,J2,11,Pin_11*%
%TO.N,Net-(J2-Pin_11)*%
X126238000Y-72860000D03*
%TO.P,J2,12,Pin_12*%
%TO.N,Net-(J2-Pin_12)*%
X128778000Y-72860000D03*
%TO.P,J2,13,Pin_13*%
%TO.N,Net-(J2-Pin_13)*%
X126238000Y-75400000D03*
%TO.P,J2,14,Pin_14*%
%TO.N,Net-(J2-Pin_14)*%
X128778000Y-75400000D03*
%TO.P,J2,15,Pin_15*%
%TO.N,Net-(J2-Pin_15)*%
X126238000Y-77940000D03*
%TO.P,J2,16,Pin_16*%
%TO.N,GND*%
X128778000Y-77940000D03*
%TD*%
D12*
%TO.P,C3,2*%
%TO.N,GND*%
X80558000Y-70866000D03*
%TO.P,C3,1*%
%TO.N,VCC*%
X85558000Y-70866000D03*
%TD*%
D13*
%TO.P,U4,1,OEa*%
%TO.N,/{slash}PC2*%
X103340000Y-110080000D03*
D12*
%TO.P,U4,2,I0a*%
%TO.N,/PB3*%
X103340000Y-112620000D03*
%TO.P,U4,3,O3b*%
%TO.N,/PA3*%
X103340000Y-115160000D03*
%TO.P,U4,4,I1a*%
%TO.N,/PB2*%
X103340000Y-117700000D03*
%TO.P,U4,5,O2b*%
%TO.N,/PA2*%
X103340000Y-120240000D03*
%TO.P,U4,6,I2a*%
%TO.N,/PB1*%
X103340000Y-122780000D03*
%TO.P,U4,7,O1b*%
%TO.N,/PA1*%
X103340000Y-125320000D03*
%TO.P,U4,8,I3a*%
%TO.N,/PB0*%
X103340000Y-127860000D03*
%TO.P,U4,9,O0b*%
%TO.N,/PA0*%
X103340000Y-130400000D03*
%TO.P,U4,10,GND*%
%TO.N,GND*%
X103340000Y-132940000D03*
%TO.P,U4,11,I0b*%
%TO.N,Net-(J2-Pin_15)*%
X110960000Y-132940000D03*
%TO.P,U4,12,O3a*%
X110960000Y-130400000D03*
%TO.P,U4,13,I1b*%
%TO.N,Net-(J2-Pin_13)*%
X110960000Y-127860000D03*
%TO.P,U4,14,O2a*%
X110960000Y-125320000D03*
%TO.P,U4,15,I2b*%
%TO.N,Net-(J2-Pin_11)*%
X110960000Y-122780000D03*
%TO.P,U4,16,O1a*%
X110960000Y-120240000D03*
%TO.P,U4,17,I3b*%
%TO.N,Net-(J2-Pin_9)*%
X110960000Y-117700000D03*
%TO.P,U4,18,O0a*%
X110960000Y-115160000D03*
%TO.P,U4,19,OEb*%
%TO.N,/PC2*%
X110960000Y-112620000D03*
%TO.P,U4,20,VCC*%
%TO.N,VCC*%
X110960000Y-110080000D03*
%TD*%
D14*
%TO.P,U2,1,A0*%
%TO.N,/AEN*%
X57093000Y-132956000D03*
D12*
%TO.P,U2,2,A1*%
%TO.N,/A5*%
X59633000Y-132956000D03*
%TO.P,U2,3,A2*%
%TO.N,/A9*%
X62173000Y-132956000D03*
%TO.P,U2,4,E1*%
%TO.N,/A7*%
X64713000Y-132956000D03*
%TO.P,U2,5,E2*%
%TO.N,/A6*%
X67253000Y-132956000D03*
%TO.P,U2,6,E3*%
%TO.N,/A8*%
X69793000Y-132956000D03*
%TO.P,U2,7,O7*%
%TO.N,unconnected-(U2-O7-Pad7)*%
X72333000Y-132956000D03*
%TO.P,U2,8,GND*%
%TO.N,GND*%
X74873000Y-132956000D03*
%TO.P,U2,9,O6*%
%TO.N,unconnected-(U2-O6-Pad9)*%
X74873000Y-125336000D03*
%TO.P,U2,10,O5*%
%TO.N,unconnected-(U2-O5-Pad10)*%
X72333000Y-125336000D03*
%TO.P,U2,11,O4*%
%TO.N,Net-(U2-O4)*%
X69793000Y-125336000D03*
%TO.P,U2,12,O3*%
%TO.N,unconnected-(U2-O3-Pad12)*%
X67253000Y-125336000D03*
%TO.P,U2,13,O2*%
%TO.N,unconnected-(U2-O2-Pad13)*%
X64713000Y-125336000D03*
%TO.P,U2,14,O1*%
%TO.N,unconnected-(U2-O1-Pad14)*%
X62173000Y-125336000D03*
%TO.P,U2,15,O0*%
%TO.N,unconnected-(U2-O0-Pad15)*%
X59633000Y-125336000D03*
%TO.P,U2,16,VCC*%
%TO.N,VCC*%
X57093000Y-125336000D03*
%TD*%
%TO.P,C1,1*%
%TO.N,VCC*%
X70612000Y-55158000D03*
%TO.P,C1,2*%
%TO.N,GND*%
X70612000Y-60158000D03*
%TD*%
%TO.P,C2,1*%
%TO.N,VCC*%
X57133000Y-122288000D03*
%TO.P,C2,2*%
%TO.N,GND*%
X62133000Y-122288000D03*
%TD*%
D13*
%TO.P,U5,1,OEa*%
%TO.N,/{slash}PC2*%
X103340000Y-55080000D03*
D12*
%TO.P,U5,2,I0a*%
%TO.N,/PB7*%
X103340000Y-57620000D03*
%TO.P,U5,3,O3b*%
%TO.N,/PA7*%
X103340000Y-60160000D03*
%TO.P,U5,4,I1a*%
%TO.N,/PB6*%
X103340000Y-62700000D03*
%TO.P,U5,5,O2b*%
%TO.N,/PA6*%
X103340000Y-65240000D03*
%TO.P,U5,6,I2a*%
%TO.N,/PB5*%
X103340000Y-67780000D03*
%TO.P,U5,7,O1b*%
%TO.N,/PA5*%
X103340000Y-70320000D03*
%TO.P,U5,8,I3a*%
%TO.N,/PB4*%
X103340000Y-72860000D03*
%TO.P,U5,9,O0b*%
%TO.N,/PA4*%
X103340000Y-75400000D03*
%TO.P,U5,10,GND*%
%TO.N,GND*%
X103340000Y-77940000D03*
%TO.P,U5,11,I0b*%
%TO.N,Net-(J2-Pin_7)*%
X110960000Y-77940000D03*
%TO.P,U5,12,O3a*%
X110960000Y-75400000D03*
%TO.P,U5,13,I1b*%
%TO.N,Net-(J2-Pin_5)*%
X110960000Y-72860000D03*
%TO.P,U5,14,O2a*%
X110960000Y-70320000D03*
%TO.P,U5,15,I2b*%
%TO.N,Net-(J2-Pin_3)*%
X110960000Y-67780000D03*
%TO.P,U5,16,O1a*%
X110960000Y-65240000D03*
%TO.P,U5,17,I3b*%
%TO.N,Net-(J2-Pin_1)*%
X110960000Y-62700000D03*
%TO.P,U5,18,O0a*%
X110960000Y-60160000D03*
%TO.P,U5,19,OEb*%
%TO.N,/PC2*%
X110960000Y-57620000D03*
%TO.P,U5,20,VCC*%
%TO.N,VCC*%
X110960000Y-55080000D03*
%TD*%
%TO.P,C4,1*%
%TO.N,VCC*%
X113792000Y-110022000D03*
%TO.P,C4,2*%
%TO.N,GND*%
X113792000Y-115022000D03*
%TD*%
%TO.P,C5,1*%
%TO.N,VCC*%
X114300000Y-73954000D03*
%TO.P,C5,2*%
%TO.N,GND*%
X114300000Y-78954000D03*
%TD*%
D13*
%TO.P,U1,1*%
%TO.N,Net-(RN1-R1)*%
X60160000Y-55080000D03*
D12*
%TO.P,U1,2*%
%TO.N,unconnected-(U1-Pad2)*%
X60160000Y-57620000D03*
%TO.P,U1,3*%
%TO.N,Net-(RN1-R2)*%
X60160000Y-60160000D03*
%TO.P,U1,4*%
%TO.N,unconnected-(U1-Pad4)*%
X60160000Y-62700000D03*
%TO.P,U1,5*%
%TO.N,Net-(RN1-R3)*%
X60160000Y-65240000D03*
%TO.P,U1,6*%
%TO.N,unconnected-(U1-Pad6)*%
X60160000Y-67780000D03*
%TO.P,U1,7,GND*%
%TO.N,GND*%
X60160000Y-70320000D03*
%TO.P,U1,8*%
%TO.N,unconnected-(U1-Pad8)*%
X67780000Y-70320000D03*
%TO.P,U1,9*%
%TO.N,Net-(RN1-R5)*%
X67780000Y-67780000D03*
%TO.P,U1,10*%
%TO.N,unconnected-(U1-Pad10)*%
X67780000Y-65240000D03*
%TO.P,U1,11*%
%TO.N,Net-(RN1-R4)*%
X67780000Y-62700000D03*
%TO.P,U1,12*%
%TO.N,/{slash}PC2*%
X67780000Y-60160000D03*
%TO.P,U1,13*%
%TO.N,/PC2*%
X67780000Y-57620000D03*
%TO.P,U1,14,VCC*%
%TO.N,VCC*%
X67780000Y-55080000D03*
%TD*%
D15*
%TO.P,RN1,1,common*%
%TO.N,VCC*%
X55080000Y-55080000D03*
D12*
%TO.P,RN1,2,R1*%
%TO.N,Net-(RN1-R1)*%
X55080000Y-57620000D03*
%TO.P,RN1,3,R2*%
%TO.N,Net-(RN1-R2)*%
X55080000Y-60160000D03*
%TO.P,RN1,4,R3*%
%TO.N,Net-(RN1-R3)*%
X55080000Y-62700000D03*
%TO.P,RN1,5,R4*%
%TO.N,Net-(RN1-R4)*%
X55080000Y-65240000D03*
%TO.P,RN1,6,R5*%
%TO.N,Net-(RN1-R5)*%
X55080000Y-67780000D03*
%TD*%
D13*
%TO.P,U3,1,PA3*%
%TO.N,/PA3*%
X75400000Y-57620000D03*
D12*
%TO.P,U3,2,PA2*%
%TO.N,/PA2*%
X75400000Y-60160000D03*
%TO.P,U3,3,PA1*%
%TO.N,/PA1*%
X75400000Y-62700000D03*
%TO.P,U3,4,PA0*%
%TO.N,/PA0*%
X75400000Y-65240000D03*
%TO.P,U3,5,~{RD}*%
%TO.N,/IOR*%
X75400000Y-67780000D03*
%TO.P,U3,6,~{CS}*%
%TO.N,Net-(U2-O4)*%
X75400000Y-70320000D03*
%TO.P,U3,7,GND*%
%TO.N,GND*%
X75400000Y-72860000D03*
%TO.P,U3,8,A1*%
%TO.N,/A2*%
X75400000Y-75400000D03*
%TO.P,U3,9,A0*%
%TO.N,/A1*%
X75400000Y-77940000D03*
%TO.P,U3,10,PC7*%
%TO.N,/PC7*%
X75400000Y-80480000D03*
%TO.P,U3,11,PC6*%
%TO.N,/PC6*%
X75400000Y-83020000D03*
%TO.P,U3,12,PC5*%
%TO.N,/PC5*%
X75400000Y-85560000D03*
%TO.P,U3,13,PC4*%
%TO.N,/PC4*%
X75400000Y-88100000D03*
%TO.P,U3,14,PC0*%
%TO.N,/PC0*%
X75400000Y-90640000D03*
%TO.P,U3,15,PC1*%
%TO.N,/PC1*%
X75400000Y-93180000D03*
%TO.P,U3,16,PC2*%
%TO.N,/PC2*%
X75400000Y-95720000D03*
%TO.P,U3,17,PC3*%
%TO.N,/PC3*%
X75400000Y-98260000D03*
%TO.P,U3,18,PB0*%
%TO.N,/PB0*%
X75400000Y-100800000D03*
%TO.P,U3,19,PB1*%
%TO.N,/PB1*%
X75400000Y-103340000D03*
%TO.P,U3,20,PB2*%
%TO.N,/PB2*%
X75400000Y-105880000D03*
%TO.P,U3,21,PB3*%
%TO.N,/PB3*%
X90640000Y-105880000D03*
%TO.P,U3,22,PB4*%
%TO.N,/PB4*%
X90640000Y-103340000D03*
%TO.P,U3,23,PB5*%
%TO.N,/PB5*%
X90640000Y-100800000D03*
%TO.P,U3,24,PB6*%
%TO.N,/PB6*%
X90640000Y-98260000D03*
%TO.P,U3,25,PB7*%
%TO.N,/PB7*%
X90640000Y-95720000D03*
%TO.P,U3,26,VCC*%
%TO.N,VCC*%
X90640000Y-93180000D03*
%TO.P,U3,27,D7*%
%TO.N,/D7*%
X90640000Y-90640000D03*
%TO.P,U3,28,D6*%
%TO.N,/D6*%
X90640000Y-88100000D03*
%TO.P,U3,29,D5*%
%TO.N,/D5*%
X90640000Y-85560000D03*
%TO.P,U3,30,D4*%
%TO.N,/D4*%
X90640000Y-83020000D03*
%TO.P,U3,31,D3*%
%TO.N,/D3*%
X90640000Y-80480000D03*
%TO.P,U3,32,D2*%
%TO.N,/D2*%
X90640000Y-77940000D03*
%TO.P,U3,33,D1*%
%TO.N,/D1*%
X90640000Y-75400000D03*
%TO.P,U3,34,D0*%
%TO.N,/D0*%
X90640000Y-72860000D03*
%TO.P,U3,35,RESET*%
%TO.N,/RESET*%
X90640000Y-70320000D03*
%TO.P,U3,36,~{WR}*%
%TO.N,/IOW*%
X90640000Y-67780000D03*
%TO.P,U3,37,PA7*%
%TO.N,/PA7*%
X90640000Y-65240000D03*
%TO.P,U3,38,PA6*%
%TO.N,/PA6*%
X90640000Y-62700000D03*
%TO.P,U3,39,PA5*%
%TO.N,/PA5*%
X90640000Y-60160000D03*
%TO.P,U3,40,PA4*%
%TO.N,/PA4*%
X90640000Y-57620000D03*
%TD*%
D16*
%TO.P,J1,32,IO*%
%TO.N,unconnected-(J1-IO-Pad32)*%
X131318000Y-145796000D03*
%TO.P,J1,33,DB7*%
%TO.N,/D7*%
X128778000Y-145796000D03*
%TO.P,J1,34,DB6*%
%TO.N,/D6*%
X126238000Y-145796000D03*
%TO.P,J1,35,DB5*%
%TO.N,/D5*%
X123698000Y-145796000D03*
%TO.P,J1,36,DB4*%
%TO.N,/D4*%
X121158000Y-145796000D03*
%TO.P,J1,37,DB3*%
%TO.N,/D3*%
X118618000Y-145796000D03*
%TO.P,J1,38,DB2*%
%TO.N,/D2*%
X116078000Y-145796000D03*
%TO.P,J1,39,DB1*%
%TO.N,/D1*%
X113538000Y-145796000D03*
%TO.P,J1,40,DB0*%
%TO.N,/D0*%
X110998000Y-145796000D03*
%TO.P,J1,41,IO_READY*%
%TO.N,unconnected-(J1-IO_READY-Pad41)*%
X108458000Y-145796000D03*
%TO.P,J1,42,AEN*%
%TO.N,/AEN*%
X105918000Y-145796000D03*
%TO.P,J1,43,BA19*%
%TO.N,unconnected-(J1-BA19-Pad43)*%
X103378000Y-145796000D03*
%TO.P,J1,44,BA18*%
%TO.N,unconnected-(J1-BA18-Pad44)*%
X100838000Y-145796000D03*
%TO.P,J1,45,BA17*%
%TO.N,unconnected-(J1-BA17-Pad45)*%
X98298000Y-145796000D03*
%TO.P,J1,46,BA16*%
%TO.N,unconnected-(J1-BA16-Pad46)*%
X95758000Y-145796000D03*
%TO.P,J1,47,BA15*%
%TO.N,unconnected-(J1-BA15-Pad47)*%
X93218000Y-145796000D03*
%TO.P,J1,48,BA14*%
%TO.N,unconnected-(J1-BA14-Pad48)*%
X90678000Y-145796000D03*
%TO.P,J1,49,BA13*%
%TO.N,unconnected-(J1-BA13-Pad49)*%
X88138000Y-145796000D03*
%TO.P,J1,50,BA12*%
%TO.N,unconnected-(J1-BA12-Pad50)*%
X85598000Y-145796000D03*
%TO.P,J1,51,BA11*%
%TO.N,unconnected-(J1-BA11-Pad51)*%
X83058000Y-145796000D03*
%TO.P,J1,52,BA10*%
%TO.N,unconnected-(J1-BA10-Pad52)*%
X80518000Y-145796000D03*
%TO.P,J1,53,BA09*%
%TO.N,/A9*%
X77978000Y-145796000D03*
%TO.P,J1,54,BA08*%
%TO.N,/A8*%
X75438000Y-145796000D03*
%TO.P,J1,55,BA07*%
%TO.N,/A7*%
X72898000Y-145796000D03*
%TO.P,J1,56,BA06*%
%TO.N,/A6*%
X70358000Y-145796000D03*
%TO.P,J1,57,BA05*%
%TO.N,/A5*%
X67818000Y-145796000D03*
%TO.P,J1,58,BA04*%
%TO.N,unconnected-(J1-BA04-Pad58)*%
X65278000Y-145796000D03*
%TO.P,J1,59,BA03*%
%TO.N,unconnected-(J1-BA03-Pad59)*%
X62738000Y-145796000D03*
%TO.P,J1,60,BA02*%
%TO.N,/A2*%
X60198000Y-145796000D03*
%TO.P,J1,61,BA01*%
%TO.N,/A1*%
X57658000Y-145796000D03*
%TO.P,J1,62,BA00*%
%TO.N,unconnected-(J1-BA00-Pad62)*%
X55118000Y-145796000D03*
%TD*%
D13*
%TO.P,U6,1,OEa*%
%TO.N,GND*%
X107696000Y-83058000D03*
D12*
%TO.P,U6,2,I0a*%
%TO.N,/PC0*%
X107696000Y-85598000D03*
%TO.P,U6,3,O3b*%
%TO.N,/PC7*%
X107696000Y-88138000D03*
%TO.P,U6,4,I1a*%
%TO.N,/PC1*%
X107696000Y-90678000D03*
%TO.P,U6,5,O2b*%
%TO.N,/PC6*%
X107696000Y-93218000D03*
%TO.P,U6,6,I2a*%
%TO.N,/PC2*%
X107696000Y-95758000D03*
%TO.P,U6,7,O1b*%
%TO.N,/PC5*%
X107696000Y-98298000D03*
%TO.P,U6,8,I3a*%
%TO.N,/PC3*%
X107696000Y-100838000D03*
%TO.P,U6,9,O0b*%
%TO.N,/PC4*%
X107696000Y-103378000D03*
%TO.P,U6,10,GND*%
%TO.N,GND*%
X107696000Y-105918000D03*
%TO.P,U6,11,I0b*%
%TO.N,Net-(J2-Pin_12)*%
X115316000Y-105918000D03*
%TO.P,U6,12,O3a*%
%TO.N,Net-(J2-Pin_8)*%
X115316000Y-103378000D03*
%TO.P,U6,13,I1b*%
%TO.N,Net-(J2-Pin_2)*%
X115316000Y-100838000D03*
%TO.P,U6,14,O2a*%
%TO.N,Net-(J2-Pin_6)*%
X115316000Y-98298000D03*
%TO.P,U6,15,I2b*%
%TO.N,Net-(J2-Pin_10)*%
X115316000Y-95758000D03*
%TO.P,U6,16,O1a*%
%TO.N,Net-(J2-Pin_4)*%
X115316000Y-93218000D03*
%TO.P,U6,17,I3b*%
%TO.N,Net-(J3-Pin_10)*%
X115316000Y-90678000D03*
%TO.P,U6,18,O0a*%
%TO.N,Net-(J2-Pin_14)*%
X115316000Y-88138000D03*
%TO.P,U6,19,OEb*%
%TO.N,GND*%
X115316000Y-85598000D03*
%TO.P,U6,20,VCC*%
%TO.N,VCC*%
X115316000Y-83058000D03*
%TD*%
D17*
%TO.N,Net-(J2-Pin_1)*%
X120396000Y-104394000D03*
%TO.N,Net-(J2-Pin_10)*%
X132334000Y-95758000D03*
%TO.N,Net-(J2-Pin_8)*%
X134366000Y-102616000D03*
%TO.N,Net-(J2-Pin_2)*%
X135382000Y-100584000D03*
%TO.N,Net-(J2-Pin_6)*%
X133350000Y-98298000D03*
%TO.N,Net-(J2-Pin_14)*%
X131318000Y-88138000D03*
%TO.N,Net-(J2-Pin_4)*%
X136398000Y-93218000D03*
%TO.N,Net-(J2-Pin_3)*%
X119380000Y-106822000D03*
%TO.N,Net-(J2-Pin_5)*%
X118364000Y-109474000D03*
%TO.N,Net-(J2-Pin_7)*%
X117348000Y-112014000D03*
%TO.N,VCC*%
X59633000Y-139306000D03*
X95250000Y-111125000D03*
%TO.N,/RESET*%
X92710000Y-108458000D03*
%TO.N,/IOW*%
X88392000Y-140462000D03*
X88392000Y-137922000D03*
X95250000Y-109728000D03*
%TO.N,/A2*%
X59690000Y-108458000D03*
%TO.N,/IOR*%
X86868000Y-137922000D03*
X86868000Y-140462000D03*
%TO.N,/PA2*%
X97536000Y-107315000D03*
%TO.N,/PB7*%
X99060000Y-92710000D03*
%TO.N,/PA0*%
X97790000Y-109855000D03*
%TO.N,/PB5*%
X101219000Y-94361000D03*
%TO.N,/PB4*%
X100838000Y-97282000D03*
%TO.N,/PC0*%
X104394000Y-93218000D03*
%TO.N,/PA1*%
X97790000Y-108585000D03*
%TO.N,/PB6*%
X100330000Y-92710000D03*
%TO.N,/PA3*%
X98298000Y-106172000D03*
%TO.N,/PC5*%
X104394000Y-98298000D03*
%TD*%
D18*
%TO.N,/PC5*%
X104394000Y-98298000D02*
X107696000Y-98298000D01*
%TO.N,Net-(J2-Pin_3)*%
X119380000Y-106822000D02*
X119380000Y-69088000D01*
X119380000Y-69088000D02*
X118072000Y-67780000D01*
X118072000Y-67780000D02*
X110960000Y-67780000D01*
%TO.N,Net-(J2-Pin_7)*%
X113557000Y-72803000D02*
X110960000Y-75400000D01*
X116491000Y-72803000D02*
X113557000Y-72803000D01*
X117348000Y-73660000D02*
X116491000Y-72803000D01*
X117348000Y-112014000D02*
X117348000Y-73660000D01*
%TO.N,Net-(J2-Pin_5)*%
X111518000Y-72302000D02*
X110960000Y-72860000D01*
X117260000Y-72302000D02*
X111518000Y-72302000D01*
X118364000Y-73406000D02*
X117260000Y-72302000D01*
X118364000Y-109474000D02*
X118364000Y-73406000D01*
%TO.N,Net-(J2-Pin_1)*%
X119088000Y-62700000D02*
X110960000Y-62700000D01*
X120396000Y-104394000D02*
X120396000Y-64008000D01*
X120396000Y-64008000D02*
X119088000Y-62700000D01*
%TO.N,Net-(J2-Pin_12)*%
X130302000Y-102790000D02*
X128778000Y-104314000D01*
X130302000Y-74384000D02*
X130302000Y-102790000D01*
X128778000Y-72860000D02*
X130302000Y-74384000D01*
%TO.N,Net-(J2-Pin_14)*%
X131318000Y-104314000D02*
X128778000Y-106854000D01*
X131318000Y-72898000D02*
X131318000Y-104314000D01*
X128280529Y-71659000D02*
X130079000Y-71659000D01*
X130079000Y-71659000D02*
X131318000Y-72898000D01*
X127577000Y-74199000D02*
X127577000Y-72362529D01*
X128778000Y-75400000D02*
X127577000Y-74199000D01*
X127577000Y-72362529D02*
X128280529Y-71659000D01*
%TO.N,Net-(J2-Pin_6)*%
X132414000Y-109394000D02*
X133350000Y-108458000D01*
X133350000Y-108458000D02*
X133350000Y-103124000D01*
X128778000Y-109394000D02*
X132414000Y-109394000D01*
%TO.N,Net-(J2-Pin_8)*%
X134366000Y-110744000D02*
X134366000Y-105918000D01*
X133176000Y-111934000D02*
X134366000Y-110744000D01*
X128778000Y-111934000D02*
X133176000Y-111934000D01*
%TO.N,Net-(J2-Pin_2)*%
X134328000Y-60160000D02*
X128778000Y-60160000D01*
X135382000Y-115570000D02*
X135382000Y-61214000D01*
X133938000Y-117014000D02*
X135382000Y-115570000D01*
X128778000Y-117014000D02*
X133938000Y-117014000D01*
X135382000Y-61214000D02*
X134328000Y-60160000D01*
%TO.N,Net-(J2-Pin_4)*%
X135462000Y-119554000D02*
X136398000Y-118618000D01*
X136398000Y-118618000D02*
X136398000Y-113284000D01*
X128778000Y-119554000D02*
X135462000Y-119554000D01*
%TO.N,Net-(J2-Pin_11)*%
X122428000Y-114808000D02*
X122428000Y-76670000D01*
X122428000Y-76670000D02*
X126238000Y-72860000D01*
X116996000Y-120240000D02*
X122428000Y-114808000D01*
X110960000Y-120240000D02*
X116996000Y-120240000D01*
%TO.N,Net-(J2-Pin_13)*%
X114456000Y-125320000D02*
X123444000Y-116332000D01*
X123444000Y-116332000D02*
X123444000Y-78194000D01*
X123444000Y-78194000D02*
X126238000Y-75400000D01*
X110960000Y-125320000D02*
X114456000Y-125320000D01*
%TO.N,Net-(J2-Pin_4)*%
X135159000Y-58959000D02*
X136398000Y-60198000D01*
X128280529Y-58959000D02*
X135159000Y-58959000D01*
X136398000Y-60198000D02*
X136398000Y-113284000D01*
X127577000Y-61499000D02*
X127577000Y-59662529D01*
X127577000Y-59662529D02*
X128280529Y-58959000D01*
X128778000Y-62700000D02*
X127577000Y-61499000D01*
%TO.N,Net-(J2-Pin_8)*%
X134366000Y-65024000D02*
X134366000Y-105918000D01*
X133381000Y-64039000D02*
X134366000Y-65024000D01*
X127577000Y-66579000D02*
X127577000Y-64742529D01*
X128778000Y-67780000D02*
X127577000Y-66579000D01*
X127577000Y-64742529D02*
X128280529Y-64039000D01*
X128280529Y-64039000D02*
X133381000Y-64039000D01*
%TO.N,Net-(J2-Pin_6)*%
X133350000Y-66294000D02*
X132296000Y-65240000D01*
X133350000Y-103124000D02*
X133350000Y-66294000D01*
X132296000Y-65240000D02*
X128778000Y-65240000D01*
%TO.N,Net-(J2-Pin_10)*%
X132334000Y-71628000D02*
X131026000Y-70320000D01*
X131026000Y-70320000D02*
X128778000Y-70320000D01*
X132334000Y-95758000D02*
X132334000Y-71628000D01*
%TO.N,Net-(J2-Pin_15)*%
X124460000Y-79718000D02*
X126238000Y-77940000D01*
X124460000Y-118618000D02*
X124460000Y-79718000D01*
X112678000Y-130400000D02*
X124460000Y-118618000D01*
X110960000Y-130400000D02*
X112678000Y-130400000D01*
%TO.N,Net-(J2-Pin_9)*%
X121412000Y-75146000D02*
X126238000Y-70320000D01*
X121412000Y-113450960D02*
X121412000Y-75146000D01*
X117162960Y-117700000D02*
X121412000Y-113450960D01*
X110960000Y-117700000D02*
X117162960Y-117700000D01*
D19*
%TO.N,VCC*%
X115316000Y-81026000D02*
X115824000Y-80518000D01*
X115316000Y-83058000D02*
X115316000Y-81026000D01*
X114300000Y-73954000D02*
X115824000Y-75478000D01*
X115824000Y-75478000D02*
X115824000Y-80518000D01*
D20*
X66611600Y-55080000D02*
X67780000Y-55080000D01*
D19*
X93980000Y-71024000D02*
X93980000Y-109855000D01*
X90640000Y-93180000D02*
X92202000Y-93180000D01*
X57093000Y-122328000D02*
X57133000Y-122288000D01*
X54553000Y-127876000D02*
X54553000Y-138036000D01*
X57093000Y-125336000D02*
X54553000Y-127876000D01*
X110960000Y-110080000D02*
X109759000Y-111281000D01*
D20*
X64465200Y-52933600D02*
X66611600Y-55080000D01*
D19*
X85598000Y-69119000D02*
X92075000Y-69119000D01*
X71813000Y-56359000D02*
X71813000Y-68003000D01*
X92202000Y-93180000D02*
X93942000Y-93180000D01*
X95406000Y-111281000D02*
X95250000Y-111125000D01*
X110960000Y-55080000D02*
X109385000Y-55080000D01*
X93980000Y-109855000D02*
X95250000Y-111125000D01*
D20*
X55080000Y-55080000D02*
X57226400Y-52933600D01*
D19*
X85558000Y-69159000D02*
X85598000Y-69119000D01*
X108585000Y-55880000D02*
X108585000Y-75438000D01*
X111653000Y-76601000D02*
X114300000Y-73954000D01*
X70612000Y-55158000D02*
X71813000Y-56359000D01*
X109385000Y-55080000D02*
X108585000Y-55880000D01*
X113734000Y-110080000D02*
X113792000Y-110022000D01*
X108585000Y-75438000D02*
X109748000Y-76601000D01*
X72929000Y-69119000D02*
X85598000Y-69119000D01*
D20*
X57226400Y-52933600D02*
X64465200Y-52933600D01*
D19*
X67780000Y-55080000D02*
X70955000Y-55080000D01*
X71813000Y-68003000D02*
X72929000Y-69119000D01*
X109759000Y-111281000D02*
X95406000Y-111281000D01*
X110960000Y-110080000D02*
X113734000Y-110080000D01*
X109748000Y-76601000D02*
X111653000Y-76601000D01*
X85558000Y-70866000D02*
X85558000Y-69159000D01*
X55823000Y-139306000D02*
X59633000Y-139306000D01*
X54553000Y-138036000D02*
X55823000Y-139306000D01*
X57093000Y-125336000D02*
X57093000Y-122328000D01*
X92075000Y-69119000D02*
X93980000Y-71024000D01*
D21*
%TO.N,GND*%
X62700000Y-72860000D02*
X70612000Y-72860000D01*
D19*
X109220000Y-84582000D02*
X107696000Y-83058000D01*
X109474000Y-85598000D02*
X115316000Y-85598000D01*
X77216000Y-72860000D02*
X75400000Y-72860000D01*
X109220000Y-85852000D02*
X109220000Y-84582000D01*
X77216000Y-72860000D02*
X79210000Y-70866000D01*
X107696000Y-105918000D02*
X109220000Y-104394000D01*
X109220000Y-104394000D02*
X109220000Y-85852000D01*
X79210000Y-70866000D02*
X80558000Y-70866000D01*
X70612000Y-60158000D02*
X70612000Y-72860000D01*
D21*
X70612000Y-72860000D02*
X75400000Y-72860000D01*
X60160000Y-70320000D02*
X62700000Y-72860000D01*
D18*
%TO.N,/AEN*%
X105156000Y-139192000D02*
X91186000Y-139192000D01*
X91186000Y-139192000D02*
X81902000Y-129908000D01*
X57093000Y-131051000D02*
X57093000Y-132956000D01*
X105918000Y-139954000D02*
X105156000Y-139192000D01*
X81902000Y-129908000D02*
X58236000Y-129908000D01*
X58236000Y-129908000D02*
X57093000Y-131051000D01*
X105918000Y-145796000D02*
X105918000Y-139954000D01*
%TO.N,/RESET*%
X88900000Y-96520000D02*
X88900000Y-92710000D01*
X92029000Y-97109000D02*
X89489000Y-97109000D01*
X92710000Y-97790000D02*
X92029000Y-97109000D01*
X92710000Y-71120000D02*
X91910000Y-70320000D01*
X92710000Y-91440000D02*
X92710000Y-71120000D01*
X91910000Y-70320000D02*
X90640000Y-70320000D01*
X88900000Y-92710000D02*
X89581000Y-92029000D01*
X89581000Y-92029000D02*
X92121000Y-92029000D01*
X92121000Y-92029000D02*
X92710000Y-91440000D01*
X89489000Y-97109000D02*
X88900000Y-96520000D01*
X92710000Y-108458000D02*
X92710000Y-97790000D01*
%TO.N,/D2*%
X64770000Y-108966000D02*
X64770000Y-85679000D01*
X114300000Y-137668000D02*
X93472000Y-137668000D01*
X116078000Y-139560000D02*
X116078000Y-145796000D01*
X93472000Y-137668000D02*
X64770000Y-108966000D01*
X66040000Y-84409000D02*
X80056000Y-84409000D01*
X64770000Y-85679000D02*
X66040000Y-84409000D01*
X116135000Y-139503000D02*
X114300000Y-137668000D01*
X80056000Y-84409000D02*
X86525000Y-77940000D01*
X86525000Y-77940000D02*
X90640000Y-77940000D01*
X116135000Y-139503000D02*
X116078000Y-139560000D01*
%TO.N,/D4*%
X119634000Y-136652000D02*
X95250000Y-136652000D01*
X67310000Y-108712000D02*
X67310000Y-90805000D01*
X121158000Y-138290000D02*
X121158000Y-145796000D01*
X80294000Y-89251000D02*
X86525000Y-83020000D01*
X121215000Y-138233000D02*
X121158000Y-138290000D01*
X86525000Y-83020000D02*
X90640000Y-83020000D01*
X95250000Y-136652000D02*
X67310000Y-108712000D01*
X121215000Y-138233000D02*
X119634000Y-136652000D01*
X68864000Y-89251000D02*
X80294000Y-89251000D01*
X67310000Y-90805000D02*
X68864000Y-89251000D01*
%TO.N,/A9*%
X62173000Y-131686000D02*
X63443000Y-130416000D01*
X63443000Y-130416000D02*
X68880760Y-130416000D01*
X62173000Y-132956000D02*
X62173000Y-131686000D01*
X77978000Y-141141000D02*
X77978000Y-145796000D01*
X68880760Y-130416000D02*
X71099760Y-132635000D01*
X71099760Y-132635000D02*
X71099760Y-134262760D01*
X71099760Y-134262760D02*
X77978000Y-141141000D01*
%TO.N,/D0*%
X109213000Y-138677000D02*
X111055000Y-140519000D01*
X62230000Y-108966000D02*
X91941000Y-138677000D01*
X86525000Y-72860000D02*
X80056000Y-79329000D01*
X90640000Y-72860000D02*
X86525000Y-72860000D01*
X62230000Y-80645000D02*
X62230000Y-108966000D01*
X63500000Y-79329000D02*
X63500000Y-79375000D01*
X111055000Y-140519000D02*
X110998000Y-140576000D01*
X63500000Y-79375000D02*
X62230000Y-80645000D01*
X80056000Y-79329000D02*
X63500000Y-79329000D01*
X91941000Y-138677000D02*
X109213000Y-138677000D01*
X110998000Y-140576000D02*
X110998000Y-145796000D01*
%TO.N,/D6*%
X96774000Y-135636000D02*
X124460000Y-135636000D01*
X90640000Y-88100000D02*
X86525000Y-88100000D01*
X124460000Y-135636000D02*
X126295000Y-137471000D01*
X71404000Y-94331000D02*
X69850000Y-95885000D01*
X86525000Y-88100000D02*
X80294000Y-94331000D01*
X69850000Y-108712000D02*
X96774000Y-135636000D01*
X69850000Y-95885000D02*
X69850000Y-108712000D01*
X80294000Y-94331000D02*
X71404000Y-94331000D01*
X126238000Y-137528000D02*
X126238000Y-145796000D01*
X126295000Y-137471000D02*
X126238000Y-137528000D01*
%TO.N,/D1*%
X90640000Y-75400000D02*
X86525000Y-75400000D01*
X111760000Y-138176000D02*
X113595000Y-140011000D01*
X86525000Y-75400000D02*
X80056000Y-81869000D01*
X63500000Y-108966000D02*
X92710000Y-138176000D01*
X63500000Y-83185000D02*
X63500000Y-108966000D01*
X92710000Y-138176000D02*
X111760000Y-138176000D01*
X80056000Y-81869000D02*
X64816000Y-81869000D01*
X113595000Y-140011000D02*
X113538000Y-140068000D01*
X64816000Y-81869000D02*
X63500000Y-83185000D01*
X113538000Y-140068000D02*
X113538000Y-145796000D01*
%TO.N,/A6*%
X67253000Y-134226000D02*
X70358000Y-137331000D01*
X70358000Y-137331000D02*
X70358000Y-145796000D01*
X67253000Y-132956000D02*
X67253000Y-134226000D01*
%TO.N,/A5*%
X60903000Y-135496000D02*
X59633000Y-134226000D01*
X65983000Y-135496000D02*
X60903000Y-135496000D01*
X67818000Y-137331000D02*
X65983000Y-135496000D01*
X59633000Y-134226000D02*
X59633000Y-132956000D01*
X67818000Y-145796000D02*
X67818000Y-137331000D01*
%TO.N,/A7*%
X68523000Y-132321000D02*
X67253000Y-131051000D01*
X72898000Y-138601000D02*
X68523000Y-134226000D01*
X68523000Y-134226000D02*
X68523000Y-132321000D01*
X72898000Y-145796000D02*
X72898000Y-138601000D01*
X64713000Y-132321000D02*
X64713000Y-132956000D01*
X65983000Y-131051000D02*
X64713000Y-132321000D01*
X67253000Y-131051000D02*
X65983000Y-131051000D01*
%TO.N,/IOW*%
X88392000Y-137922000D02*
X88392000Y-140462000D01*
X93942000Y-67780000D02*
X90640000Y-67780000D01*
X95250000Y-109728000D02*
X95250000Y-69088000D01*
X95250000Y-69088000D02*
X93942000Y-67780000D01*
%TO.N,/D7*%
X79421000Y-97109000D02*
X72436000Y-97109000D01*
X72436000Y-97109000D02*
X71120000Y-98425000D01*
X128552500Y-136877500D02*
X128778000Y-137103000D01*
X126803000Y-135128000D02*
X128552500Y-136877500D01*
X128778000Y-137103000D02*
X128778000Y-145796000D01*
X128552500Y-136877500D02*
X128835000Y-137160000D01*
X71120000Y-108712000D02*
X97536000Y-135128000D01*
X71120000Y-98425000D02*
X71120000Y-108712000D01*
X90640000Y-90640000D02*
X85890000Y-90640000D01*
X97536000Y-135128000D02*
X126803000Y-135128000D01*
X85890000Y-90640000D02*
X79421000Y-97109000D01*
%TO.N,/A1*%
X57093000Y-140576000D02*
X54978000Y-140576000D01*
X54775000Y-77940000D02*
X53340000Y-79375000D01*
X53340000Y-79375000D02*
X53340000Y-138938000D01*
X54978000Y-140576000D02*
X53340000Y-138938000D01*
X57658000Y-145796000D02*
X57658000Y-141141000D01*
X75400000Y-77940000D02*
X54775000Y-77940000D01*
X57658000Y-141141000D02*
X57093000Y-140576000D01*
%TO.N,/A2*%
X58998000Y-136766000D02*
X60284000Y-138052000D01*
X55823000Y-135496000D02*
X57093000Y-136766000D01*
X59690000Y-108458000D02*
X58363000Y-109785000D01*
X60284000Y-145710000D02*
X60198000Y-145796000D01*
X58363000Y-109785000D02*
X58363000Y-126606000D01*
X57093000Y-136766000D02*
X58998000Y-136766000D01*
X58363000Y-126606000D02*
X55823000Y-129146000D01*
X55823000Y-129146000D02*
X55823000Y-135496000D01*
X60284000Y-138052000D02*
X60284000Y-145710000D01*
%TO.N,/D3*%
X80056000Y-86949000D02*
X74341000Y-86949000D01*
X74341000Y-86949000D02*
X74295000Y-86995000D01*
X66040000Y-108712000D02*
X94488000Y-137160000D01*
X118675000Y-138995000D02*
X118618000Y-139052000D01*
X86525000Y-80480000D02*
X80056000Y-86949000D01*
X74295000Y-86995000D02*
X67627500Y-86995000D01*
X118618000Y-139052000D02*
X118618000Y-145796000D01*
X94488000Y-137160000D02*
X116840000Y-137160000D01*
X90640000Y-80480000D02*
X86525000Y-80480000D01*
X116840000Y-137160000D02*
X118675000Y-138995000D01*
X67627500Y-86995000D02*
X66040000Y-88582500D01*
X66040000Y-88582500D02*
X66040000Y-108712000D01*
%TO.N,/A8*%
X69793000Y-134226000D02*
X75438000Y-139871000D01*
X75438000Y-139871000D02*
X75438000Y-145796000D01*
X69793000Y-132956000D02*
X69793000Y-134226000D01*
%TO.N,/IOR*%
X86868000Y-137922000D02*
X86868000Y-140462000D01*
%TO.N,/D5*%
X96012000Y-136144000D02*
X121920000Y-136144000D01*
X80056000Y-92029000D02*
X69896000Y-92029000D01*
X86525000Y-85560000D02*
X80056000Y-92029000D01*
X68580000Y-93345000D02*
X68580000Y-108712000D01*
X68580000Y-108712000D02*
X96012000Y-136144000D01*
X90640000Y-85560000D02*
X86525000Y-85560000D01*
X69896000Y-92029000D02*
X68580000Y-93345000D01*
X121920000Y-136144000D02*
X123755000Y-137979000D01*
X123755000Y-137979000D02*
X123698000Y-138036000D01*
X123698000Y-138036000D02*
X123698000Y-145796000D01*
%TO.N,Net-(RN1-R4)*%
X67780000Y-62700000D02*
X64089000Y-66391000D01*
X64089000Y-66391000D02*
X56231000Y-66391000D01*
X56231000Y-66391000D02*
X55080000Y-65240000D01*
%TO.N,Net-(RN1-R3)*%
X57620000Y-62700000D02*
X60160000Y-65240000D01*
X55080000Y-62700000D02*
X57620000Y-62700000D01*
%TO.N,Net-(RN1-R1)*%
X57620000Y-55080000D02*
X55080000Y-57620000D01*
X60160000Y-55080000D02*
X57620000Y-55080000D01*
%TO.N,Net-(RN1-R5)*%
X66629000Y-68931000D02*
X56231000Y-68931000D01*
X67780000Y-67780000D02*
X66629000Y-68931000D01*
X56231000Y-68931000D02*
X55080000Y-67780000D01*
%TO.N,Net-(RN1-R2)*%
X55080000Y-60160000D02*
X60160000Y-60160000D01*
%TO.N,/{slash}PC2*%
X103340000Y-55080000D02*
X105118000Y-55080000D01*
X103340000Y-80556000D02*
X103340000Y-110080000D01*
X105118000Y-55080000D02*
X106172000Y-56134000D01*
X106172000Y-77724000D02*
X103340000Y-80556000D01*
X106172000Y-56134000D02*
X106172000Y-77724000D01*
%TO.N,/PB3*%
X103340000Y-112780000D02*
X103120000Y-112780000D01*
%TO.N,/PA2*%
X86525000Y-60160000D02*
X87676000Y-59009000D01*
X97536000Y-59944000D02*
X97536000Y-107315000D01*
X96601000Y-59009000D02*
X97536000Y-59944000D01*
X75400000Y-60160000D02*
X86525000Y-60160000D01*
X87676000Y-59009000D02*
X96601000Y-59009000D01*
%TO.N,/PB7*%
X99060000Y-58636000D02*
X100076000Y-57620000D01*
X100076000Y-57620000D02*
X103340000Y-57620000D01*
X99060000Y-92710000D02*
X99060000Y-58636000D01*
%TO.N,/PA0*%
X96012000Y-65278000D02*
X94823000Y-64089000D01*
X87676000Y-64089000D02*
X86525000Y-65240000D01*
X86525000Y-65240000D02*
X75400000Y-65240000D01*
X94823000Y-64089000D02*
X87676000Y-64089000D01*
X96012000Y-108712000D02*
X96012000Y-65278000D01*
X97155000Y-109855000D02*
X97790000Y-109855000D01*
X96012000Y-108712000D02*
X97155000Y-109855000D01*
%TO.N,/PB1*%
X82042000Y-117094000D02*
X73660000Y-108712000D01*
X73660000Y-108712000D02*
X73660000Y-105080000D01*
X98806000Y-117094000D02*
X82042000Y-117094000D01*
X100428000Y-122780000D02*
X99314000Y-121666000D01*
X103340000Y-122780000D02*
X100428000Y-122780000D01*
X99314000Y-121666000D02*
X99314000Y-117602000D01*
X99314000Y-117602000D02*
X98806000Y-117094000D01*
X73660000Y-105080000D02*
X75400000Y-103340000D01*
%TO.N,/PB0*%
X72390000Y-108712000D02*
X72390000Y-103810000D01*
X103340000Y-127860000D02*
X99666000Y-127860000D01*
X98298000Y-118872000D02*
X97286000Y-117860000D01*
X99666000Y-127860000D02*
X98298000Y-126492000D01*
X98298000Y-126492000D02*
X98298000Y-118872000D01*
X72390000Y-103810000D02*
X75400000Y-100800000D01*
X81538000Y-117860000D02*
X72390000Y-108712000D01*
X97286000Y-117860000D02*
X81538000Y-117860000D01*
%TO.N,/PB5*%
X101219000Y-91313000D02*
X100584000Y-90678000D01*
X101219000Y-94361000D02*
X101219000Y-91313000D01*
X100584000Y-90678000D02*
X100584000Y-68961000D01*
X101765000Y-67780000D02*
X103340000Y-67780000D01*
X100584000Y-68961000D02*
X101765000Y-67780000D01*
%TO.N,/PB4*%
X102186620Y-89994620D02*
X101346000Y-89154000D01*
X100838000Y-97282000D02*
X102186620Y-95933380D01*
X102186620Y-95933380D02*
X102186620Y-89994620D01*
X101346000Y-89154000D02*
X101346000Y-74854000D01*
X101346000Y-74854000D02*
X103340000Y-72860000D01*
%TO.N,/PC0*%
X104394000Y-89408000D02*
X104394000Y-86868000D01*
X104394000Y-93218000D02*
X104394000Y-89408000D01*
X105664000Y-85598000D02*
X107696000Y-85598000D01*
X104394000Y-86868000D02*
X105664000Y-85598000D01*
%TO.N,/PA1*%
X97282000Y-108585000D02*
X97790000Y-108585000D01*
X75400000Y-62700000D02*
X86525000Y-62700000D01*
X95585000Y-61549000D02*
X96774000Y-62738000D01*
X96774000Y-108077000D02*
X97282000Y-108585000D01*
X87676000Y-61549000D02*
X95585000Y-61549000D01*
X96774000Y-62738000D02*
X96774000Y-108077000D01*
X86525000Y-62700000D02*
X87676000Y-61549000D01*
%TO.N,/PB6*%
X101092000Y-62700000D02*
X103340000Y-62700000D01*
X99822000Y-92202000D02*
X99822000Y-63970000D01*
X99822000Y-63970000D02*
X101092000Y-62700000D01*
X100330000Y-92710000D02*
X99822000Y-92202000D01*
%TO.N,/PB2*%
X82550000Y-116332000D02*
X99822000Y-116332000D01*
X75400000Y-105880000D02*
X75400000Y-109182000D01*
X101190000Y-117700000D02*
X103340000Y-117700000D01*
X99822000Y-116332000D02*
X101190000Y-117700000D01*
X75400000Y-109182000D02*
X82550000Y-116332000D01*
%TO.N,/PA3*%
X97363000Y-56469000D02*
X98298000Y-57404000D01*
X86525000Y-57620000D02*
X87676000Y-56469000D01*
X98298000Y-104398000D02*
X98298000Y-106172000D01*
X98298000Y-57404000D02*
X98298000Y-104398000D01*
X87676000Y-56469000D02*
X97363000Y-56469000D01*
X75400000Y-57620000D02*
X86525000Y-57620000D01*
%TD*%
M02*
