%TF.GenerationSoftware,KiCad,Pcbnew,9.0.7*%
%TF.CreationDate,2026-05-10T09:52:20+01:00*%
%TF.ProjectId,PDS_PCISA,5044535f-5043-4495-9341-2e6b69636164,rev?*%
%TF.SameCoordinates,Original*%
%TF.FileFunction,Copper,L2,Bot*%
%TF.FilePolarity,Positive*%
%FSLAX46Y46*%
G04 Gerber Fmt 4.6, Leading zero omitted, Abs format (unit mm)*
G04 Created by KiCad (PCBNEW 9.0.7) date 2026-05-10 09:52:20*
%MOMM*%
%LPD*%
G01*
G04 APERTURE LIST*
G04 Aperture macros list*
%AMRoundRect*
0 Rectangle with rounded corners*
0 $1 Rounding radius*
0 $2 $3 $4 $5 $6 $7 $8 $9 X,Y pos of 4 corners*
0 Add a 4 corners polygon primitive as box body*
4,1,4,$2,$3,$4,$5,$6,$7,$8,$9,$2,$3,0*
0 Add four circle primitives for the rounded corners*
1,1,$1+$1,$2,$3*
1,1,$1+$1,$4,$5*
1,1,$1+$1,$6,$7*
1,1,$1+$1,$8,$9*
0 Add four rect primitives between the rounded corners*
20,1,$1+$1,$2,$3,$4,$5,0*
20,1,$1+$1,$4,$5,$6,$7,0*
20,1,$1+$1,$6,$7,$8,$9,0*
20,1,$1+$1,$8,$9,$2,$3,0*%
G04 Aperture macros list end*
%TA.AperFunction,ConnectorPad*%
%ADD10R,1.780000X7.620000*%
%TD*%
%TA.AperFunction,ComponentPad*%
%ADD11RoundRect,0.250000X-0.600000X-0.600000X0.600000X-0.600000X0.600000X0.600000X-0.600000X0.600000X0*%
%TD*%
%TA.AperFunction,ComponentPad*%
%ADD12C,1.700000*%
%TD*%
%TA.AperFunction,ComponentPad*%
%ADD13RoundRect,0.250000X-0.550000X-0.550000X0.550000X-0.550000X0.550000X0.550000X-0.550000X0.550000X0*%
%TD*%
%TA.AperFunction,ComponentPad*%
%ADD14C,1.600000*%
%TD*%
%TA.AperFunction,ComponentPad*%
%ADD15RoundRect,0.250000X0.550000X-0.550000X0.550000X0.550000X-0.550000X0.550000X-0.550000X-0.550000X0*%
%TD*%
%TA.AperFunction,ComponentPad*%
%ADD16R,1.600000X1.600000*%
%TD*%
%TA.AperFunction,ViaPad*%
%ADD17C,0.600000*%
%TD*%
%TA.AperFunction,Conductor*%
%ADD18C,0.300000*%
%TD*%
%TA.AperFunction,Conductor*%
%ADD19C,1.200000*%
%TD*%
%TA.AperFunction,Conductor*%
%ADD20C,0.400000*%
%TD*%
G04 APERTURE END LIST*
D10*
%TO.P,J1,1,GND*%
%TO.N,GND*%
X131318000Y-145796000D03*
%TO.P,J1,2,RESET*%
%TO.N,/RESET*%
X128778000Y-145796000D03*
%TO.P,J1,3,VCC*%
%TO.N,VCC*%
X126238000Y-145796000D03*
%TO.P,J1,4,IRQ2*%
%TO.N,unconnected-(J1-IRQ2-Pad4)*%
X123698000Y-145796000D03*
%TO.P,J1,5,-5V*%
%TO.N,unconnected-(J1--5V-Pad5)*%
X121158000Y-145796000D03*
%TO.P,J1,6,DRQ2*%
%TO.N,unconnected-(J1-DRQ2-Pad6)*%
X118618000Y-145796000D03*
%TO.P,J1,7,-12V*%
%TO.N,unconnected-(J1--12V-Pad7)*%
X116078000Y-145796000D03*
%TO.P,J1,8,UNUSED*%
%TO.N,unconnected-(J1-UNUSED-Pad8)*%
X113538000Y-145796000D03*
%TO.P,J1,9,+12V*%
%TO.N,unconnected-(J1-+12V-Pad9)*%
X110998000Y-145796000D03*
%TO.P,J1,10,GND*%
%TO.N,GND*%
X108458000Y-145796000D03*
%TO.P,J1,11,~{SMEMW}*%
%TO.N,unconnected-(J1-~{SMEMW}-Pad11)*%
X105918000Y-145796000D03*
%TO.P,J1,12,~{SMEMR}*%
%TO.N,unconnected-(J1-~{SMEMR}-Pad12)*%
X103378000Y-145796000D03*
%TO.P,J1,13,~{IOW}*%
%TO.N,/IOW*%
X100838000Y-145796000D03*
%TO.P,J1,14,~{IOR}*%
%TO.N,/IOR*%
X98298000Y-145796000D03*
%TO.P,J1,15,~{DACK3}*%
%TO.N,unconnected-(J1-~{DACK3}-Pad15)*%
X95758000Y-145796000D03*
%TO.P,J1,16,DRQ3*%
%TO.N,unconnected-(J1-DRQ3-Pad16)*%
X93218000Y-145796000D03*
%TO.P,J1,17,~{DACK1}*%
%TO.N,unconnected-(J1-~{DACK1}-Pad17)*%
X90678000Y-145796000D03*
%TO.P,J1,18,DRQ1*%
%TO.N,unconnected-(J1-DRQ1-Pad18)*%
X88138000Y-145796000D03*
%TO.P,J1,19,~{DACK0}*%
%TO.N,unconnected-(J1-~{DACK0}-Pad19)*%
X85598000Y-145796000D03*
%TO.P,J1,20,CLK*%
%TO.N,unconnected-(J1-CLK-Pad20)*%
X83058000Y-145796000D03*
%TO.P,J1,21,IRQ7*%
%TO.N,unconnected-(J1-IRQ7-Pad21)*%
X80518000Y-145796000D03*
%TO.P,J1,22,IRQ6*%
%TO.N,unconnected-(J1-IRQ6-Pad22)*%
X77978000Y-145796000D03*
%TO.P,J1,23,IRQ5*%
%TO.N,unconnected-(J1-IRQ5-Pad23)*%
X75438000Y-145796000D03*
%TO.P,J1,24,IRQ4*%
%TO.N,unconnected-(J1-IRQ4-Pad24)*%
X72898000Y-145796000D03*
%TO.P,J1,25,IRQ3*%
%TO.N,unconnected-(J1-IRQ3-Pad25)*%
X70358000Y-145796000D03*
%TO.P,J1,26,~{DACK2}*%
%TO.N,unconnected-(J1-~{DACK2}-Pad26)*%
X67818000Y-145796000D03*
%TO.P,J1,27,TC*%
%TO.N,unconnected-(J1-TC-Pad27)*%
X65278000Y-145796000D03*
%TO.P,J1,28,ALE*%
%TO.N,unconnected-(J1-ALE-Pad28)*%
X62738000Y-145796000D03*
%TO.P,J1,29,VCC*%
%TO.N,VCC*%
X60198000Y-145796000D03*
%TO.P,J1,30,OSC*%
%TO.N,unconnected-(J1-OSC-Pad30)*%
X57658000Y-145796000D03*
%TO.P,J1,31,GND*%
%TO.N,GND*%
X55118000Y-145796000D03*
%TD*%
D11*
%TO.P,J3,1,Pin_1*%
%TO.N,Net-(J2-Pin_1)*%
X139810000Y-99314000D03*
D12*
%TO.P,J3,2,Pin_2*%
%TO.N,Net-(J2-Pin_12)*%
X142350000Y-99314000D03*
%TO.P,J3,3,Pin_3*%
%TO.N,Net-(J2-Pin_3)*%
X139810000Y-101854000D03*
%TO.P,J3,4,Pin_4*%
%TO.N,Net-(J2-Pin_14)*%
X142350000Y-101854000D03*
%TO.P,J3,5,Pin_5*%
%TO.N,Net-(J2-Pin_5)*%
X139810000Y-104394000D03*
%TO.P,J3,6,Pin_6*%
%TO.N,Net-(J2-Pin_6)*%
X142350000Y-104394000D03*
%TO.P,J3,7,Pin_7*%
%TO.N,Net-(J2-Pin_7)*%
X139810000Y-106934000D03*
%TO.P,J3,8,Pin_8*%
%TO.N,Net-(J2-Pin_8)*%
X142350000Y-106934000D03*
%TO.P,J3,9,Pin_9*%
%TO.N,Net-(J2-Pin_9)*%
X139810000Y-109474000D03*
%TO.P,J3,10,Pin_10*%
%TO.N,Net-(J3-Pin_10)*%
X142350000Y-109474000D03*
%TO.P,J3,11,Pin_11*%
%TO.N,Net-(J2-Pin_11)*%
X139810000Y-112014000D03*
%TO.P,J3,12,Pin_12*%
%TO.N,Net-(J2-Pin_2)*%
X142350000Y-112014000D03*
%TO.P,J3,13,Pin_13*%
%TO.N,Net-(J2-Pin_13)*%
X139810000Y-114554000D03*
%TO.P,J3,14,Pin_14*%
%TO.N,Net-(J2-Pin_4)*%
X142350000Y-114554000D03*
%TO.P,J3,15,Pin_15*%
%TO.N,Net-(J2-Pin_15)*%
X139810000Y-117094000D03*
%TO.P,J3,16,Pin_16*%
%TO.N,GND*%
X142350000Y-117094000D03*
%TD*%
D13*
%TO.P,U4,1,OEa*%
%TO.N,/{slash}PC2*%
X103340000Y-110080000D03*
D14*
%TO.P,U4,2,I0a*%
%TO.N,/PB3*%
X103340000Y-112620000D03*
%TO.P,U4,3,O3b*%
%TO.N,/PA3*%
X103340000Y-115160000D03*
%TO.P,U4,4,I1a*%
%TO.N,/PB2*%
X103340000Y-117700000D03*
%TO.P,U4,5,O2b*%
%TO.N,/PA2*%
X103340000Y-120240000D03*
%TO.P,U4,6,I2a*%
%TO.N,/PB1*%
X103340000Y-122780000D03*
%TO.P,U4,7,O1b*%
%TO.N,/PA1*%
X103340000Y-125320000D03*
%TO.P,U4,8,I3a*%
%TO.N,/PB0*%
X103340000Y-127860000D03*
%TO.P,U4,9,O0b*%
%TO.N,/PA0*%
X103340000Y-130400000D03*
%TO.P,U4,10,GND*%
%TO.N,GND*%
X103340000Y-132940000D03*
%TO.P,U4,11,I0b*%
%TO.N,Net-(J2-Pin_15)*%
X110960000Y-132940000D03*
%TO.P,U4,12,O3a*%
X110960000Y-130400000D03*
%TO.P,U4,13,I1b*%
%TO.N,Net-(J2-Pin_13)*%
X110960000Y-127860000D03*
%TO.P,U4,14,O2a*%
X110960000Y-125320000D03*
%TO.P,U4,15,I2b*%
%TO.N,Net-(J2-Pin_11)*%
X110960000Y-122780000D03*
%TO.P,U4,16,O1a*%
X110960000Y-120240000D03*
%TO.P,U4,17,I3b*%
%TO.N,Net-(J2-Pin_9)*%
X110960000Y-117700000D03*
%TO.P,U4,18,O0a*%
X110960000Y-115160000D03*
%TO.P,U4,19,OEb*%
%TO.N,/PC2*%
X110960000Y-112620000D03*
%TO.P,U4,20,VCC*%
%TO.N,VCC*%
X110960000Y-110080000D03*
%TD*%
D15*
%TO.P,U2,1,A0*%
%TO.N,/AEN*%
X57093000Y-132956000D03*
D14*
%TO.P,U2,2,A1*%
%TO.N,/A5*%
X59633000Y-132956000D03*
%TO.P,U2,3,A2*%
%TO.N,/A9*%
X62173000Y-132956000D03*
%TO.P,U2,4,E1*%
%TO.N,/A7*%
X64713000Y-132956000D03*
%TO.P,U2,5,E2*%
%TO.N,/A6*%
X67253000Y-132956000D03*
%TO.P,U2,6,E3*%
%TO.N,/A8*%
X69793000Y-132956000D03*
%TO.P,U2,7,O7*%
%TO.N,unconnected-(U2-O7-Pad7)*%
X72333000Y-132956000D03*
%TO.P,U2,8,GND*%
%TO.N,GND*%
X74873000Y-132956000D03*
%TO.P,U2,9,O6*%
%TO.N,unconnected-(U2-O6-Pad9)*%
X74873000Y-125336000D03*
%TO.P,U2,10,O5*%
%TO.N,unconnected-(U2-O5-Pad10)*%
X72333000Y-125336000D03*
%TO.P,U2,11,O4*%
%TO.N,Net-(U2-O4)*%
X69793000Y-125336000D03*
%TO.P,U2,12,O3*%
%TO.N,unconnected-(U2-O3-Pad12)*%
X67253000Y-125336000D03*
%TO.P,U2,13,O2*%
%TO.N,unconnected-(U2-O2-Pad13)*%
X64713000Y-125336000D03*
%TO.P,U2,14,O1*%
%TO.N,unconnected-(U2-O1-Pad14)*%
X62173000Y-125336000D03*
%TO.P,U2,15,O0*%
%TO.N,unconnected-(U2-O0-Pad15)*%
X59633000Y-125336000D03*
%TO.P,U2,16,VCC*%
%TO.N,VCC*%
X57093000Y-125336000D03*
%TD*%
D13*
%TO.P,U6,1,OEa*%
%TO.N,GND*%
X107696000Y-83058000D03*
D14*
%TO.P,U6,2,I0a*%
%TO.N,/PC0*%
X107696000Y-85598000D03*
%TO.P,U6,3,O3b*%
%TO.N,/PC7*%
X107696000Y-88138000D03*
%TO.P,U6,4,I1a*%
%TO.N,/PC1*%
X107696000Y-90678000D03*
%TO.P,U6,5,O2b*%
%TO.N,/PC6*%
X107696000Y-93218000D03*
%TO.P,U6,6,I2a*%
%TO.N,/PC2*%
X107696000Y-95758000D03*
%TO.P,U6,7,O1b*%
%TO.N,/PC5*%
X107696000Y-98298000D03*
%TO.P,U6,8,I3a*%
%TO.N,/PC3*%
X107696000Y-100838000D03*
%TO.P,U6,9,O0b*%
%TO.N,/PC4*%
X107696000Y-103378000D03*
%TO.P,U6,10,GND*%
%TO.N,GND*%
X107696000Y-105918000D03*
%TO.P,U6,11,I0b*%
%TO.N,Net-(J2-Pin_12)*%
X115316000Y-105918000D03*
%TO.P,U6,12,O3a*%
%TO.N,Net-(J2-Pin_8)*%
X115316000Y-103378000D03*
%TO.P,U6,13,I1b*%
%TO.N,Net-(J2-Pin_2)*%
X115316000Y-100838000D03*
%TO.P,U6,14,O2a*%
%TO.N,Net-(J2-Pin_6)*%
X115316000Y-98298000D03*
%TO.P,U6,15,I2b*%
%TO.N,Net-(J2-Pin_10)*%
X115316000Y-95758000D03*
%TO.P,U6,16,O1a*%
%TO.N,Net-(J2-Pin_4)*%
X115316000Y-93218000D03*
%TO.P,U6,17,I3b*%
%TO.N,Net-(J3-Pin_10)*%
X115316000Y-90678000D03*
%TO.P,U6,18,O0a*%
%TO.N,Net-(J2-Pin_14)*%
X115316000Y-88138000D03*
%TO.P,U6,19,OEb*%
%TO.N,GND*%
X115316000Y-85598000D03*
%TO.P,U6,20,VCC*%
%TO.N,VCC*%
X115316000Y-83058000D03*
%TD*%
%TO.P,C1,1*%
%TO.N,VCC*%
X70612000Y-55158000D03*
%TO.P,C1,2*%
%TO.N,GND*%
X70612000Y-60158000D03*
%TD*%
%TO.P,C2,1*%
%TO.N,VCC*%
X57133000Y-122288000D03*
%TO.P,C2,2*%
%TO.N,GND*%
X62133000Y-122288000D03*
%TD*%
D13*
%TO.P,U5,1,OEa*%
%TO.N,/{slash}PC2*%
X103340000Y-55080000D03*
D14*
%TO.P,U5,2,I0a*%
%TO.N,/PB7*%
X103340000Y-57620000D03*
%TO.P,U5,3,O3b*%
%TO.N,/PA7*%
X103340000Y-60160000D03*
%TO.P,U5,4,I1a*%
%TO.N,/PB6*%
X103340000Y-62700000D03*
%TO.P,U5,5,O2b*%
%TO.N,/PA6*%
X103340000Y-65240000D03*
%TO.P,U5,6,I2a*%
%TO.N,/PB5*%
X103340000Y-67780000D03*
%TO.P,U5,7,O1b*%
%TO.N,/PA5*%
X103340000Y-70320000D03*
%TO.P,U5,8,I3a*%
%TO.N,/PB4*%
X103340000Y-72860000D03*
%TO.P,U5,9,O0b*%
%TO.N,/PA4*%
X103340000Y-75400000D03*
%TO.P,U5,10,GND*%
%TO.N,GND*%
X103340000Y-77940000D03*
%TO.P,U5,11,I0b*%
%TO.N,Net-(J2-Pin_7)*%
X110960000Y-77940000D03*
%TO.P,U5,12,O3a*%
X110960000Y-75400000D03*
%TO.P,U5,13,I1b*%
%TO.N,Net-(J2-Pin_5)*%
X110960000Y-72860000D03*
%TO.P,U5,14,O2a*%
X110960000Y-70320000D03*
%TO.P,U5,15,I2b*%
%TO.N,Net-(J2-Pin_3)*%
X110960000Y-67780000D03*
%TO.P,U5,16,O1a*%
X110960000Y-65240000D03*
%TO.P,U5,17,I3b*%
%TO.N,Net-(J2-Pin_1)*%
X110960000Y-62700000D03*
%TO.P,U5,18,O0a*%
X110960000Y-60160000D03*
%TO.P,U5,19,OEb*%
%TO.N,/PC2*%
X110960000Y-57620000D03*
%TO.P,U5,20,VCC*%
%TO.N,VCC*%
X110960000Y-55080000D03*
%TD*%
%TO.P,C4,1*%
%TO.N,VCC*%
X113792000Y-110022000D03*
%TO.P,C4,2*%
%TO.N,GND*%
X113792000Y-115022000D03*
%TD*%
%TO.P,C5,1*%
%TO.N,VCC*%
X114300000Y-73954000D03*
%TO.P,C5,2*%
%TO.N,GND*%
X114300000Y-78954000D03*
%TD*%
D13*
%TO.P,U1,1*%
%TO.N,Net-(RN1-R1)*%
X60160000Y-55080000D03*
D14*
%TO.P,U1,2*%
%TO.N,unconnected-(U1-Pad2)*%
X60160000Y-57620000D03*
%TO.P,U1,3*%
%TO.N,Net-(RN1-R2)*%
X60160000Y-60160000D03*
%TO.P,U1,4*%
%TO.N,unconnected-(U1-Pad4)*%
X60160000Y-62700000D03*
%TO.P,U1,5*%
%TO.N,Net-(RN1-R3)*%
X60160000Y-65240000D03*
%TO.P,U1,6*%
%TO.N,unconnected-(U1-Pad6)*%
X60160000Y-67780000D03*
%TO.P,U1,7,GND*%
%TO.N,GND*%
X60160000Y-70320000D03*
%TO.P,U1,8*%
%TO.N,unconnected-(U1-Pad8)*%
X67780000Y-70320000D03*
%TO.P,U1,9*%
%TO.N,Net-(RN1-R5)*%
X67780000Y-67780000D03*
%TO.P,U1,10*%
%TO.N,unconnected-(U1-Pad10)*%
X67780000Y-65240000D03*
%TO.P,U1,11*%
%TO.N,Net-(RN1-R4)*%
X67780000Y-62700000D03*
%TO.P,U1,12*%
%TO.N,/{slash}PC2*%
X67780000Y-60160000D03*
%TO.P,U1,13*%
%TO.N,/PC2*%
X67780000Y-57620000D03*
%TO.P,U1,14,VCC*%
%TO.N,VCC*%
X67780000Y-55080000D03*
%TD*%
D11*
%TO.P,J2,1,Pin_1*%
%TO.N,Net-(J2-Pin_1)*%
X139810000Y-60160000D03*
D12*
%TO.P,J2,2,Pin_2*%
%TO.N,Net-(J2-Pin_2)*%
X142350000Y-60160000D03*
%TO.P,J2,3,Pin_3*%
%TO.N,Net-(J2-Pin_3)*%
X139810000Y-62700000D03*
%TO.P,J2,4,Pin_4*%
%TO.N,Net-(J2-Pin_4)*%
X142350000Y-62700000D03*
%TO.P,J2,5,Pin_5*%
%TO.N,Net-(J2-Pin_5)*%
X139810000Y-65240000D03*
%TO.P,J2,6,Pin_6*%
%TO.N,Net-(J2-Pin_6)*%
X142350000Y-65240000D03*
%TO.P,J2,7,Pin_7*%
%TO.N,Net-(J2-Pin_7)*%
X139810000Y-67780000D03*
%TO.P,J2,8,Pin_8*%
%TO.N,Net-(J2-Pin_8)*%
X142350000Y-67780000D03*
%TO.P,J2,9,Pin_9*%
%TO.N,Net-(J2-Pin_9)*%
X139810000Y-70320000D03*
%TO.P,J2,10,Pin_10*%
%TO.N,Net-(J2-Pin_10)*%
X142350000Y-70320000D03*
%TO.P,J2,11,Pin_11*%
%TO.N,Net-(J2-Pin_11)*%
X139810000Y-72860000D03*
%TO.P,J2,12,Pin_12*%
%TO.N,Net-(J2-Pin_12)*%
X142350000Y-72860000D03*
%TO.P,J2,13,Pin_13*%
%TO.N,Net-(J2-Pin_13)*%
X139810000Y-75400000D03*
%TO.P,J2,14,Pin_14*%
%TO.N,Net-(J2-Pin_14)*%
X142350000Y-75400000D03*
%TO.P,J2,15,Pin_15*%
%TO.N,Net-(J2-Pin_15)*%
X139810000Y-77940000D03*
%TO.P,J2,16,Pin_16*%
%TO.N,GND*%
X142350000Y-77940000D03*
%TD*%
D14*
%TO.P,C6,1*%
%TO.N,VCC*%
X118110000Y-80558000D03*
%TO.P,C6,2*%
%TO.N,GND*%
X118110000Y-85558000D03*
%TD*%
D16*
%TO.P,RN1,1,common*%
%TO.N,VCC*%
X55080000Y-55080000D03*
D14*
%TO.P,RN1,2,R1*%
%TO.N,Net-(RN1-R1)*%
X55080000Y-57620000D03*
%TO.P,RN1,3,R2*%
%TO.N,Net-(RN1-R2)*%
X55080000Y-60160000D03*
%TO.P,RN1,4,R3*%
%TO.N,Net-(RN1-R3)*%
X55080000Y-62700000D03*
%TO.P,RN1,5,R4*%
%TO.N,Net-(RN1-R4)*%
X55080000Y-65240000D03*
%TO.P,RN1,6,R5*%
%TO.N,Net-(RN1-R5)*%
X55080000Y-67780000D03*
%TD*%
D13*
%TO.P,U3,1,PA3*%
%TO.N,/PA3*%
X75400000Y-57620000D03*
D14*
%TO.P,U3,2,PA2*%
%TO.N,/PA2*%
X75400000Y-60160000D03*
%TO.P,U3,3,PA1*%
%TO.N,/PA1*%
X75400000Y-62700000D03*
%TO.P,U3,4,PA0*%
%TO.N,/PA0*%
X75400000Y-65240000D03*
%TO.P,U3,5,~{RD}*%
%TO.N,/IOR*%
X75400000Y-67780000D03*
%TO.P,U3,6,~{CS}*%
%TO.N,Net-(U2-O4)*%
X75400000Y-70320000D03*
%TO.P,U3,7,GND*%
%TO.N,GND*%
X75400000Y-72860000D03*
%TO.P,U3,8,A1*%
%TO.N,/A2*%
X75400000Y-75400000D03*
%TO.P,U3,9,A0*%
%TO.N,/A1*%
X75400000Y-77940000D03*
%TO.P,U3,10,PC7*%
%TO.N,/PC7*%
X75400000Y-80480000D03*
%TO.P,U3,11,PC6*%
%TO.N,/PC6*%
X75400000Y-83020000D03*
%TO.P,U3,12,PC5*%
%TO.N,/PC5*%
X75400000Y-85560000D03*
%TO.P,U3,13,PC4*%
%TO.N,/PC4*%
X75400000Y-88100000D03*
%TO.P,U3,14,PC0*%
%TO.N,/PC0*%
X75400000Y-90640000D03*
%TO.P,U3,15,PC1*%
%TO.N,/PC1*%
X75400000Y-93180000D03*
%TO.P,U3,16,PC2*%
%TO.N,/PC2*%
X75400000Y-95720000D03*
%TO.P,U3,17,PC3*%
%TO.N,/PC3*%
X75400000Y-98260000D03*
%TO.P,U3,18,PB0*%
%TO.N,/PB0*%
X75400000Y-100800000D03*
%TO.P,U3,19,PB1*%
%TO.N,/PB1*%
X75400000Y-103340000D03*
%TO.P,U3,20,PB2*%
%TO.N,/PB2*%
X75400000Y-105880000D03*
%TO.P,U3,21,PB3*%
%TO.N,/PB3*%
X90640000Y-105880000D03*
%TO.P,U3,22,PB4*%
%TO.N,/PB4*%
X90640000Y-103340000D03*
%TO.P,U3,23,PB5*%
%TO.N,/PB5*%
X90640000Y-100800000D03*
%TO.P,U3,24,PB6*%
%TO.N,/PB6*%
X90640000Y-98260000D03*
%TO.P,U3,25,PB7*%
%TO.N,/PB7*%
X90640000Y-95720000D03*
%TO.P,U3,26,VCC*%
%TO.N,VCC*%
X90640000Y-93180000D03*
%TO.P,U3,27,D7*%
%TO.N,/D7*%
X90640000Y-90640000D03*
%TO.P,U3,28,D6*%
%TO.N,/D6*%
X90640000Y-88100000D03*
%TO.P,U3,29,D5*%
%TO.N,/D5*%
X90640000Y-85560000D03*
%TO.P,U3,30,D4*%
%TO.N,/D4*%
X90640000Y-83020000D03*
%TO.P,U3,31,D3*%
%TO.N,/D3*%
X90640000Y-80480000D03*
%TO.P,U3,32,D2*%
%TO.N,/D2*%
X90640000Y-77940000D03*
%TO.P,U3,33,D1*%
%TO.N,/D1*%
X90640000Y-75400000D03*
%TO.P,U3,34,D0*%
%TO.N,/D0*%
X90640000Y-72860000D03*
%TO.P,U3,35,RESET*%
%TO.N,/RESET*%
X90640000Y-70320000D03*
%TO.P,U3,36,~{WR}*%
%TO.N,/IOW*%
X90640000Y-67780000D03*
%TO.P,U3,37,PA7*%
%TO.N,/PA7*%
X90640000Y-65240000D03*
%TO.P,U3,38,PA6*%
%TO.N,/PA6*%
X90640000Y-62700000D03*
%TO.P,U3,39,PA5*%
%TO.N,/PA5*%
X90640000Y-60160000D03*
%TO.P,U3,40,PA4*%
%TO.N,/PA4*%
X90640000Y-57620000D03*
%TD*%
%TO.P,C3,1*%
%TO.N,VCC*%
X85558000Y-70866000D03*
%TO.P,C3,2*%
%TO.N,GND*%
X80558000Y-70866000D03*
%TD*%
D17*
%TO.N,Net-(J2-Pin_4)*%
X131572000Y-113284000D03*
%TO.N,Net-(J2-Pin_2)*%
X130810000Y-110744000D03*
%TO.N,Net-(J2-Pin_7)*%
X127732000Y-106934000D03*
%TO.N,Net-(J2-Pin_8)*%
X133096000Y-105156000D03*
%TO.N,Net-(J2-Pin_5)*%
X128494000Y-104394000D03*
%TO.N,Net-(J2-Pin_6)*%
X132304000Y-102616000D03*
%TO.N,Net-(J2-Pin_3)*%
X129256000Y-101854000D03*
%TO.N,Net-(J2-Pin_12)*%
X136144000Y-97790000D03*
%TO.N,Net-(J2-Pin_1)*%
X130048000Y-99314000D03*
%TO.N,Net-(J2-Pin_14)*%
X137638000Y-100584000D03*
%TO.N,Net-(J2-Pin_12)*%
X136114000Y-105806000D03*
%TO.N,Net-(J2-Pin_2)*%
X130780000Y-100838000D03*
%TO.N,VCC*%
X59633000Y-139306000D03*
X95250000Y-111125000D03*
%TO.N,/RESET*%
X92710000Y-108458000D03*
%TO.N,/IOW*%
X88392000Y-140462000D03*
X88392000Y-137922000D03*
X95250000Y-109728000D03*
%TO.N,/A2*%
X59690000Y-108458000D03*
%TO.N,/IOR*%
X86868000Y-137922000D03*
X86868000Y-140462000D03*
%TO.N,/PA2*%
X97536000Y-107315000D03*
%TO.N,/PB7*%
X99060000Y-92710000D03*
%TO.N,/PA0*%
X97790000Y-109855000D03*
%TO.N,/PB5*%
X101219000Y-94361000D03*
%TO.N,/PB4*%
X100838000Y-97282000D03*
%TO.N,/PC0*%
X104394000Y-93218000D03*
%TO.N,/PA1*%
X97790000Y-108585000D03*
%TO.N,/PB6*%
X100330000Y-92710000D03*
%TO.N,/PA3*%
X98298000Y-106172000D03*
%TO.N,/PC5*%
X104140000Y-98044000D03*
%TO.N,Net-(J2-Pin_6)*%
X132304000Y-98298000D03*
%TO.N,Net-(J2-Pin_4)*%
X131542000Y-93218000D03*
%TO.N,Net-(J2-Pin_14)*%
X137638000Y-88138000D03*
%TO.N,Net-(J2-Pin_10)*%
X134590000Y-95758000D03*
%TD*%
D18*
%TO.N,Net-(J3-Pin_10)*%
X143734000Y-108090000D02*
X142350000Y-109474000D01*
X143734000Y-91948000D02*
X143734000Y-108090000D01*
%TO.N,Net-(J2-Pin_12)*%
X136002000Y-105918000D02*
X115316000Y-105918000D01*
X136114000Y-105806000D02*
X136002000Y-105918000D01*
%TO.N,Net-(J2-Pin_8)*%
X115316000Y-103378000D02*
X125730000Y-103378000D01*
X126873000Y-104521000D02*
X127508000Y-105156000D01*
X126873000Y-104521000D02*
X125730000Y-103378000D01*
X127508000Y-105156000D02*
X133096000Y-105156000D01*
X126238000Y-103886000D02*
X126873000Y-104521000D01*
%TO.N,Net-(J2-Pin_9)*%
X119536000Y-117700000D02*
X110960000Y-117700000D01*
X127762000Y-109474000D02*
X119536000Y-117700000D01*
X139810000Y-109474000D02*
X127762000Y-109474000D01*
%TO.N,Net-(J2-Pin_15)*%
X114505000Y-130400000D02*
X110960000Y-130400000D01*
X127811000Y-117094000D02*
X114505000Y-130400000D01*
X139810000Y-117094000D02*
X127811000Y-117094000D01*
%TO.N,Net-(J2-Pin_11)*%
X119536000Y-120240000D02*
X110960000Y-120240000D01*
X127762000Y-112014000D02*
X119536000Y-120240000D01*
X139810000Y-112014000D02*
X127762000Y-112014000D01*
%TO.N,Net-(J2-Pin_13)*%
X127762000Y-114554000D02*
X116996000Y-125320000D01*
X127762000Y-114554000D02*
X139810000Y-114554000D01*
X110960000Y-125320000D02*
X116996000Y-125320000D01*
D19*
%TO.N,GND*%
X145059000Y-116078000D02*
X145059000Y-133764000D01*
X145059000Y-133764000D02*
X145093500Y-133798500D01*
X52456050Y-51101000D02*
X143703950Y-51101000D01*
X145059000Y-52456050D02*
X145059000Y-116078000D01*
X51651325Y-51905725D02*
X52456050Y-51101000D01*
X51651325Y-70281800D02*
X51651325Y-51905725D01*
X143703950Y-51101000D02*
X145059000Y-52456050D01*
X145093500Y-133798500D02*
X143256000Y-135636000D01*
X131318000Y-135636000D02*
X143256000Y-135636000D01*
D18*
%TO.N,Net-(J2-Pin_13)*%
X139844500Y-114554000D02*
X136906000Y-114554000D01*
%TO.N,Net-(J2-Pin_4)*%
X141114500Y-113284000D02*
X131572000Y-113284000D01*
X142384500Y-114554000D02*
X141114500Y-113284000D01*
%TO.N,Net-(J2-Pin_11)*%
X139844500Y-112014000D02*
X135382000Y-112014000D01*
%TO.N,Net-(J2-Pin_2)*%
X141114500Y-110744000D02*
X130810000Y-110744000D01*
X142384500Y-112014000D02*
X141114500Y-110744000D01*
%TO.N,Net-(J2-Pin_9)*%
X139844500Y-109474000D02*
X133858000Y-109474000D01*
%TO.N,Net-(J2-Pin_7)*%
X139844500Y-106934000D02*
X127762000Y-106934000D01*
%TO.N,Net-(J2-Pin_8)*%
X137922000Y-105156000D02*
X133096000Y-105156000D01*
X138361000Y-105595000D02*
X137922000Y-105156000D01*
X142384500Y-106934000D02*
X141045500Y-105595000D01*
X141045500Y-105595000D02*
X138361000Y-105595000D01*
%TO.N,Net-(J2-Pin_5)*%
X139844500Y-104394000D02*
X128524000Y-104394000D01*
%TO.N,Net-(J2-Pin_6)*%
X138499000Y-103193000D02*
X141183500Y-103193000D01*
X137922000Y-102616000D02*
X138499000Y-103193000D01*
X132304000Y-102616000D02*
X137922000Y-102616000D01*
X141183500Y-103193000D02*
X142384500Y-104394000D01*
%TO.N,Net-(J2-Pin_3)*%
X139844500Y-101854000D02*
X129286000Y-101854000D01*
%TO.N,Net-(J2-Pin_12)*%
X140860500Y-97790000D02*
X136144000Y-97790000D01*
X142384500Y-99314000D02*
X140860500Y-97790000D01*
%TO.N,Net-(J2-Pin_14)*%
X141114500Y-100584000D02*
X142384500Y-101854000D01*
X137638000Y-100584000D02*
X141114500Y-100584000D01*
%TO.N,Net-(J2-Pin_1)*%
X130048000Y-99314000D02*
X139844500Y-99314000D01*
D19*
%TO.N,GND*%
X144928500Y-117094000D02*
X142384500Y-117094000D01*
D18*
%TO.N,Net-(J2-Pin_13)*%
X139844500Y-114554000D02*
X139679500Y-114719000D01*
%TO.N,Net-(J2-Pin_15)*%
X139679500Y-117259000D02*
X139844500Y-117094000D01*
%TO.N,Net-(J3-Pin_10)*%
X143768500Y-108090000D02*
X142384500Y-109474000D01*
%TO.N,Net-(J2-Pin_2)*%
X115316000Y-100838000D02*
X130780000Y-100838000D01*
D20*
%TO.N,VCC*%
X126238000Y-138430000D02*
X125222000Y-137414000D01*
X126238000Y-145796000D02*
X126238000Y-138430000D01*
X62230000Y-57150000D02*
X64300000Y-55080000D01*
X57150000Y-76200000D02*
X62230000Y-71120000D01*
X64300000Y-55080000D02*
X67780000Y-55080000D01*
X68580000Y-52705000D02*
X109855000Y-52705000D01*
D19*
X60198000Y-139871000D02*
X59633000Y-139306000D01*
D20*
X98534768Y-137414000D02*
X95250000Y-134129232D01*
X95250000Y-133604000D02*
X95250000Y-131445000D01*
X62230000Y-71120000D02*
X62230000Y-57150000D01*
X57150000Y-76200000D02*
X57150000Y-76708000D01*
X95250000Y-134129232D02*
X95250000Y-133604000D01*
X67780000Y-53505000D02*
X68580000Y-52705000D01*
X57150000Y-76708000D02*
X57133000Y-76725000D01*
D19*
X60198000Y-145796000D02*
X60198000Y-139871000D01*
D20*
X110960000Y-53810000D02*
X110960000Y-55080000D01*
X109855000Y-52705000D02*
X110960000Y-53810000D01*
X125222000Y-137414000D02*
X98534768Y-137414000D01*
X95250000Y-131445000D02*
X95250000Y-111125000D01*
X67780000Y-55080000D02*
X67780000Y-53505000D01*
X57133000Y-76725000D02*
X57133000Y-122288000D01*
%TO.N,GND*%
X62133000Y-122288000D02*
X67253000Y-122288000D01*
X68523000Y-127114000D02*
X70047000Y-128638000D01*
X107696000Y-80264000D02*
X112990000Y-80264000D01*
D19*
X74873000Y-136766000D02*
X77413000Y-139306000D01*
D20*
X103340000Y-77940000D02*
X105664000Y-80264000D01*
D19*
X60160000Y-70320000D02*
X51689525Y-70320000D01*
X106978000Y-139306000D02*
X108458000Y-140786000D01*
D20*
X107696000Y-80264000D02*
X107696000Y-83058000D01*
X112729000Y-113959000D02*
X107863000Y-113959000D01*
X105000000Y-132940000D02*
X105998000Y-131942000D01*
D19*
X51651325Y-135382000D02*
X51651325Y-71297800D01*
D20*
X105998000Y-131942000D02*
X105998000Y-116332000D01*
D19*
X56642000Y-136766000D02*
X72333000Y-136766000D01*
D20*
X67253000Y-122288000D02*
X68523000Y-123558000D01*
D19*
X51689525Y-70320000D02*
X51651325Y-70281800D01*
X145046400Y-77940000D02*
X142350000Y-77940000D01*
D20*
X107696000Y-83058000D02*
X107696000Y-82296000D01*
D19*
X107696000Y-135636000D02*
X131318000Y-135636000D01*
X107696000Y-135636000D02*
X105000000Y-132940000D01*
D20*
X107863000Y-113959000D02*
X107696000Y-113792000D01*
D19*
X55118000Y-136766000D02*
X53035325Y-136766000D01*
X131318000Y-145796000D02*
X131318000Y-135636000D01*
D20*
X107696000Y-114634000D02*
X107696000Y-113792000D01*
D19*
X72333000Y-136766000D02*
X74873000Y-136766000D01*
D20*
X68523000Y-123558000D02*
X68523000Y-127114000D01*
D19*
X56642000Y-136766000D02*
X55118000Y-136766000D01*
X77413000Y-139306000D02*
X106978000Y-139306000D01*
X105000000Y-132940000D02*
X103340000Y-132940000D01*
D20*
X105998000Y-116332000D02*
X107696000Y-114634000D01*
X105664000Y-80264000D02*
X107696000Y-80264000D01*
D19*
X55118000Y-136766000D02*
X55118000Y-145796000D01*
D20*
X73603000Y-128638000D02*
X74873000Y-129908000D01*
X113792000Y-115022000D02*
X112729000Y-113959000D01*
D19*
X53035325Y-136766000D02*
X51651325Y-135382000D01*
X51651325Y-71297800D02*
X51651325Y-70281800D01*
D20*
X107696000Y-113792000D02*
X107696000Y-105918000D01*
X74873000Y-129908000D02*
X74873000Y-132956000D01*
D19*
X74873000Y-136766000D02*
X74873000Y-132956000D01*
D20*
X70047000Y-128638000D02*
X73603000Y-128638000D01*
D19*
X108458000Y-140786000D02*
X108458000Y-145796000D01*
D20*
X112990000Y-80264000D02*
X114300000Y-78954000D01*
D18*
%TO.N,/RESET*%
X92710000Y-108458000D02*
X95758000Y-108458000D01*
X128778000Y-137922000D02*
X128778000Y-145796000D01*
X95758000Y-108458000D02*
X96520000Y-109220000D01*
X127508000Y-136652000D02*
X128778000Y-137922000D01*
X98552000Y-136652000D02*
X127508000Y-136652000D01*
X96520000Y-109220000D02*
X96520000Y-134620000D01*
X96520000Y-134620000D02*
X98552000Y-136652000D01*
%TO.N,/IOW*%
X88392000Y-140462000D02*
X99822000Y-140462000D01*
X100965000Y-143510000D02*
X100965000Y-147320000D01*
X94742000Y-109728000D02*
X93980000Y-110490000D01*
X93980000Y-110490000D02*
X93980000Y-132334000D01*
X99822000Y-140462000D02*
X100838000Y-141478000D01*
X89662000Y-136652000D02*
X88392000Y-137922000D01*
X95250000Y-109728000D02*
X94742000Y-109728000D01*
X100838000Y-141478000D02*
X100838000Y-145796000D01*
X89662000Y-136652000D02*
X93980000Y-132334000D01*
%TO.N,/A2*%
X61760000Y-75400000D02*
X75400000Y-75400000D01*
X59690000Y-108458000D02*
X59690000Y-77470000D01*
X59690000Y-77470000D02*
X61760000Y-75400000D01*
%TO.N,/IOR*%
X87630000Y-141224000D02*
X97282000Y-141224000D01*
X86868000Y-140462000D02*
X87630000Y-141224000D01*
X97282000Y-141224000D02*
X98298000Y-142240000D01*
X60960000Y-108204000D02*
X86868000Y-134112000D01*
X78105000Y-68580000D02*
X77305000Y-67780000D01*
X76881000Y-76789000D02*
X78105000Y-75565000D01*
X77305000Y-67780000D02*
X75400000Y-67780000D01*
X60960000Y-78105000D02*
X62276000Y-76789000D01*
X78105000Y-75565000D02*
X78105000Y-68580000D01*
X98298000Y-142240000D02*
X98298000Y-145796000D01*
X86868000Y-134112000D02*
X86868000Y-137922000D01*
X60960000Y-108204000D02*
X60960000Y-78105000D01*
X62276000Y-76789000D02*
X76881000Y-76789000D01*
%TO.N,/{slash}PC2*%
X69266000Y-58674000D02*
X71082000Y-58674000D01*
X74676000Y-55080000D02*
X103340000Y-55080000D01*
X71082000Y-58674000D02*
X74676000Y-55080000D01*
X67780000Y-60160000D02*
X69266000Y-58674000D01*
%TO.N,/PC2*%
X73025000Y-83820000D02*
X73025000Y-80010000D01*
X75400000Y-95720000D02*
X73495000Y-95720000D01*
X78105000Y-92075000D02*
X78740000Y-91440000D01*
X67780000Y-57620000D02*
X70731000Y-57620000D01*
X78740000Y-78105000D02*
X78740000Y-67310000D01*
X73706000Y-92029000D02*
X78059000Y-92029000D01*
X110960000Y-57620000D02*
X107480000Y-57620000D01*
X106634000Y-53929000D02*
X107315000Y-54610000D01*
X107315000Y-74930000D02*
X105456000Y-76789000D01*
X73706000Y-79329000D02*
X77516000Y-79329000D01*
X73706000Y-84409000D02*
X73660000Y-84455000D01*
X77424000Y-84409000D02*
X73706000Y-84409000D01*
X105456000Y-76789000D02*
X102281000Y-76789000D01*
X73495000Y-95720000D02*
X73025000Y-95250000D01*
X107480000Y-57620000D02*
X107315000Y-57785000D01*
X65405000Y-58420000D02*
X66205000Y-57620000D01*
X109809000Y-111469000D02*
X110960000Y-112620000D01*
X105275000Y-86987000D02*
X108172760Y-86987000D01*
X109809000Y-95758000D02*
X107696000Y-95758000D01*
X77516000Y-79329000D02*
X78740000Y-78105000D01*
X74422000Y-53929000D02*
X106634000Y-53929000D01*
X78740000Y-67310000D02*
X78059000Y-66629000D01*
X78059000Y-66629000D02*
X65994000Y-66629000D01*
X66205000Y-57620000D02*
X67780000Y-57620000D01*
X100988000Y-82700000D02*
X105275000Y-86987000D01*
X100988000Y-80622000D02*
X100988000Y-82700000D01*
X73025000Y-92710000D02*
X73706000Y-92029000D01*
X78740000Y-85725000D02*
X77424000Y-84409000D01*
X100965000Y-80599000D02*
X100988000Y-80622000D01*
X73025000Y-80010000D02*
X73706000Y-79329000D01*
X107315000Y-55880000D02*
X107315000Y-57785000D01*
X78059000Y-92029000D02*
X78105000Y-92075000D01*
X100965000Y-78105000D02*
X100965000Y-80599000D01*
X107315000Y-57785000D02*
X107315000Y-74930000D01*
X108172760Y-86987000D02*
X109809000Y-88623240D01*
X73660000Y-84455000D02*
X73025000Y-83820000D01*
X78740000Y-91440000D02*
X78740000Y-85725000D01*
X65405000Y-66040000D02*
X65405000Y-58420000D01*
X109809000Y-95758000D02*
X109809000Y-111469000D01*
X73025000Y-95250000D02*
X73025000Y-92710000D01*
X70731000Y-57620000D02*
X74422000Y-53929000D01*
X102281000Y-76789000D02*
X100965000Y-78105000D01*
X107315000Y-54610000D02*
X107315000Y-55880000D01*
X65994000Y-66629000D02*
X65405000Y-66040000D01*
X109809000Y-95758000D02*
X109809000Y-88623240D01*
%TO.N,Net-(U2-O4)*%
X58420000Y-76835000D02*
X62865000Y-72390000D01*
X58420000Y-111252000D02*
X65519000Y-118351000D01*
X73825000Y-70320000D02*
X75400000Y-70320000D01*
X58420000Y-108966000D02*
X58420000Y-76835000D01*
X62865000Y-72390000D02*
X71755000Y-72390000D01*
X71755000Y-72390000D02*
X73825000Y-70320000D01*
X69793000Y-122625000D02*
X65519000Y-118351000D01*
X69793000Y-125336000D02*
X69793000Y-122625000D01*
X58420000Y-108966000D02*
X58420000Y-111252000D01*
%TO.N,/PB3*%
X101600000Y-106426000D02*
X101600000Y-110880000D01*
X100695000Y-105521000D02*
X101600000Y-106426000D01*
X101600000Y-110880000D02*
X103340000Y-112620000D01*
X94780000Y-105880000D02*
X95139000Y-105521000D01*
X90640000Y-105880000D02*
X94780000Y-105880000D01*
X95139000Y-105521000D02*
X100695000Y-105521000D01*
%TO.N,/PC3*%
X104394000Y-91694000D02*
X105664000Y-92964000D01*
X103632000Y-91694000D02*
X104288000Y-91694000D01*
X81445000Y-98260000D02*
X85136000Y-94569000D01*
X96004520Y-94569000D02*
X98879520Y-91694000D01*
X103632000Y-91694000D02*
X104394000Y-91694000D01*
X75400000Y-98260000D02*
X81445000Y-98260000D01*
X105664000Y-92964000D02*
X105664000Y-100076000D01*
X106426000Y-100838000D02*
X107696000Y-100838000D01*
X85136000Y-94569000D02*
X96004520Y-94569000D01*
X98879520Y-91694000D02*
X103632000Y-91694000D01*
X105664000Y-100076000D02*
X106426000Y-100838000D01*
%TO.N,/PA6*%
X90640000Y-62700000D02*
X95720000Y-62700000D01*
X103340000Y-65240000D02*
X98260000Y-65240000D01*
X95720000Y-62700000D02*
X98260000Y-65240000D01*
%TO.N,/PC1*%
X75400000Y-93180000D02*
X83350000Y-93180000D01*
X98569500Y-91203500D02*
X99095000Y-90678000D01*
X99095000Y-90678000D02*
X107696000Y-90678000D01*
X97744000Y-92029000D02*
X98569500Y-91203500D01*
X84501000Y-92029000D02*
X97744000Y-92029000D01*
X84455000Y-92075000D02*
X84501000Y-92029000D01*
X83350000Y-93180000D02*
X84455000Y-92075000D01*
%TO.N,/PA2*%
X103340000Y-120240000D02*
X101444000Y-120240000D01*
X100330000Y-119126000D02*
X100330000Y-107950000D01*
X99695000Y-107315000D02*
X97536000Y-107315000D01*
X101444000Y-120240000D02*
X100330000Y-119126000D01*
X100330000Y-107950000D02*
X99695000Y-107315000D01*
%TO.N,/PB7*%
X96050000Y-95720000D02*
X90640000Y-95720000D01*
X99060000Y-92710000D02*
X96050000Y-95720000D01*
%TO.N,/PA0*%
X97790000Y-109855000D02*
X98425000Y-109855000D01*
X100174000Y-130400000D02*
X103340000Y-130400000D01*
X99060000Y-129286000D02*
X100174000Y-130400000D01*
X98425000Y-109855000D02*
X99060000Y-110490000D01*
X99060000Y-110490000D02*
X99060000Y-129286000D01*
%TO.N,/PC4*%
X105156000Y-97790000D02*
X105156000Y-102108000D01*
X75400000Y-88100000D02*
X71920000Y-88100000D01*
X70485000Y-100838000D02*
X71836000Y-102189000D01*
X106426000Y-103378000D02*
X107696000Y-103378000D01*
X103886000Y-96520000D02*
X105156000Y-97790000D01*
X94661000Y-102189000D02*
X100330000Y-96520000D01*
X71920000Y-88100000D02*
X70485000Y-89535000D01*
X71836000Y-102189000D02*
X94661000Y-102189000D01*
X105156000Y-102108000D02*
X106426000Y-103378000D01*
X100330000Y-96520000D02*
X103886000Y-96520000D01*
X70485000Y-89535000D02*
X70485000Y-100838000D01*
%TO.N,/PA4*%
X97201000Y-56469000D02*
X104729000Y-56469000D01*
X105410000Y-74765000D02*
X104775000Y-75400000D01*
X104729000Y-56469000D02*
X105410000Y-57150000D01*
X96050000Y-57620000D02*
X97201000Y-56469000D01*
X105410000Y-57150000D02*
X105410000Y-74765000D01*
X104775000Y-75400000D02*
X103340000Y-75400000D01*
X90640000Y-57620000D02*
X96050000Y-57620000D01*
%TO.N,/PA5*%
X90640000Y-60160000D02*
X88430000Y-60160000D01*
X87630000Y-60960000D02*
X87630000Y-66040000D01*
X87630000Y-66040000D02*
X88265000Y-66675000D01*
X95839000Y-66629000D02*
X99530000Y-70320000D01*
X88430000Y-60160000D02*
X87630000Y-60960000D01*
X99530000Y-70320000D02*
X103340000Y-70320000D01*
X88311000Y-66629000D02*
X95839000Y-66629000D01*
X88265000Y-66675000D02*
X88311000Y-66629000D01*
%TO.N,/PB5*%
X101219000Y-94361000D02*
X94780000Y-100800000D01*
X94780000Y-100800000D02*
X90640000Y-100800000D01*
%TO.N,/PB4*%
X94780000Y-103340000D02*
X90640000Y-103340000D01*
X100838000Y-97282000D02*
X94780000Y-103340000D01*
%TO.N,/PC6*%
X82385000Y-83020000D02*
X83774000Y-84409000D01*
X75400000Y-83020000D02*
X82385000Y-83020000D01*
X96520000Y-84409000D02*
X101400000Y-89289000D01*
X109220000Y-90170000D02*
X109220000Y-91694000D01*
X101400000Y-89289000D02*
X108339000Y-89289000D01*
X83774000Y-84409000D02*
X96520000Y-84409000D01*
X108339000Y-89289000D02*
X109220000Y-90170000D01*
X109220000Y-91694000D02*
X107696000Y-93218000D01*
%TO.N,/PC0*%
X94661000Y-99649000D02*
X72979000Y-99649000D01*
X104394000Y-93218000D02*
X101092000Y-93218000D01*
X72979000Y-99649000D02*
X71755000Y-98425000D01*
X71755000Y-98425000D02*
X71755000Y-91440000D01*
X72555000Y-90640000D02*
X75400000Y-90640000D01*
X101092000Y-93218000D02*
X94661000Y-99649000D01*
X71755000Y-91440000D02*
X72555000Y-90640000D01*
%TO.N,/PA1*%
X103340000Y-125320000D02*
X100555000Y-125320000D01*
X99060000Y-108585000D02*
X97790000Y-108585000D01*
X99695000Y-109220000D02*
X99060000Y-108585000D01*
X100555000Y-125320000D02*
X99695000Y-124460000D01*
X99695000Y-124460000D02*
X99695000Y-109220000D01*
%TO.N,/PA7*%
X89581000Y-61549000D02*
X95839000Y-61549000D01*
X97320000Y-60160000D02*
X103340000Y-60160000D01*
X88900000Y-64770000D02*
X88900000Y-62230000D01*
X88900000Y-62230000D02*
X89581000Y-61549000D01*
X89370000Y-65240000D02*
X88900000Y-64770000D01*
X90640000Y-65240000D02*
X89370000Y-65240000D01*
X95839000Y-61549000D02*
X95885000Y-61595000D01*
X95885000Y-61595000D02*
X97320000Y-60160000D01*
%TO.N,/PB6*%
X94780000Y-98260000D02*
X90640000Y-98260000D01*
X100330000Y-92710000D02*
X94780000Y-98260000D01*
%TO.N,/PC7*%
X97744000Y-81869000D02*
X104013000Y-88138000D01*
X82385000Y-80480000D02*
X83774000Y-81869000D01*
X75400000Y-80480000D02*
X82385000Y-80480000D01*
X83774000Y-81869000D02*
X97744000Y-81869000D01*
X104013000Y-88138000D02*
X107696000Y-88138000D01*
%TO.N,/PA3*%
X98298000Y-106172000D02*
X100330000Y-106172000D01*
X101092000Y-106934000D02*
X101092000Y-114554000D01*
X101092000Y-114554000D02*
X101698000Y-115160000D01*
X101698000Y-115160000D02*
X103340000Y-115160000D01*
X100330000Y-106172000D02*
X101092000Y-106934000D01*
%TO.N,/PC5*%
X70650000Y-85560000D02*
X75400000Y-85560000D01*
X69215000Y-103378000D02*
X69215000Y-86995000D01*
X104140000Y-98044000D02*
X101346000Y-98044000D01*
X69215000Y-86995000D02*
X70650000Y-85560000D01*
X101346000Y-98044000D02*
X94661000Y-104729000D01*
X70566000Y-104729000D02*
X69215000Y-103378000D01*
X94661000Y-104729000D02*
X70566000Y-104729000D01*
%TO.N,Net-(J2-Pin_6)*%
X115316000Y-98298000D02*
X132304000Y-98298000D01*
%TO.N,Net-(J2-Pin_4)*%
X115316000Y-93218000D02*
X131542000Y-93218000D01*
%TO.N,Net-(J2-Pin_14)*%
X137638000Y-88138000D02*
X115316000Y-88138000D01*
%TO.N,Net-(J2-Pin_10)*%
X115316000Y-95758000D02*
X134590000Y-95758000D01*
%TO.N,Net-(J2-Pin_11)*%
X110960000Y-120400000D02*
X110960000Y-122940000D01*
%TO.N,Net-(J2-Pin_5)*%
X112522000Y-70320000D02*
X110960000Y-70320000D01*
X115301000Y-70089000D02*
X120150000Y-65240000D01*
X110960000Y-70320000D02*
X110960000Y-72860000D01*
X112522000Y-70320000D02*
X115070000Y-70320000D01*
X120150000Y-65240000D02*
X139810000Y-65240000D01*
X115070000Y-70320000D02*
X115301000Y-70089000D01*
%TO.N,Net-(J2-Pin_3)*%
X114752500Y-65240000D02*
X110960000Y-65240000D01*
X139810000Y-62700000D02*
X117292500Y-62700000D01*
X110960000Y-65240000D02*
X110960000Y-67780000D01*
X117292500Y-62700000D02*
X114752500Y-65240000D01*
%TO.N,Net-(J2-Pin_13)*%
X110960000Y-127860000D02*
X110960000Y-125320000D01*
%TO.N,Net-(J2-Pin_15)*%
X110960000Y-132940000D02*
X110960000Y-130400000D01*
%TO.N,Net-(J2-Pin_9)*%
X110960000Y-117700000D02*
X110960000Y-115160000D01*
%TO.N,Net-(J2-Pin_7)*%
X118872000Y-71598000D02*
X122690000Y-67780000D01*
X116317000Y-74153000D02*
X115070000Y-75400000D01*
X122690000Y-67780000D02*
X139810000Y-67780000D01*
X116317000Y-74153000D02*
X118872000Y-71598000D01*
X110960000Y-75400000D02*
X110960000Y-77940000D01*
X110960000Y-75400000D02*
X115070000Y-75400000D01*
%TO.N,Net-(J2-Pin_1)*%
X110960000Y-60160000D02*
X110960000Y-62700000D01*
X136906000Y-60160000D02*
X139810000Y-60160000D01*
X110960000Y-60160000D02*
X136906000Y-60160000D01*
%TO.N,Net-(J3-Pin_10)*%
X142464000Y-90678000D02*
X143734000Y-91948000D01*
X115316000Y-90678000D02*
X142464000Y-90678000D01*
%TD*%
M02*
