M48
; DRILL file {KiCad 9.0.7} date 2026-05-06T06:57:37+0100
; FORMAT={-:-/ absolute / metric / decimal}
; #@! TF.CreationDate,2026-05-06T06:57:37+01:00
; #@! TF.GenerationSoftware,Kicad,Pcbnew,9.0.7
; #@! TF.FileFunction,MixedPlating,1,2
FMAT,2
METRIC
; #@! TA.AperFunction,Plated,PTH,ViaDrill
T1C0.300
; #@! TA.AperFunction,Plated,PTH,ComponentDrill
T2C0.800
; #@! TA.AperFunction,Plated,PTH,ComponentDrill
T3C1.000
%
G90
G05
T1
X59.69Y-125.73
X59.69Y-148.59
X92.71Y-108.458
X95.25Y-109.728
X95.25Y-111.125
X97.536Y-107.315
X97.79Y-108.585
X97.79Y-109.855
X98.355Y-149.86
X98.425Y-147.32
X99.06Y-92.71
X100.33Y-92.71
X100.895Y-149.86
X100.965Y-147.32
X102.616Y-92.71
X105.156Y-92.964
X116.586Y-90.805
X116.586Y-93.18
X131.572Y-116.04
X132.334Y-113.5
X133.096Y-110.96
X133.858Y-108.42
X134.112Y-119.888
X134.62Y-95.758
X135.382Y-88.138
X135.382Y-122.428
X136.144Y-93.218
X136.144Y-112.014
X136.906Y-98.298
X136.906Y-114.808
X138.43Y-90.678
X139.954Y-100.711
X141.425Y-83.02
X141.478Y-109.108
T2
X55.08Y-55.08
X55.08Y-57.62
X55.08Y-60.16
X55.08Y-62.7
X55.08Y-65.24
X55.08Y-67.78
X57.15Y-134.62
X57.15Y-142.24
X57.19Y-131.572
X59.69Y-134.62
X59.69Y-142.24
X60.16Y-55.08
X60.16Y-57.62
X60.16Y-60.16
X60.16Y-62.7
X60.16Y-65.24
X60.16Y-67.78
X60.16Y-70.32
X62.19Y-131.572
X62.23Y-134.62
X62.23Y-142.24
X64.77Y-134.62
X64.77Y-142.24
X67.31Y-134.62
X67.31Y-142.24
X67.78Y-55.08
X67.78Y-57.62
X67.78Y-60.16
X67.78Y-62.7
X67.78Y-65.24
X67.78Y-67.78
X67.78Y-70.32
X69.85Y-134.62
X69.85Y-142.24
X70.612Y-55.158
X70.612Y-60.158
X72.39Y-134.62
X72.39Y-142.24
X74.93Y-134.62
X74.93Y-142.24
X75.4Y-57.62
X75.4Y-60.16
X75.4Y-62.7
X75.4Y-65.24
X75.4Y-67.78
X75.4Y-70.32
X75.4Y-72.86
X75.4Y-75.4
X75.4Y-77.94
X75.4Y-80.48
X75.4Y-83.02
X75.4Y-85.56
X75.4Y-88.1
X75.4Y-90.64
X75.4Y-93.18
X75.4Y-95.72
X75.4Y-98.26
X75.4Y-100.8
X75.4Y-103.34
X75.4Y-105.88
X80.558Y-70.866
X85.558Y-70.866
X90.64Y-57.62
X90.64Y-60.16
X90.64Y-62.7
X90.64Y-65.24
X90.64Y-67.78
X90.64Y-70.32
X90.64Y-72.86
X90.64Y-75.4
X90.64Y-77.94
X90.64Y-80.48
X90.64Y-83.02
X90.64Y-85.56
X90.64Y-88.1
X90.64Y-90.64
X90.64Y-93.18
X90.64Y-95.72
X90.64Y-98.26
X90.64Y-100.8
X90.64Y-103.34
X90.64Y-105.88
X103.34Y-55.08
X103.34Y-57.62
X103.34Y-60.16
X103.34Y-62.7
X103.34Y-65.24
X103.34Y-67.78
X103.34Y-70.32
X103.34Y-72.86
X103.34Y-75.4
X103.34Y-77.94
X103.34Y-100.08
X103.34Y-102.62
X103.34Y-105.16
X103.34Y-107.7
X103.34Y-110.24
X103.34Y-112.78
X103.34Y-115.32
X103.34Y-117.86
X103.34Y-120.4
X103.34Y-122.94
X105.998Y-97.028
X110.96Y-55.08
X110.96Y-57.62
X110.96Y-60.16
X110.96Y-62.7
X110.96Y-65.24
X110.96Y-67.78
X110.96Y-70.32
X110.96Y-72.86
X110.96Y-75.4
X110.96Y-77.94
X110.96Y-100.08
X110.96Y-102.62
X110.96Y-105.16
X110.96Y-107.7
X110.96Y-110.24
X110.96Y-112.78
X110.96Y-115.32
X110.96Y-117.86
X110.96Y-120.4
X110.96Y-122.94
X110.998Y-97.028
X114.3Y-73.66
X114.3Y-78.66
X121.12Y-77.94
X121.12Y-80.48
X121.12Y-83.02
X121.12Y-85.56
X121.12Y-88.1
X121.12Y-90.64
X121.12Y-93.18
X121.12Y-95.72
X121.12Y-98.26
X121.12Y-100.8
X123.738Y-74.93
X128.738Y-74.93
X128.74Y-77.94
X128.74Y-80.48
X128.74Y-83.02
X128.74Y-85.56
X128.74Y-88.1
X128.74Y-90.64
X128.74Y-93.18
X128.74Y-95.72
X128.74Y-98.26
X128.74Y-100.8
T3
X143.65Y-60.16
X143.65Y-62.7
X143.65Y-65.24
X143.65Y-67.78
X143.65Y-70.32
X143.65Y-72.86
X143.65Y-75.4
X143.65Y-77.94
X143.65Y-108.42
X143.65Y-110.96
X143.65Y-113.5
X143.65Y-116.04
X143.65Y-118.58
X143.65Y-121.12
X143.65Y-123.66
X143.65Y-126.2
X146.19Y-60.16
X146.19Y-62.7
X146.19Y-65.24
X146.19Y-67.78
X146.19Y-70.32
X146.19Y-72.86
X146.19Y-75.4
X146.19Y-77.94
X146.19Y-108.42
X146.19Y-110.96
X146.19Y-113.5
X146.19Y-116.04
X146.19Y-118.58
X146.19Y-121.12
X146.19Y-123.66
X146.19Y-126.2
M30
