%TF.GenerationSoftware,KiCad,Pcbnew,9.0.7*%
%TF.CreationDate,2026-07-11T13:50:31+01:00*%
%TF.ProjectId,PDS_Diagnostics,5044535f-4469-4616-976e-6f7374696373,rev?*%
%TF.SameCoordinates,Original*%
%TF.FileFunction,Copper,L1,Top*%
%TF.FilePolarity,Positive*%
%FSLAX46Y46*%
G04 Gerber Fmt 4.6, Leading zero omitted, Abs format (unit mm)*
G04 Created by KiCad (PCBNEW 9.0.7) date 2026-07-11 13:50:31*
%MOMM*%
%LPD*%
G01*
G04 APERTURE LIST*
G04 Aperture macros list*
%AMRoundRect*
0 Rectangle with rounded corners*
0 $1 Rounding radius*
0 $2 $3 $4 $5 $6 $7 $8 $9 X,Y pos of 4 corners*
0 Add a 4 corners polygon primitive as box body*
4,1,4,$2,$3,$4,$5,$6,$7,$8,$9,$2,$3,0*
0 Add four circle primitives for the rounded corners*
1,1,$1+$1,$2,$3*
1,1,$1+$1,$4,$5*
1,1,$1+$1,$6,$7*
1,1,$1+$1,$8,$9*
0 Add four rect primitives between the rounded corners*
20,1,$1+$1,$2,$3,$4,$5,0*
20,1,$1+$1,$4,$5,$6,$7,0*
20,1,$1+$1,$6,$7,$8,$9,0*
20,1,$1+$1,$8,$9,$2,$3,0*%
G04 Aperture macros list end*
%TA.AperFunction,ComponentPad*%
%ADD10R,1.800000X1.800000*%
%TD*%
%TA.AperFunction,ComponentPad*%
%ADD11C,1.800000*%
%TD*%
%TA.AperFunction,ComponentPad*%
%ADD12O,1.700000X1.700000*%
%TD*%
%TA.AperFunction,ComponentPad*%
%ADD13C,1.700000*%
%TD*%
%TA.AperFunction,ComponentPad*%
%ADD14RoundRect,0.250000X-0.600000X0.600000X-0.600000X-0.600000X0.600000X-0.600000X0.600000X0.600000X0*%
%TD*%
%TA.AperFunction,ComponentPad*%
%ADD15R,1.700000X1.700000*%
%TD*%
%TA.AperFunction,ComponentPad*%
%ADD16R,1.600000X1.600000*%
%TD*%
%TA.AperFunction,ComponentPad*%
%ADD17C,1.600000*%
%TD*%
%TA.AperFunction,Conductor*%
%ADD18C,0.400000*%
%TD*%
%TA.AperFunction,Conductor*%
%ADD19C,0.250000*%
%TD*%
G04 APERTURE END LIST*
D10*
%TO.P,D2,1,K*%
%TO.N,Net-(D2-K)*%
X77500000Y-87500000D03*
D11*
%TO.P,D2,2,A*%
%TO.N,Net-(D2-A)*%
X77500000Y-84960000D03*
%TD*%
D12*
%TO.P,J5,1,Pin_1*%
%TO.N,GND*%
X56030000Y-74190000D03*
D13*
%TO.P,J5,2,Pin_2*%
X56030000Y-76730000D03*
%TO.P,J5,3,Pin_3*%
X56030000Y-79270000D03*
%TO.P,J5,4,Pin_4*%
X56030000Y-81810000D03*
%TD*%
D10*
%TO.P,D16,1,K*%
%TO.N,Net-(D16-K)*%
X59500000Y-68750000D03*
D11*
%TO.P,D16,2,A*%
%TO.N,Net-(D16-A)*%
X59500000Y-71290000D03*
%TD*%
D14*
%TO.P,J1,1,Pin_1*%
%TO.N,/PDSGND*%
X78890000Y-55000000D03*
D13*
%TO.P,J1,2,Pin_2*%
%TO.N,Net-(D1-A)*%
X78890000Y-57540000D03*
%TO.P,J1,3,Pin_3*%
%TO.N,Net-(D10-A)*%
X76350000Y-55000000D03*
%TO.P,J1,4,Pin_4*%
%TO.N,Net-(D2-A)*%
X76350000Y-57540000D03*
%TO.P,J1,5,Pin_5*%
%TO.N,Net-(D11-A)*%
X73810000Y-55000000D03*
%TO.P,J1,6,Pin_6*%
%TO.N,Net-(D3-A)*%
X73810000Y-57540000D03*
%TO.P,J1,7,Pin_7*%
%TO.N,Net-(D12-A)*%
X71270000Y-55000000D03*
%TO.P,J1,8,Pin_8*%
%TO.N,Net-(D4-A)*%
X71270000Y-57540000D03*
%TO.P,J1,9,Pin_9*%
%TO.N,Net-(D13-A)*%
X68730000Y-55000000D03*
%TO.P,J1,10,Pin_10*%
%TO.N,Net-(D5-A)*%
X68730000Y-57540000D03*
%TO.P,J1,11,Pin_11*%
%TO.N,Net-(D14-A)*%
X66190000Y-55000000D03*
%TO.P,J1,12,Pin_12*%
%TO.N,Net-(D6-A)*%
X66190000Y-57540000D03*
%TO.P,J1,13,Pin_13*%
%TO.N,Net-(D15-A)*%
X63650000Y-55000000D03*
%TO.P,J1,14,Pin_14*%
%TO.N,Net-(D7-A)*%
X63650000Y-57540000D03*
%TO.P,J1,15,Pin_15*%
%TO.N,Net-(D16-A)*%
X61110000Y-55000000D03*
%TO.P,J1,16,Pin_16*%
%TO.N,Net-(D8-A)*%
X61110000Y-57540000D03*
%TD*%
D10*
%TO.P,D12,1,K*%
%TO.N,Net-(D12-K)*%
X71500000Y-68750000D03*
D11*
%TO.P,D12,2,A*%
%TO.N,Net-(D12-A)*%
X71500000Y-71290000D03*
%TD*%
D10*
%TO.P,D13,1,K*%
%TO.N,Net-(D13-K)*%
X68500000Y-68750000D03*
D11*
%TO.P,D13,2,A*%
%TO.N,Net-(D13-A)*%
X68500000Y-71290000D03*
%TD*%
D15*
%TO.P,J4,1,Pin_1*%
%TO.N,/PDSGND*%
X83970000Y-76730000D03*
D13*
%TO.P,J4,2,Pin_2*%
%TO.N,GND*%
X83970000Y-79270000D03*
%TD*%
D10*
%TO.P,D15,1,K*%
%TO.N,Net-(D15-K)*%
X62500000Y-68750000D03*
D11*
%TO.P,D15,2,A*%
%TO.N,Net-(D15-A)*%
X62500000Y-71290000D03*
%TD*%
D10*
%TO.P,D6,1,K*%
%TO.N,Net-(D6-K)*%
X65500000Y-87500000D03*
D11*
%TO.P,D6,2,A*%
%TO.N,Net-(D6-A)*%
X65500000Y-84960000D03*
%TD*%
D10*
%TO.P,D9,1,K*%
%TO.N,Net-(D9-K)*%
X80500000Y-68750000D03*
D11*
%TO.P,D9,2,A*%
%TO.N,/PDSGND*%
X80500000Y-71290000D03*
%TD*%
D10*
%TO.P,D10,1,K*%
%TO.N,Net-(D10-K)*%
X77500000Y-68750000D03*
D11*
%TO.P,D10,2,A*%
%TO.N,Net-(D10-A)*%
X77500000Y-71290000D03*
%TD*%
D10*
%TO.P,D1,1,K*%
%TO.N,Net-(D1-K)*%
X80500000Y-87500000D03*
D11*
%TO.P,D1,2,A*%
%TO.N,Net-(D1-A)*%
X80500000Y-84960000D03*
%TD*%
D14*
%TO.P,J3,1,Pin_1*%
%TO.N,/PDSGND*%
X78890000Y-98460000D03*
D13*
%TO.P,J3,2,Pin_2*%
%TO.N,Net-(D1-A)*%
X78890000Y-101000000D03*
%TO.P,J3,3,Pin_3*%
%TO.N,Net-(D10-A)*%
X76350000Y-98460000D03*
%TO.P,J3,4,Pin_4*%
%TO.N,Net-(D2-A)*%
X76350000Y-101000000D03*
%TO.P,J3,5,Pin_5*%
%TO.N,Net-(D11-A)*%
X73810000Y-98460000D03*
%TO.P,J3,6,Pin_6*%
%TO.N,Net-(D3-A)*%
X73810000Y-101000000D03*
%TO.P,J3,7,Pin_7*%
%TO.N,Net-(D12-A)*%
X71270000Y-98460000D03*
%TO.P,J3,8,Pin_8*%
%TO.N,Net-(D4-A)*%
X71270000Y-101000000D03*
%TO.P,J3,9,Pin_9*%
%TO.N,Net-(D13-A)*%
X68730000Y-98460000D03*
%TO.P,J3,10,Pin_10*%
%TO.N,Net-(D5-A)*%
X68730000Y-101000000D03*
%TO.P,J3,11,Pin_11*%
%TO.N,Net-(D14-A)*%
X66190000Y-98460000D03*
%TO.P,J3,12,Pin_12*%
%TO.N,Net-(D6-A)*%
X66190000Y-101000000D03*
%TO.P,J3,13,Pin_13*%
%TO.N,Net-(D15-A)*%
X63650000Y-98460000D03*
%TO.P,J3,14,Pin_14*%
%TO.N,Net-(D7-A)*%
X63650000Y-101000000D03*
%TO.P,J3,15,Pin_15*%
%TO.N,Net-(D16-A)*%
X61110000Y-98460000D03*
%TO.P,J3,16,Pin_16*%
%TO.N,Net-(D8-A)*%
X61110000Y-101000000D03*
%TD*%
D15*
%TO.P,J2,1,Pin_1*%
%TO.N,/PDSGND*%
X78890000Y-76730000D03*
D13*
%TO.P,J2,2,Pin_2*%
%TO.N,Net-(D1-A)*%
X78890000Y-79270000D03*
%TO.P,J2,3,Pin_3*%
%TO.N,Net-(D10-A)*%
X76350000Y-76730000D03*
%TO.P,J2,4,Pin_4*%
%TO.N,Net-(D2-A)*%
X76350000Y-79270000D03*
%TO.P,J2,5,Pin_5*%
%TO.N,Net-(D11-A)*%
X73810000Y-76730000D03*
%TO.P,J2,6,Pin_6*%
%TO.N,Net-(D3-A)*%
X73810000Y-79270000D03*
%TO.P,J2,7,Pin_7*%
%TO.N,Net-(D12-A)*%
X71270000Y-76730000D03*
%TO.P,J2,8,Pin_8*%
%TO.N,Net-(D4-A)*%
X71270000Y-79270000D03*
%TO.P,J2,9,Pin_9*%
%TO.N,Net-(D13-A)*%
X68730000Y-76730000D03*
%TO.P,J2,10,Pin_10*%
%TO.N,Net-(D5-A)*%
X68730000Y-79270000D03*
%TO.P,J2,11,Pin_11*%
%TO.N,Net-(D14-A)*%
X66190000Y-76730000D03*
%TO.P,J2,12,Pin_12*%
%TO.N,Net-(D6-A)*%
X66190000Y-79270000D03*
%TO.P,J2,13,Pin_13*%
%TO.N,Net-(D15-A)*%
X63650000Y-76730000D03*
%TO.P,J2,14,Pin_14*%
%TO.N,Net-(D7-A)*%
X63650000Y-79270000D03*
%TO.P,J2,15,Pin_15*%
%TO.N,Net-(D16-A)*%
X61110000Y-76730000D03*
%TO.P,J2,16,Pin_16*%
%TO.N,Net-(D8-A)*%
X61110000Y-79270000D03*
%TD*%
D16*
%TO.P,RN2,1,common*%
%TO.N,GND*%
X59840000Y-64000000D03*
D17*
%TO.P,RN2,2,R1*%
%TO.N,Net-(D16-K)*%
X62380000Y-64000000D03*
%TO.P,RN2,3,R2*%
%TO.N,Net-(D15-K)*%
X64920000Y-64000000D03*
%TO.P,RN2,4,R3*%
%TO.N,Net-(D14-K)*%
X67460000Y-64000000D03*
%TO.P,RN2,5,R4*%
%TO.N,Net-(D13-K)*%
X70000000Y-64000000D03*
%TO.P,RN2,6,R5*%
%TO.N,Net-(D12-K)*%
X72540000Y-64000000D03*
%TO.P,RN2,7,R6*%
%TO.N,Net-(D11-K)*%
X75080000Y-64000000D03*
%TO.P,RN2,8,R7*%
%TO.N,Net-(D10-K)*%
X77620000Y-64000000D03*
%TO.P,RN2,9,R8*%
%TO.N,Net-(D9-K)*%
X80160000Y-64000000D03*
%TD*%
D16*
%TO.P,RN1,1,common*%
%TO.N,GND*%
X59840000Y-92000000D03*
D17*
%TO.P,RN1,2,R1*%
%TO.N,Net-(D8-K)*%
X62380000Y-92000000D03*
%TO.P,RN1,3,R2*%
%TO.N,Net-(D7-K)*%
X64920000Y-92000000D03*
%TO.P,RN1,4,R3*%
%TO.N,Net-(D6-K)*%
X67460000Y-92000000D03*
%TO.P,RN1,5,R4*%
%TO.N,Net-(D5-K)*%
X70000000Y-92000000D03*
%TO.P,RN1,6,R5*%
%TO.N,Net-(D4-K)*%
X72540000Y-92000000D03*
%TO.P,RN1,7,R6*%
%TO.N,Net-(D3-K)*%
X75080000Y-92000000D03*
%TO.P,RN1,8,R7*%
%TO.N,Net-(D2-K)*%
X77620000Y-92000000D03*
%TO.P,RN1,9,R8*%
%TO.N,Net-(D1-K)*%
X80160000Y-92000000D03*
%TD*%
D10*
%TO.P,D11,1,K*%
%TO.N,Net-(D11-K)*%
X74500000Y-68750000D03*
D11*
%TO.P,D11,2,A*%
%TO.N,Net-(D11-A)*%
X74500000Y-71290000D03*
%TD*%
D10*
%TO.P,D5,1,K*%
%TO.N,Net-(D5-K)*%
X68500000Y-87500000D03*
D11*
%TO.P,D5,2,A*%
%TO.N,Net-(D5-A)*%
X68500000Y-84960000D03*
%TD*%
D10*
%TO.P,D4,1,K*%
%TO.N,Net-(D4-K)*%
X71500000Y-87500000D03*
D11*
%TO.P,D4,2,A*%
%TO.N,Net-(D4-A)*%
X71500000Y-84960000D03*
%TD*%
D10*
%TO.P,D3,1,K*%
%TO.N,Net-(D3-K)*%
X74500000Y-87500000D03*
D11*
%TO.P,D3,2,A*%
%TO.N,Net-(D3-A)*%
X74500000Y-84960000D03*
%TD*%
D10*
%TO.P,D14,1,K*%
%TO.N,Net-(D14-K)*%
X65500000Y-68750000D03*
D11*
%TO.P,D14,2,A*%
%TO.N,Net-(D14-A)*%
X65500000Y-71290000D03*
%TD*%
D10*
%TO.P,D8,1,K*%
%TO.N,Net-(D8-K)*%
X59500000Y-87500000D03*
D11*
%TO.P,D8,2,A*%
%TO.N,Net-(D8-A)*%
X59500000Y-84960000D03*
%TD*%
D10*
%TO.P,D7,1,K*%
%TO.N,Net-(D7-K)*%
X62500000Y-87500000D03*
D11*
%TO.P,D7,2,A*%
%TO.N,Net-(D7-A)*%
X62500000Y-84960000D03*
%TD*%
D18*
%TO.N,/PDSGND*%
X81864200Y-95485800D02*
X78890000Y-98460000D01*
X81864200Y-76730000D02*
X83970000Y-76730000D01*
X81864200Y-76730000D02*
X81864200Y-95485800D01*
D19*
%TO.N,Net-(D16-K)*%
X62380000Y-64569200D02*
X62380000Y-64000000D01*
X59500000Y-67449200D02*
X62380000Y-64569200D01*
X59500000Y-68750000D02*
X59500000Y-67449200D01*
%TO.N,Net-(D16-A)*%
X59934000Y-56176000D02*
X61110000Y-55000000D01*
X61254000Y-64693800D02*
X61254000Y-61254000D01*
X58274000Y-67673800D02*
X61254000Y-64693800D01*
X61254000Y-61254000D02*
X59934000Y-59934000D01*
X59934000Y-59934000D02*
X59934000Y-56176000D01*
X58274000Y-70064000D02*
X58274000Y-67673800D01*
X59500000Y-71290000D02*
X58274000Y-70064000D01*
%TO.N,Net-(D15-A)*%
X62474000Y-56176000D02*
X63650000Y-55000000D01*
X62474000Y-58027116D02*
X62474000Y-56176000D01*
X63506000Y-59059116D02*
X62474000Y-58027116D01*
X63506000Y-64466405D02*
X63506000Y-59059116D01*
X61274000Y-70064000D02*
X61274000Y-66698405D01*
X62500000Y-71290000D02*
X61274000Y-70064000D01*
X61274000Y-66698405D02*
X63506000Y-64466405D01*
%TO.N,Net-(D14-A)*%
X66334000Y-59347116D02*
X65014000Y-58027116D01*
X66334000Y-64178405D02*
X66334000Y-59347116D01*
X65014000Y-56176000D02*
X66190000Y-55000000D01*
X64274000Y-66238405D02*
X66334000Y-64178405D01*
X65500000Y-71290000D02*
X64274000Y-70064000D01*
X64274000Y-70064000D02*
X64274000Y-66238405D01*
X65014000Y-58027116D02*
X65014000Y-56176000D01*
%TO.N,Net-(D13-A)*%
X68874000Y-64178405D02*
X68874000Y-59347116D01*
X67274000Y-65778405D02*
X68874000Y-64178405D01*
X67554000Y-58027116D02*
X67554000Y-56176000D01*
X67274000Y-70064000D02*
X67274000Y-65778405D01*
X68874000Y-59347116D02*
X67554000Y-58027116D01*
X68500000Y-71290000D02*
X67274000Y-70064000D01*
X67554000Y-56176000D02*
X68730000Y-55000000D01*
%TO.N,Net-(D12-A)*%
X70094000Y-56176000D02*
X71270000Y-55000000D01*
X70094000Y-58027116D02*
X70094000Y-56176000D01*
X71414000Y-64178405D02*
X71414000Y-59347116D01*
X70274000Y-65318405D02*
X71414000Y-64178405D01*
X70274000Y-70064000D02*
X70274000Y-65318405D01*
X71414000Y-59347116D02*
X70094000Y-58027116D01*
X71500000Y-71290000D02*
X70274000Y-70064000D01*
%TO.N,Net-(D11-A)*%
X72634000Y-58027116D02*
X72634000Y-56176000D01*
X73787000Y-64345405D02*
X73787000Y-59180116D01*
X73274000Y-64858405D02*
X73787000Y-64345405D01*
X72634000Y-56176000D02*
X73810000Y-55000000D01*
X73274000Y-70064000D02*
X73274000Y-64858405D01*
X74500000Y-71290000D02*
X73274000Y-70064000D01*
X73787000Y-59180116D02*
X72634000Y-58027116D01*
%TO.N,Net-(D10-A)*%
X75174000Y-56176000D02*
X76350000Y-55000000D01*
X75174000Y-58027116D02*
X75174000Y-56176000D01*
X76274000Y-70064000D02*
X76274000Y-59127116D01*
X77500000Y-71290000D02*
X76274000Y-70064000D01*
X76274000Y-59127116D02*
X75174000Y-58027116D01*
D18*
%TO.N,/PDSGND*%
X77639000Y-56251000D02*
X78890000Y-55000000D01*
X78959000Y-59378182D02*
X77639000Y-58058182D01*
X77639000Y-58058182D02*
X77639000Y-56251000D01*
X78959000Y-69749000D02*
X78959000Y-59378182D01*
X80500000Y-71290000D02*
X78959000Y-69749000D01*
D19*
%TO.N,Net-(D16-A)*%
X58854400Y-89306400D02*
X58274000Y-88726000D01*
X58274000Y-88726000D02*
X58274000Y-79566000D01*
X59817000Y-89306400D02*
X58854400Y-89306400D01*
X61110000Y-90599400D02*
X59817000Y-89306400D01*
X61110000Y-98460000D02*
X61110000Y-90599400D01*
X58274000Y-79566000D02*
X61110000Y-76730000D01*
%TO.N,Net-(D8-K)*%
X62380000Y-90980400D02*
X62380000Y-92000000D01*
X59500000Y-88100400D02*
X62380000Y-90980400D01*
X59500000Y-87500000D02*
X59500000Y-88100400D01*
%TO.N,Net-(D15-A)*%
X62474000Y-77906000D02*
X63650000Y-76730000D01*
X61274000Y-80957116D02*
X62474000Y-79757116D01*
X62474000Y-79757116D02*
X62474000Y-77906000D01*
X61274000Y-88991810D02*
X61274000Y-80957116D01*
X63650000Y-91367810D02*
X61274000Y-88991810D01*
X63650000Y-98460000D02*
X63650000Y-91367810D01*
%TO.N,Net-(D14-A)*%
X64274000Y-89451810D02*
X64274000Y-80309116D01*
X64274000Y-80309116D02*
X65014000Y-79569116D01*
X65014000Y-77906000D02*
X66190000Y-76730000D01*
X66190000Y-91367810D02*
X64274000Y-89451810D01*
X66190000Y-98460000D02*
X66190000Y-91367810D01*
X65014000Y-79569116D02*
X65014000Y-77906000D01*
%TO.N,Net-(D13-A)*%
X67554000Y-77906000D02*
X68730000Y-76730000D01*
X67554000Y-79757116D02*
X67554000Y-77906000D01*
X67274000Y-89911810D02*
X67274000Y-80037116D01*
X68730000Y-91367810D02*
X67274000Y-89911810D01*
X68730000Y-98460000D02*
X68730000Y-91367810D01*
X67274000Y-80037116D02*
X67554000Y-79757116D01*
%TO.N,Net-(D12-A)*%
X70094000Y-77906000D02*
X71270000Y-76730000D01*
X70094000Y-90191810D02*
X70094000Y-77906000D01*
X71270000Y-98460000D02*
X71270000Y-91367810D01*
X71270000Y-91367810D02*
X70094000Y-90191810D01*
%TO.N,Net-(D11-A)*%
X72634000Y-77906000D02*
X73810000Y-76730000D01*
X72634000Y-79757116D02*
X72634000Y-77906000D01*
X73274000Y-88726000D02*
X73274000Y-80397116D01*
X73274000Y-80397116D02*
X72634000Y-79757116D01*
X73810000Y-89262000D02*
X73274000Y-88726000D01*
X73810000Y-98460000D02*
X73810000Y-89262000D01*
%TO.N,Net-(D10-A)*%
X75174000Y-80663210D02*
X75174000Y-77906000D01*
X75174000Y-77906000D02*
X76350000Y-76730000D01*
X76274000Y-81763210D02*
X75174000Y-80663210D01*
X76274000Y-98384000D02*
X76274000Y-81763210D01*
X76350000Y-98460000D02*
X76274000Y-98384000D01*
%TO.N,Net-(D7-A)*%
X62500000Y-82330800D02*
X62500000Y-84960000D01*
X63650000Y-81180800D02*
X62500000Y-82330800D01*
X63650000Y-79270000D02*
X63650000Y-81180800D01*
%TO.N,Net-(D15-A)*%
X63650000Y-74521200D02*
X63650000Y-76730000D01*
X62500000Y-73371200D02*
X63650000Y-74521200D01*
X62500000Y-71290000D02*
X62500000Y-73371200D01*
%TO.N,Net-(D10-A)*%
X76350000Y-74957800D02*
X76350000Y-76730000D01*
X77500000Y-73807800D02*
X76350000Y-74957800D01*
X77500000Y-71290000D02*
X77500000Y-73807800D01*
%TO.N,Net-(D2-A)*%
X76350000Y-81201400D02*
X76350000Y-79270000D01*
X77500000Y-82351400D02*
X76350000Y-81201400D01*
X77500000Y-84960000D02*
X77500000Y-82351400D01*
%TO.N,Net-(D7-K)*%
X62500000Y-89580000D02*
X64920000Y-92000000D01*
X62500000Y-87500000D02*
X62500000Y-89580000D01*
%TO.N,Net-(D6-K)*%
X65500000Y-90040000D02*
X67460000Y-92000000D01*
X65500000Y-87500000D02*
X65500000Y-90040000D01*
%TO.N,Net-(D5-K)*%
X68500000Y-90500000D02*
X70000000Y-92000000D01*
X68500000Y-87500000D02*
X68500000Y-90500000D01*
%TO.N,Net-(D4-K)*%
X71500000Y-90960000D02*
X72540000Y-92000000D01*
X71500000Y-87500000D02*
X71500000Y-90960000D01*
%TO.N,Net-(D3-K)*%
X74500000Y-91420000D02*
X75080000Y-92000000D01*
X74500000Y-87500000D02*
X74500000Y-91420000D01*
%TO.N,Net-(D2-K)*%
X77500000Y-91880000D02*
X77620000Y-92000000D01*
X77500000Y-87500000D02*
X77500000Y-91880000D01*
%TO.N,Net-(D1-K)*%
X80500000Y-91660000D02*
X80160000Y-92000000D01*
X80500000Y-87500000D02*
X80500000Y-91660000D01*
%TO.N,Net-(D1-A)*%
X80500000Y-80880000D02*
X78890000Y-79270000D01*
X80500000Y-84960000D02*
X80500000Y-80880000D01*
%TO.N,Net-(D3-A)*%
X74500000Y-79960000D02*
X73810000Y-79270000D01*
X74500000Y-84960000D02*
X74500000Y-79960000D01*
%TO.N,Net-(D4-A)*%
X71500000Y-79500000D02*
X71270000Y-79270000D01*
X71500000Y-84960000D02*
X71500000Y-79500000D01*
%TO.N,Net-(D5-A)*%
X68500000Y-79500000D02*
X68730000Y-79270000D01*
X68500000Y-84960000D02*
X68500000Y-79500000D01*
%TO.N,Net-(D6-A)*%
X65500000Y-79960000D02*
X66190000Y-79270000D01*
X65500000Y-84960000D02*
X65500000Y-79960000D01*
%TO.N,Net-(D8-A)*%
X59500000Y-80880000D02*
X59500000Y-84960000D01*
X61110000Y-79270000D02*
X59500000Y-80880000D01*
D18*
%TO.N,/PDSGND*%
X80500000Y-71290000D02*
X80500000Y-76722600D01*
X80500000Y-76722600D02*
X80492600Y-76730000D01*
X80492600Y-76730000D02*
X81864200Y-76730000D01*
X78890000Y-76730000D02*
X80492600Y-76730000D01*
D19*
%TO.N,Net-(D11-A)*%
X74500000Y-76040000D02*
X73810000Y-76730000D01*
X74500000Y-71290000D02*
X74500000Y-76040000D01*
%TO.N,Net-(D12-A)*%
X71500000Y-76500000D02*
X71270000Y-76730000D01*
X71500000Y-71290000D02*
X71500000Y-76500000D01*
%TO.N,Net-(D13-A)*%
X68500000Y-76500000D02*
X68730000Y-76730000D01*
X68500000Y-71290000D02*
X68500000Y-76500000D01*
%TO.N,Net-(D14-A)*%
X65500000Y-76040000D02*
X66190000Y-76730000D01*
X65500000Y-71290000D02*
X65500000Y-76040000D01*
%TO.N,Net-(D16-A)*%
X59500000Y-75120000D02*
X61110000Y-76730000D01*
X59500000Y-71290000D02*
X59500000Y-75120000D01*
%TO.N,Net-(D15-K)*%
X62500000Y-66420000D02*
X64920000Y-64000000D01*
X62500000Y-68750000D02*
X62500000Y-66420000D01*
%TO.N,Net-(D14-K)*%
X65500000Y-65960000D02*
X67460000Y-64000000D01*
X65500000Y-68750000D02*
X65500000Y-65960000D01*
%TO.N,Net-(D13-K)*%
X68500000Y-65500000D02*
X70000000Y-64000000D01*
X68500000Y-68750000D02*
X68500000Y-65500000D01*
%TO.N,Net-(D12-K)*%
X71500000Y-65040000D02*
X72540000Y-64000000D01*
X71500000Y-68750000D02*
X71500000Y-65040000D01*
%TO.N,Net-(D11-K)*%
X74500000Y-64580000D02*
X75080000Y-64000000D01*
X74500000Y-68750000D02*
X74500000Y-64580000D01*
%TO.N,Net-(D10-K)*%
X77500000Y-64120000D02*
X77620000Y-64000000D01*
X77500000Y-68750000D02*
X77500000Y-64120000D01*
%TO.N,Net-(D9-K)*%
X80500000Y-64340000D02*
X80160000Y-64000000D01*
X80500000Y-68750000D02*
X80500000Y-64340000D01*
%TD*%
%TA.AperFunction,Conductor*%
%TO.N,GND*%
G36*
X85952539Y-50520185D02*
G01*
X85998294Y-50572989D01*
X86009500Y-50624500D01*
X86009500Y-105375500D01*
X85989815Y-105442539D01*
X85937011Y-105488294D01*
X85885500Y-105499500D01*
X54114500Y-105499500D01*
X54047461Y-105479815D01*
X54001706Y-105427011D01*
X53990500Y-105375500D01*
X53990500Y-100913389D01*
X60009500Y-100913389D01*
X60009500Y-101086611D01*
X60036598Y-101257701D01*
X60090127Y-101422445D01*
X60168768Y-101576788D01*
X60270586Y-101716928D01*
X60393072Y-101839414D01*
X60533212Y-101941232D01*
X60687555Y-102019873D01*
X60852299Y-102073402D01*
X61023389Y-102100500D01*
X61023390Y-102100500D01*
X61196610Y-102100500D01*
X61196611Y-102100500D01*
X61367701Y-102073402D01*
X61532445Y-102019873D01*
X61686788Y-101941232D01*
X61826928Y-101839414D01*
X61949414Y-101716928D01*
X62051232Y-101576788D01*
X62129873Y-101422445D01*
X62183402Y-101257701D01*
X62210500Y-101086611D01*
X62210500Y-100913389D01*
X62549500Y-100913389D01*
X62549500Y-101086611D01*
X62576598Y-101257701D01*
X62630127Y-101422445D01*
X62708768Y-101576788D01*
X62810586Y-101716928D01*
X62933072Y-101839414D01*
X63073212Y-101941232D01*
X63227555Y-102019873D01*
X63392299Y-102073402D01*
X63563389Y-102100500D01*
X63563390Y-102100500D01*
X63736610Y-102100500D01*
X63736611Y-102100500D01*
X63907701Y-102073402D01*
X64072445Y-102019873D01*
X64226788Y-101941232D01*
X64366928Y-101839414D01*
X64489414Y-101716928D01*
X64591232Y-101576788D01*
X64669873Y-101422445D01*
X64723402Y-101257701D01*
X64750500Y-101086611D01*
X64750500Y-100913389D01*
X65089500Y-100913389D01*
X65089500Y-101086611D01*
X65116598Y-101257701D01*
X65170127Y-101422445D01*
X65248768Y-101576788D01*
X65350586Y-101716928D01*
X65473072Y-101839414D01*
X65613212Y-101941232D01*
X65767555Y-102019873D01*
X65932299Y-102073402D01*
X66103389Y-102100500D01*
X66103390Y-102100500D01*
X66276610Y-102100500D01*
X66276611Y-102100500D01*
X66447701Y-102073402D01*
X66612445Y-102019873D01*
X66766788Y-101941232D01*
X66906928Y-101839414D01*
X67029414Y-101716928D01*
X67131232Y-101576788D01*
X67209873Y-101422445D01*
X67263402Y-101257701D01*
X67290500Y-101086611D01*
X67290500Y-100913389D01*
X67629500Y-100913389D01*
X67629500Y-101086611D01*
X67656598Y-101257701D01*
X67710127Y-101422445D01*
X67788768Y-101576788D01*
X67890586Y-101716928D01*
X68013072Y-101839414D01*
X68153212Y-101941232D01*
X68307555Y-102019873D01*
X68472299Y-102073402D01*
X68643389Y-102100500D01*
X68643390Y-102100500D01*
X68816610Y-102100500D01*
X68816611Y-102100500D01*
X68987701Y-102073402D01*
X69152445Y-102019873D01*
X69306788Y-101941232D01*
X69446928Y-101839414D01*
X69569414Y-101716928D01*
X69671232Y-101576788D01*
X69749873Y-101422445D01*
X69803402Y-101257701D01*
X69830500Y-101086611D01*
X69830500Y-100913389D01*
X70169500Y-100913389D01*
X70169500Y-101086611D01*
X70196598Y-101257701D01*
X70250127Y-101422445D01*
X70328768Y-101576788D01*
X70430586Y-101716928D01*
X70553072Y-101839414D01*
X70693212Y-101941232D01*
X70847555Y-102019873D01*
X71012299Y-102073402D01*
X71183389Y-102100500D01*
X71183390Y-102100500D01*
X71356610Y-102100500D01*
X71356611Y-102100500D01*
X71527701Y-102073402D01*
X71692445Y-102019873D01*
X71846788Y-101941232D01*
X71986928Y-101839414D01*
X72109414Y-101716928D01*
X72211232Y-101576788D01*
X72289873Y-101422445D01*
X72343402Y-101257701D01*
X72370500Y-101086611D01*
X72370500Y-100913389D01*
X72709500Y-100913389D01*
X72709500Y-101086611D01*
X72736598Y-101257701D01*
X72790127Y-101422445D01*
X72868768Y-101576788D01*
X72970586Y-101716928D01*
X73093072Y-101839414D01*
X73233212Y-101941232D01*
X73387555Y-102019873D01*
X73552299Y-102073402D01*
X73723389Y-102100500D01*
X73723390Y-102100500D01*
X73896610Y-102100500D01*
X73896611Y-102100500D01*
X74067701Y-102073402D01*
X74232445Y-102019873D01*
X74386788Y-101941232D01*
X74526928Y-101839414D01*
X74649414Y-101716928D01*
X74751232Y-101576788D01*
X74829873Y-101422445D01*
X74883402Y-101257701D01*
X74910500Y-101086611D01*
X74910500Y-100913389D01*
X75249500Y-100913389D01*
X75249500Y-101086611D01*
X75276598Y-101257701D01*
X75330127Y-101422445D01*
X75408768Y-101576788D01*
X75510586Y-101716928D01*
X75633072Y-101839414D01*
X75773212Y-101941232D01*
X75927555Y-102019873D01*
X76092299Y-102073402D01*
X76263389Y-102100500D01*
X76263390Y-102100500D01*
X76436610Y-102100500D01*
X76436611Y-102100500D01*
X76607701Y-102073402D01*
X76772445Y-102019873D01*
X76926788Y-101941232D01*
X77066928Y-101839414D01*
X77189414Y-101716928D01*
X77291232Y-101576788D01*
X77369873Y-101422445D01*
X77423402Y-101257701D01*
X77450500Y-101086611D01*
X77450500Y-100913389D01*
X77789500Y-100913389D01*
X77789500Y-101086611D01*
X77816598Y-101257701D01*
X77870127Y-101422445D01*
X77948768Y-101576788D01*
X78050586Y-101716928D01*
X78173072Y-101839414D01*
X78313212Y-101941232D01*
X78467555Y-102019873D01*
X78632299Y-102073402D01*
X78803389Y-102100500D01*
X78803390Y-102100500D01*
X78976610Y-102100500D01*
X78976611Y-102100500D01*
X79147701Y-102073402D01*
X79312445Y-102019873D01*
X79466788Y-101941232D01*
X79606928Y-101839414D01*
X79729414Y-101716928D01*
X79831232Y-101576788D01*
X79909873Y-101422445D01*
X79963402Y-101257701D01*
X79990500Y-101086611D01*
X79990500Y-100913389D01*
X79963402Y-100742299D01*
X79909873Y-100577555D01*
X79831232Y-100423212D01*
X79729414Y-100283072D01*
X79606928Y-100160586D01*
X79466788Y-100058768D01*
X79312445Y-99980127D01*
X79147701Y-99926598D01*
X79147699Y-99926597D01*
X79147698Y-99926597D01*
X79016271Y-99905781D01*
X78976611Y-99899500D01*
X78803389Y-99899500D01*
X78763728Y-99905781D01*
X78632302Y-99926597D01*
X78467552Y-99980128D01*
X78313211Y-100058768D01*
X78233256Y-100116859D01*
X78173072Y-100160586D01*
X78173070Y-100160588D01*
X78173069Y-100160588D01*
X78050588Y-100283069D01*
X78050588Y-100283070D01*
X78050586Y-100283072D01*
X78006859Y-100343256D01*
X77948768Y-100423211D01*
X77870128Y-100577552D01*
X77816597Y-100742302D01*
X77789500Y-100913389D01*
X77450500Y-100913389D01*
X77423402Y-100742299D01*
X77369873Y-100577555D01*
X77291232Y-100423212D01*
X77189414Y-100283072D01*
X77066928Y-100160586D01*
X76926788Y-100058768D01*
X76772445Y-99980127D01*
X76607701Y-99926598D01*
X76607699Y-99926597D01*
X76607698Y-99926597D01*
X76476271Y-99905781D01*
X76436611Y-99899500D01*
X76263389Y-99899500D01*
X76223728Y-99905781D01*
X76092302Y-99926597D01*
X75927552Y-99980128D01*
X75773211Y-100058768D01*
X75693256Y-100116859D01*
X75633072Y-100160586D01*
X75633070Y-100160588D01*
X75633069Y-100160588D01*
X75510588Y-100283069D01*
X75510588Y-100283070D01*
X75510586Y-100283072D01*
X75466859Y-100343256D01*
X75408768Y-100423211D01*
X75330128Y-100577552D01*
X75276597Y-100742302D01*
X75249500Y-100913389D01*
X74910500Y-100913389D01*
X74883402Y-100742299D01*
X74829873Y-100577555D01*
X74751232Y-100423212D01*
X74649414Y-100283072D01*
X74526928Y-100160586D01*
X74386788Y-100058768D01*
X74232445Y-99980127D01*
X74067701Y-99926598D01*
X74067699Y-99926597D01*
X74067698Y-99926597D01*
X73936271Y-99905781D01*
X73896611Y-99899500D01*
X73723389Y-99899500D01*
X73683728Y-99905781D01*
X73552302Y-99926597D01*
X73387552Y-99980128D01*
X73233211Y-100058768D01*
X73153256Y-100116859D01*
X73093072Y-100160586D01*
X73093070Y-100160588D01*
X73093069Y-100160588D01*
X72970588Y-100283069D01*
X72970588Y-100283070D01*
X72970586Y-100283072D01*
X72926859Y-100343256D01*
X72868768Y-100423211D01*
X72790128Y-100577552D01*
X72736597Y-100742302D01*
X72709500Y-100913389D01*
X72370500Y-100913389D01*
X72343402Y-100742299D01*
X72289873Y-100577555D01*
X72211232Y-100423212D01*
X72109414Y-100283072D01*
X71986928Y-100160586D01*
X71846788Y-100058768D01*
X71692445Y-99980127D01*
X71527701Y-99926598D01*
X71527699Y-99926597D01*
X71527698Y-99926597D01*
X71396271Y-99905781D01*
X71356611Y-99899500D01*
X71183389Y-99899500D01*
X71143728Y-99905781D01*
X71012302Y-99926597D01*
X70847552Y-99980128D01*
X70693211Y-100058768D01*
X70613256Y-100116859D01*
X70553072Y-100160586D01*
X70553070Y-100160588D01*
X70553069Y-100160588D01*
X70430588Y-100283069D01*
X70430588Y-100283070D01*
X70430586Y-100283072D01*
X70386859Y-100343256D01*
X70328768Y-100423211D01*
X70250128Y-100577552D01*
X70196597Y-100742302D01*
X70169500Y-100913389D01*
X69830500Y-100913389D01*
X69803402Y-100742299D01*
X69749873Y-100577555D01*
X69671232Y-100423212D01*
X69569414Y-100283072D01*
X69446928Y-100160586D01*
X69306788Y-100058768D01*
X69152445Y-99980127D01*
X68987701Y-99926598D01*
X68987699Y-99926597D01*
X68987698Y-99926597D01*
X68856271Y-99905781D01*
X68816611Y-99899500D01*
X68643389Y-99899500D01*
X68603728Y-99905781D01*
X68472302Y-99926597D01*
X68307552Y-99980128D01*
X68153211Y-100058768D01*
X68073256Y-100116859D01*
X68013072Y-100160586D01*
X68013070Y-100160588D01*
X68013069Y-100160588D01*
X67890588Y-100283069D01*
X67890588Y-100283070D01*
X67890586Y-100283072D01*
X67846859Y-100343256D01*
X67788768Y-100423211D01*
X67710128Y-100577552D01*
X67656597Y-100742302D01*
X67629500Y-100913389D01*
X67290500Y-100913389D01*
X67263402Y-100742299D01*
X67209873Y-100577555D01*
X67131232Y-100423212D01*
X67029414Y-100283072D01*
X66906928Y-100160586D01*
X66766788Y-100058768D01*
X66612445Y-99980127D01*
X66447701Y-99926598D01*
X66447699Y-99926597D01*
X66447698Y-99926597D01*
X66316271Y-99905781D01*
X66276611Y-99899500D01*
X66103389Y-99899500D01*
X66063728Y-99905781D01*
X65932302Y-99926597D01*
X65767552Y-99980128D01*
X65613211Y-100058768D01*
X65533256Y-100116859D01*
X65473072Y-100160586D01*
X65473070Y-100160588D01*
X65473069Y-100160588D01*
X65350588Y-100283069D01*
X65350588Y-100283070D01*
X65350586Y-100283072D01*
X65306859Y-100343256D01*
X65248768Y-100423211D01*
X65170128Y-100577552D01*
X65116597Y-100742302D01*
X65089500Y-100913389D01*
X64750500Y-100913389D01*
X64723402Y-100742299D01*
X64669873Y-100577555D01*
X64591232Y-100423212D01*
X64489414Y-100283072D01*
X64366928Y-100160586D01*
X64226788Y-100058768D01*
X64072445Y-99980127D01*
X63907701Y-99926598D01*
X63907699Y-99926597D01*
X63907698Y-99926597D01*
X63776271Y-99905781D01*
X63736611Y-99899500D01*
X63563389Y-99899500D01*
X63523728Y-99905781D01*
X63392302Y-99926597D01*
X63227552Y-99980128D01*
X63073211Y-100058768D01*
X62993256Y-100116859D01*
X62933072Y-100160586D01*
X62933070Y-100160588D01*
X62933069Y-100160588D01*
X62810588Y-100283069D01*
X62810588Y-100283070D01*
X62810586Y-100283072D01*
X62766859Y-100343256D01*
X62708768Y-100423211D01*
X62630128Y-100577552D01*
X62576597Y-100742302D01*
X62549500Y-100913389D01*
X62210500Y-100913389D01*
X62183402Y-100742299D01*
X62129873Y-100577555D01*
X62051232Y-100423212D01*
X61949414Y-100283072D01*
X61826928Y-100160586D01*
X61686788Y-100058768D01*
X61532445Y-99980127D01*
X61367701Y-99926598D01*
X61367699Y-99926597D01*
X61367698Y-99926597D01*
X61236271Y-99905781D01*
X61196611Y-99899500D01*
X61023389Y-99899500D01*
X60983728Y-99905781D01*
X60852302Y-99926597D01*
X60687552Y-99980128D01*
X60533211Y-100058768D01*
X60453256Y-100116859D01*
X60393072Y-100160586D01*
X60393070Y-100160588D01*
X60393069Y-100160588D01*
X60270588Y-100283069D01*
X60270588Y-100283070D01*
X60270586Y-100283072D01*
X60226859Y-100343256D01*
X60168768Y-100423211D01*
X60090128Y-100577552D01*
X60036597Y-100742302D01*
X60009500Y-100913389D01*
X53990500Y-100913389D01*
X53990500Y-74083753D01*
X54680000Y-74083753D01*
X54680000Y-74296246D01*
X54713242Y-74506127D01*
X54713242Y-74506130D01*
X54778904Y-74708217D01*
X54875375Y-74897550D01*
X54914728Y-74951716D01*
X55547037Y-74319408D01*
X55564075Y-74382993D01*
X55629901Y-74497007D01*
X55722993Y-74590099D01*
X55837007Y-74655925D01*
X55900591Y-74672962D01*
X55299971Y-75273581D01*
X55378711Y-75390895D01*
X55379920Y-75394729D01*
X55382844Y-75397491D01*
X55390343Y-75427778D01*
X55399727Y-75457529D01*
X55398671Y-75461408D01*
X55399638Y-75465312D01*
X55389573Y-75494844D01*
X55381383Y-75524947D01*
X55378397Y-75527640D01*
X55377100Y-75531447D01*
X55332051Y-75570483D01*
X55322440Y-75575380D01*
X55268282Y-75614727D01*
X55268282Y-75614728D01*
X55900591Y-76247037D01*
X55837007Y-76264075D01*
X55722993Y-76329901D01*
X55629901Y-76422993D01*
X55564075Y-76537007D01*
X55547037Y-76600591D01*
X54914728Y-75968282D01*
X54914727Y-75968282D01*
X54875380Y-76022439D01*
X54778904Y-76211782D01*
X54713242Y-76413869D01*
X54713242Y-76413872D01*
X54680000Y-76623753D01*
X54680000Y-76836246D01*
X54713242Y-77046127D01*
X54713242Y-77046130D01*
X54778904Y-77248217D01*
X54875375Y-77437550D01*
X54914728Y-77491716D01*
X55547037Y-76859408D01*
X55564075Y-76922993D01*
X55629901Y-77037007D01*
X55722993Y-77130099D01*
X55837007Y-77195925D01*
X55900591Y-77212962D01*
X55299971Y-77813581D01*
X55378711Y-77930895D01*
X55379920Y-77934729D01*
X55382844Y-77937491D01*
X55390343Y-77967778D01*
X55399727Y-77997529D01*
X55398671Y-78001408D01*
X55399638Y-78005312D01*
X55389573Y-78034844D01*
X55381383Y-78064947D01*
X55378397Y-78067640D01*
X55377100Y-78071447D01*
X55332051Y-78110483D01*
X55322440Y-78115380D01*
X55268282Y-78154727D01*
X55268282Y-78154728D01*
X55900591Y-78787037D01*
X55837007Y-78804075D01*
X55722993Y-78869901D01*
X55629901Y-78962993D01*
X55564075Y-79077007D01*
X55547037Y-79140591D01*
X54914728Y-78508282D01*
X54914727Y-78508282D01*
X54875380Y-78562439D01*
X54778904Y-78751782D01*
X54713242Y-78953869D01*
X54713242Y-78953872D01*
X54680000Y-79163753D01*
X54680000Y-79376246D01*
X54713242Y-79586127D01*
X54713242Y-79586130D01*
X54778904Y-79788217D01*
X54875375Y-79977550D01*
X54914728Y-80031716D01*
X55547037Y-79399408D01*
X55564075Y-79462993D01*
X55629901Y-79577007D01*
X55722993Y-79670099D01*
X55837007Y-79735925D01*
X55900591Y-79752962D01*
X55299971Y-80353581D01*
X55378711Y-80470895D01*
X55379920Y-80474729D01*
X55382844Y-80477491D01*
X55390343Y-80507778D01*
X55399727Y-80537529D01*
X55398671Y-80541408D01*
X55399638Y-80545312D01*
X55389573Y-80574844D01*
X55381383Y-80604947D01*
X55378397Y-80607640D01*
X55377100Y-80611447D01*
X55332051Y-80650483D01*
X55322440Y-80655380D01*
X55268282Y-80694727D01*
X55268282Y-80694728D01*
X55900591Y-81327037D01*
X55837007Y-81344075D01*
X55722993Y-81409901D01*
X55629901Y-81502993D01*
X55564075Y-81617007D01*
X55547037Y-81680591D01*
X54914728Y-81048282D01*
X54914727Y-81048282D01*
X54875380Y-81102439D01*
X54778904Y-81291782D01*
X54713242Y-81493869D01*
X54713242Y-81493872D01*
X54680000Y-81703753D01*
X54680000Y-81916246D01*
X54713242Y-82126127D01*
X54713242Y-82126130D01*
X54778904Y-82328217D01*
X54875375Y-82517550D01*
X54914728Y-82571716D01*
X55547037Y-81939408D01*
X55564075Y-82002993D01*
X55629901Y-82117007D01*
X55722993Y-82210099D01*
X55837007Y-82275925D01*
X55900590Y-82292962D01*
X55268282Y-82925269D01*
X55268282Y-82925270D01*
X55322449Y-82964624D01*
X55511782Y-83061095D01*
X55713870Y-83126757D01*
X55923754Y-83160000D01*
X56136246Y-83160000D01*
X56346127Y-83126757D01*
X56346130Y-83126757D01*
X56548217Y-83061095D01*
X56737554Y-82964622D01*
X56791716Y-82925270D01*
X56791717Y-82925270D01*
X56159408Y-82292962D01*
X56222993Y-82275925D01*
X56337007Y-82210099D01*
X56430099Y-82117007D01*
X56495925Y-82002993D01*
X56512962Y-81939408D01*
X57145270Y-82571717D01*
X57145270Y-82571716D01*
X57184622Y-82517554D01*
X57281095Y-82328217D01*
X57346757Y-82126130D01*
X57346757Y-82126127D01*
X57380000Y-81916246D01*
X57380000Y-81703753D01*
X57346757Y-81493872D01*
X57346757Y-81493869D01*
X57281095Y-81291782D01*
X57184624Y-81102449D01*
X57145270Y-81048282D01*
X57145269Y-81048282D01*
X56512962Y-81680590D01*
X56495925Y-81617007D01*
X56430099Y-81502993D01*
X56337007Y-81409901D01*
X56222993Y-81344075D01*
X56159409Y-81327037D01*
X56791716Y-80694728D01*
X56737550Y-80655375D01*
X56727954Y-80650486D01*
X56677157Y-80602512D01*
X56660361Y-80534692D01*
X56682897Y-80468556D01*
X56727954Y-80429514D01*
X56737554Y-80424622D01*
X56791716Y-80385270D01*
X56791717Y-80385270D01*
X56159408Y-79752962D01*
X56222993Y-79735925D01*
X56337007Y-79670099D01*
X56430099Y-79577007D01*
X56495925Y-79462993D01*
X56512962Y-79399408D01*
X57145270Y-80031717D01*
X57145270Y-80031716D01*
X57184622Y-79977554D01*
X57281095Y-79788217D01*
X57346757Y-79586130D01*
X57346757Y-79586127D01*
X57380000Y-79376246D01*
X57380000Y-79163753D01*
X57346757Y-78953872D01*
X57346757Y-78953869D01*
X57281095Y-78751782D01*
X57184624Y-78562449D01*
X57145270Y-78508282D01*
X57145269Y-78508282D01*
X56512962Y-79140590D01*
X56495925Y-79077007D01*
X56430099Y-78962993D01*
X56337007Y-78869901D01*
X56222993Y-78804075D01*
X56159409Y-78787037D01*
X56791716Y-78154728D01*
X56737550Y-78115375D01*
X56727954Y-78110486D01*
X56677157Y-78062512D01*
X56660361Y-77994692D01*
X56682897Y-77928556D01*
X56727954Y-77889514D01*
X56737554Y-77884622D01*
X56791716Y-77845270D01*
X56791717Y-77845270D01*
X56159408Y-77212962D01*
X56222993Y-77195925D01*
X56337007Y-77130099D01*
X56430099Y-77037007D01*
X56495925Y-76922993D01*
X56512962Y-76859408D01*
X57145270Y-77491717D01*
X57145270Y-77491716D01*
X57184622Y-77437554D01*
X57281095Y-77248217D01*
X57346757Y-77046130D01*
X57346757Y-77046127D01*
X57380000Y-76836246D01*
X57380000Y-76623753D01*
X57346757Y-76413872D01*
X57346757Y-76413869D01*
X57281095Y-76211782D01*
X57184624Y-76022449D01*
X57145270Y-75968282D01*
X57145269Y-75968282D01*
X56512962Y-76600590D01*
X56495925Y-76537007D01*
X56430099Y-76422993D01*
X56337007Y-76329901D01*
X56222993Y-76264075D01*
X56159409Y-76247037D01*
X56791716Y-75614728D01*
X56737550Y-75575375D01*
X56727954Y-75570486D01*
X56677157Y-75522512D01*
X56660361Y-75454692D01*
X56682897Y-75388556D01*
X56727954Y-75349514D01*
X56737554Y-75344622D01*
X56791716Y-75305270D01*
X56791717Y-75305270D01*
X56159408Y-74672962D01*
X56222993Y-74655925D01*
X56337007Y-74590099D01*
X56430099Y-74497007D01*
X56495925Y-74382993D01*
X56512962Y-74319408D01*
X57145270Y-74951717D01*
X57145270Y-74951716D01*
X57184622Y-74897554D01*
X57281095Y-74708217D01*
X57346757Y-74506130D01*
X57346757Y-74506127D01*
X57380000Y-74296246D01*
X57380000Y-74083753D01*
X57346757Y-73873872D01*
X57346757Y-73873869D01*
X57281095Y-73671782D01*
X57184624Y-73482449D01*
X57145270Y-73428282D01*
X57145269Y-73428282D01*
X56512962Y-74060590D01*
X56495925Y-73997007D01*
X56430099Y-73882993D01*
X56337007Y-73789901D01*
X56222993Y-73724075D01*
X56159409Y-73707037D01*
X56791716Y-73074728D01*
X56737550Y-73035375D01*
X56548217Y-72938904D01*
X56346129Y-72873242D01*
X56136246Y-72840000D01*
X55923754Y-72840000D01*
X55713872Y-72873242D01*
X55713869Y-72873242D01*
X55511782Y-72938904D01*
X55322439Y-73035380D01*
X55268282Y-73074727D01*
X55268282Y-73074728D01*
X55900591Y-73707037D01*
X55837007Y-73724075D01*
X55722993Y-73789901D01*
X55629901Y-73882993D01*
X55564075Y-73997007D01*
X55547037Y-74060591D01*
X54914728Y-73428282D01*
X54914727Y-73428282D01*
X54875380Y-73482439D01*
X54778904Y-73671782D01*
X54713242Y-73873869D01*
X54713242Y-73873872D01*
X54680000Y-74083753D01*
X53990500Y-74083753D01*
X53990500Y-67624365D01*
X57898500Y-67624365D01*
X57898500Y-70113435D01*
X57924090Y-70208938D01*
X57924091Y-70208939D01*
X57924091Y-70208940D01*
X57973526Y-70294563D01*
X58402995Y-70724033D01*
X58436480Y-70785356D01*
X58433245Y-70850031D01*
X58377829Y-71020587D01*
X58349500Y-71199448D01*
X58349500Y-71380551D01*
X58377829Y-71559410D01*
X58433787Y-71731636D01*
X58433788Y-71731639D01*
X58516006Y-71892997D01*
X58622441Y-72039494D01*
X58622445Y-72039499D01*
X58750500Y-72167554D01*
X58750505Y-72167558D01*
X58878287Y-72260396D01*
X58897006Y-72273996D01*
X59049500Y-72351696D01*
X59056795Y-72355413D01*
X59107591Y-72403388D01*
X59124500Y-72465898D01*
X59124500Y-75169435D01*
X59150090Y-75264938D01*
X59150091Y-75264941D01*
X59189557Y-75333298D01*
X59189558Y-75333298D01*
X59189559Y-75333300D01*
X59198920Y-75349514D01*
X59199528Y-75350566D01*
X60052677Y-76203714D01*
X60086162Y-76265037D01*
X60082927Y-76329713D01*
X60036597Y-76472301D01*
X60036597Y-76472304D01*
X60009500Y-76643389D01*
X60009500Y-76816611D01*
X60036598Y-76987701D01*
X60082927Y-77130285D01*
X60084922Y-77200126D01*
X60052677Y-77256284D01*
X58043438Y-79265525D01*
X57973526Y-79335436D01*
X57924091Y-79421059D01*
X57924091Y-79421060D01*
X57924090Y-79421062D01*
X57898500Y-79516565D01*
X57898500Y-88775435D01*
X57924090Y-88870938D01*
X57973525Y-88956562D01*
X57973526Y-88956563D01*
X58623838Y-89606875D01*
X58709463Y-89656311D01*
X58804964Y-89681900D01*
X58804965Y-89681900D01*
X59610101Y-89681900D01*
X59677140Y-89701585D01*
X59697782Y-89718219D01*
X60467882Y-90488319D01*
X60501367Y-90549642D01*
X60496383Y-90619334D01*
X60454511Y-90675267D01*
X60389047Y-90699684D01*
X60380201Y-90700000D01*
X60090000Y-90700000D01*
X60090000Y-91684314D01*
X60085606Y-91679920D01*
X59994394Y-91627259D01*
X59892661Y-91600000D01*
X59787339Y-91600000D01*
X59685606Y-91627259D01*
X59594394Y-91679920D01*
X59590000Y-91684314D01*
X59590000Y-90700000D01*
X58992155Y-90700000D01*
X58932627Y-90706401D01*
X58932620Y-90706403D01*
X58797913Y-90756645D01*
X58797906Y-90756649D01*
X58682812Y-90842809D01*
X58682809Y-90842812D01*
X58596649Y-90957906D01*
X58596645Y-90957913D01*
X58546403Y-91092620D01*
X58546401Y-91092627D01*
X58540000Y-91152155D01*
X58540000Y-91750000D01*
X59524314Y-91750000D01*
X59519920Y-91754394D01*
X59467259Y-91845606D01*
X59440000Y-91947339D01*
X59440000Y-92052661D01*
X59467259Y-92154394D01*
X59519920Y-92245606D01*
X59524314Y-92250000D01*
X58540000Y-92250000D01*
X58540000Y-92847844D01*
X58546401Y-92907372D01*
X58546403Y-92907379D01*
X58596645Y-93042086D01*
X58596649Y-93042093D01*
X58682809Y-93157187D01*
X58682812Y-93157190D01*
X58797906Y-93243350D01*
X58797913Y-93243354D01*
X58932620Y-93293596D01*
X58932627Y-93293598D01*
X58992155Y-93299999D01*
X58992172Y-93300000D01*
X59590000Y-93300000D01*
X59590000Y-92315686D01*
X59594394Y-92320080D01*
X59685606Y-92372741D01*
X59787339Y-92400000D01*
X59892661Y-92400000D01*
X59994394Y-92372741D01*
X60085606Y-92320080D01*
X60090000Y-92315686D01*
X60090000Y-93300000D01*
X60610500Y-93300000D01*
X60677539Y-93319685D01*
X60723294Y-93372489D01*
X60734500Y-93424000D01*
X60734500Y-97340219D01*
X60714815Y-97407258D01*
X60666795Y-97450704D01*
X60533211Y-97518768D01*
X60453256Y-97576859D01*
X60393072Y-97620586D01*
X60393070Y-97620588D01*
X60393069Y-97620588D01*
X60270588Y-97743069D01*
X60270588Y-97743070D01*
X60270586Y-97743072D01*
X60263724Y-97752517D01*
X60168768Y-97883211D01*
X60090128Y-98037552D01*
X60036597Y-98202302D01*
X60009500Y-98373389D01*
X60009500Y-98546611D01*
X60036598Y-98717701D01*
X60090127Y-98882445D01*
X60168768Y-99036788D01*
X60270586Y-99176928D01*
X60393072Y-99299414D01*
X60533212Y-99401232D01*
X60687555Y-99479873D01*
X60852299Y-99533402D01*
X61023389Y-99560500D01*
X61023390Y-99560500D01*
X61196610Y-99560500D01*
X61196611Y-99560500D01*
X61367701Y-99533402D01*
X61532445Y-99479873D01*
X61686788Y-99401232D01*
X61826928Y-99299414D01*
X61949414Y-99176928D01*
X62051232Y-99036788D01*
X62129873Y-98882445D01*
X62183402Y-98717701D01*
X62210500Y-98546611D01*
X62210500Y-98373389D01*
X62183402Y-98202299D01*
X62129873Y-98037555D01*
X62051232Y-97883212D01*
X61949414Y-97743072D01*
X61826928Y-97620586D01*
X61686788Y-97518768D01*
X61629205Y-97489428D01*
X61553205Y-97450704D01*
X61502409Y-97402729D01*
X61485500Y-97340219D01*
X61485500Y-92890495D01*
X61505185Y-92823456D01*
X61557989Y-92777701D01*
X61627147Y-92767757D01*
X61690703Y-92796782D01*
X61697181Y-92802814D01*
X61710342Y-92815975D01*
X61710345Y-92815977D01*
X61882402Y-92930941D01*
X62073580Y-93010130D01*
X62234235Y-93042086D01*
X62276530Y-93050499D01*
X62276534Y-93050500D01*
X62276535Y-93050500D01*
X62483466Y-93050500D01*
X62483467Y-93050499D01*
X62686420Y-93010130D01*
X62877598Y-92930941D01*
X63049655Y-92815977D01*
X63051137Y-92814495D01*
X63062819Y-92802814D01*
X63124142Y-92769329D01*
X63193834Y-92774313D01*
X63249767Y-92816185D01*
X63274184Y-92881649D01*
X63274500Y-92890495D01*
X63274500Y-97340219D01*
X63254815Y-97407258D01*
X63206795Y-97450704D01*
X63073211Y-97518768D01*
X62993256Y-97576859D01*
X62933072Y-97620586D01*
X62933070Y-97620588D01*
X62933069Y-97620588D01*
X62810588Y-97743069D01*
X62810588Y-97743070D01*
X62810586Y-97743072D01*
X62803724Y-97752517D01*
X62708768Y-97883211D01*
X62630128Y-98037552D01*
X62576597Y-98202302D01*
X62549500Y-98373389D01*
X62549500Y-98546611D01*
X62576598Y-98717701D01*
X62630127Y-98882445D01*
X62708768Y-99036788D01*
X62810586Y-99176928D01*
X62933072Y-99299414D01*
X63073212Y-99401232D01*
X63227555Y-99479873D01*
X63392299Y-99533402D01*
X63563389Y-99560500D01*
X63563390Y-99560500D01*
X63736610Y-99560500D01*
X63736611Y-99560500D01*
X63907701Y-99533402D01*
X64072445Y-99479873D01*
X64226788Y-99401232D01*
X64366928Y-99299414D01*
X64489414Y-99176928D01*
X64591232Y-99036788D01*
X64669873Y-98882445D01*
X64723402Y-98717701D01*
X64750500Y-98546611D01*
X64750500Y-98373389D01*
X64723402Y-98202299D01*
X64669873Y-98037555D01*
X64591232Y-97883212D01*
X64489414Y-97743072D01*
X64366928Y-97620586D01*
X64226788Y-97518768D01*
X64169205Y-97489428D01*
X64093205Y-97450704D01*
X64042409Y-97402729D01*
X64025500Y-97340219D01*
X64025500Y-92890495D01*
X64045185Y-92823456D01*
X64097989Y-92777701D01*
X64167147Y-92767757D01*
X64230703Y-92796782D01*
X64237181Y-92802814D01*
X64250342Y-92815975D01*
X64250345Y-92815977D01*
X64422402Y-92930941D01*
X64613580Y-93010130D01*
X64774235Y-93042086D01*
X64816530Y-93050499D01*
X64816534Y-93050500D01*
X64816535Y-93050500D01*
X65023466Y-93050500D01*
X65023467Y-93050499D01*
X65226420Y-93010130D01*
X65417598Y-92930941D01*
X65589655Y-92815977D01*
X65591137Y-92814495D01*
X65602819Y-92802814D01*
X65664142Y-92769329D01*
X65733834Y-92774313D01*
X65789767Y-92816185D01*
X65814184Y-92881649D01*
X65814500Y-92890495D01*
X65814500Y-97340219D01*
X65794815Y-97407258D01*
X65746795Y-97450704D01*
X65613211Y-97518768D01*
X65533256Y-97576859D01*
X65473072Y-97620586D01*
X65473070Y-97620588D01*
X65473069Y-97620588D01*
X65350588Y-97743069D01*
X65350588Y-97743070D01*
X65350586Y-97743072D01*
X65343724Y-97752517D01*
X65248768Y-97883211D01*
X65170128Y-98037552D01*
X65116597Y-98202302D01*
X65089500Y-98373389D01*
X65089500Y-98546611D01*
X65116598Y-98717701D01*
X65170127Y-98882445D01*
X65248768Y-99036788D01*
X65350586Y-99176928D01*
X65473072Y-99299414D01*
X65613212Y-99401232D01*
X65767555Y-99479873D01*
X65932299Y-99533402D01*
X66103389Y-99560500D01*
X66103390Y-99560500D01*
X66276610Y-99560500D01*
X66276611Y-99560500D01*
X66447701Y-99533402D01*
X66612445Y-99479873D01*
X66766788Y-99401232D01*
X66906928Y-99299414D01*
X67029414Y-99176928D01*
X67131232Y-99036788D01*
X67209873Y-98882445D01*
X67263402Y-98717701D01*
X67290500Y-98546611D01*
X67290500Y-98373389D01*
X67263402Y-98202299D01*
X67209873Y-98037555D01*
X67131232Y-97883212D01*
X67029414Y-97743072D01*
X66906928Y-97620586D01*
X66766788Y-97518768D01*
X66709205Y-97489428D01*
X66633205Y-97450704D01*
X66582409Y-97402729D01*
X66565500Y-97340219D01*
X66565500Y-92890495D01*
X66585185Y-92823456D01*
X66637989Y-92777701D01*
X66707147Y-92767757D01*
X66770703Y-92796782D01*
X66777181Y-92802814D01*
X66790342Y-92815975D01*
X66790345Y-92815977D01*
X66962402Y-92930941D01*
X67153580Y-93010130D01*
X67314235Y-93042086D01*
X67356530Y-93050499D01*
X67356534Y-93050500D01*
X67356535Y-93050500D01*
X67563466Y-93050500D01*
X67563467Y-93050499D01*
X67766420Y-93010130D01*
X67957598Y-92930941D01*
X68129655Y-92815977D01*
X68131137Y-92814495D01*
X68142819Y-92802814D01*
X68204142Y-92769329D01*
X68273834Y-92774313D01*
X68329767Y-92816185D01*
X68354184Y-92881649D01*
X68354500Y-92890495D01*
X68354500Y-97340219D01*
X68334815Y-97407258D01*
X68286795Y-97450704D01*
X68153211Y-97518768D01*
X68073256Y-97576859D01*
X68013072Y-97620586D01*
X68013070Y-97620588D01*
X68013069Y-97620588D01*
X67890588Y-97743069D01*
X67890588Y-97743070D01*
X67890586Y-97743072D01*
X67883724Y-97752517D01*
X67788768Y-97883211D01*
X67710128Y-98037552D01*
X67656597Y-98202302D01*
X67629500Y-98373389D01*
X67629500Y-98546611D01*
X67656598Y-98717701D01*
X67710127Y-98882445D01*
X67788768Y-99036788D01*
X67890586Y-99176928D01*
X68013072Y-99299414D01*
X68153212Y-99401232D01*
X68307555Y-99479873D01*
X68472299Y-99533402D01*
X68643389Y-99560500D01*
X68643390Y-99560500D01*
X68816610Y-99560500D01*
X68816611Y-99560500D01*
X68987701Y-99533402D01*
X69152445Y-99479873D01*
X69306788Y-99401232D01*
X69446928Y-99299414D01*
X69569414Y-99176928D01*
X69671232Y-99036788D01*
X69749873Y-98882445D01*
X69803402Y-98717701D01*
X69830500Y-98546611D01*
X69830500Y-98373389D01*
X69803402Y-98202299D01*
X69749873Y-98037555D01*
X69671232Y-97883212D01*
X69569414Y-97743072D01*
X69446928Y-97620586D01*
X69306788Y-97518768D01*
X69249205Y-97489428D01*
X69173205Y-97450704D01*
X69122409Y-97402729D01*
X69105500Y-97340219D01*
X69105500Y-92890495D01*
X69125185Y-92823456D01*
X69177989Y-92777701D01*
X69247147Y-92767757D01*
X69310703Y-92796782D01*
X69317181Y-92802814D01*
X69330342Y-92815975D01*
X69330345Y-92815977D01*
X69502402Y-92930941D01*
X69693580Y-93010130D01*
X69854235Y-93042086D01*
X69896530Y-93050499D01*
X69896534Y-93050500D01*
X69896535Y-93050500D01*
X70103466Y-93050500D01*
X70103467Y-93050499D01*
X70306420Y-93010130D01*
X70497598Y-92930941D01*
X70669655Y-92815977D01*
X70671137Y-92814495D01*
X70682819Y-92802814D01*
X70744142Y-92769329D01*
X70813834Y-92774313D01*
X70869767Y-92816185D01*
X70894184Y-92881649D01*
X70894500Y-92890495D01*
X70894500Y-97340219D01*
X70874815Y-97407258D01*
X70826795Y-97450704D01*
X70693211Y-97518768D01*
X70613256Y-97576859D01*
X70553072Y-97620586D01*
X70553070Y-97620588D01*
X70553069Y-97620588D01*
X70430588Y-97743069D01*
X70430588Y-97743070D01*
X70430586Y-97743072D01*
X70423724Y-97752517D01*
X70328768Y-97883211D01*
X70250128Y-98037552D01*
X70196597Y-98202302D01*
X70169500Y-98373389D01*
X70169500Y-98546611D01*
X70196598Y-98717701D01*
X70250127Y-98882445D01*
X70328768Y-99036788D01*
X70430586Y-99176928D01*
X70553072Y-99299414D01*
X70693212Y-99401232D01*
X70847555Y-99479873D01*
X71012299Y-99533402D01*
X71183389Y-99560500D01*
X71183390Y-99560500D01*
X71356610Y-99560500D01*
X71356611Y-99560500D01*
X71527701Y-99533402D01*
X71692445Y-99479873D01*
X71846788Y-99401232D01*
X71986928Y-99299414D01*
X72109414Y-99176928D01*
X72211232Y-99036788D01*
X72289873Y-98882445D01*
X72343402Y-98717701D01*
X72370500Y-98546611D01*
X72370500Y-98373389D01*
X72343402Y-98202299D01*
X72289873Y-98037555D01*
X72211232Y-97883212D01*
X72109414Y-97743072D01*
X71986928Y-97620586D01*
X71846788Y-97518768D01*
X71789205Y-97489428D01*
X71713205Y-97450704D01*
X71662409Y-97402729D01*
X71645500Y-97340219D01*
X71645500Y-92890495D01*
X71665185Y-92823456D01*
X71717989Y-92777701D01*
X71787147Y-92767757D01*
X71850703Y-92796782D01*
X71857181Y-92802814D01*
X71870342Y-92815975D01*
X71870345Y-92815977D01*
X72042402Y-92930941D01*
X72233580Y-93010130D01*
X72394235Y-93042086D01*
X72436530Y-93050499D01*
X72436534Y-93050500D01*
X72436535Y-93050500D01*
X72643466Y-93050500D01*
X72643467Y-93050499D01*
X72846420Y-93010130D01*
X73037598Y-92930941D01*
X73209655Y-92815977D01*
X73211137Y-92814495D01*
X73222819Y-92802814D01*
X73284142Y-92769329D01*
X73353834Y-92774313D01*
X73409767Y-92816185D01*
X73434184Y-92881649D01*
X73434500Y-92890495D01*
X73434500Y-97340219D01*
X73414815Y-97407258D01*
X73366795Y-97450704D01*
X73233211Y-97518768D01*
X73153256Y-97576859D01*
X73093072Y-97620586D01*
X73093070Y-97620588D01*
X73093069Y-97620588D01*
X72970588Y-97743069D01*
X72970588Y-97743070D01*
X72970586Y-97743072D01*
X72963724Y-97752517D01*
X72868768Y-97883211D01*
X72790128Y-98037552D01*
X72736597Y-98202302D01*
X72709500Y-98373389D01*
X72709500Y-98546611D01*
X72736598Y-98717701D01*
X72790127Y-98882445D01*
X72868768Y-99036788D01*
X72970586Y-99176928D01*
X73093072Y-99299414D01*
X73233212Y-99401232D01*
X73387555Y-99479873D01*
X73552299Y-99533402D01*
X73723389Y-99560500D01*
X73723390Y-99560500D01*
X73896610Y-99560500D01*
X73896611Y-99560500D01*
X74067701Y-99533402D01*
X74232445Y-99479873D01*
X74386788Y-99401232D01*
X74526928Y-99299414D01*
X74649414Y-99176928D01*
X74751232Y-99036788D01*
X74829873Y-98882445D01*
X74883402Y-98717701D01*
X74910500Y-98546611D01*
X74910500Y-98373389D01*
X74883402Y-98202299D01*
X74829873Y-98037555D01*
X74751232Y-97883212D01*
X74649414Y-97743072D01*
X74526928Y-97620586D01*
X74386788Y-97518768D01*
X74329205Y-97489428D01*
X74253205Y-97450704D01*
X74202409Y-97402729D01*
X74185500Y-97340219D01*
X74185500Y-92890495D01*
X74205185Y-92823456D01*
X74257989Y-92777701D01*
X74327147Y-92767757D01*
X74390703Y-92796782D01*
X74397181Y-92802814D01*
X74410342Y-92815975D01*
X74410345Y-92815977D01*
X74582402Y-92930941D01*
X74773580Y-93010130D01*
X74934235Y-93042086D01*
X74976530Y-93050499D01*
X74976534Y-93050500D01*
X74976535Y-93050500D01*
X75183466Y-93050500D01*
X75183467Y-93050499D01*
X75386420Y-93010130D01*
X75577598Y-92930941D01*
X75705610Y-92845406D01*
X75772287Y-92824529D01*
X75839667Y-92843014D01*
X75886357Y-92894993D01*
X75898500Y-92948509D01*
X75898500Y-97378943D01*
X75878815Y-97445982D01*
X75830795Y-97489428D01*
X75773211Y-97518768D01*
X75693256Y-97576859D01*
X75633072Y-97620586D01*
X75633070Y-97620588D01*
X75633069Y-97620588D01*
X75510588Y-97743069D01*
X75510588Y-97743070D01*
X75510586Y-97743072D01*
X75503724Y-97752517D01*
X75408768Y-97883211D01*
X75330128Y-98037552D01*
X75276597Y-98202302D01*
X75249500Y-98373389D01*
X75249500Y-98546611D01*
X75276598Y-98717701D01*
X75330127Y-98882445D01*
X75408768Y-99036788D01*
X75510586Y-99176928D01*
X75633072Y-99299414D01*
X75773212Y-99401232D01*
X75927555Y-99479873D01*
X76092299Y-99533402D01*
X76263389Y-99560500D01*
X76263390Y-99560500D01*
X76436610Y-99560500D01*
X76436611Y-99560500D01*
X76607701Y-99533402D01*
X76772445Y-99479873D01*
X76926788Y-99401232D01*
X77066928Y-99299414D01*
X77189414Y-99176928D01*
X77291232Y-99036788D01*
X77369873Y-98882445D01*
X77423402Y-98717701D01*
X77450500Y-98546611D01*
X77450500Y-98373389D01*
X77423402Y-98202299D01*
X77369873Y-98037555D01*
X77291232Y-97883212D01*
X77189414Y-97743072D01*
X77066928Y-97620586D01*
X76926788Y-97518768D01*
X76869205Y-97489428D01*
X76772445Y-97440126D01*
X76735180Y-97428018D01*
X76677505Y-97388580D01*
X76650308Y-97324221D01*
X76649500Y-97310088D01*
X76649500Y-92814495D01*
X76669185Y-92747456D01*
X76721989Y-92701701D01*
X76791147Y-92691757D01*
X76854703Y-92720782D01*
X76861181Y-92726814D01*
X76950342Y-92815975D01*
X76950345Y-92815977D01*
X77122402Y-92930941D01*
X77313580Y-93010130D01*
X77474235Y-93042086D01*
X77516530Y-93050499D01*
X77516534Y-93050500D01*
X77516535Y-93050500D01*
X77723466Y-93050500D01*
X77723467Y-93050499D01*
X77926420Y-93010130D01*
X78117598Y-92930941D01*
X78289655Y-92815977D01*
X78435977Y-92669655D01*
X78550941Y-92497598D01*
X78630130Y-92306420D01*
X78670500Y-92103465D01*
X78670500Y-91896535D01*
X78630130Y-91693580D01*
X78550941Y-91502402D01*
X78435977Y-91330345D01*
X78435975Y-91330342D01*
X78289657Y-91184024D01*
X78117596Y-91069057D01*
X77952047Y-91000485D01*
X77897644Y-90956644D01*
X77875579Y-90890350D01*
X77875500Y-90885924D01*
X77875500Y-88774500D01*
X77895185Y-88707461D01*
X77947989Y-88661706D01*
X77999500Y-88650500D01*
X78424676Y-88650500D01*
X78424677Y-88650499D01*
X78497740Y-88635966D01*
X78580601Y-88580601D01*
X78635966Y-88497740D01*
X78650500Y-88424674D01*
X78650500Y-86575326D01*
X78650500Y-86575323D01*
X78650499Y-86575321D01*
X78635967Y-86502264D01*
X78635966Y-86502260D01*
X78580601Y-86419399D01*
X78497740Y-86364034D01*
X78497739Y-86364033D01*
X78497735Y-86364032D01*
X78424677Y-86349500D01*
X78424674Y-86349500D01*
X77657131Y-86349500D01*
X77590092Y-86329815D01*
X77544337Y-86277011D01*
X77534393Y-86207853D01*
X77563418Y-86144297D01*
X77622196Y-86106523D01*
X77637733Y-86103027D01*
X77695408Y-86093891D01*
X77769409Y-86082171D01*
X77941639Y-86026211D01*
X78102994Y-85943996D01*
X78249501Y-85837553D01*
X78377553Y-85709501D01*
X78483996Y-85562994D01*
X78566211Y-85401639D01*
X78622171Y-85229409D01*
X78636765Y-85137259D01*
X78650500Y-85050551D01*
X78650500Y-84869448D01*
X78634019Y-84765397D01*
X78622171Y-84690591D01*
X78566211Y-84518361D01*
X78566211Y-84518360D01*
X78517869Y-84423486D01*
X78483996Y-84357006D01*
X78470396Y-84338287D01*
X78377558Y-84210505D01*
X78377554Y-84210500D01*
X78249499Y-84082445D01*
X78249494Y-84082441D01*
X78102995Y-83976004D01*
X77943204Y-83894585D01*
X77892409Y-83846611D01*
X77875500Y-83784101D01*
X77875500Y-82301966D01*
X77875500Y-82301965D01*
X77875500Y-82301964D01*
X77849911Y-82206463D01*
X77800475Y-82120838D01*
X76761819Y-81082182D01*
X76728334Y-81020859D01*
X76725500Y-80994501D01*
X76725500Y-80389780D01*
X76745185Y-80322741D01*
X76793206Y-80279295D01*
X76926786Y-80211233D01*
X76926785Y-80211233D01*
X76926788Y-80211232D01*
X77066928Y-80109414D01*
X77189414Y-79986928D01*
X77291232Y-79846788D01*
X77369873Y-79692445D01*
X77423402Y-79527701D01*
X77450500Y-79356611D01*
X77450500Y-79183389D01*
X77423402Y-79012299D01*
X77369873Y-78847555D01*
X77291232Y-78693212D01*
X77189414Y-78553072D01*
X77066928Y-78430586D01*
X76926788Y-78328768D01*
X76772445Y-78250127D01*
X76607701Y-78196598D01*
X76607699Y-78196597D01*
X76607698Y-78196597D01*
X76476271Y-78175781D01*
X76436611Y-78169500D01*
X76263389Y-78169500D01*
X76223728Y-78175781D01*
X76092302Y-78196597D01*
X75927552Y-78250128D01*
X75773212Y-78328767D01*
X75746385Y-78348259D01*
X75734524Y-78352490D01*
X75725011Y-78360734D01*
X75702245Y-78364007D01*
X75680578Y-78371738D01*
X75668314Y-78368886D01*
X75655853Y-78370678D01*
X75634928Y-78361121D01*
X75612525Y-78355912D01*
X75603751Y-78346883D01*
X75592297Y-78341653D01*
X75579860Y-78322300D01*
X75563830Y-78305806D01*
X75560426Y-78292060D01*
X75554523Y-78282875D01*
X75549500Y-78247940D01*
X75549500Y-78112898D01*
X75569185Y-78045859D01*
X75585815Y-78025221D01*
X75823715Y-77787320D01*
X75885036Y-77753837D01*
X75949710Y-77757071D01*
X76092299Y-77803402D01*
X76263389Y-77830500D01*
X76263390Y-77830500D01*
X76436610Y-77830500D01*
X76436611Y-77830500D01*
X76607701Y-77803402D01*
X76772445Y-77749873D01*
X76926788Y-77671232D01*
X77066928Y-77569414D01*
X77189414Y-77446928D01*
X77291232Y-77306788D01*
X77369873Y-77152445D01*
X77423402Y-76987701D01*
X77450500Y-76816611D01*
X77450500Y-76643389D01*
X77423402Y-76472299D01*
X77369873Y-76307555D01*
X77291232Y-76153212D01*
X77189414Y-76013072D01*
X77066928Y-75890586D01*
X76926788Y-75788768D01*
X76843728Y-75746447D01*
X76793205Y-75720704D01*
X76742409Y-75672729D01*
X76725500Y-75610219D01*
X76725500Y-75164699D01*
X76745185Y-75097660D01*
X76761819Y-75077018D01*
X77248738Y-74590099D01*
X77800475Y-74038362D01*
X77849911Y-73952737D01*
X77875500Y-73857236D01*
X77875500Y-73758364D01*
X77875500Y-72465898D01*
X77895185Y-72398859D01*
X77943205Y-72355413D01*
X77950500Y-72351696D01*
X78102994Y-72273996D01*
X78249501Y-72167553D01*
X78377553Y-72039501D01*
X78483996Y-71892994D01*
X78566211Y-71731639D01*
X78622171Y-71559409D01*
X78636765Y-71467259D01*
X78650500Y-71380551D01*
X78650500Y-71199448D01*
X78634019Y-71095397D01*
X78622171Y-71020591D01*
X78592764Y-70930084D01*
X78566212Y-70848363D01*
X78566211Y-70848360D01*
X78502862Y-70724033D01*
X78483996Y-70687006D01*
X78470396Y-70668287D01*
X78377558Y-70540505D01*
X78377554Y-70540500D01*
X78249499Y-70412445D01*
X78249494Y-70412441D01*
X78102997Y-70306006D01*
X78102996Y-70306005D01*
X78102994Y-70306004D01*
X78051300Y-70279664D01*
X77941639Y-70223788D01*
X77941636Y-70223787D01*
X77769410Y-70167829D01*
X77637733Y-70146973D01*
X77574598Y-70117044D01*
X77537667Y-70057732D01*
X77538665Y-69987869D01*
X77577275Y-69929637D01*
X77641239Y-69901523D01*
X77657131Y-69900500D01*
X78424675Y-69900500D01*
X78427236Y-69899990D01*
X78428650Y-69899709D01*
X78498242Y-69905931D01*
X78553423Y-69948789D01*
X78560233Y-69959316D01*
X78598511Y-70025614D01*
X78598513Y-70025616D01*
X79376984Y-70804087D01*
X79410469Y-70865410D01*
X79407235Y-70930084D01*
X79377828Y-71020592D01*
X79349500Y-71199448D01*
X79349500Y-71380551D01*
X79377829Y-71559410D01*
X79433787Y-71731636D01*
X79433788Y-71731639D01*
X79516006Y-71892997D01*
X79622441Y-72039494D01*
X79622445Y-72039499D01*
X79750500Y-72167554D01*
X79750505Y-72167558D01*
X79897001Y-72273993D01*
X79897003Y-72273994D01*
X79897006Y-72273996D01*
X79981795Y-72317198D01*
X80032591Y-72365173D01*
X80049500Y-72427683D01*
X80049500Y-75553539D01*
X80029815Y-75620578D01*
X79977011Y-75666333D01*
X79907853Y-75676277D01*
X79856611Y-75656643D01*
X79854742Y-75655394D01*
X79837740Y-75644034D01*
X79837739Y-75644033D01*
X79837738Y-75644033D01*
X79837735Y-75644032D01*
X79764677Y-75629500D01*
X79764674Y-75629500D01*
X78015326Y-75629500D01*
X78015323Y-75629500D01*
X77942264Y-75644032D01*
X77942260Y-75644033D01*
X77859399Y-75699399D01*
X77804033Y-75782260D01*
X77804032Y-75782264D01*
X77789500Y-75855321D01*
X77789500Y-77604678D01*
X77804032Y-77677735D01*
X77804033Y-77677739D01*
X77804034Y-77677740D01*
X77859399Y-77760601D01*
X77938691Y-77813581D01*
X77942260Y-77815966D01*
X77942264Y-77815967D01*
X78015321Y-77830499D01*
X78015324Y-77830500D01*
X78015326Y-77830500D01*
X79764676Y-77830500D01*
X79764677Y-77830499D01*
X79837740Y-77815966D01*
X79920601Y-77760601D01*
X79975966Y-77677740D01*
X79990500Y-77604674D01*
X79990500Y-77304500D01*
X80010185Y-77237461D01*
X80062989Y-77191706D01*
X80114500Y-77180500D01*
X80433291Y-77180500D01*
X81289700Y-77180500D01*
X81356739Y-77200185D01*
X81402494Y-77252989D01*
X81413700Y-77304500D01*
X81413700Y-83958380D01*
X81394015Y-84025419D01*
X81341211Y-84071174D01*
X81272053Y-84081118D01*
X81216815Y-84058699D01*
X81102991Y-83976002D01*
X80943204Y-83894585D01*
X80892409Y-83846611D01*
X80875500Y-83784101D01*
X80875500Y-80830564D01*
X80870573Y-80812178D01*
X80870572Y-80812175D01*
X80854135Y-80750830D01*
X80854135Y-80750829D01*
X80849910Y-80735061D01*
X80804634Y-80656641D01*
X80800475Y-80649437D01*
X80800474Y-80649436D01*
X80800473Y-80649434D01*
X79947322Y-79796285D01*
X79913837Y-79734962D01*
X79917071Y-79670289D01*
X79963402Y-79527701D01*
X79990500Y-79356611D01*
X79990500Y-79183389D01*
X79963402Y-79012299D01*
X79909873Y-78847555D01*
X79831232Y-78693212D01*
X79729414Y-78553072D01*
X79606928Y-78430586D01*
X79466788Y-78328768D01*
X79312445Y-78250127D01*
X79147701Y-78196598D01*
X79147699Y-78196597D01*
X79147698Y-78196597D01*
X79016271Y-78175781D01*
X78976611Y-78169500D01*
X78803389Y-78169500D01*
X78763728Y-78175781D01*
X78632302Y-78196597D01*
X78467552Y-78250128D01*
X78313211Y-78328768D01*
X78257994Y-78368886D01*
X78173072Y-78430586D01*
X78173070Y-78430588D01*
X78173069Y-78430588D01*
X78050588Y-78553069D01*
X78050588Y-78553070D01*
X78050586Y-78553072D01*
X78006859Y-78613256D01*
X77948768Y-78693211D01*
X77870128Y-78847552D01*
X77816597Y-79012302D01*
X77789500Y-79183389D01*
X77789500Y-79356610D01*
X77814834Y-79516567D01*
X77816598Y-79527701D01*
X77870127Y-79692445D01*
X77948768Y-79846788D01*
X78050586Y-79986928D01*
X78173072Y-80109414D01*
X78313212Y-80211232D01*
X78467555Y-80289873D01*
X78632299Y-80343402D01*
X78803389Y-80370500D01*
X78803390Y-80370500D01*
X78976610Y-80370500D01*
X78976611Y-80370500D01*
X79147701Y-80343402D01*
X79290289Y-80297071D01*
X79360126Y-80295077D01*
X79416285Y-80327322D01*
X80088181Y-80999218D01*
X80121666Y-81060541D01*
X80124500Y-81086899D01*
X80124500Y-83784101D01*
X80104815Y-83851140D01*
X80056796Y-83894585D01*
X79897004Y-83976004D01*
X79750505Y-84082441D01*
X79750500Y-84082445D01*
X79622445Y-84210500D01*
X79622441Y-84210505D01*
X79516006Y-84357002D01*
X79433788Y-84518360D01*
X79433787Y-84518363D01*
X79377829Y-84690589D01*
X79349500Y-84869448D01*
X79349500Y-85050551D01*
X79377829Y-85229410D01*
X79433787Y-85401636D01*
X79433788Y-85401639D01*
X79481545Y-85495365D01*
X79514157Y-85559370D01*
X79516006Y-85562997D01*
X79622441Y-85709494D01*
X79622445Y-85709499D01*
X79750500Y-85837554D01*
X79750505Y-85837558D01*
X79846385Y-85907218D01*
X79897006Y-85943996D01*
X79973379Y-85982910D01*
X80058360Y-86026211D01*
X80058363Y-86026212D01*
X80144476Y-86054191D01*
X80230591Y-86082171D01*
X80297769Y-86092811D01*
X80362267Y-86103027D01*
X80425402Y-86132956D01*
X80462333Y-86192268D01*
X80461335Y-86262131D01*
X80422725Y-86320363D01*
X80358761Y-86348477D01*
X80342869Y-86349500D01*
X79575323Y-86349500D01*
X79502264Y-86364032D01*
X79502260Y-86364033D01*
X79419399Y-86419399D01*
X79364033Y-86502260D01*
X79364032Y-86502264D01*
X79349500Y-86575321D01*
X79349500Y-88424678D01*
X79364032Y-88497735D01*
X79364033Y-88497739D01*
X79364034Y-88497740D01*
X79419399Y-88580601D01*
X79469499Y-88614076D01*
X79502260Y-88635966D01*
X79502264Y-88635967D01*
X79575321Y-88650499D01*
X79575324Y-88650500D01*
X79575326Y-88650500D01*
X80000500Y-88650500D01*
X80067539Y-88670185D01*
X80113294Y-88722989D01*
X80124500Y-88774500D01*
X80124500Y-90834216D01*
X80104815Y-90901255D01*
X80052011Y-90947010D01*
X80024691Y-90955833D01*
X79853587Y-90989868D01*
X79853579Y-90989870D01*
X79662403Y-91069058D01*
X79490342Y-91184024D01*
X79344024Y-91330342D01*
X79229058Y-91502403D01*
X79149870Y-91693579D01*
X79149868Y-91693587D01*
X79109500Y-91896530D01*
X79109500Y-92103469D01*
X79149868Y-92306412D01*
X79149870Y-92306420D01*
X79229058Y-92497596D01*
X79344024Y-92669657D01*
X79490342Y-92815975D01*
X79490345Y-92815977D01*
X79662402Y-92930941D01*
X79853580Y-93010130D01*
X80014235Y-93042086D01*
X80056530Y-93050499D01*
X80056534Y-93050500D01*
X80056535Y-93050500D01*
X80263466Y-93050500D01*
X80263467Y-93050499D01*
X80466420Y-93010130D01*
X80657598Y-92930941D01*
X80829655Y-92815977D01*
X80975977Y-92669655D01*
X81090941Y-92497598D01*
X81170130Y-92306420D01*
X81170132Y-92306412D01*
X81171040Y-92303421D01*
X81171942Y-92302044D01*
X81172461Y-92300792D01*
X81172698Y-92300890D01*
X81209337Y-92244983D01*
X81273150Y-92216526D01*
X81342217Y-92227087D01*
X81394610Y-92273312D01*
X81413700Y-92339417D01*
X81413700Y-95247834D01*
X81394015Y-95314873D01*
X81377381Y-95335515D01*
X79389714Y-97323181D01*
X79328391Y-97356666D01*
X79302033Y-97359500D01*
X78242129Y-97359500D01*
X78242123Y-97359501D01*
X78182516Y-97365908D01*
X78047671Y-97416202D01*
X78047664Y-97416206D01*
X77932455Y-97502452D01*
X77932452Y-97502455D01*
X77846206Y-97617664D01*
X77846202Y-97617671D01*
X77795908Y-97752517D01*
X77789501Y-97812116D01*
X77789500Y-97812135D01*
X77789500Y-99107870D01*
X77789501Y-99107876D01*
X77795908Y-99167483D01*
X77846202Y-99302328D01*
X77846206Y-99302335D01*
X77932452Y-99417544D01*
X77932455Y-99417547D01*
X78047664Y-99503793D01*
X78047671Y-99503797D01*
X78182517Y-99554091D01*
X78182516Y-99554091D01*
X78189444Y-99554835D01*
X78242127Y-99560500D01*
X79537872Y-99560499D01*
X79597483Y-99554091D01*
X79732331Y-99503796D01*
X79847546Y-99417546D01*
X79933796Y-99302331D01*
X79984091Y-99167483D01*
X79990500Y-99107873D01*
X79990499Y-98047963D01*
X80010183Y-97980925D01*
X80026813Y-97960288D01*
X82224689Y-95762414D01*
X82283999Y-95659687D01*
X82290485Y-95635475D01*
X82290486Y-95635475D01*
X82290486Y-95635471D01*
X82314700Y-95545109D01*
X82314700Y-77304500D01*
X82334385Y-77237461D01*
X82387189Y-77191706D01*
X82438700Y-77180500D01*
X82745500Y-77180500D01*
X82812539Y-77200185D01*
X82858294Y-77252989D01*
X82869500Y-77304500D01*
X82869500Y-77604678D01*
X82884032Y-77677735D01*
X82884033Y-77677739D01*
X82884034Y-77677740D01*
X82939399Y-77760601D01*
X83018691Y-77813581D01*
X83022260Y-77815966D01*
X83022264Y-77815967D01*
X83095321Y-77830499D01*
X83095324Y-77830500D01*
X83305051Y-77830500D01*
X83372090Y-77850185D01*
X83417845Y-77902989D01*
X83427789Y-77972147D01*
X83398764Y-78035703D01*
X83361346Y-78064985D01*
X83262439Y-78115380D01*
X83208282Y-78154727D01*
X83208282Y-78154728D01*
X83840591Y-78787037D01*
X83777007Y-78804075D01*
X83662993Y-78869901D01*
X83569901Y-78962993D01*
X83504075Y-79077007D01*
X83487037Y-79140591D01*
X82854728Y-78508282D01*
X82854727Y-78508282D01*
X82815380Y-78562439D01*
X82718904Y-78751782D01*
X82653242Y-78953869D01*
X82653242Y-78953872D01*
X82620000Y-79163753D01*
X82620000Y-79376246D01*
X82653242Y-79586127D01*
X82653242Y-79586130D01*
X82718904Y-79788217D01*
X82815375Y-79977550D01*
X82854728Y-80031716D01*
X83487037Y-79399408D01*
X83504075Y-79462993D01*
X83569901Y-79577007D01*
X83662993Y-79670099D01*
X83777007Y-79735925D01*
X83840590Y-79752962D01*
X83208282Y-80385269D01*
X83208282Y-80385270D01*
X83262449Y-80424624D01*
X83451782Y-80521095D01*
X83653870Y-80586757D01*
X83863754Y-80620000D01*
X84076246Y-80620000D01*
X84286127Y-80586757D01*
X84286130Y-80586757D01*
X84488217Y-80521095D01*
X84677554Y-80424622D01*
X84731716Y-80385270D01*
X84731717Y-80385270D01*
X84099408Y-79752962D01*
X84162993Y-79735925D01*
X84277007Y-79670099D01*
X84370099Y-79577007D01*
X84435925Y-79462993D01*
X84452962Y-79399408D01*
X85085270Y-80031717D01*
X85085270Y-80031716D01*
X85124622Y-79977554D01*
X85221095Y-79788217D01*
X85286757Y-79586130D01*
X85286757Y-79586127D01*
X85320000Y-79376246D01*
X85320000Y-79163753D01*
X85286757Y-78953872D01*
X85286757Y-78953869D01*
X85221095Y-78751782D01*
X85124624Y-78562449D01*
X85085270Y-78508282D01*
X85085269Y-78508282D01*
X84452962Y-79140590D01*
X84435925Y-79077007D01*
X84370099Y-78962993D01*
X84277007Y-78869901D01*
X84162993Y-78804075D01*
X84099409Y-78787037D01*
X84731716Y-78154728D01*
X84677550Y-78115375D01*
X84578655Y-78064985D01*
X84527859Y-78017010D01*
X84511064Y-77949189D01*
X84533602Y-77883054D01*
X84588317Y-77839603D01*
X84634950Y-77830500D01*
X84844676Y-77830500D01*
X84844677Y-77830499D01*
X84917740Y-77815966D01*
X85000601Y-77760601D01*
X85055966Y-77677740D01*
X85070500Y-77604674D01*
X85070500Y-75855326D01*
X85070500Y-75855323D01*
X85070499Y-75855321D01*
X85055967Y-75782264D01*
X85055966Y-75782260D01*
X85000601Y-75699399D01*
X84917740Y-75644034D01*
X84917739Y-75644033D01*
X84917735Y-75644032D01*
X84844677Y-75629500D01*
X84844674Y-75629500D01*
X83095326Y-75629500D01*
X83095323Y-75629500D01*
X83022264Y-75644032D01*
X83022260Y-75644033D01*
X82939399Y-75699399D01*
X82884033Y-75782260D01*
X82884032Y-75782264D01*
X82869500Y-75855321D01*
X82869500Y-76155500D01*
X82849815Y-76222539D01*
X82797011Y-76268294D01*
X82745500Y-76279500D01*
X81074500Y-76279500D01*
X81007461Y-76259815D01*
X80961706Y-76207011D01*
X80950500Y-76155500D01*
X80950500Y-72427683D01*
X80970185Y-72360644D01*
X81018204Y-72317198D01*
X81102994Y-72273996D01*
X81249501Y-72167553D01*
X81377553Y-72039501D01*
X81483996Y-71892994D01*
X81566211Y-71731639D01*
X81622171Y-71559409D01*
X81636765Y-71467259D01*
X81650500Y-71380551D01*
X81650500Y-71199448D01*
X81634019Y-71095397D01*
X81622171Y-71020591D01*
X81592764Y-70930084D01*
X81566212Y-70848363D01*
X81566211Y-70848360D01*
X81502862Y-70724033D01*
X81483996Y-70687006D01*
X81470396Y-70668287D01*
X81377558Y-70540505D01*
X81377554Y-70540500D01*
X81249499Y-70412445D01*
X81249494Y-70412441D01*
X81102997Y-70306006D01*
X81102996Y-70306005D01*
X81102994Y-70306004D01*
X81051300Y-70279664D01*
X80941639Y-70223788D01*
X80941636Y-70223787D01*
X80769410Y-70167829D01*
X80637733Y-70146973D01*
X80574598Y-70117044D01*
X80537667Y-70057732D01*
X80538665Y-69987869D01*
X80577275Y-69929637D01*
X80641239Y-69901523D01*
X80657131Y-69900500D01*
X81424676Y-69900500D01*
X81424677Y-69900499D01*
X81497740Y-69885966D01*
X81580601Y-69830601D01*
X81635966Y-69747740D01*
X81650500Y-69674674D01*
X81650500Y-67825326D01*
X81650500Y-67825323D01*
X81650499Y-67825321D01*
X81635967Y-67752264D01*
X81635966Y-67752260D01*
X81580601Y-67669399D01*
X81513202Y-67624365D01*
X81497739Y-67614033D01*
X81497735Y-67614032D01*
X81424677Y-67599500D01*
X81424674Y-67599500D01*
X80999500Y-67599500D01*
X80932461Y-67579815D01*
X80886706Y-67527011D01*
X80875500Y-67475500D01*
X80875500Y-64821494D01*
X80895185Y-64754455D01*
X80911814Y-64733817D01*
X80975977Y-64669655D01*
X81090941Y-64497598D01*
X81170130Y-64306420D01*
X81210500Y-64103465D01*
X81210500Y-63896535D01*
X81170130Y-63693580D01*
X81090941Y-63502402D01*
X80975977Y-63330345D01*
X80975975Y-63330342D01*
X80829657Y-63184024D01*
X80692870Y-63092627D01*
X80657598Y-63069059D01*
X80634687Y-63059569D01*
X80466420Y-62989870D01*
X80466412Y-62989868D01*
X80263469Y-62949500D01*
X80263465Y-62949500D01*
X80056535Y-62949500D01*
X80056530Y-62949500D01*
X79853587Y-62989868D01*
X79853579Y-62989870D01*
X79662403Y-63069058D01*
X79602390Y-63109157D01*
X79535712Y-63130034D01*
X79468332Y-63111549D01*
X79421642Y-63059569D01*
X79409500Y-63006054D01*
X79409500Y-59318875D01*
X79409500Y-59318873D01*
X79378799Y-59204296D01*
X79378799Y-59204295D01*
X79319489Y-59101568D01*
X79046664Y-58828743D01*
X79013179Y-58767420D01*
X79018163Y-58697728D01*
X79060035Y-58641795D01*
X79114945Y-58618589D01*
X79147701Y-58613402D01*
X79312445Y-58559873D01*
X79466788Y-58481232D01*
X79606928Y-58379414D01*
X79729414Y-58256928D01*
X79831232Y-58116788D01*
X79909873Y-57962445D01*
X79963402Y-57797701D01*
X79990500Y-57626611D01*
X79990500Y-57453389D01*
X79963402Y-57282299D01*
X79909873Y-57117555D01*
X79831232Y-56963212D01*
X79729414Y-56823072D01*
X79606928Y-56700586D01*
X79466788Y-56598768D01*
X79312445Y-56520127D01*
X79147701Y-56466598D01*
X79147699Y-56466597D01*
X79147698Y-56466597D01*
X79016271Y-56445781D01*
X78976611Y-56439500D01*
X78803389Y-56439500D01*
X78763728Y-56445781D01*
X78632302Y-56466597D01*
X78467552Y-56520128D01*
X78313212Y-56598767D01*
X78286385Y-56618259D01*
X78274524Y-56622490D01*
X78265011Y-56630734D01*
X78242245Y-56634007D01*
X78220578Y-56641738D01*
X78208314Y-56638886D01*
X78195853Y-56640678D01*
X78174928Y-56631121D01*
X78152525Y-56625912D01*
X78143751Y-56616883D01*
X78132297Y-56611653D01*
X78119860Y-56592300D01*
X78103830Y-56575806D01*
X78100426Y-56562060D01*
X78094523Y-56552875D01*
X78089500Y-56517940D01*
X78089500Y-56488964D01*
X78109185Y-56421925D01*
X78125815Y-56401287D01*
X78390284Y-56136817D01*
X78451607Y-56103333D01*
X78477965Y-56100499D01*
X79537871Y-56100499D01*
X79537872Y-56100499D01*
X79597483Y-56094091D01*
X79732331Y-56043796D01*
X79847546Y-55957546D01*
X79933796Y-55842331D01*
X79984091Y-55707483D01*
X79990500Y-55647873D01*
X79990499Y-54352128D01*
X79984091Y-54292517D01*
X79980568Y-54283072D01*
X79933797Y-54157671D01*
X79933793Y-54157664D01*
X79847547Y-54042455D01*
X79847544Y-54042452D01*
X79732335Y-53956206D01*
X79732328Y-53956202D01*
X79597482Y-53905908D01*
X79597483Y-53905908D01*
X79537883Y-53899501D01*
X79537881Y-53899500D01*
X79537873Y-53899500D01*
X79537864Y-53899500D01*
X78242129Y-53899500D01*
X78242123Y-53899501D01*
X78182516Y-53905908D01*
X78047671Y-53956202D01*
X78047664Y-53956206D01*
X77932455Y-54042452D01*
X77932452Y-54042455D01*
X77846206Y-54157664D01*
X77846202Y-54157671D01*
X77795908Y-54292517D01*
X77789501Y-54352116D01*
X77789501Y-54352123D01*
X77789500Y-54352135D01*
X77789500Y-55412034D01*
X77769815Y-55479073D01*
X77753181Y-55499715D01*
X77388272Y-55864623D01*
X77388265Y-55864630D01*
X77278511Y-55974386D01*
X77219201Y-56077113D01*
X77219201Y-56077114D01*
X77216956Y-56085491D01*
X77216955Y-56085493D01*
X77188500Y-56191691D01*
X77188500Y-56545549D01*
X77168815Y-56612588D01*
X77116011Y-56658343D01*
X77046853Y-56668287D01*
X76991615Y-56645867D01*
X76926791Y-56598770D01*
X76926790Y-56598769D01*
X76926788Y-56598768D01*
X76772445Y-56520127D01*
X76607701Y-56466598D01*
X76607699Y-56466597D01*
X76607698Y-56466597D01*
X76476271Y-56445781D01*
X76436611Y-56439500D01*
X76263389Y-56439500D01*
X76223728Y-56445781D01*
X76092302Y-56466597D01*
X75927552Y-56520128D01*
X75773212Y-56598767D01*
X75746385Y-56618259D01*
X75734524Y-56622490D01*
X75725011Y-56630734D01*
X75702245Y-56634007D01*
X75680578Y-56641738D01*
X75668314Y-56638886D01*
X75655853Y-56640678D01*
X75634928Y-56631121D01*
X75612525Y-56625912D01*
X75603751Y-56616883D01*
X75592297Y-56611653D01*
X75579860Y-56592300D01*
X75563830Y-56575806D01*
X75560426Y-56562060D01*
X75554523Y-56552875D01*
X75549500Y-56517940D01*
X75549500Y-56382898D01*
X75569185Y-56315859D01*
X75585815Y-56295221D01*
X75823715Y-56057320D01*
X75885036Y-56023837D01*
X75949710Y-56027071D01*
X76092299Y-56073402D01*
X76263389Y-56100500D01*
X76263390Y-56100500D01*
X76436610Y-56100500D01*
X76436611Y-56100500D01*
X76607701Y-56073402D01*
X76772445Y-56019873D01*
X76926788Y-55941232D01*
X77066928Y-55839414D01*
X77189414Y-55716928D01*
X77291232Y-55576788D01*
X77369873Y-55422445D01*
X77423402Y-55257701D01*
X77450500Y-55086611D01*
X77450500Y-54913389D01*
X77423402Y-54742299D01*
X77369873Y-54577555D01*
X77291232Y-54423212D01*
X77189414Y-54283072D01*
X77066928Y-54160586D01*
X76926788Y-54058768D01*
X76772445Y-53980127D01*
X76607701Y-53926598D01*
X76607699Y-53926597D01*
X76607698Y-53926597D01*
X76476271Y-53905781D01*
X76436611Y-53899500D01*
X76263389Y-53899500D01*
X76223728Y-53905781D01*
X76092302Y-53926597D01*
X75927552Y-53980128D01*
X75773211Y-54058768D01*
X75693256Y-54116859D01*
X75633072Y-54160586D01*
X75633070Y-54160588D01*
X75633069Y-54160588D01*
X75510588Y-54283069D01*
X75510588Y-54283070D01*
X75510586Y-54283072D01*
X75503725Y-54292516D01*
X75408768Y-54423211D01*
X75330128Y-54577552D01*
X75276597Y-54742302D01*
X75249500Y-54913389D01*
X75249500Y-55086610D01*
X75276597Y-55257697D01*
X75322927Y-55400285D01*
X75324922Y-55470126D01*
X75292677Y-55526284D01*
X74943438Y-55875525D01*
X74873526Y-55945436D01*
X74824091Y-56031059D01*
X74824091Y-56031060D01*
X74824090Y-56031062D01*
X74798500Y-56126565D01*
X74798500Y-56126567D01*
X74798500Y-56672796D01*
X74778815Y-56739835D01*
X74726011Y-56785590D01*
X74656853Y-56795534D01*
X74593297Y-56766509D01*
X74586819Y-56760477D01*
X74526930Y-56700588D01*
X74526928Y-56700586D01*
X74386788Y-56598768D01*
X74232445Y-56520127D01*
X74067701Y-56466598D01*
X74067699Y-56466597D01*
X74067698Y-56466597D01*
X73936271Y-56445781D01*
X73896611Y-56439500D01*
X73723389Y-56439500D01*
X73683728Y-56445781D01*
X73552302Y-56466597D01*
X73387552Y-56520128D01*
X73233212Y-56598767D01*
X73206385Y-56618259D01*
X73194524Y-56622490D01*
X73185011Y-56630734D01*
X73162245Y-56634007D01*
X73140578Y-56641738D01*
X73128314Y-56638886D01*
X73115853Y-56640678D01*
X73094928Y-56631121D01*
X73072525Y-56625912D01*
X73063751Y-56616883D01*
X73052297Y-56611653D01*
X73039860Y-56592300D01*
X73023830Y-56575806D01*
X73020426Y-56562060D01*
X73014523Y-56552875D01*
X73009500Y-56517940D01*
X73009500Y-56382898D01*
X73029185Y-56315859D01*
X73045815Y-56295221D01*
X73283715Y-56057320D01*
X73345036Y-56023837D01*
X73409710Y-56027071D01*
X73552299Y-56073402D01*
X73723389Y-56100500D01*
X73723390Y-56100500D01*
X73896610Y-56100500D01*
X73896611Y-56100500D01*
X74067701Y-56073402D01*
X74232445Y-56019873D01*
X74386788Y-55941232D01*
X74526928Y-55839414D01*
X74649414Y-55716928D01*
X74751232Y-55576788D01*
X74829873Y-55422445D01*
X74883402Y-55257701D01*
X74910500Y-55086611D01*
X74910500Y-54913389D01*
X74883402Y-54742299D01*
X74829873Y-54577555D01*
X74751232Y-54423212D01*
X74649414Y-54283072D01*
X74526928Y-54160586D01*
X74386788Y-54058768D01*
X74232445Y-53980127D01*
X74067701Y-53926598D01*
X74067699Y-53926597D01*
X74067698Y-53926597D01*
X73936271Y-53905781D01*
X73896611Y-53899500D01*
X73723389Y-53899500D01*
X73683728Y-53905781D01*
X73552302Y-53926597D01*
X73387552Y-53980128D01*
X73233211Y-54058768D01*
X73153256Y-54116859D01*
X73093072Y-54160586D01*
X73093070Y-54160588D01*
X73093069Y-54160588D01*
X72970588Y-54283069D01*
X72970588Y-54283070D01*
X72970586Y-54283072D01*
X72963725Y-54292516D01*
X72868768Y-54423211D01*
X72790128Y-54577552D01*
X72736597Y-54742302D01*
X72709500Y-54913389D01*
X72709500Y-55086610D01*
X72736597Y-55257697D01*
X72782927Y-55400285D01*
X72784922Y-55470126D01*
X72752677Y-55526284D01*
X72403438Y-55875525D01*
X72333526Y-55945436D01*
X72284091Y-56031059D01*
X72284091Y-56031060D01*
X72284090Y-56031062D01*
X72258500Y-56126565D01*
X72258500Y-56126567D01*
X72258500Y-56672796D01*
X72238815Y-56739835D01*
X72186011Y-56785590D01*
X72116853Y-56795534D01*
X72053297Y-56766509D01*
X72046819Y-56760477D01*
X71986930Y-56700588D01*
X71986928Y-56700586D01*
X71846788Y-56598768D01*
X71692445Y-56520127D01*
X71527701Y-56466598D01*
X71527699Y-56466597D01*
X71527698Y-56466597D01*
X71396271Y-56445781D01*
X71356611Y-56439500D01*
X71183389Y-56439500D01*
X71143728Y-56445781D01*
X71012302Y-56466597D01*
X70847552Y-56520128D01*
X70693212Y-56598767D01*
X70666385Y-56618259D01*
X70654524Y-56622490D01*
X70645011Y-56630734D01*
X70622245Y-56634007D01*
X70600578Y-56641738D01*
X70588314Y-56638886D01*
X70575853Y-56640678D01*
X70554928Y-56631121D01*
X70532525Y-56625912D01*
X70523751Y-56616883D01*
X70512297Y-56611653D01*
X70499860Y-56592300D01*
X70483830Y-56575806D01*
X70480426Y-56562060D01*
X70474523Y-56552875D01*
X70469500Y-56517940D01*
X70469500Y-56382898D01*
X70489185Y-56315859D01*
X70505815Y-56295221D01*
X70743715Y-56057320D01*
X70805036Y-56023837D01*
X70869710Y-56027071D01*
X71012299Y-56073402D01*
X71183389Y-56100500D01*
X71183390Y-56100500D01*
X71356610Y-56100500D01*
X71356611Y-56100500D01*
X71527701Y-56073402D01*
X71692445Y-56019873D01*
X71846788Y-55941232D01*
X71986928Y-55839414D01*
X72109414Y-55716928D01*
X72211232Y-55576788D01*
X72289873Y-55422445D01*
X72343402Y-55257701D01*
X72370500Y-55086611D01*
X72370500Y-54913389D01*
X72343402Y-54742299D01*
X72289873Y-54577555D01*
X72211232Y-54423212D01*
X72109414Y-54283072D01*
X71986928Y-54160586D01*
X71846788Y-54058768D01*
X71692445Y-53980127D01*
X71527701Y-53926598D01*
X71527699Y-53926597D01*
X71527698Y-53926597D01*
X71396271Y-53905781D01*
X71356611Y-53899500D01*
X71183389Y-53899500D01*
X71143728Y-53905781D01*
X71012302Y-53926597D01*
X70847552Y-53980128D01*
X70693211Y-54058768D01*
X70613256Y-54116859D01*
X70553072Y-54160586D01*
X70553070Y-54160588D01*
X70553069Y-54160588D01*
X70430588Y-54283069D01*
X70430588Y-54283070D01*
X70430586Y-54283072D01*
X70423725Y-54292516D01*
X70328768Y-54423211D01*
X70250128Y-54577552D01*
X70196597Y-54742302D01*
X70169500Y-54913389D01*
X70169500Y-55086610D01*
X70196597Y-55257697D01*
X70242927Y-55400285D01*
X70244922Y-55470126D01*
X70212677Y-55526284D01*
X69863438Y-55875525D01*
X69793526Y-55945436D01*
X69744091Y-56031059D01*
X69744091Y-56031060D01*
X69744090Y-56031062D01*
X69718500Y-56126565D01*
X69718500Y-56126567D01*
X69718500Y-56672796D01*
X69698815Y-56739835D01*
X69646011Y-56785590D01*
X69576853Y-56795534D01*
X69513297Y-56766509D01*
X69506819Y-56760477D01*
X69446930Y-56700588D01*
X69446928Y-56700586D01*
X69306788Y-56598768D01*
X69152445Y-56520127D01*
X68987701Y-56466598D01*
X68987699Y-56466597D01*
X68987698Y-56466597D01*
X68856271Y-56445781D01*
X68816611Y-56439500D01*
X68643389Y-56439500D01*
X68603728Y-56445781D01*
X68472302Y-56466597D01*
X68307552Y-56520128D01*
X68153212Y-56598767D01*
X68126385Y-56618259D01*
X68114524Y-56622490D01*
X68105011Y-56630734D01*
X68082245Y-56634007D01*
X68060578Y-56641738D01*
X68048314Y-56638886D01*
X68035853Y-56640678D01*
X68014928Y-56631121D01*
X67992525Y-56625912D01*
X67983751Y-56616883D01*
X67972297Y-56611653D01*
X67959860Y-56592300D01*
X67943830Y-56575806D01*
X67940426Y-56562060D01*
X67934523Y-56552875D01*
X67929500Y-56517940D01*
X67929500Y-56382898D01*
X67949185Y-56315859D01*
X67965815Y-56295221D01*
X68203715Y-56057320D01*
X68265036Y-56023837D01*
X68329710Y-56027071D01*
X68472299Y-56073402D01*
X68643389Y-56100500D01*
X68643390Y-56100500D01*
X68816610Y-56100500D01*
X68816611Y-56100500D01*
X68987701Y-56073402D01*
X69152445Y-56019873D01*
X69306788Y-55941232D01*
X69446928Y-55839414D01*
X69569414Y-55716928D01*
X69671232Y-55576788D01*
X69749873Y-55422445D01*
X69803402Y-55257701D01*
X69830500Y-55086611D01*
X69830500Y-54913389D01*
X69803402Y-54742299D01*
X69749873Y-54577555D01*
X69671232Y-54423212D01*
X69569414Y-54283072D01*
X69446928Y-54160586D01*
X69306788Y-54058768D01*
X69152445Y-53980127D01*
X68987701Y-53926598D01*
X68987699Y-53926597D01*
X68987698Y-53926597D01*
X68856271Y-53905781D01*
X68816611Y-53899500D01*
X68643389Y-53899500D01*
X68603728Y-53905781D01*
X68472302Y-53926597D01*
X68307552Y-53980128D01*
X68153211Y-54058768D01*
X68073256Y-54116859D01*
X68013072Y-54160586D01*
X68013070Y-54160588D01*
X68013069Y-54160588D01*
X67890588Y-54283069D01*
X67890588Y-54283070D01*
X67890586Y-54283072D01*
X67883725Y-54292516D01*
X67788768Y-54423211D01*
X67710128Y-54577552D01*
X67656597Y-54742302D01*
X67629500Y-54913389D01*
X67629500Y-55086610D01*
X67656597Y-55257697D01*
X67702927Y-55400285D01*
X67704922Y-55470126D01*
X67672677Y-55526284D01*
X67323438Y-55875525D01*
X67253526Y-55945436D01*
X67204091Y-56031059D01*
X67204091Y-56031060D01*
X67204090Y-56031062D01*
X67178500Y-56126565D01*
X67178500Y-56126567D01*
X67178500Y-56672796D01*
X67158815Y-56739835D01*
X67106011Y-56785590D01*
X67036853Y-56795534D01*
X66973297Y-56766509D01*
X66966819Y-56760477D01*
X66906930Y-56700588D01*
X66906928Y-56700586D01*
X66766788Y-56598768D01*
X66612445Y-56520127D01*
X66447701Y-56466598D01*
X66447699Y-56466597D01*
X66447698Y-56466597D01*
X66316271Y-56445781D01*
X66276611Y-56439500D01*
X66103389Y-56439500D01*
X66063728Y-56445781D01*
X65932302Y-56466597D01*
X65767552Y-56520128D01*
X65613212Y-56598767D01*
X65586385Y-56618259D01*
X65574524Y-56622490D01*
X65565011Y-56630734D01*
X65542245Y-56634007D01*
X65520578Y-56641738D01*
X65508314Y-56638886D01*
X65495853Y-56640678D01*
X65474928Y-56631121D01*
X65452525Y-56625912D01*
X65443751Y-56616883D01*
X65432297Y-56611653D01*
X65419860Y-56592300D01*
X65403830Y-56575806D01*
X65400426Y-56562060D01*
X65394523Y-56552875D01*
X65389500Y-56517940D01*
X65389500Y-56382898D01*
X65409185Y-56315859D01*
X65425815Y-56295221D01*
X65663715Y-56057320D01*
X65725036Y-56023837D01*
X65789710Y-56027071D01*
X65932299Y-56073402D01*
X66103389Y-56100500D01*
X66103390Y-56100500D01*
X66276610Y-56100500D01*
X66276611Y-56100500D01*
X66447701Y-56073402D01*
X66612445Y-56019873D01*
X66766788Y-55941232D01*
X66906928Y-55839414D01*
X67029414Y-55716928D01*
X67131232Y-55576788D01*
X67209873Y-55422445D01*
X67263402Y-55257701D01*
X67290500Y-55086611D01*
X67290500Y-54913389D01*
X67263402Y-54742299D01*
X67209873Y-54577555D01*
X67131232Y-54423212D01*
X67029414Y-54283072D01*
X66906928Y-54160586D01*
X66766788Y-54058768D01*
X66612445Y-53980127D01*
X66447701Y-53926598D01*
X66447699Y-53926597D01*
X66447698Y-53926597D01*
X66316271Y-53905781D01*
X66276611Y-53899500D01*
X66103389Y-53899500D01*
X66063728Y-53905781D01*
X65932302Y-53926597D01*
X65767552Y-53980128D01*
X65613211Y-54058768D01*
X65533256Y-54116859D01*
X65473072Y-54160586D01*
X65473070Y-54160588D01*
X65473069Y-54160588D01*
X65350588Y-54283069D01*
X65350588Y-54283070D01*
X65350586Y-54283072D01*
X65343725Y-54292516D01*
X65248768Y-54423211D01*
X65170128Y-54577552D01*
X65116597Y-54742302D01*
X65089500Y-54913389D01*
X65089500Y-55086610D01*
X65116597Y-55257697D01*
X65162927Y-55400285D01*
X65164922Y-55470126D01*
X65132677Y-55526284D01*
X64783438Y-55875525D01*
X64713526Y-55945436D01*
X64664091Y-56031059D01*
X64664091Y-56031060D01*
X64664090Y-56031062D01*
X64638500Y-56126565D01*
X64638500Y-56126567D01*
X64638500Y-56672796D01*
X64618815Y-56739835D01*
X64566011Y-56785590D01*
X64496853Y-56795534D01*
X64433297Y-56766509D01*
X64426819Y-56760477D01*
X64366930Y-56700588D01*
X64366928Y-56700586D01*
X64226788Y-56598768D01*
X64072445Y-56520127D01*
X63907701Y-56466598D01*
X63907699Y-56466597D01*
X63907698Y-56466597D01*
X63776271Y-56445781D01*
X63736611Y-56439500D01*
X63563389Y-56439500D01*
X63523728Y-56445781D01*
X63392302Y-56466597D01*
X63227552Y-56520128D01*
X63073212Y-56598767D01*
X63046385Y-56618259D01*
X63034524Y-56622490D01*
X63025011Y-56630734D01*
X63002245Y-56634007D01*
X62980578Y-56641738D01*
X62968314Y-56638886D01*
X62955853Y-56640678D01*
X62934928Y-56631121D01*
X62912525Y-56625912D01*
X62903751Y-56616883D01*
X62892297Y-56611653D01*
X62879860Y-56592300D01*
X62863830Y-56575806D01*
X62860426Y-56562060D01*
X62854523Y-56552875D01*
X62849500Y-56517940D01*
X62849500Y-56382898D01*
X62869185Y-56315859D01*
X62885815Y-56295221D01*
X63123715Y-56057320D01*
X63185036Y-56023837D01*
X63249710Y-56027071D01*
X63392299Y-56073402D01*
X63563389Y-56100500D01*
X63563390Y-56100500D01*
X63736610Y-56100500D01*
X63736611Y-56100500D01*
X63907701Y-56073402D01*
X64072445Y-56019873D01*
X64226788Y-55941232D01*
X64366928Y-55839414D01*
X64489414Y-55716928D01*
X64591232Y-55576788D01*
X64669873Y-55422445D01*
X64723402Y-55257701D01*
X64750500Y-55086611D01*
X64750500Y-54913389D01*
X64723402Y-54742299D01*
X64669873Y-54577555D01*
X64591232Y-54423212D01*
X64489414Y-54283072D01*
X64366928Y-54160586D01*
X64226788Y-54058768D01*
X64072445Y-53980127D01*
X63907701Y-53926598D01*
X63907699Y-53926597D01*
X63907698Y-53926597D01*
X63776271Y-53905781D01*
X63736611Y-53899500D01*
X63563389Y-53899500D01*
X63523728Y-53905781D01*
X63392302Y-53926597D01*
X63227552Y-53980128D01*
X63073211Y-54058768D01*
X62993256Y-54116859D01*
X62933072Y-54160586D01*
X62933070Y-54160588D01*
X62933069Y-54160588D01*
X62810588Y-54283069D01*
X62810588Y-54283070D01*
X62810586Y-54283072D01*
X62803725Y-54292516D01*
X62708768Y-54423211D01*
X62630128Y-54577552D01*
X62576597Y-54742302D01*
X62549500Y-54913389D01*
X62549500Y-55086610D01*
X62576597Y-55257697D01*
X62622927Y-55400285D01*
X62624922Y-55470126D01*
X62592677Y-55526284D01*
X62243438Y-55875525D01*
X62173526Y-55945436D01*
X62124091Y-56031059D01*
X62124091Y-56031060D01*
X62124090Y-56031062D01*
X62098500Y-56126565D01*
X62098500Y-56126567D01*
X62098500Y-56672796D01*
X62078815Y-56739835D01*
X62026011Y-56785590D01*
X61956853Y-56795534D01*
X61893297Y-56766509D01*
X61886819Y-56760477D01*
X61826930Y-56700588D01*
X61826928Y-56700586D01*
X61686788Y-56598768D01*
X61532445Y-56520127D01*
X61367701Y-56466598D01*
X61367699Y-56466597D01*
X61367698Y-56466597D01*
X61236271Y-56445781D01*
X61196611Y-56439500D01*
X61023389Y-56439500D01*
X60983728Y-56445781D01*
X60852302Y-56466597D01*
X60687552Y-56520128D01*
X60533212Y-56598767D01*
X60506385Y-56618259D01*
X60494524Y-56622490D01*
X60485011Y-56630734D01*
X60462245Y-56634007D01*
X60440578Y-56641738D01*
X60428314Y-56638886D01*
X60415853Y-56640678D01*
X60394928Y-56631121D01*
X60372525Y-56625912D01*
X60363751Y-56616883D01*
X60352297Y-56611653D01*
X60339860Y-56592300D01*
X60323830Y-56575806D01*
X60320426Y-56562060D01*
X60314523Y-56552875D01*
X60309500Y-56517940D01*
X60309500Y-56382898D01*
X60329185Y-56315859D01*
X60345815Y-56295221D01*
X60583715Y-56057320D01*
X60645036Y-56023837D01*
X60709710Y-56027071D01*
X60852299Y-56073402D01*
X61023389Y-56100500D01*
X61023390Y-56100500D01*
X61196610Y-56100500D01*
X61196611Y-56100500D01*
X61367701Y-56073402D01*
X61532445Y-56019873D01*
X61686788Y-55941232D01*
X61826928Y-55839414D01*
X61949414Y-55716928D01*
X62051232Y-55576788D01*
X62129873Y-55422445D01*
X62183402Y-55257701D01*
X62210500Y-55086611D01*
X62210500Y-54913389D01*
X62183402Y-54742299D01*
X62129873Y-54577555D01*
X62051232Y-54423212D01*
X61949414Y-54283072D01*
X61826928Y-54160586D01*
X61686788Y-54058768D01*
X61532445Y-53980127D01*
X61367701Y-53926598D01*
X61367699Y-53926597D01*
X61367698Y-53926597D01*
X61236271Y-53905781D01*
X61196611Y-53899500D01*
X61023389Y-53899500D01*
X60983728Y-53905781D01*
X60852302Y-53926597D01*
X60687552Y-53980128D01*
X60533211Y-54058768D01*
X60453256Y-54116859D01*
X60393072Y-54160586D01*
X60393070Y-54160588D01*
X60393069Y-54160588D01*
X60270588Y-54283069D01*
X60270588Y-54283070D01*
X60270586Y-54283072D01*
X60263725Y-54292516D01*
X60168768Y-54423211D01*
X60090128Y-54577552D01*
X60036597Y-54742302D01*
X60009500Y-54913389D01*
X60009500Y-55086610D01*
X60036597Y-55257697D01*
X60082927Y-55400285D01*
X60084922Y-55470126D01*
X60052677Y-55526284D01*
X59703438Y-55875525D01*
X59633526Y-55945436D01*
X59584091Y-56031059D01*
X59584091Y-56031060D01*
X59584090Y-56031062D01*
X59558500Y-56126565D01*
X59558500Y-59983435D01*
X59584090Y-60078938D01*
X59584091Y-60078939D01*
X59584091Y-60078940D01*
X59633526Y-60164563D01*
X60842181Y-61373218D01*
X60875666Y-61434541D01*
X60878500Y-61460899D01*
X60878500Y-62582453D01*
X60858815Y-62649492D01*
X60806011Y-62695247D01*
X60741245Y-62705742D01*
X60687846Y-62700001D01*
X60687828Y-62700000D01*
X60090000Y-62700000D01*
X60090000Y-63684314D01*
X60085606Y-63679920D01*
X59994394Y-63627259D01*
X59892661Y-63600000D01*
X59787339Y-63600000D01*
X59685606Y-63627259D01*
X59594394Y-63679920D01*
X59590000Y-63684314D01*
X59590000Y-62700000D01*
X58992155Y-62700000D01*
X58932627Y-62706401D01*
X58932620Y-62706403D01*
X58797913Y-62756645D01*
X58797906Y-62756649D01*
X58682812Y-62842809D01*
X58682809Y-62842812D01*
X58596649Y-62957906D01*
X58596645Y-62957913D01*
X58546403Y-63092620D01*
X58546401Y-63092627D01*
X58540000Y-63152155D01*
X58540000Y-63750000D01*
X59524314Y-63750000D01*
X59519920Y-63754394D01*
X59467259Y-63845606D01*
X59440000Y-63947339D01*
X59440000Y-64052661D01*
X59467259Y-64154394D01*
X59519920Y-64245606D01*
X59524314Y-64250000D01*
X58540000Y-64250000D01*
X58540000Y-64847844D01*
X58546401Y-64907372D01*
X58546403Y-64907379D01*
X58596645Y-65042086D01*
X58596649Y-65042093D01*
X58682809Y-65157187D01*
X58682812Y-65157190D01*
X58797906Y-65243350D01*
X58797913Y-65243354D01*
X58932620Y-65293596D01*
X58932627Y-65293598D01*
X58992155Y-65299999D01*
X58992172Y-65300000D01*
X59590000Y-65300000D01*
X59590000Y-64315686D01*
X59594394Y-64320080D01*
X59685606Y-64372741D01*
X59787339Y-64400000D01*
X59892661Y-64400000D01*
X59994394Y-64372741D01*
X60085606Y-64320080D01*
X60090000Y-64315686D01*
X60090000Y-65275401D01*
X60070315Y-65342440D01*
X60053681Y-65363082D01*
X57973527Y-67443235D01*
X57924089Y-67528864D01*
X57919865Y-67544629D01*
X57905847Y-67596945D01*
X57905843Y-67596958D01*
X57905163Y-67599500D01*
X57898500Y-67624365D01*
X53990500Y-67624365D01*
X53990500Y-50624500D01*
X54010185Y-50557461D01*
X54062989Y-50511706D01*
X54114500Y-50500500D01*
X85885500Y-50500500D01*
X85952539Y-50520185D01*
G37*
%TD.AperFunction*%
%TD*%
M02*
