%TF.GenerationSoftware,KiCad,Pcbnew,9.0.7*%
%TF.CreationDate,2026-07-11T13:50:31+01:00*%
%TF.ProjectId,PDS_Diagnostics,5044535f-4469-4616-976e-6f7374696373,rev?*%
%TF.SameCoordinates,Original*%
%TF.FileFunction,Legend,Top*%
%TF.FilePolarity,Positive*%
%FSLAX46Y46*%
G04 Gerber Fmt 4.6, Leading zero omitted, Abs format (unit mm)*
G04 Created by KiCad (PCBNEW 9.0.7) date 2026-07-11 13:50:31*
%MOMM*%
%LPD*%
G01*
G04 APERTURE LIST*
%ADD10C,0.100000*%
%ADD11C,0.150000*%
%ADD12C,0.120000*%
G04 APERTURE END LIST*
D10*
X54737143Y-92049819D02*
X54737143Y-91049819D01*
X54737143Y-91049819D02*
X54975238Y-91049819D01*
X54975238Y-91049819D02*
X55118095Y-91097438D01*
X55118095Y-91097438D02*
X55213333Y-91192676D01*
X55213333Y-91192676D02*
X55260952Y-91287914D01*
X55260952Y-91287914D02*
X55308571Y-91478390D01*
X55308571Y-91478390D02*
X55308571Y-91621247D01*
X55308571Y-91621247D02*
X55260952Y-91811723D01*
X55260952Y-91811723D02*
X55213333Y-91906961D01*
X55213333Y-91906961D02*
X55118095Y-92002200D01*
X55118095Y-92002200D02*
X54975238Y-92049819D01*
X54975238Y-92049819D02*
X54737143Y-92049819D01*
X55737143Y-91526009D02*
X56070476Y-91526009D01*
X56213333Y-92049819D02*
X55737143Y-92049819D01*
X55737143Y-92049819D02*
X55737143Y-91049819D01*
X55737143Y-91049819D02*
X56213333Y-91049819D01*
X56499048Y-91049819D02*
X56832381Y-92049819D01*
X56832381Y-92049819D02*
X57165714Y-91049819D01*
D11*
X55321200Y-92837000D02*
X56388000Y-92837000D01*
X56388000Y-92837000D02*
X55880000Y-93802200D01*
X55880000Y-93802200D02*
X55321200Y-92837000D01*
D10*
X55067295Y-65100419D02*
X55067295Y-64100419D01*
X55067295Y-64100419D02*
X55448247Y-64100419D01*
X55448247Y-64100419D02*
X55543485Y-64148038D01*
X55543485Y-64148038D02*
X55591104Y-64195657D01*
X55591104Y-64195657D02*
X55638723Y-64290895D01*
X55638723Y-64290895D02*
X55638723Y-64433752D01*
X55638723Y-64433752D02*
X55591104Y-64528990D01*
X55591104Y-64528990D02*
X55543485Y-64576609D01*
X55543485Y-64576609D02*
X55448247Y-64624228D01*
X55448247Y-64624228D02*
X55067295Y-64624228D01*
X56638723Y-65005180D02*
X56591104Y-65052800D01*
X56591104Y-65052800D02*
X56448247Y-65100419D01*
X56448247Y-65100419D02*
X56353009Y-65100419D01*
X56353009Y-65100419D02*
X56210152Y-65052800D01*
X56210152Y-65052800D02*
X56114914Y-64957561D01*
X56114914Y-64957561D02*
X56067295Y-64862323D01*
X56067295Y-64862323D02*
X56019676Y-64671847D01*
X56019676Y-64671847D02*
X56019676Y-64528990D01*
X56019676Y-64528990D02*
X56067295Y-64338514D01*
X56067295Y-64338514D02*
X56114914Y-64243276D01*
X56114914Y-64243276D02*
X56210152Y-64148038D01*
X56210152Y-64148038D02*
X56353009Y-64100419D01*
X56353009Y-64100419D02*
X56448247Y-64100419D01*
X56448247Y-64100419D02*
X56591104Y-64148038D01*
X56591104Y-64148038D02*
X56638723Y-64195657D01*
D11*
X55295800Y-63423800D02*
X56362600Y-63423800D01*
X56362600Y-63423800D02*
X55854600Y-62458600D01*
X55854600Y-62458600D02*
X55295800Y-63423800D01*
X77620000Y-75350000D02*
X85350000Y-75350000D01*
X85350000Y-78000000D01*
X77620000Y-78000000D01*
X77620000Y-75350000D01*
G36*
X77620000Y-75350000D02*
G01*
X85350000Y-75350000D01*
X85350000Y-78000000D01*
X77620000Y-78000000D01*
X77620000Y-75350000D01*
G37*
X78917800Y-74676000D02*
X78359000Y-73710800D01*
X79425800Y-73710800D02*
X78917800Y-74676000D01*
X78359000Y-73710800D02*
X79425800Y-73710800D01*
D10*
X82734305Y-71324219D02*
X82734305Y-70324219D01*
X82734305Y-70324219D02*
X83115257Y-70324219D01*
X83115257Y-70324219D02*
X83210495Y-70371838D01*
X83210495Y-70371838D02*
X83258114Y-70419457D01*
X83258114Y-70419457D02*
X83305733Y-70514695D01*
X83305733Y-70514695D02*
X83305733Y-70657552D01*
X83305733Y-70657552D02*
X83258114Y-70752790D01*
X83258114Y-70752790D02*
X83210495Y-70800409D01*
X83210495Y-70800409D02*
X83115257Y-70848028D01*
X83115257Y-70848028D02*
X82734305Y-70848028D01*
X83734305Y-71324219D02*
X83734305Y-70324219D01*
X83734305Y-70324219D02*
X83972400Y-70324219D01*
X83972400Y-70324219D02*
X84115257Y-70371838D01*
X84115257Y-70371838D02*
X84210495Y-70467076D01*
X84210495Y-70467076D02*
X84258114Y-70562314D01*
X84258114Y-70562314D02*
X84305733Y-70752790D01*
X84305733Y-70752790D02*
X84305733Y-70895647D01*
X84305733Y-70895647D02*
X84258114Y-71086123D01*
X84258114Y-71086123D02*
X84210495Y-71181361D01*
X84210495Y-71181361D02*
X84115257Y-71276600D01*
X84115257Y-71276600D02*
X83972400Y-71324219D01*
X83972400Y-71324219D02*
X83734305Y-71324219D01*
X84686686Y-71276600D02*
X84829543Y-71324219D01*
X84829543Y-71324219D02*
X85067638Y-71324219D01*
X85067638Y-71324219D02*
X85162876Y-71276600D01*
X85162876Y-71276600D02*
X85210495Y-71228980D01*
X85210495Y-71228980D02*
X85258114Y-71133742D01*
X85258114Y-71133742D02*
X85258114Y-71038504D01*
X85258114Y-71038504D02*
X85210495Y-70943266D01*
X85210495Y-70943266D02*
X85162876Y-70895647D01*
X85162876Y-70895647D02*
X85067638Y-70848028D01*
X85067638Y-70848028D02*
X84877162Y-70800409D01*
X84877162Y-70800409D02*
X84781924Y-70752790D01*
X84781924Y-70752790D02*
X84734305Y-70705171D01*
X84734305Y-70705171D02*
X84686686Y-70609933D01*
X84686686Y-70609933D02*
X84686686Y-70514695D01*
X84686686Y-70514695D02*
X84734305Y-70419457D01*
X84734305Y-70419457D02*
X84781924Y-70371838D01*
X84781924Y-70371838D02*
X84877162Y-70324219D01*
X84877162Y-70324219D02*
X85115257Y-70324219D01*
X85115257Y-70324219D02*
X85258114Y-70371838D01*
X83210495Y-71981782D02*
X83115257Y-71934163D01*
X83115257Y-71934163D02*
X82972400Y-71934163D01*
X82972400Y-71934163D02*
X82829543Y-71981782D01*
X82829543Y-71981782D02*
X82734305Y-72077020D01*
X82734305Y-72077020D02*
X82686686Y-72172258D01*
X82686686Y-72172258D02*
X82639067Y-72362734D01*
X82639067Y-72362734D02*
X82639067Y-72505591D01*
X82639067Y-72505591D02*
X82686686Y-72696067D01*
X82686686Y-72696067D02*
X82734305Y-72791305D01*
X82734305Y-72791305D02*
X82829543Y-72886544D01*
X82829543Y-72886544D02*
X82972400Y-72934163D01*
X82972400Y-72934163D02*
X83067638Y-72934163D01*
X83067638Y-72934163D02*
X83210495Y-72886544D01*
X83210495Y-72886544D02*
X83258114Y-72838924D01*
X83258114Y-72838924D02*
X83258114Y-72505591D01*
X83258114Y-72505591D02*
X83067638Y-72505591D01*
X83686686Y-72934163D02*
X83686686Y-71934163D01*
X83686686Y-71934163D02*
X84258114Y-72934163D01*
X84258114Y-72934163D02*
X84258114Y-71934163D01*
X84734305Y-72934163D02*
X84734305Y-71934163D01*
X84734305Y-71934163D02*
X84972400Y-71934163D01*
X84972400Y-71934163D02*
X85115257Y-71981782D01*
X85115257Y-71981782D02*
X85210495Y-72077020D01*
X85210495Y-72077020D02*
X85258114Y-72172258D01*
X85258114Y-72172258D02*
X85305733Y-72362734D01*
X85305733Y-72362734D02*
X85305733Y-72505591D01*
X85305733Y-72505591D02*
X85258114Y-72696067D01*
X85258114Y-72696067D02*
X85210495Y-72791305D01*
X85210495Y-72791305D02*
X85115257Y-72886544D01*
X85115257Y-72886544D02*
X84972400Y-72934163D01*
X84972400Y-72934163D02*
X84734305Y-72934163D01*
X83186685Y-74544107D02*
X82710495Y-74544107D01*
X82710495Y-74544107D02*
X82710495Y-73544107D01*
X83520019Y-74544107D02*
X83520019Y-73877440D01*
X83520019Y-73544107D02*
X83472400Y-73591726D01*
X83472400Y-73591726D02*
X83520019Y-73639345D01*
X83520019Y-73639345D02*
X83567638Y-73591726D01*
X83567638Y-73591726D02*
X83520019Y-73544107D01*
X83520019Y-73544107D02*
X83520019Y-73639345D01*
X83996209Y-73877440D02*
X83996209Y-74544107D01*
X83996209Y-73972678D02*
X84043828Y-73925059D01*
X84043828Y-73925059D02*
X84139066Y-73877440D01*
X84139066Y-73877440D02*
X84281923Y-73877440D01*
X84281923Y-73877440D02*
X84377161Y-73925059D01*
X84377161Y-73925059D02*
X84424780Y-74020297D01*
X84424780Y-74020297D02*
X84424780Y-74544107D01*
X84900971Y-74544107D02*
X84900971Y-73544107D01*
X84996209Y-74163154D02*
X85281923Y-74544107D01*
X85281923Y-73877440D02*
X84900971Y-74258392D01*
D11*
X55168895Y-84186038D02*
X55073657Y-84138419D01*
X55073657Y-84138419D02*
X54930800Y-84138419D01*
X54930800Y-84138419D02*
X54787943Y-84186038D01*
X54787943Y-84186038D02*
X54692705Y-84281276D01*
X54692705Y-84281276D02*
X54645086Y-84376514D01*
X54645086Y-84376514D02*
X54597467Y-84566990D01*
X54597467Y-84566990D02*
X54597467Y-84709847D01*
X54597467Y-84709847D02*
X54645086Y-84900323D01*
X54645086Y-84900323D02*
X54692705Y-84995561D01*
X54692705Y-84995561D02*
X54787943Y-85090800D01*
X54787943Y-85090800D02*
X54930800Y-85138419D01*
X54930800Y-85138419D02*
X55026038Y-85138419D01*
X55026038Y-85138419D02*
X55168895Y-85090800D01*
X55168895Y-85090800D02*
X55216514Y-85043180D01*
X55216514Y-85043180D02*
X55216514Y-84709847D01*
X55216514Y-84709847D02*
X55026038Y-84709847D01*
X55645086Y-85138419D02*
X55645086Y-84138419D01*
X55645086Y-84138419D02*
X56216514Y-85138419D01*
X56216514Y-85138419D02*
X56216514Y-84138419D01*
X56692705Y-85138419D02*
X56692705Y-84138419D01*
X56692705Y-84138419D02*
X56930800Y-84138419D01*
X56930800Y-84138419D02*
X57073657Y-84186038D01*
X57073657Y-84186038D02*
X57168895Y-84281276D01*
X57168895Y-84281276D02*
X57216514Y-84376514D01*
X57216514Y-84376514D02*
X57264133Y-84566990D01*
X57264133Y-84566990D02*
X57264133Y-84709847D01*
X57264133Y-84709847D02*
X57216514Y-84900323D01*
X57216514Y-84900323D02*
X57168895Y-84995561D01*
X57168895Y-84995561D02*
X57073657Y-85090800D01*
X57073657Y-85090800D02*
X56930800Y-85138419D01*
X56930800Y-85138419D02*
X56692705Y-85138419D01*
D10*
X59181084Y-73151466D02*
X59942989Y-73151466D01*
X59562036Y-73532419D02*
X59562036Y-72770514D01*
X59104884Y-82778066D02*
X59866789Y-82778066D01*
X59485836Y-83159019D02*
X59485836Y-82397114D01*
D11*
X55270495Y-70851038D02*
X55175257Y-70803419D01*
X55175257Y-70803419D02*
X55032400Y-70803419D01*
X55032400Y-70803419D02*
X54889543Y-70851038D01*
X54889543Y-70851038D02*
X54794305Y-70946276D01*
X54794305Y-70946276D02*
X54746686Y-71041514D01*
X54746686Y-71041514D02*
X54699067Y-71231990D01*
X54699067Y-71231990D02*
X54699067Y-71374847D01*
X54699067Y-71374847D02*
X54746686Y-71565323D01*
X54746686Y-71565323D02*
X54794305Y-71660561D01*
X54794305Y-71660561D02*
X54889543Y-71755800D01*
X54889543Y-71755800D02*
X55032400Y-71803419D01*
X55032400Y-71803419D02*
X55127638Y-71803419D01*
X55127638Y-71803419D02*
X55270495Y-71755800D01*
X55270495Y-71755800D02*
X55318114Y-71708180D01*
X55318114Y-71708180D02*
X55318114Y-71374847D01*
X55318114Y-71374847D02*
X55127638Y-71374847D01*
X55746686Y-71803419D02*
X55746686Y-70803419D01*
X55746686Y-70803419D02*
X56318114Y-71803419D01*
X56318114Y-71803419D02*
X56318114Y-70803419D01*
X56794305Y-71803419D02*
X56794305Y-70803419D01*
X56794305Y-70803419D02*
X57032400Y-70803419D01*
X57032400Y-70803419D02*
X57175257Y-70851038D01*
X57175257Y-70851038D02*
X57270495Y-70946276D01*
X57270495Y-70946276D02*
X57318114Y-71041514D01*
X57318114Y-71041514D02*
X57365733Y-71231990D01*
X57365733Y-71231990D02*
X57365733Y-71374847D01*
X57365733Y-71374847D02*
X57318114Y-71565323D01*
X57318114Y-71565323D02*
X57270495Y-71660561D01*
X57270495Y-71660561D02*
X57175257Y-71755800D01*
X57175257Y-71755800D02*
X57032400Y-71803419D01*
X57032400Y-71803419D02*
X56794305Y-71803419D01*
X82339038Y-63558057D02*
X82386657Y-63510438D01*
X82386657Y-63510438D02*
X82481895Y-63462819D01*
X82481895Y-63462819D02*
X82719990Y-63462819D01*
X82719990Y-63462819D02*
X82815228Y-63510438D01*
X82815228Y-63510438D02*
X82862847Y-63558057D01*
X82862847Y-63558057D02*
X82910466Y-63653295D01*
X82910466Y-63653295D02*
X82910466Y-63748533D01*
X82910466Y-63748533D02*
X82862847Y-63891390D01*
X82862847Y-63891390D02*
X82291419Y-64462819D01*
X82291419Y-64462819D02*
X82910466Y-64462819D01*
X83339038Y-64462819D02*
X83339038Y-63462819D01*
X83910466Y-64462819D02*
X83481895Y-63891390D01*
X83910466Y-63462819D02*
X83339038Y-64034247D01*
X84339038Y-64081866D02*
X85100943Y-64081866D01*
X84719990Y-64462819D02*
X84719990Y-63700914D01*
X82262838Y-91548857D02*
X82310457Y-91501238D01*
X82310457Y-91501238D02*
X82405695Y-91453619D01*
X82405695Y-91453619D02*
X82643790Y-91453619D01*
X82643790Y-91453619D02*
X82739028Y-91501238D01*
X82739028Y-91501238D02*
X82786647Y-91548857D01*
X82786647Y-91548857D02*
X82834266Y-91644095D01*
X82834266Y-91644095D02*
X82834266Y-91739333D01*
X82834266Y-91739333D02*
X82786647Y-91882190D01*
X82786647Y-91882190D02*
X82215219Y-92453619D01*
X82215219Y-92453619D02*
X82834266Y-92453619D01*
X83262838Y-92453619D02*
X83262838Y-91453619D01*
X83834266Y-92453619D02*
X83405695Y-91882190D01*
X83834266Y-91453619D02*
X83262838Y-92025047D01*
X84262838Y-92072666D02*
X85024743Y-92072666D01*
X84643790Y-92453619D02*
X84643790Y-91691714D01*
D12*
%TO.C,D2*%
X76440000Y-84753000D02*
X76440000Y-84670000D01*
X76440000Y-86420000D02*
X76440000Y-85167000D01*
X78540000Y-84670000D02*
X78560000Y-84670000D01*
X78560000Y-84670000D02*
X78560000Y-84753000D01*
X78560000Y-85167000D02*
X78560000Y-86420000D01*
%TO.C,J5*%
X54650000Y-72810000D02*
X54650000Y-83190000D01*
X54650000Y-72810000D02*
X57410000Y-72810000D01*
X54650000Y-83190000D02*
X57410000Y-83190000D01*
X57410000Y-72810000D02*
X57410000Y-83190000D01*
%TO.C,D16*%
X58440000Y-71083000D02*
X58440000Y-69830000D01*
X58440000Y-71580000D02*
X58440000Y-71497000D01*
X58460000Y-71580000D02*
X58440000Y-71580000D01*
X60560000Y-69830000D02*
X60560000Y-71083000D01*
X60560000Y-71497000D02*
X60560000Y-71580000D01*
%TO.C,J1*%
X55900000Y-51710000D02*
X84100000Y-51710000D01*
X55900000Y-60830000D02*
X55900000Y-51710000D01*
X57200000Y-53020000D02*
X67950000Y-53020000D01*
X57200000Y-59520000D02*
X57200000Y-53020000D01*
X67950000Y-53020000D02*
X67950000Y-51710000D01*
X72050000Y-51710000D02*
X72050000Y-53020000D01*
X72050000Y-53020000D02*
X82800000Y-53020000D01*
X78390000Y-50320000D02*
X78890000Y-51320000D01*
X78890000Y-51320000D02*
X79390000Y-50320000D01*
X79390000Y-50320000D02*
X78390000Y-50320000D01*
X82800000Y-53020000D02*
X82800000Y-59520000D01*
X82800000Y-59520000D02*
X57200000Y-59520000D01*
X84100000Y-51710000D02*
X84100000Y-60830000D01*
X84100000Y-60830000D02*
X55900000Y-60830000D01*
%TO.C,D12*%
X70440000Y-71083000D02*
X70440000Y-69830000D01*
X70440000Y-71580000D02*
X70440000Y-71497000D01*
X70460000Y-71580000D02*
X70440000Y-71580000D01*
X72560000Y-69830000D02*
X72560000Y-71083000D01*
X72560000Y-71497000D02*
X72560000Y-71580000D01*
%TO.C,D13*%
X67440000Y-71083000D02*
X67440000Y-69830000D01*
X67440000Y-71580000D02*
X67440000Y-71497000D01*
X67460000Y-71580000D02*
X67440000Y-71580000D01*
X69560000Y-69830000D02*
X69560000Y-71083000D01*
X69560000Y-71497000D02*
X69560000Y-71580000D01*
%TO.C,J4*%
X82590000Y-75350000D02*
X83970000Y-75350000D01*
X82590000Y-76730000D02*
X82590000Y-75350000D01*
X82590000Y-78000000D02*
X82590000Y-80650000D01*
X82590000Y-78000000D02*
X85350000Y-78000000D01*
X82590000Y-80650000D02*
X85350000Y-80650000D01*
X85350000Y-78000000D02*
X85350000Y-80650000D01*
%TO.C,D15*%
X61440000Y-71083000D02*
X61440000Y-69830000D01*
X61440000Y-71580000D02*
X61440000Y-71497000D01*
X61460000Y-71580000D02*
X61440000Y-71580000D01*
X63560000Y-69830000D02*
X63560000Y-71083000D01*
X63560000Y-71497000D02*
X63560000Y-71580000D01*
%TO.C,D6*%
X64440000Y-84753000D02*
X64440000Y-84670000D01*
X64440000Y-86420000D02*
X64440000Y-85167000D01*
X66540000Y-84670000D02*
X66560000Y-84670000D01*
X66560000Y-84670000D02*
X66560000Y-84753000D01*
X66560000Y-85167000D02*
X66560000Y-86420000D01*
%TO.C,D9*%
X79440000Y-71083000D02*
X79440000Y-69830000D01*
X79440000Y-71580000D02*
X79440000Y-71497000D01*
X79460000Y-71580000D02*
X79440000Y-71580000D01*
X81560000Y-69830000D02*
X81560000Y-71083000D01*
X81560000Y-71497000D02*
X81560000Y-71580000D01*
%TO.C,D10*%
X76440000Y-71083000D02*
X76440000Y-69830000D01*
X76440000Y-71580000D02*
X76440000Y-71497000D01*
X76460000Y-71580000D02*
X76440000Y-71580000D01*
X78560000Y-69830000D02*
X78560000Y-71083000D01*
X78560000Y-71497000D02*
X78560000Y-71580000D01*
%TO.C,D1*%
X79440000Y-84753000D02*
X79440000Y-84670000D01*
X79440000Y-86420000D02*
X79440000Y-85167000D01*
X81540000Y-84670000D02*
X81560000Y-84670000D01*
X81560000Y-84670000D02*
X81560000Y-84753000D01*
X81560000Y-85167000D02*
X81560000Y-86420000D01*
%TO.C,J3*%
X55900000Y-95170000D02*
X84100000Y-95170000D01*
X55900000Y-104290000D02*
X55900000Y-95170000D01*
X57200000Y-96480000D02*
X67950000Y-96480000D01*
X57200000Y-102980000D02*
X57200000Y-96480000D01*
X67950000Y-96480000D02*
X67950000Y-95170000D01*
X72050000Y-95170000D02*
X72050000Y-96480000D01*
X72050000Y-96480000D02*
X82800000Y-96480000D01*
X78390000Y-93780000D02*
X78890000Y-94780000D01*
X78890000Y-94780000D02*
X79390000Y-93780000D01*
X79390000Y-93780000D02*
X78390000Y-93780000D01*
X82800000Y-96480000D02*
X82800000Y-102980000D01*
X82800000Y-102980000D02*
X57200000Y-102980000D01*
X84100000Y-95170000D02*
X84100000Y-104290000D01*
X84100000Y-104290000D02*
X55900000Y-104290000D01*
%TO.C,J2*%
X59730000Y-75350000D02*
X59730000Y-80650000D01*
X77620000Y-75350000D02*
X59730000Y-75350000D01*
X77620000Y-75350000D02*
X77620000Y-78000000D01*
X77620000Y-78000000D02*
X80270000Y-78000000D01*
X78890000Y-75350000D02*
X80270000Y-75350000D01*
X80270000Y-75350000D02*
X80270000Y-76730000D01*
X80270000Y-78000000D02*
X80270000Y-80650000D01*
X80270000Y-80650000D02*
X59730000Y-80650000D01*
%TO.C,RN2*%
X61110000Y-62690000D02*
X61110000Y-65310000D01*
X58490000Y-62690000D02*
X81510000Y-62690000D01*
X81510000Y-65310000D01*
X58490000Y-65310000D01*
X58490000Y-62690000D01*
%TO.C,RN1*%
X61110000Y-90690000D02*
X61110000Y-93310000D01*
X58490000Y-90690000D02*
X81510000Y-90690000D01*
X81510000Y-93310000D01*
X58490000Y-93310000D01*
X58490000Y-90690000D01*
%TO.C,D11*%
X73440000Y-71083000D02*
X73440000Y-69830000D01*
X73440000Y-71580000D02*
X73440000Y-71497000D01*
X73460000Y-71580000D02*
X73440000Y-71580000D01*
X75560000Y-69830000D02*
X75560000Y-71083000D01*
X75560000Y-71497000D02*
X75560000Y-71580000D01*
%TO.C,D5*%
X67440000Y-84753000D02*
X67440000Y-84670000D01*
X67440000Y-86420000D02*
X67440000Y-85167000D01*
X69540000Y-84670000D02*
X69560000Y-84670000D01*
X69560000Y-84670000D02*
X69560000Y-84753000D01*
X69560000Y-85167000D02*
X69560000Y-86420000D01*
%TO.C,D4*%
X70440000Y-84753000D02*
X70440000Y-84670000D01*
X70440000Y-86420000D02*
X70440000Y-85167000D01*
X72540000Y-84670000D02*
X72560000Y-84670000D01*
X72560000Y-84670000D02*
X72560000Y-84753000D01*
X72560000Y-85167000D02*
X72560000Y-86420000D01*
%TO.C,D3*%
X73440000Y-84753000D02*
X73440000Y-84670000D01*
X73440000Y-86420000D02*
X73440000Y-85167000D01*
X75540000Y-84670000D02*
X75560000Y-84670000D01*
X75560000Y-84670000D02*
X75560000Y-84753000D01*
X75560000Y-85167000D02*
X75560000Y-86420000D01*
%TO.C,D14*%
X64440000Y-71083000D02*
X64440000Y-69830000D01*
X64440000Y-71580000D02*
X64440000Y-71497000D01*
X64460000Y-71580000D02*
X64440000Y-71580000D01*
X66560000Y-69830000D02*
X66560000Y-71083000D01*
X66560000Y-71497000D02*
X66560000Y-71580000D01*
%TO.C,D8*%
X58440000Y-84753000D02*
X58440000Y-84670000D01*
X58440000Y-86420000D02*
X58440000Y-85167000D01*
X60540000Y-84670000D02*
X60560000Y-84670000D01*
X60560000Y-84670000D02*
X60560000Y-84753000D01*
X60560000Y-85167000D02*
X60560000Y-86420000D01*
%TO.C,D7*%
X61440000Y-84753000D02*
X61440000Y-84670000D01*
X61440000Y-86420000D02*
X61440000Y-85167000D01*
X63540000Y-84670000D02*
X63560000Y-84670000D01*
X63560000Y-84670000D02*
X63560000Y-84753000D01*
X63560000Y-85167000D02*
X63560000Y-86420000D01*
%TD*%
M02*
