%TF.GenerationSoftware,KiCad,Pcbnew,9.0.7*%
%TF.CreationDate,2026-07-11T13:50:31+01:00*%
%TF.ProjectId,PDS_Diagnostics,5044535f-4469-4616-976e-6f7374696373,rev?*%
%TF.SameCoordinates,Original*%
%TF.FileFunction,Copper,L2,Bot*%
%TF.FilePolarity,Positive*%
%FSLAX46Y46*%
G04 Gerber Fmt 4.6, Leading zero omitted, Abs format (unit mm)*
G04 Created by KiCad (PCBNEW 9.0.7) date 2026-07-11 13:50:31*
%MOMM*%
%LPD*%
G01*
G04 APERTURE LIST*
G04 Aperture macros list*
%AMRoundRect*
0 Rectangle with rounded corners*
0 $1 Rounding radius*
0 $2 $3 $4 $5 $6 $7 $8 $9 X,Y pos of 4 corners*
0 Add a 4 corners polygon primitive as box body*
4,1,4,$2,$3,$4,$5,$6,$7,$8,$9,$2,$3,0*
0 Add four circle primitives for the rounded corners*
1,1,$1+$1,$2,$3*
1,1,$1+$1,$4,$5*
1,1,$1+$1,$6,$7*
1,1,$1+$1,$8,$9*
0 Add four rect primitives between the rounded corners*
20,1,$1+$1,$2,$3,$4,$5,0*
20,1,$1+$1,$4,$5,$6,$7,0*
20,1,$1+$1,$6,$7,$8,$9,0*
20,1,$1+$1,$8,$9,$2,$3,0*%
G04 Aperture macros list end*
%TA.AperFunction,ComponentPad*%
%ADD10R,1.800000X1.800000*%
%TD*%
%TA.AperFunction,ComponentPad*%
%ADD11C,1.800000*%
%TD*%
%TA.AperFunction,ComponentPad*%
%ADD12O,1.700000X1.700000*%
%TD*%
%TA.AperFunction,ComponentPad*%
%ADD13C,1.700000*%
%TD*%
%TA.AperFunction,ComponentPad*%
%ADD14RoundRect,0.250000X-0.600000X0.600000X-0.600000X-0.600000X0.600000X-0.600000X0.600000X0.600000X0*%
%TD*%
%TA.AperFunction,ComponentPad*%
%ADD15R,1.700000X1.700000*%
%TD*%
%TA.AperFunction,ComponentPad*%
%ADD16R,1.600000X1.600000*%
%TD*%
%TA.AperFunction,ComponentPad*%
%ADD17C,1.600000*%
%TD*%
%TA.AperFunction,Conductor*%
%ADD18C,0.250000*%
%TD*%
G04 APERTURE END LIST*
D10*
%TO.P,D2,1,K*%
%TO.N,Net-(D2-K)*%
X77500000Y-87500000D03*
D11*
%TO.P,D2,2,A*%
%TO.N,Net-(D2-A)*%
X77500000Y-84960000D03*
%TD*%
D12*
%TO.P,J5,1,Pin_1*%
%TO.N,GND*%
X56030000Y-74190000D03*
D13*
%TO.P,J5,2,Pin_2*%
X56030000Y-76730000D03*
%TO.P,J5,3,Pin_3*%
X56030000Y-79270000D03*
%TO.P,J5,4,Pin_4*%
X56030000Y-81810000D03*
%TD*%
D10*
%TO.P,D16,1,K*%
%TO.N,Net-(D16-K)*%
X59500000Y-68750000D03*
D11*
%TO.P,D16,2,A*%
%TO.N,Net-(D16-A)*%
X59500000Y-71290000D03*
%TD*%
D14*
%TO.P,J1,1,Pin_1*%
%TO.N,/PDSGND*%
X78890000Y-55000000D03*
D13*
%TO.P,J1,2,Pin_2*%
%TO.N,Net-(D1-A)*%
X78890000Y-57540000D03*
%TO.P,J1,3,Pin_3*%
%TO.N,Net-(D10-A)*%
X76350000Y-55000000D03*
%TO.P,J1,4,Pin_4*%
%TO.N,Net-(D2-A)*%
X76350000Y-57540000D03*
%TO.P,J1,5,Pin_5*%
%TO.N,Net-(D11-A)*%
X73810000Y-55000000D03*
%TO.P,J1,6,Pin_6*%
%TO.N,Net-(D3-A)*%
X73810000Y-57540000D03*
%TO.P,J1,7,Pin_7*%
%TO.N,Net-(D12-A)*%
X71270000Y-55000000D03*
%TO.P,J1,8,Pin_8*%
%TO.N,Net-(D4-A)*%
X71270000Y-57540000D03*
%TO.P,J1,9,Pin_9*%
%TO.N,Net-(D13-A)*%
X68730000Y-55000000D03*
%TO.P,J1,10,Pin_10*%
%TO.N,Net-(D5-A)*%
X68730000Y-57540000D03*
%TO.P,J1,11,Pin_11*%
%TO.N,Net-(D14-A)*%
X66190000Y-55000000D03*
%TO.P,J1,12,Pin_12*%
%TO.N,Net-(D6-A)*%
X66190000Y-57540000D03*
%TO.P,J1,13,Pin_13*%
%TO.N,Net-(D15-A)*%
X63650000Y-55000000D03*
%TO.P,J1,14,Pin_14*%
%TO.N,Net-(D7-A)*%
X63650000Y-57540000D03*
%TO.P,J1,15,Pin_15*%
%TO.N,Net-(D16-A)*%
X61110000Y-55000000D03*
%TO.P,J1,16,Pin_16*%
%TO.N,Net-(D8-A)*%
X61110000Y-57540000D03*
%TD*%
D10*
%TO.P,D12,1,K*%
%TO.N,Net-(D12-K)*%
X71500000Y-68750000D03*
D11*
%TO.P,D12,2,A*%
%TO.N,Net-(D12-A)*%
X71500000Y-71290000D03*
%TD*%
D10*
%TO.P,D13,1,K*%
%TO.N,Net-(D13-K)*%
X68500000Y-68750000D03*
D11*
%TO.P,D13,2,A*%
%TO.N,Net-(D13-A)*%
X68500000Y-71290000D03*
%TD*%
D15*
%TO.P,J4,1,Pin_1*%
%TO.N,/PDSGND*%
X83970000Y-76730000D03*
D13*
%TO.P,J4,2,Pin_2*%
%TO.N,GND*%
X83970000Y-79270000D03*
%TD*%
D10*
%TO.P,D15,1,K*%
%TO.N,Net-(D15-K)*%
X62500000Y-68750000D03*
D11*
%TO.P,D15,2,A*%
%TO.N,Net-(D15-A)*%
X62500000Y-71290000D03*
%TD*%
D10*
%TO.P,D6,1,K*%
%TO.N,Net-(D6-K)*%
X65500000Y-87500000D03*
D11*
%TO.P,D6,2,A*%
%TO.N,Net-(D6-A)*%
X65500000Y-84960000D03*
%TD*%
D10*
%TO.P,D9,1,K*%
%TO.N,Net-(D9-K)*%
X80500000Y-68750000D03*
D11*
%TO.P,D9,2,A*%
%TO.N,/PDSGND*%
X80500000Y-71290000D03*
%TD*%
D10*
%TO.P,D10,1,K*%
%TO.N,Net-(D10-K)*%
X77500000Y-68750000D03*
D11*
%TO.P,D10,2,A*%
%TO.N,Net-(D10-A)*%
X77500000Y-71290000D03*
%TD*%
D10*
%TO.P,D1,1,K*%
%TO.N,Net-(D1-K)*%
X80500000Y-87500000D03*
D11*
%TO.P,D1,2,A*%
%TO.N,Net-(D1-A)*%
X80500000Y-84960000D03*
%TD*%
D14*
%TO.P,J3,1,Pin_1*%
%TO.N,/PDSGND*%
X78890000Y-98460000D03*
D13*
%TO.P,J3,2,Pin_2*%
%TO.N,Net-(D1-A)*%
X78890000Y-101000000D03*
%TO.P,J3,3,Pin_3*%
%TO.N,Net-(D10-A)*%
X76350000Y-98460000D03*
%TO.P,J3,4,Pin_4*%
%TO.N,Net-(D2-A)*%
X76350000Y-101000000D03*
%TO.P,J3,5,Pin_5*%
%TO.N,Net-(D11-A)*%
X73810000Y-98460000D03*
%TO.P,J3,6,Pin_6*%
%TO.N,Net-(D3-A)*%
X73810000Y-101000000D03*
%TO.P,J3,7,Pin_7*%
%TO.N,Net-(D12-A)*%
X71270000Y-98460000D03*
%TO.P,J3,8,Pin_8*%
%TO.N,Net-(D4-A)*%
X71270000Y-101000000D03*
%TO.P,J3,9,Pin_9*%
%TO.N,Net-(D13-A)*%
X68730000Y-98460000D03*
%TO.P,J3,10,Pin_10*%
%TO.N,Net-(D5-A)*%
X68730000Y-101000000D03*
%TO.P,J3,11,Pin_11*%
%TO.N,Net-(D14-A)*%
X66190000Y-98460000D03*
%TO.P,J3,12,Pin_12*%
%TO.N,Net-(D6-A)*%
X66190000Y-101000000D03*
%TO.P,J3,13,Pin_13*%
%TO.N,Net-(D15-A)*%
X63650000Y-98460000D03*
%TO.P,J3,14,Pin_14*%
%TO.N,Net-(D7-A)*%
X63650000Y-101000000D03*
%TO.P,J3,15,Pin_15*%
%TO.N,Net-(D16-A)*%
X61110000Y-98460000D03*
%TO.P,J3,16,Pin_16*%
%TO.N,Net-(D8-A)*%
X61110000Y-101000000D03*
%TD*%
D15*
%TO.P,J2,1,Pin_1*%
%TO.N,/PDSGND*%
X78890000Y-76730000D03*
D13*
%TO.P,J2,2,Pin_2*%
%TO.N,Net-(D1-A)*%
X78890000Y-79270000D03*
%TO.P,J2,3,Pin_3*%
%TO.N,Net-(D10-A)*%
X76350000Y-76730000D03*
%TO.P,J2,4,Pin_4*%
%TO.N,Net-(D2-A)*%
X76350000Y-79270000D03*
%TO.P,J2,5,Pin_5*%
%TO.N,Net-(D11-A)*%
X73810000Y-76730000D03*
%TO.P,J2,6,Pin_6*%
%TO.N,Net-(D3-A)*%
X73810000Y-79270000D03*
%TO.P,J2,7,Pin_7*%
%TO.N,Net-(D12-A)*%
X71270000Y-76730000D03*
%TO.P,J2,8,Pin_8*%
%TO.N,Net-(D4-A)*%
X71270000Y-79270000D03*
%TO.P,J2,9,Pin_9*%
%TO.N,Net-(D13-A)*%
X68730000Y-76730000D03*
%TO.P,J2,10,Pin_10*%
%TO.N,Net-(D5-A)*%
X68730000Y-79270000D03*
%TO.P,J2,11,Pin_11*%
%TO.N,Net-(D14-A)*%
X66190000Y-76730000D03*
%TO.P,J2,12,Pin_12*%
%TO.N,Net-(D6-A)*%
X66190000Y-79270000D03*
%TO.P,J2,13,Pin_13*%
%TO.N,Net-(D15-A)*%
X63650000Y-76730000D03*
%TO.P,J2,14,Pin_14*%
%TO.N,Net-(D7-A)*%
X63650000Y-79270000D03*
%TO.P,J2,15,Pin_15*%
%TO.N,Net-(D16-A)*%
X61110000Y-76730000D03*
%TO.P,J2,16,Pin_16*%
%TO.N,Net-(D8-A)*%
X61110000Y-79270000D03*
%TD*%
D16*
%TO.P,RN2,1,common*%
%TO.N,GND*%
X59840000Y-64000000D03*
D17*
%TO.P,RN2,2,R1*%
%TO.N,Net-(D16-K)*%
X62380000Y-64000000D03*
%TO.P,RN2,3,R2*%
%TO.N,Net-(D15-K)*%
X64920000Y-64000000D03*
%TO.P,RN2,4,R3*%
%TO.N,Net-(D14-K)*%
X67460000Y-64000000D03*
%TO.P,RN2,5,R4*%
%TO.N,Net-(D13-K)*%
X70000000Y-64000000D03*
%TO.P,RN2,6,R5*%
%TO.N,Net-(D12-K)*%
X72540000Y-64000000D03*
%TO.P,RN2,7,R6*%
%TO.N,Net-(D11-K)*%
X75080000Y-64000000D03*
%TO.P,RN2,8,R7*%
%TO.N,Net-(D10-K)*%
X77620000Y-64000000D03*
%TO.P,RN2,9,R8*%
%TO.N,Net-(D9-K)*%
X80160000Y-64000000D03*
%TD*%
D16*
%TO.P,RN1,1,common*%
%TO.N,GND*%
X59840000Y-92000000D03*
D17*
%TO.P,RN1,2,R1*%
%TO.N,Net-(D8-K)*%
X62380000Y-92000000D03*
%TO.P,RN1,3,R2*%
%TO.N,Net-(D7-K)*%
X64920000Y-92000000D03*
%TO.P,RN1,4,R3*%
%TO.N,Net-(D6-K)*%
X67460000Y-92000000D03*
%TO.P,RN1,5,R4*%
%TO.N,Net-(D5-K)*%
X70000000Y-92000000D03*
%TO.P,RN1,6,R5*%
%TO.N,Net-(D4-K)*%
X72540000Y-92000000D03*
%TO.P,RN1,7,R6*%
%TO.N,Net-(D3-K)*%
X75080000Y-92000000D03*
%TO.P,RN1,8,R7*%
%TO.N,Net-(D2-K)*%
X77620000Y-92000000D03*
%TO.P,RN1,9,R8*%
%TO.N,Net-(D1-K)*%
X80160000Y-92000000D03*
%TD*%
D10*
%TO.P,D11,1,K*%
%TO.N,Net-(D11-K)*%
X74500000Y-68750000D03*
D11*
%TO.P,D11,2,A*%
%TO.N,Net-(D11-A)*%
X74500000Y-71290000D03*
%TD*%
D10*
%TO.P,D5,1,K*%
%TO.N,Net-(D5-K)*%
X68500000Y-87500000D03*
D11*
%TO.P,D5,2,A*%
%TO.N,Net-(D5-A)*%
X68500000Y-84960000D03*
%TD*%
D10*
%TO.P,D4,1,K*%
%TO.N,Net-(D4-K)*%
X71500000Y-87500000D03*
D11*
%TO.P,D4,2,A*%
%TO.N,Net-(D4-A)*%
X71500000Y-84960000D03*
%TD*%
D10*
%TO.P,D3,1,K*%
%TO.N,Net-(D3-K)*%
X74500000Y-87500000D03*
D11*
%TO.P,D3,2,A*%
%TO.N,Net-(D3-A)*%
X74500000Y-84960000D03*
%TD*%
D10*
%TO.P,D14,1,K*%
%TO.N,Net-(D14-K)*%
X65500000Y-68750000D03*
D11*
%TO.P,D14,2,A*%
%TO.N,Net-(D14-A)*%
X65500000Y-71290000D03*
%TD*%
D10*
%TO.P,D8,1,K*%
%TO.N,Net-(D8-K)*%
X59500000Y-87500000D03*
D11*
%TO.P,D8,2,A*%
%TO.N,Net-(D8-A)*%
X59500000Y-84960000D03*
%TD*%
D10*
%TO.P,D7,1,K*%
%TO.N,Net-(D7-K)*%
X62500000Y-87500000D03*
D11*
%TO.P,D7,2,A*%
%TO.N,Net-(D7-A)*%
X62500000Y-84960000D03*
%TD*%
D18*
%TO.N,Net-(D8-A)*%
X60731400Y-65360600D02*
X61110000Y-64982000D01*
X61110000Y-64982000D02*
X61110000Y-57540000D01*
X60731400Y-71792426D02*
X60731400Y-65360600D01*
X59934000Y-72589826D02*
X60731400Y-71792426D01*
X59934000Y-78094000D02*
X59934000Y-72589826D01*
X61110000Y-79270000D02*
X59934000Y-78094000D01*
X60726000Y-86186000D02*
X59500000Y-84960000D01*
X60726000Y-88815810D02*
X60726000Y-86186000D01*
X59934000Y-94040800D02*
X61037495Y-92937305D01*
X59934000Y-99824000D02*
X59934000Y-94040800D01*
X61037495Y-92937305D02*
X61037495Y-89127305D01*
X61110000Y-101000000D02*
X59934000Y-99824000D01*
X61037495Y-89127305D02*
X60726000Y-88815810D01*
%TO.N,Net-(D7-A)*%
X61274000Y-71797826D02*
X61274000Y-66698405D01*
X61274000Y-66698405D02*
X63650000Y-64322405D01*
X63650000Y-64322405D02*
X63650000Y-57540000D01*
X62474000Y-72997826D02*
X61274000Y-71797826D01*
X62474000Y-78094000D02*
X62474000Y-72997826D01*
X63650000Y-79270000D02*
X62474000Y-78094000D01*
X61274000Y-86186000D02*
X62500000Y-84960000D01*
X63506000Y-90958000D02*
X61274000Y-88726000D01*
X63506000Y-92466405D02*
X63506000Y-90958000D01*
X62474000Y-93498405D02*
X63506000Y-92466405D01*
X61274000Y-88726000D02*
X61274000Y-86186000D01*
X62474000Y-99824000D02*
X62474000Y-93498405D01*
X63650000Y-101000000D02*
X62474000Y-99824000D01*
%TO.N,Net-(D6-A)*%
X66190000Y-64322405D02*
X66190000Y-57540000D01*
X64274000Y-66238405D02*
X66190000Y-64322405D01*
X64274000Y-71797826D02*
X64274000Y-66238405D01*
X65014000Y-72537826D02*
X64274000Y-71797826D01*
X65014000Y-78094000D02*
X65014000Y-72537826D01*
X66190000Y-79270000D02*
X65014000Y-78094000D01*
X64274000Y-88726000D02*
X64274000Y-86186000D01*
X64274000Y-86186000D02*
X65500000Y-84960000D01*
X65014000Y-93498405D02*
X66046000Y-92466405D01*
X66046000Y-90498000D02*
X64274000Y-88726000D01*
X65014000Y-99824000D02*
X65014000Y-93498405D01*
X66190000Y-101000000D02*
X65014000Y-99824000D01*
X66046000Y-92466405D02*
X66046000Y-90498000D01*
%TO.N,Net-(D5-A)*%
X68730000Y-64322405D02*
X68730000Y-57540000D01*
X67554000Y-72077826D02*
X67274000Y-71797826D01*
X67274000Y-65778405D02*
X68730000Y-64322405D01*
X68730000Y-79270000D02*
X67554000Y-78094000D01*
X67554000Y-78094000D02*
X67554000Y-72077826D01*
X67274000Y-71797826D02*
X67274000Y-65778405D01*
X67274000Y-88726000D02*
X67274000Y-86186000D01*
X67274000Y-86186000D02*
X68500000Y-84960000D01*
X68874000Y-90326000D02*
X67274000Y-88726000D01*
X68874000Y-92466405D02*
X68874000Y-90326000D01*
X67554000Y-93786405D02*
X68874000Y-92466405D01*
X67554000Y-99824000D02*
X67554000Y-93786405D01*
X68730000Y-101000000D02*
X67554000Y-99824000D01*
%TO.N,Net-(D4-A)*%
X70094000Y-65786405D02*
X71270000Y-64610405D01*
X71270000Y-64610405D02*
X71270000Y-57540000D01*
X70094000Y-78094000D02*
X70094000Y-65786405D01*
X71270000Y-79270000D02*
X70094000Y-78094000D01*
X70274000Y-86186000D02*
X71500000Y-84960000D01*
X70274000Y-88726000D02*
X70274000Y-86186000D01*
X71126000Y-92577000D02*
X71126000Y-89578000D01*
X70094000Y-93609000D02*
X71126000Y-92577000D01*
X70094000Y-99824000D02*
X70094000Y-93609000D01*
X71126000Y-89578000D02*
X70274000Y-88726000D01*
X71270000Y-101000000D02*
X70094000Y-99824000D01*
%TO.N,Net-(D3-A)*%
X73274000Y-65146405D02*
X73810000Y-64610405D01*
X73810000Y-64610405D02*
X73810000Y-57540000D01*
X73274000Y-71249826D02*
X73274000Y-65146405D01*
X72634000Y-71889826D02*
X73274000Y-71249826D01*
X72634000Y-78094000D02*
X72634000Y-71889826D01*
X73810000Y-79270000D02*
X72634000Y-78094000D01*
X73274000Y-88726000D02*
X73274000Y-86186000D01*
X73274000Y-86186000D02*
X74500000Y-84960000D01*
X72634000Y-97972884D02*
X73666000Y-96940884D01*
X73666000Y-96940884D02*
X73666000Y-89118000D01*
X72634000Y-99824000D02*
X72634000Y-97972884D01*
X73810000Y-101000000D02*
X72634000Y-99824000D01*
X73666000Y-89118000D02*
X73274000Y-88726000D01*
%TO.N,Net-(D2-A)*%
X76274000Y-71249826D02*
X76274000Y-57616000D01*
X75174000Y-78094000D02*
X75174000Y-72349826D01*
X75174000Y-72349826D02*
X76274000Y-71249826D01*
X76274000Y-57616000D02*
X76350000Y-57540000D01*
X76350000Y-79270000D02*
X75174000Y-78094000D01*
X76274000Y-96872884D02*
X76274000Y-86186000D01*
X75174000Y-97972884D02*
X76274000Y-96872884D01*
X75174000Y-99824000D02*
X75174000Y-97972884D01*
X76274000Y-86186000D02*
X77500000Y-84960000D01*
X76350000Y-101000000D02*
X75174000Y-99824000D01*
%TO.N,Net-(D1-A)*%
X78890000Y-71633826D02*
X78890000Y-57540000D01*
X77714000Y-72809826D02*
X78890000Y-71633826D01*
X77714000Y-78094000D02*
X77714000Y-72809826D01*
X78890000Y-79270000D02*
X77714000Y-78094000D01*
X79034000Y-86426000D02*
X80500000Y-84960000D01*
X79034000Y-92178405D02*
X79034000Y-86426000D01*
X77714000Y-99824000D02*
X77714000Y-93498405D01*
X78890000Y-101000000D02*
X77714000Y-99824000D01*
X77714000Y-93498405D02*
X79034000Y-92178405D01*
%TD*%
%TA.AperFunction,Conductor*%
%TO.N,GND*%
G36*
X85952539Y-50520185D02*
G01*
X85998294Y-50572989D01*
X86009500Y-50624500D01*
X86009500Y-105375500D01*
X85989815Y-105442539D01*
X85937011Y-105488294D01*
X85885500Y-105499500D01*
X54114500Y-105499500D01*
X54047461Y-105479815D01*
X54001706Y-105427011D01*
X53990500Y-105375500D01*
X53990500Y-84869448D01*
X58349500Y-84869448D01*
X58349500Y-85050551D01*
X58377829Y-85229410D01*
X58433787Y-85401636D01*
X58433788Y-85401639D01*
X58516006Y-85562997D01*
X58622441Y-85709494D01*
X58622445Y-85709499D01*
X58750500Y-85837554D01*
X58750505Y-85837558D01*
X58816527Y-85885525D01*
X58897006Y-85943996D01*
X58996398Y-85994639D01*
X59058360Y-86026211D01*
X59058363Y-86026212D01*
X59104059Y-86041059D01*
X59230591Y-86082171D01*
X59297769Y-86092811D01*
X59362267Y-86103027D01*
X59425402Y-86132956D01*
X59462333Y-86192268D01*
X59461335Y-86262131D01*
X59422725Y-86320363D01*
X59358761Y-86348477D01*
X59342869Y-86349500D01*
X58575323Y-86349500D01*
X58502264Y-86364032D01*
X58502260Y-86364033D01*
X58419399Y-86419399D01*
X58364033Y-86502260D01*
X58364032Y-86502264D01*
X58349500Y-86575321D01*
X58349500Y-88424678D01*
X58364032Y-88497735D01*
X58364033Y-88497739D01*
X58364034Y-88497740D01*
X58419399Y-88580601D01*
X58497682Y-88632907D01*
X58502260Y-88635966D01*
X58502264Y-88635967D01*
X58575321Y-88650499D01*
X58575324Y-88650500D01*
X58575326Y-88650500D01*
X60226500Y-88650500D01*
X60230244Y-88651599D01*
X60234050Y-88650730D01*
X60263501Y-88661365D01*
X60293539Y-88670185D01*
X60296094Y-88673134D01*
X60299766Y-88674460D01*
X60318794Y-88699331D01*
X60339294Y-88722989D01*
X60340535Y-88727747D01*
X60342221Y-88729951D01*
X60344973Y-88744762D01*
X60350085Y-88764358D01*
X60350500Y-88769415D01*
X60350500Y-88865246D01*
X60358940Y-88896742D01*
X60376090Y-88960748D01*
X60376091Y-88960749D01*
X60376091Y-88960750D01*
X60425526Y-89046373D01*
X60625676Y-89246523D01*
X60659161Y-89307846D01*
X60661995Y-89334204D01*
X60661995Y-90576000D01*
X60642310Y-90643039D01*
X60589506Y-90688794D01*
X60537995Y-90700000D01*
X60090000Y-90700000D01*
X60090000Y-91684314D01*
X60085606Y-91679920D01*
X59994394Y-91627259D01*
X59892661Y-91600000D01*
X59787339Y-91600000D01*
X59685606Y-91627259D01*
X59594394Y-91679920D01*
X59590000Y-91684314D01*
X59590000Y-90700000D01*
X58992155Y-90700000D01*
X58932627Y-90706401D01*
X58932620Y-90706403D01*
X58797913Y-90756645D01*
X58797906Y-90756649D01*
X58682812Y-90842809D01*
X58682809Y-90842812D01*
X58596649Y-90957906D01*
X58596645Y-90957913D01*
X58546403Y-91092620D01*
X58546401Y-91092627D01*
X58540000Y-91152155D01*
X58540000Y-91750000D01*
X59524314Y-91750000D01*
X59519920Y-91754394D01*
X59467259Y-91845606D01*
X59440000Y-91947339D01*
X59440000Y-92052661D01*
X59467259Y-92154394D01*
X59519920Y-92245606D01*
X59524314Y-92250000D01*
X58540000Y-92250000D01*
X58540000Y-92847844D01*
X58546401Y-92907372D01*
X58546403Y-92907379D01*
X58596645Y-93042086D01*
X58596649Y-93042093D01*
X58682809Y-93157187D01*
X58682812Y-93157190D01*
X58797906Y-93243350D01*
X58797913Y-93243354D01*
X58932620Y-93293596D01*
X58932627Y-93293598D01*
X58992155Y-93299999D01*
X58992172Y-93300000D01*
X59590000Y-93300000D01*
X59590000Y-92315686D01*
X59594394Y-92320080D01*
X59685606Y-92372741D01*
X59787339Y-92400000D01*
X59892661Y-92400000D01*
X59994394Y-92372741D01*
X60085606Y-92320080D01*
X60090000Y-92315686D01*
X60090000Y-93302401D01*
X60070315Y-93369440D01*
X60053681Y-93390082D01*
X59633526Y-93810236D01*
X59584091Y-93895859D01*
X59584091Y-93895860D01*
X59584090Y-93895862D01*
X59558500Y-93991365D01*
X59558500Y-99873435D01*
X59584090Y-99968938D01*
X59584091Y-99968939D01*
X59584091Y-99968940D01*
X59633526Y-100054563D01*
X60052677Y-100473714D01*
X60086162Y-100535037D01*
X60082927Y-100599713D01*
X60036597Y-100742301D01*
X60009500Y-100913389D01*
X60009500Y-101086611D01*
X60036598Y-101257701D01*
X60090127Y-101422445D01*
X60168768Y-101576788D01*
X60270586Y-101716928D01*
X60393072Y-101839414D01*
X60533212Y-101941232D01*
X60687555Y-102019873D01*
X60852299Y-102073402D01*
X61023389Y-102100500D01*
X61023390Y-102100500D01*
X61196610Y-102100500D01*
X61196611Y-102100500D01*
X61367701Y-102073402D01*
X61532445Y-102019873D01*
X61686788Y-101941232D01*
X61826928Y-101839414D01*
X61949414Y-101716928D01*
X62051232Y-101576788D01*
X62129873Y-101422445D01*
X62183402Y-101257701D01*
X62210500Y-101086611D01*
X62210500Y-100913389D01*
X62183402Y-100742299D01*
X62129873Y-100577555D01*
X62051232Y-100423212D01*
X61949414Y-100283072D01*
X61826928Y-100160586D01*
X61686788Y-100058768D01*
X61532445Y-99980127D01*
X61367701Y-99926598D01*
X61367699Y-99926597D01*
X61367698Y-99926597D01*
X61236271Y-99905781D01*
X61196611Y-99899500D01*
X61023389Y-99899500D01*
X60991192Y-99904599D01*
X60852301Y-99926597D01*
X60709713Y-99972927D01*
X60639872Y-99974922D01*
X60583714Y-99942677D01*
X60345819Y-99704782D01*
X60331115Y-99677854D01*
X60314523Y-99652036D01*
X60313631Y-99645835D01*
X60312334Y-99643459D01*
X60309500Y-99617101D01*
X60309500Y-99482059D01*
X60329185Y-99415020D01*
X60381989Y-99369265D01*
X60451147Y-99359321D01*
X60506385Y-99381741D01*
X60519502Y-99391271D01*
X60533210Y-99401231D01*
X60533212Y-99401232D01*
X60687555Y-99479873D01*
X60852299Y-99533402D01*
X61023389Y-99560500D01*
X61023390Y-99560500D01*
X61196610Y-99560500D01*
X61196611Y-99560500D01*
X61367701Y-99533402D01*
X61532445Y-99479873D01*
X61686788Y-99401232D01*
X61826928Y-99299414D01*
X61886819Y-99239523D01*
X61948142Y-99206038D01*
X62017834Y-99211022D01*
X62073767Y-99252894D01*
X62098184Y-99318358D01*
X62098500Y-99327204D01*
X62098500Y-99873435D01*
X62124090Y-99968938D01*
X62124091Y-99968939D01*
X62124091Y-99968940D01*
X62173526Y-100054563D01*
X62592677Y-100473714D01*
X62626162Y-100535037D01*
X62622927Y-100599713D01*
X62576597Y-100742301D01*
X62549500Y-100913389D01*
X62549500Y-101086611D01*
X62576598Y-101257701D01*
X62630127Y-101422445D01*
X62708768Y-101576788D01*
X62810586Y-101716928D01*
X62933072Y-101839414D01*
X63073212Y-101941232D01*
X63227555Y-102019873D01*
X63392299Y-102073402D01*
X63563389Y-102100500D01*
X63563390Y-102100500D01*
X63736610Y-102100500D01*
X63736611Y-102100500D01*
X63907701Y-102073402D01*
X64072445Y-102019873D01*
X64226788Y-101941232D01*
X64366928Y-101839414D01*
X64489414Y-101716928D01*
X64591232Y-101576788D01*
X64669873Y-101422445D01*
X64723402Y-101257701D01*
X64750500Y-101086611D01*
X64750500Y-100913389D01*
X64723402Y-100742299D01*
X64669873Y-100577555D01*
X64591232Y-100423212D01*
X64489414Y-100283072D01*
X64366928Y-100160586D01*
X64226788Y-100058768D01*
X64072445Y-99980127D01*
X63907701Y-99926598D01*
X63907699Y-99926597D01*
X63907698Y-99926597D01*
X63776271Y-99905781D01*
X63736611Y-99899500D01*
X63563389Y-99899500D01*
X63531192Y-99904599D01*
X63392301Y-99926597D01*
X63249713Y-99972927D01*
X63179872Y-99974922D01*
X63123714Y-99942677D01*
X62885819Y-99704782D01*
X62871115Y-99677854D01*
X62854523Y-99652036D01*
X62853631Y-99645835D01*
X62852334Y-99643459D01*
X62849500Y-99617101D01*
X62849500Y-99482059D01*
X62869185Y-99415020D01*
X62921989Y-99369265D01*
X62991147Y-99359321D01*
X63046385Y-99381741D01*
X63059502Y-99391271D01*
X63073210Y-99401231D01*
X63073212Y-99401232D01*
X63227555Y-99479873D01*
X63392299Y-99533402D01*
X63563389Y-99560500D01*
X63563390Y-99560500D01*
X63736610Y-99560500D01*
X63736611Y-99560500D01*
X63907701Y-99533402D01*
X64072445Y-99479873D01*
X64226788Y-99401232D01*
X64366928Y-99299414D01*
X64426819Y-99239523D01*
X64488142Y-99206038D01*
X64557834Y-99211022D01*
X64613767Y-99252894D01*
X64638184Y-99318358D01*
X64638500Y-99327204D01*
X64638500Y-99873435D01*
X64664090Y-99968938D01*
X64664091Y-99968939D01*
X64664091Y-99968940D01*
X64713526Y-100054563D01*
X65132677Y-100473714D01*
X65166162Y-100535037D01*
X65162927Y-100599713D01*
X65116597Y-100742301D01*
X65089500Y-100913389D01*
X65089500Y-101086611D01*
X65116598Y-101257701D01*
X65170127Y-101422445D01*
X65248768Y-101576788D01*
X65350586Y-101716928D01*
X65473072Y-101839414D01*
X65613212Y-101941232D01*
X65767555Y-102019873D01*
X65932299Y-102073402D01*
X66103389Y-102100500D01*
X66103390Y-102100500D01*
X66276610Y-102100500D01*
X66276611Y-102100500D01*
X66447701Y-102073402D01*
X66612445Y-102019873D01*
X66766788Y-101941232D01*
X66906928Y-101839414D01*
X67029414Y-101716928D01*
X67131232Y-101576788D01*
X67209873Y-101422445D01*
X67263402Y-101257701D01*
X67290500Y-101086611D01*
X67290500Y-100913389D01*
X67263402Y-100742299D01*
X67209873Y-100577555D01*
X67131232Y-100423212D01*
X67029414Y-100283072D01*
X66906928Y-100160586D01*
X66766788Y-100058768D01*
X66612445Y-99980127D01*
X66447701Y-99926598D01*
X66447699Y-99926597D01*
X66447698Y-99926597D01*
X66316271Y-99905781D01*
X66276611Y-99899500D01*
X66103389Y-99899500D01*
X66071192Y-99904599D01*
X65932301Y-99926597D01*
X65789713Y-99972927D01*
X65719872Y-99974922D01*
X65663714Y-99942677D01*
X65425819Y-99704782D01*
X65411115Y-99677854D01*
X65394523Y-99652036D01*
X65393631Y-99645835D01*
X65392334Y-99643459D01*
X65389500Y-99617101D01*
X65389500Y-99482059D01*
X65409185Y-99415020D01*
X65461989Y-99369265D01*
X65531147Y-99359321D01*
X65586385Y-99381741D01*
X65599502Y-99391271D01*
X65613210Y-99401231D01*
X65613212Y-99401232D01*
X65767555Y-99479873D01*
X65932299Y-99533402D01*
X66103389Y-99560500D01*
X66103390Y-99560500D01*
X66276610Y-99560500D01*
X66276611Y-99560500D01*
X66447701Y-99533402D01*
X66612445Y-99479873D01*
X66766788Y-99401232D01*
X66906928Y-99299414D01*
X66966819Y-99239523D01*
X67028142Y-99206038D01*
X67097834Y-99211022D01*
X67153767Y-99252894D01*
X67178184Y-99318358D01*
X67178500Y-99327204D01*
X67178500Y-99873435D01*
X67204090Y-99968938D01*
X67204091Y-99968939D01*
X67204091Y-99968940D01*
X67253526Y-100054563D01*
X67672677Y-100473714D01*
X67706162Y-100535037D01*
X67702927Y-100599713D01*
X67656597Y-100742301D01*
X67629500Y-100913389D01*
X67629500Y-101086611D01*
X67656598Y-101257701D01*
X67710127Y-101422445D01*
X67788768Y-101576788D01*
X67890586Y-101716928D01*
X68013072Y-101839414D01*
X68153212Y-101941232D01*
X68307555Y-102019873D01*
X68472299Y-102073402D01*
X68643389Y-102100500D01*
X68643390Y-102100500D01*
X68816610Y-102100500D01*
X68816611Y-102100500D01*
X68987701Y-102073402D01*
X69152445Y-102019873D01*
X69306788Y-101941232D01*
X69446928Y-101839414D01*
X69569414Y-101716928D01*
X69671232Y-101576788D01*
X69749873Y-101422445D01*
X69803402Y-101257701D01*
X69830500Y-101086611D01*
X69830500Y-100913389D01*
X69803402Y-100742299D01*
X69749873Y-100577555D01*
X69671232Y-100423212D01*
X69569414Y-100283072D01*
X69446928Y-100160586D01*
X69306788Y-100058768D01*
X69152445Y-99980127D01*
X68987701Y-99926598D01*
X68987699Y-99926597D01*
X68987698Y-99926597D01*
X68856271Y-99905781D01*
X68816611Y-99899500D01*
X68643389Y-99899500D01*
X68611192Y-99904599D01*
X68472301Y-99926597D01*
X68329713Y-99972927D01*
X68259872Y-99974922D01*
X68203714Y-99942677D01*
X67965819Y-99704782D01*
X67951115Y-99677854D01*
X67934523Y-99652036D01*
X67933631Y-99645835D01*
X67932334Y-99643459D01*
X67929500Y-99617101D01*
X67929500Y-99482059D01*
X67949185Y-99415020D01*
X68001989Y-99369265D01*
X68071147Y-99359321D01*
X68126385Y-99381741D01*
X68139502Y-99391271D01*
X68153210Y-99401231D01*
X68153212Y-99401232D01*
X68307555Y-99479873D01*
X68472299Y-99533402D01*
X68643389Y-99560500D01*
X68643390Y-99560500D01*
X68816610Y-99560500D01*
X68816611Y-99560500D01*
X68987701Y-99533402D01*
X69152445Y-99479873D01*
X69306788Y-99401232D01*
X69446928Y-99299414D01*
X69506819Y-99239523D01*
X69568142Y-99206038D01*
X69637834Y-99211022D01*
X69693767Y-99252894D01*
X69718184Y-99318358D01*
X69718500Y-99327204D01*
X69718500Y-99873435D01*
X69744090Y-99968938D01*
X69744091Y-99968939D01*
X69744091Y-99968940D01*
X69793526Y-100054563D01*
X70212677Y-100473714D01*
X70246162Y-100535037D01*
X70242927Y-100599713D01*
X70196597Y-100742301D01*
X70169500Y-100913389D01*
X70169500Y-101086611D01*
X70196598Y-101257701D01*
X70250127Y-101422445D01*
X70328768Y-101576788D01*
X70430586Y-101716928D01*
X70553072Y-101839414D01*
X70693212Y-101941232D01*
X70847555Y-102019873D01*
X71012299Y-102073402D01*
X71183389Y-102100500D01*
X71183390Y-102100500D01*
X71356610Y-102100500D01*
X71356611Y-102100500D01*
X71527701Y-102073402D01*
X71692445Y-102019873D01*
X71846788Y-101941232D01*
X71986928Y-101839414D01*
X72109414Y-101716928D01*
X72211232Y-101576788D01*
X72289873Y-101422445D01*
X72343402Y-101257701D01*
X72370500Y-101086611D01*
X72370500Y-100913389D01*
X72343402Y-100742299D01*
X72289873Y-100577555D01*
X72211232Y-100423212D01*
X72109414Y-100283072D01*
X71986928Y-100160586D01*
X71846788Y-100058768D01*
X71692445Y-99980127D01*
X71527701Y-99926598D01*
X71527699Y-99926597D01*
X71527698Y-99926597D01*
X71396271Y-99905781D01*
X71356611Y-99899500D01*
X71183389Y-99899500D01*
X71151192Y-99904599D01*
X71012301Y-99926597D01*
X70869713Y-99972927D01*
X70799872Y-99974922D01*
X70743714Y-99942677D01*
X70505819Y-99704782D01*
X70491115Y-99677854D01*
X70474523Y-99652036D01*
X70473631Y-99645835D01*
X70472334Y-99643459D01*
X70469500Y-99617101D01*
X70469500Y-99482059D01*
X70489185Y-99415020D01*
X70541989Y-99369265D01*
X70611147Y-99359321D01*
X70666385Y-99381741D01*
X70679502Y-99391271D01*
X70693210Y-99401231D01*
X70693212Y-99401232D01*
X70847555Y-99479873D01*
X71012299Y-99533402D01*
X71183389Y-99560500D01*
X71183390Y-99560500D01*
X71356610Y-99560500D01*
X71356611Y-99560500D01*
X71527701Y-99533402D01*
X71692445Y-99479873D01*
X71846788Y-99401232D01*
X71986928Y-99299414D01*
X72046819Y-99239523D01*
X72108142Y-99206038D01*
X72177834Y-99211022D01*
X72233767Y-99252894D01*
X72258184Y-99318358D01*
X72258500Y-99327204D01*
X72258500Y-99873435D01*
X72284090Y-99968938D01*
X72284091Y-99968939D01*
X72284091Y-99968940D01*
X72333526Y-100054563D01*
X72752677Y-100473714D01*
X72786162Y-100535037D01*
X72782927Y-100599713D01*
X72736597Y-100742301D01*
X72709500Y-100913389D01*
X72709500Y-101086611D01*
X72736598Y-101257701D01*
X72790127Y-101422445D01*
X72868768Y-101576788D01*
X72970586Y-101716928D01*
X73093072Y-101839414D01*
X73233212Y-101941232D01*
X73387555Y-102019873D01*
X73552299Y-102073402D01*
X73723389Y-102100500D01*
X73723390Y-102100500D01*
X73896610Y-102100500D01*
X73896611Y-102100500D01*
X74067701Y-102073402D01*
X74232445Y-102019873D01*
X74386788Y-101941232D01*
X74526928Y-101839414D01*
X74649414Y-101716928D01*
X74751232Y-101576788D01*
X74829873Y-101422445D01*
X74883402Y-101257701D01*
X74910500Y-101086611D01*
X74910500Y-100913389D01*
X74883402Y-100742299D01*
X74829873Y-100577555D01*
X74751232Y-100423212D01*
X74649414Y-100283072D01*
X74526928Y-100160586D01*
X74386788Y-100058768D01*
X74232445Y-99980127D01*
X74067701Y-99926598D01*
X74067699Y-99926597D01*
X74067698Y-99926597D01*
X73936271Y-99905781D01*
X73896611Y-99899500D01*
X73723389Y-99899500D01*
X73691192Y-99904599D01*
X73552301Y-99926597D01*
X73409713Y-99972927D01*
X73339872Y-99974922D01*
X73283714Y-99942677D01*
X73045819Y-99704782D01*
X73031115Y-99677854D01*
X73014523Y-99652036D01*
X73013631Y-99645835D01*
X73012334Y-99643459D01*
X73009500Y-99617101D01*
X73009500Y-99482059D01*
X73029185Y-99415020D01*
X73081989Y-99369265D01*
X73151147Y-99359321D01*
X73206385Y-99381741D01*
X73219502Y-99391271D01*
X73233210Y-99401231D01*
X73233212Y-99401232D01*
X73387555Y-99479873D01*
X73552299Y-99533402D01*
X73723389Y-99560500D01*
X73723390Y-99560500D01*
X73896610Y-99560500D01*
X73896611Y-99560500D01*
X74067701Y-99533402D01*
X74232445Y-99479873D01*
X74386788Y-99401232D01*
X74526928Y-99299414D01*
X74586819Y-99239523D01*
X74648142Y-99206038D01*
X74717834Y-99211022D01*
X74773767Y-99252894D01*
X74798184Y-99318358D01*
X74798500Y-99327204D01*
X74798500Y-99873435D01*
X74824090Y-99968938D01*
X74824091Y-99968939D01*
X74824091Y-99968940D01*
X74873526Y-100054563D01*
X75292677Y-100473714D01*
X75326162Y-100535037D01*
X75322927Y-100599713D01*
X75276597Y-100742301D01*
X75249500Y-100913389D01*
X75249500Y-101086611D01*
X75276598Y-101257701D01*
X75330127Y-101422445D01*
X75408768Y-101576788D01*
X75510586Y-101716928D01*
X75633072Y-101839414D01*
X75773212Y-101941232D01*
X75927555Y-102019873D01*
X76092299Y-102073402D01*
X76263389Y-102100500D01*
X76263390Y-102100500D01*
X76436610Y-102100500D01*
X76436611Y-102100500D01*
X76607701Y-102073402D01*
X76772445Y-102019873D01*
X76926788Y-101941232D01*
X77066928Y-101839414D01*
X77189414Y-101716928D01*
X77291232Y-101576788D01*
X77369873Y-101422445D01*
X77423402Y-101257701D01*
X77450500Y-101086611D01*
X77450500Y-100913389D01*
X77423402Y-100742299D01*
X77369873Y-100577555D01*
X77291232Y-100423212D01*
X77189414Y-100283072D01*
X77066928Y-100160586D01*
X76926788Y-100058768D01*
X76772445Y-99980127D01*
X76607701Y-99926598D01*
X76607699Y-99926597D01*
X76607698Y-99926597D01*
X76476271Y-99905781D01*
X76436611Y-99899500D01*
X76263389Y-99899500D01*
X76231192Y-99904599D01*
X76092301Y-99926597D01*
X75949713Y-99972927D01*
X75879872Y-99974922D01*
X75823714Y-99942677D01*
X75585819Y-99704782D01*
X75571115Y-99677854D01*
X75554523Y-99652036D01*
X75553631Y-99645835D01*
X75552334Y-99643459D01*
X75549500Y-99617101D01*
X75549500Y-99482059D01*
X75569185Y-99415020D01*
X75621989Y-99369265D01*
X75691147Y-99359321D01*
X75746385Y-99381741D01*
X75759502Y-99391271D01*
X75773210Y-99401231D01*
X75773212Y-99401232D01*
X75927555Y-99479873D01*
X76092299Y-99533402D01*
X76263389Y-99560500D01*
X76263390Y-99560500D01*
X76436610Y-99560500D01*
X76436611Y-99560500D01*
X76607701Y-99533402D01*
X76772445Y-99479873D01*
X76926788Y-99401232D01*
X77066928Y-99299414D01*
X77126819Y-99239523D01*
X77188142Y-99206038D01*
X77257834Y-99211022D01*
X77313767Y-99252894D01*
X77338184Y-99318358D01*
X77338500Y-99327204D01*
X77338500Y-99873435D01*
X77364090Y-99968938D01*
X77364091Y-99968939D01*
X77364091Y-99968940D01*
X77413526Y-100054563D01*
X77832677Y-100473714D01*
X77866162Y-100535037D01*
X77862927Y-100599713D01*
X77816597Y-100742301D01*
X77789500Y-100913389D01*
X77789500Y-101086611D01*
X77816598Y-101257701D01*
X77870127Y-101422445D01*
X77948768Y-101576788D01*
X78050586Y-101716928D01*
X78173072Y-101839414D01*
X78313212Y-101941232D01*
X78467555Y-102019873D01*
X78632299Y-102073402D01*
X78803389Y-102100500D01*
X78803390Y-102100500D01*
X78976610Y-102100500D01*
X78976611Y-102100500D01*
X79147701Y-102073402D01*
X79312445Y-102019873D01*
X79466788Y-101941232D01*
X79606928Y-101839414D01*
X79729414Y-101716928D01*
X79831232Y-101576788D01*
X79909873Y-101422445D01*
X79963402Y-101257701D01*
X79990500Y-101086611D01*
X79990500Y-100913389D01*
X79963402Y-100742299D01*
X79909873Y-100577555D01*
X79831232Y-100423212D01*
X79729414Y-100283072D01*
X79606928Y-100160586D01*
X79466788Y-100058768D01*
X79312445Y-99980127D01*
X79147701Y-99926598D01*
X79147699Y-99926597D01*
X79147698Y-99926597D01*
X79016271Y-99905781D01*
X78976611Y-99899500D01*
X78803389Y-99899500D01*
X78771192Y-99904599D01*
X78632301Y-99926597D01*
X78489713Y-99972927D01*
X78419872Y-99974922D01*
X78363714Y-99942677D01*
X78193217Y-99772180D01*
X78159732Y-99710857D01*
X78164716Y-99641165D01*
X78206588Y-99585232D01*
X78272052Y-99560815D01*
X78280870Y-99560499D01*
X79537872Y-99560499D01*
X79597483Y-99554091D01*
X79732331Y-99503796D01*
X79847546Y-99417546D01*
X79933796Y-99302331D01*
X79984091Y-99167483D01*
X79990500Y-99107873D01*
X79990499Y-97812128D01*
X79984091Y-97752517D01*
X79980569Y-97743075D01*
X79933797Y-97617671D01*
X79933793Y-97617664D01*
X79847547Y-97502455D01*
X79847544Y-97502452D01*
X79732335Y-97416206D01*
X79732328Y-97416202D01*
X79597482Y-97365908D01*
X79597483Y-97365908D01*
X79537883Y-97359501D01*
X79537881Y-97359500D01*
X79537873Y-97359500D01*
X79537864Y-97359500D01*
X78242129Y-97359500D01*
X78242113Y-97359501D01*
X78226749Y-97361153D01*
X78157990Y-97348744D01*
X78106855Y-97301132D01*
X78089500Y-97237863D01*
X78089500Y-93705303D01*
X78109185Y-93638264D01*
X78125814Y-93617626D01*
X79128943Y-92614497D01*
X79190264Y-92581014D01*
X79259956Y-92585998D01*
X79315889Y-92627870D01*
X79319724Y-92633289D01*
X79344024Y-92669657D01*
X79490342Y-92815975D01*
X79490345Y-92815977D01*
X79662402Y-92930941D01*
X79853580Y-93010130D01*
X80056530Y-93050499D01*
X80056534Y-93050500D01*
X80056535Y-93050500D01*
X80263466Y-93050500D01*
X80263467Y-93050499D01*
X80466420Y-93010130D01*
X80657598Y-92930941D01*
X80829655Y-92815977D01*
X80975977Y-92669655D01*
X81090941Y-92497598D01*
X81170130Y-92306420D01*
X81210500Y-92103465D01*
X81210500Y-91896535D01*
X81170130Y-91693580D01*
X81090941Y-91502402D01*
X80975977Y-91330345D01*
X80975975Y-91330342D01*
X80829657Y-91184024D01*
X80731636Y-91118529D01*
X80657598Y-91069059D01*
X80634687Y-91059569D01*
X80466420Y-90989870D01*
X80466412Y-90989868D01*
X80263469Y-90949500D01*
X80263465Y-90949500D01*
X80056535Y-90949500D01*
X80056530Y-90949500D01*
X79853587Y-90989868D01*
X79853579Y-90989870D01*
X79662403Y-91069058D01*
X79602390Y-91109157D01*
X79535712Y-91130034D01*
X79468332Y-91111549D01*
X79421642Y-91059569D01*
X79409500Y-91006054D01*
X79409500Y-88768609D01*
X79429185Y-88701570D01*
X79481989Y-88655815D01*
X79551147Y-88645871D01*
X79557655Y-88646985D01*
X79575326Y-88650500D01*
X79575329Y-88650500D01*
X81424676Y-88650500D01*
X81424677Y-88650499D01*
X81497740Y-88635966D01*
X81580601Y-88580601D01*
X81635966Y-88497740D01*
X81650500Y-88424674D01*
X81650500Y-86575326D01*
X81650500Y-86575323D01*
X81650499Y-86575321D01*
X81635967Y-86502264D01*
X81635966Y-86502260D01*
X81580601Y-86419399D01*
X81509339Y-86371784D01*
X81497739Y-86364033D01*
X81497735Y-86364032D01*
X81424677Y-86349500D01*
X81424674Y-86349500D01*
X80657131Y-86349500D01*
X80590092Y-86329815D01*
X80544337Y-86277011D01*
X80534393Y-86207853D01*
X80563418Y-86144297D01*
X80622196Y-86106523D01*
X80637733Y-86103027D01*
X80695408Y-86093891D01*
X80769409Y-86082171D01*
X80941639Y-86026211D01*
X81102994Y-85943996D01*
X81249501Y-85837553D01*
X81377553Y-85709501D01*
X81483996Y-85562994D01*
X81566211Y-85401639D01*
X81622171Y-85229409D01*
X81636765Y-85137259D01*
X81650500Y-85050551D01*
X81650500Y-84869448D01*
X81634019Y-84765397D01*
X81622171Y-84690591D01*
X81566211Y-84518361D01*
X81566211Y-84518360D01*
X81537740Y-84462484D01*
X81483996Y-84357006D01*
X81470396Y-84338287D01*
X81377558Y-84210505D01*
X81377554Y-84210500D01*
X81249499Y-84082445D01*
X81249494Y-84082441D01*
X81102997Y-83976006D01*
X81102996Y-83976005D01*
X81102994Y-83976004D01*
X81051300Y-83949664D01*
X80941639Y-83893788D01*
X80941636Y-83893787D01*
X80769410Y-83837829D01*
X80590551Y-83809500D01*
X80590546Y-83809500D01*
X80409454Y-83809500D01*
X80409449Y-83809500D01*
X80230589Y-83837829D01*
X80058363Y-83893787D01*
X80058360Y-83893788D01*
X79897002Y-83976006D01*
X79750505Y-84082441D01*
X79750500Y-84082445D01*
X79622445Y-84210500D01*
X79622441Y-84210505D01*
X79516006Y-84357002D01*
X79433788Y-84518360D01*
X79433787Y-84518363D01*
X79377829Y-84690589D01*
X79349500Y-84869448D01*
X79349500Y-85050551D01*
X79377829Y-85229412D01*
X79433245Y-85399968D01*
X79435240Y-85469809D01*
X79402995Y-85525966D01*
X78803438Y-86125525D01*
X78733527Y-86195435D01*
X78733525Y-86195437D01*
X78733525Y-86195438D01*
X78726357Y-86207853D01*
X78684089Y-86281063D01*
X78684086Y-86281078D01*
X78681718Y-86289911D01*
X78645345Y-86349567D01*
X78582494Y-86380088D01*
X78513120Y-86371784D01*
X78502345Y-86365941D01*
X78497735Y-86364032D01*
X78424677Y-86349500D01*
X78424674Y-86349500D01*
X77657131Y-86349500D01*
X77590092Y-86329815D01*
X77544337Y-86277011D01*
X77534393Y-86207853D01*
X77563418Y-86144297D01*
X77622196Y-86106523D01*
X77637733Y-86103027D01*
X77695408Y-86093891D01*
X77769409Y-86082171D01*
X77941639Y-86026211D01*
X78102994Y-85943996D01*
X78249501Y-85837553D01*
X78377553Y-85709501D01*
X78483996Y-85562994D01*
X78566211Y-85401639D01*
X78622171Y-85229409D01*
X78636765Y-85137259D01*
X78650500Y-85050551D01*
X78650500Y-84869448D01*
X78634019Y-84765397D01*
X78622171Y-84690591D01*
X78566211Y-84518361D01*
X78566211Y-84518360D01*
X78537740Y-84462484D01*
X78483996Y-84357006D01*
X78470396Y-84338287D01*
X78377558Y-84210505D01*
X78377554Y-84210500D01*
X78249499Y-84082445D01*
X78249494Y-84082441D01*
X78102997Y-83976006D01*
X78102996Y-83976005D01*
X78102994Y-83976004D01*
X78051300Y-83949664D01*
X77941639Y-83893788D01*
X77941636Y-83893787D01*
X77769410Y-83837829D01*
X77590551Y-83809500D01*
X77590546Y-83809500D01*
X77409454Y-83809500D01*
X77409449Y-83809500D01*
X77230589Y-83837829D01*
X77058363Y-83893787D01*
X77058360Y-83893788D01*
X76897002Y-83976006D01*
X76750505Y-84082441D01*
X76750500Y-84082445D01*
X76622445Y-84210500D01*
X76622441Y-84210505D01*
X76516006Y-84357002D01*
X76433788Y-84518360D01*
X76433787Y-84518363D01*
X76377829Y-84690589D01*
X76349500Y-84869448D01*
X76349500Y-85050551D01*
X76377829Y-85229412D01*
X76433245Y-85399967D01*
X76435240Y-85469808D01*
X76402995Y-85525965D01*
X76043438Y-85885525D01*
X75973526Y-85955436D01*
X75924091Y-86041059D01*
X75924091Y-86041060D01*
X75924090Y-86041062D01*
X75898500Y-86136565D01*
X75898500Y-86136567D01*
X75898500Y-86569234D01*
X75878815Y-86636273D01*
X75826011Y-86682028D01*
X75756853Y-86691972D01*
X75693297Y-86662947D01*
X75655523Y-86604169D01*
X75651097Y-86581386D01*
X75650500Y-86575331D01*
X75650500Y-86575326D01*
X75635966Y-86502260D01*
X75580601Y-86419399D01*
X75509339Y-86371784D01*
X75497739Y-86364033D01*
X75497735Y-86364032D01*
X75424677Y-86349500D01*
X75424674Y-86349500D01*
X74657131Y-86349500D01*
X74590092Y-86329815D01*
X74544337Y-86277011D01*
X74534393Y-86207853D01*
X74563418Y-86144297D01*
X74622196Y-86106523D01*
X74637733Y-86103027D01*
X74695408Y-86093891D01*
X74769409Y-86082171D01*
X74941639Y-86026211D01*
X75102994Y-85943996D01*
X75249501Y-85837553D01*
X75377553Y-85709501D01*
X75483996Y-85562994D01*
X75566211Y-85401639D01*
X75622171Y-85229409D01*
X75636765Y-85137259D01*
X75650500Y-85050551D01*
X75650500Y-84869448D01*
X75634019Y-84765397D01*
X75622171Y-84690591D01*
X75566211Y-84518361D01*
X75566211Y-84518360D01*
X75537740Y-84462484D01*
X75483996Y-84357006D01*
X75470396Y-84338287D01*
X75377558Y-84210505D01*
X75377554Y-84210500D01*
X75249499Y-84082445D01*
X75249494Y-84082441D01*
X75102997Y-83976006D01*
X75102996Y-83976005D01*
X75102994Y-83976004D01*
X75051300Y-83949664D01*
X74941639Y-83893788D01*
X74941636Y-83893787D01*
X74769410Y-83837829D01*
X74590551Y-83809500D01*
X74590546Y-83809500D01*
X74409454Y-83809500D01*
X74409449Y-83809500D01*
X74230589Y-83837829D01*
X74058363Y-83893787D01*
X74058360Y-83893788D01*
X73897002Y-83976006D01*
X73750505Y-84082441D01*
X73750500Y-84082445D01*
X73622445Y-84210500D01*
X73622441Y-84210505D01*
X73516006Y-84357002D01*
X73433788Y-84518360D01*
X73433787Y-84518363D01*
X73377829Y-84690589D01*
X73349500Y-84869448D01*
X73349500Y-85050551D01*
X73377829Y-85229412D01*
X73433245Y-85399967D01*
X73435240Y-85469808D01*
X73402995Y-85525965D01*
X73043438Y-85885525D01*
X72973526Y-85955436D01*
X72924091Y-86041059D01*
X72924091Y-86041060D01*
X72924090Y-86041062D01*
X72898500Y-86136565D01*
X72898500Y-86136567D01*
X72898500Y-86569234D01*
X72878815Y-86636273D01*
X72826011Y-86682028D01*
X72756853Y-86691972D01*
X72693297Y-86662947D01*
X72655523Y-86604169D01*
X72651097Y-86581386D01*
X72650500Y-86575331D01*
X72650500Y-86575326D01*
X72635966Y-86502260D01*
X72580601Y-86419399D01*
X72509339Y-86371784D01*
X72497739Y-86364033D01*
X72497735Y-86364032D01*
X72424677Y-86349500D01*
X72424674Y-86349500D01*
X71657131Y-86349500D01*
X71590092Y-86329815D01*
X71544337Y-86277011D01*
X71534393Y-86207853D01*
X71563418Y-86144297D01*
X71622196Y-86106523D01*
X71637733Y-86103027D01*
X71695408Y-86093891D01*
X71769409Y-86082171D01*
X71941639Y-86026211D01*
X72102994Y-85943996D01*
X72249501Y-85837553D01*
X72377553Y-85709501D01*
X72483996Y-85562994D01*
X72566211Y-85401639D01*
X72622171Y-85229409D01*
X72636765Y-85137259D01*
X72650500Y-85050551D01*
X72650500Y-84869448D01*
X72634019Y-84765397D01*
X72622171Y-84690591D01*
X72566211Y-84518361D01*
X72566211Y-84518360D01*
X72537740Y-84462484D01*
X72483996Y-84357006D01*
X72470396Y-84338287D01*
X72377558Y-84210505D01*
X72377554Y-84210500D01*
X72249499Y-84082445D01*
X72249494Y-84082441D01*
X72102997Y-83976006D01*
X72102996Y-83976005D01*
X72102994Y-83976004D01*
X72051300Y-83949664D01*
X71941639Y-83893788D01*
X71941636Y-83893787D01*
X71769410Y-83837829D01*
X71590551Y-83809500D01*
X71590546Y-83809500D01*
X71409454Y-83809500D01*
X71409449Y-83809500D01*
X71230589Y-83837829D01*
X71058363Y-83893787D01*
X71058360Y-83893788D01*
X70897002Y-83976006D01*
X70750505Y-84082441D01*
X70750500Y-84082445D01*
X70622445Y-84210500D01*
X70622441Y-84210505D01*
X70516006Y-84357002D01*
X70433788Y-84518360D01*
X70433787Y-84518363D01*
X70377829Y-84690589D01*
X70349500Y-84869448D01*
X70349500Y-85050551D01*
X70377829Y-85229412D01*
X70433245Y-85399967D01*
X70435240Y-85469808D01*
X70402995Y-85525965D01*
X70043438Y-85885525D01*
X69973526Y-85955436D01*
X69924091Y-86041059D01*
X69924091Y-86041060D01*
X69924090Y-86041062D01*
X69898500Y-86136565D01*
X69898500Y-86136567D01*
X69898500Y-86569234D01*
X69878815Y-86636273D01*
X69826011Y-86682028D01*
X69756853Y-86691972D01*
X69693297Y-86662947D01*
X69655523Y-86604169D01*
X69651097Y-86581386D01*
X69650500Y-86575331D01*
X69650500Y-86575326D01*
X69635966Y-86502260D01*
X69580601Y-86419399D01*
X69509339Y-86371784D01*
X69497739Y-86364033D01*
X69497735Y-86364032D01*
X69424677Y-86349500D01*
X69424674Y-86349500D01*
X68657131Y-86349500D01*
X68590092Y-86329815D01*
X68544337Y-86277011D01*
X68534393Y-86207853D01*
X68563418Y-86144297D01*
X68622196Y-86106523D01*
X68637733Y-86103027D01*
X68695408Y-86093891D01*
X68769409Y-86082171D01*
X68941639Y-86026211D01*
X69102994Y-85943996D01*
X69249501Y-85837553D01*
X69377553Y-85709501D01*
X69483996Y-85562994D01*
X69566211Y-85401639D01*
X69622171Y-85229409D01*
X69636765Y-85137259D01*
X69650500Y-85050551D01*
X69650500Y-84869448D01*
X69634019Y-84765397D01*
X69622171Y-84690591D01*
X69566211Y-84518361D01*
X69566211Y-84518360D01*
X69537740Y-84462484D01*
X69483996Y-84357006D01*
X69470396Y-84338287D01*
X69377558Y-84210505D01*
X69377554Y-84210500D01*
X69249499Y-84082445D01*
X69249494Y-84082441D01*
X69102997Y-83976006D01*
X69102996Y-83976005D01*
X69102994Y-83976004D01*
X69051300Y-83949664D01*
X68941639Y-83893788D01*
X68941636Y-83893787D01*
X68769410Y-83837829D01*
X68590551Y-83809500D01*
X68590546Y-83809500D01*
X68409454Y-83809500D01*
X68409449Y-83809500D01*
X68230589Y-83837829D01*
X68058363Y-83893787D01*
X68058360Y-83893788D01*
X67897002Y-83976006D01*
X67750505Y-84082441D01*
X67750500Y-84082445D01*
X67622445Y-84210500D01*
X67622441Y-84210505D01*
X67516006Y-84357002D01*
X67433788Y-84518360D01*
X67433787Y-84518363D01*
X67377829Y-84690589D01*
X67349500Y-84869448D01*
X67349500Y-85050551D01*
X67377829Y-85229412D01*
X67433245Y-85399967D01*
X67435240Y-85469808D01*
X67402995Y-85525965D01*
X67043438Y-85885525D01*
X66973526Y-85955436D01*
X66924091Y-86041059D01*
X66924091Y-86041060D01*
X66924090Y-86041062D01*
X66898500Y-86136565D01*
X66898500Y-86136567D01*
X66898500Y-86569234D01*
X66878815Y-86636273D01*
X66826011Y-86682028D01*
X66756853Y-86691972D01*
X66693297Y-86662947D01*
X66655523Y-86604169D01*
X66651097Y-86581386D01*
X66650500Y-86575331D01*
X66650500Y-86575326D01*
X66635966Y-86502260D01*
X66580601Y-86419399D01*
X66509339Y-86371784D01*
X66497739Y-86364033D01*
X66497735Y-86364032D01*
X66424677Y-86349500D01*
X66424674Y-86349500D01*
X65657131Y-86349500D01*
X65590092Y-86329815D01*
X65544337Y-86277011D01*
X65534393Y-86207853D01*
X65563418Y-86144297D01*
X65622196Y-86106523D01*
X65637733Y-86103027D01*
X65695408Y-86093891D01*
X65769409Y-86082171D01*
X65941639Y-86026211D01*
X66102994Y-85943996D01*
X66249501Y-85837553D01*
X66377553Y-85709501D01*
X66483996Y-85562994D01*
X66566211Y-85401639D01*
X66622171Y-85229409D01*
X66636765Y-85137259D01*
X66650500Y-85050551D01*
X66650500Y-84869448D01*
X66634019Y-84765397D01*
X66622171Y-84690591D01*
X66566211Y-84518361D01*
X66566211Y-84518360D01*
X66537740Y-84462484D01*
X66483996Y-84357006D01*
X66470396Y-84338287D01*
X66377558Y-84210505D01*
X66377554Y-84210500D01*
X66249499Y-84082445D01*
X66249494Y-84082441D01*
X66102997Y-83976006D01*
X66102996Y-83976005D01*
X66102994Y-83976004D01*
X66051300Y-83949664D01*
X65941639Y-83893788D01*
X65941636Y-83893787D01*
X65769410Y-83837829D01*
X65590551Y-83809500D01*
X65590546Y-83809500D01*
X65409454Y-83809500D01*
X65409449Y-83809500D01*
X65230589Y-83837829D01*
X65058363Y-83893787D01*
X65058360Y-83893788D01*
X64897002Y-83976006D01*
X64750505Y-84082441D01*
X64750500Y-84082445D01*
X64622445Y-84210500D01*
X64622441Y-84210505D01*
X64516006Y-84357002D01*
X64433788Y-84518360D01*
X64433787Y-84518363D01*
X64377829Y-84690589D01*
X64349500Y-84869448D01*
X64349500Y-85050551D01*
X64377829Y-85229412D01*
X64433245Y-85399967D01*
X64435240Y-85469808D01*
X64402995Y-85525965D01*
X64043438Y-85885525D01*
X63973526Y-85955436D01*
X63924091Y-86041059D01*
X63924091Y-86041060D01*
X63924090Y-86041062D01*
X63898500Y-86136565D01*
X63898500Y-86136567D01*
X63898500Y-86569234D01*
X63878815Y-86636273D01*
X63826011Y-86682028D01*
X63756853Y-86691972D01*
X63693297Y-86662947D01*
X63655523Y-86604169D01*
X63651097Y-86581386D01*
X63650500Y-86575331D01*
X63650500Y-86575326D01*
X63635966Y-86502260D01*
X63580601Y-86419399D01*
X63509339Y-86371784D01*
X63497739Y-86364033D01*
X63497735Y-86364032D01*
X63424677Y-86349500D01*
X63424674Y-86349500D01*
X62657131Y-86349500D01*
X62590092Y-86329815D01*
X62544337Y-86277011D01*
X62534393Y-86207853D01*
X62563418Y-86144297D01*
X62622196Y-86106523D01*
X62637733Y-86103027D01*
X62695408Y-86093891D01*
X62769409Y-86082171D01*
X62941639Y-86026211D01*
X63102994Y-85943996D01*
X63249501Y-85837553D01*
X63377553Y-85709501D01*
X63483996Y-85562994D01*
X63566211Y-85401639D01*
X63622171Y-85229409D01*
X63636765Y-85137259D01*
X63650500Y-85050551D01*
X63650500Y-84869448D01*
X63634019Y-84765397D01*
X63622171Y-84690591D01*
X63566211Y-84518361D01*
X63566211Y-84518360D01*
X63537740Y-84462484D01*
X63483996Y-84357006D01*
X63470396Y-84338287D01*
X63377558Y-84210505D01*
X63377554Y-84210500D01*
X63249499Y-84082445D01*
X63249494Y-84082441D01*
X63102997Y-83976006D01*
X63102996Y-83976005D01*
X63102994Y-83976004D01*
X63051300Y-83949664D01*
X62941639Y-83893788D01*
X62941636Y-83893787D01*
X62769410Y-83837829D01*
X62590551Y-83809500D01*
X62590546Y-83809500D01*
X62409454Y-83809500D01*
X62409449Y-83809500D01*
X62230589Y-83837829D01*
X62058363Y-83893787D01*
X62058360Y-83893788D01*
X61897002Y-83976006D01*
X61750505Y-84082441D01*
X61750500Y-84082445D01*
X61622445Y-84210500D01*
X61622441Y-84210505D01*
X61516006Y-84357002D01*
X61433788Y-84518360D01*
X61433787Y-84518363D01*
X61377829Y-84690589D01*
X61349500Y-84869448D01*
X61349500Y-85050551D01*
X61377829Y-85229412D01*
X61433245Y-85399967D01*
X61435240Y-85469808D01*
X61402996Y-85525965D01*
X61087682Y-85841281D01*
X61026358Y-85874766D01*
X60956667Y-85869782D01*
X60912319Y-85841281D01*
X60597004Y-85525966D01*
X60563519Y-85464643D01*
X60566754Y-85399967D01*
X60622171Y-85229409D01*
X60636765Y-85137259D01*
X60650500Y-85050551D01*
X60650500Y-84869448D01*
X60634019Y-84765397D01*
X60622171Y-84690591D01*
X60566211Y-84518361D01*
X60566211Y-84518360D01*
X60537740Y-84462484D01*
X60483996Y-84357006D01*
X60470396Y-84338287D01*
X60377558Y-84210505D01*
X60377554Y-84210500D01*
X60249499Y-84082445D01*
X60249494Y-84082441D01*
X60102997Y-83976006D01*
X60102996Y-83976005D01*
X60102994Y-83976004D01*
X60051300Y-83949664D01*
X59941639Y-83893788D01*
X59941636Y-83893787D01*
X59769410Y-83837829D01*
X59590551Y-83809500D01*
X59590546Y-83809500D01*
X59409454Y-83809500D01*
X59409449Y-83809500D01*
X59230589Y-83837829D01*
X59058363Y-83893787D01*
X59058360Y-83893788D01*
X58897002Y-83976006D01*
X58750505Y-84082441D01*
X58750500Y-84082445D01*
X58622445Y-84210500D01*
X58622441Y-84210505D01*
X58516006Y-84357002D01*
X58433788Y-84518360D01*
X58433787Y-84518363D01*
X58377829Y-84690589D01*
X58349500Y-84869448D01*
X53990500Y-84869448D01*
X53990500Y-74083753D01*
X54680000Y-74083753D01*
X54680000Y-74296246D01*
X54713242Y-74506127D01*
X54713242Y-74506130D01*
X54778904Y-74708217D01*
X54875375Y-74897550D01*
X54914728Y-74951716D01*
X55547037Y-74319408D01*
X55564075Y-74382993D01*
X55629901Y-74497007D01*
X55722993Y-74590099D01*
X55837007Y-74655925D01*
X55900591Y-74672962D01*
X55299971Y-75273581D01*
X55378711Y-75390895D01*
X55379920Y-75394729D01*
X55382844Y-75397491D01*
X55390343Y-75427778D01*
X55399727Y-75457529D01*
X55398671Y-75461408D01*
X55399638Y-75465312D01*
X55389573Y-75494844D01*
X55381383Y-75524947D01*
X55378397Y-75527640D01*
X55377100Y-75531447D01*
X55332051Y-75570483D01*
X55322440Y-75575380D01*
X55268282Y-75614727D01*
X55268282Y-75614728D01*
X55900591Y-76247037D01*
X55837007Y-76264075D01*
X55722993Y-76329901D01*
X55629901Y-76422993D01*
X55564075Y-76537007D01*
X55547037Y-76600591D01*
X54914728Y-75968282D01*
X54914727Y-75968282D01*
X54875380Y-76022439D01*
X54778904Y-76211782D01*
X54713242Y-76413869D01*
X54713242Y-76413872D01*
X54680000Y-76623753D01*
X54680000Y-76836246D01*
X54713242Y-77046127D01*
X54713242Y-77046130D01*
X54778904Y-77248217D01*
X54875375Y-77437550D01*
X54914728Y-77491716D01*
X55547037Y-76859408D01*
X55564075Y-76922993D01*
X55629901Y-77037007D01*
X55722993Y-77130099D01*
X55837007Y-77195925D01*
X55900591Y-77212962D01*
X55299971Y-77813581D01*
X55378711Y-77930895D01*
X55379920Y-77934729D01*
X55382844Y-77937491D01*
X55390343Y-77967778D01*
X55399727Y-77997529D01*
X55398671Y-78001408D01*
X55399638Y-78005312D01*
X55389573Y-78034844D01*
X55381383Y-78064947D01*
X55378397Y-78067640D01*
X55377100Y-78071447D01*
X55332051Y-78110483D01*
X55322440Y-78115380D01*
X55268282Y-78154727D01*
X55268282Y-78154728D01*
X55900591Y-78787037D01*
X55837007Y-78804075D01*
X55722993Y-78869901D01*
X55629901Y-78962993D01*
X55564075Y-79077007D01*
X55547037Y-79140591D01*
X54914728Y-78508282D01*
X54914727Y-78508282D01*
X54875380Y-78562439D01*
X54778904Y-78751782D01*
X54713242Y-78953869D01*
X54713242Y-78953872D01*
X54680000Y-79163753D01*
X54680000Y-79376246D01*
X54713242Y-79586127D01*
X54713242Y-79586130D01*
X54778904Y-79788217D01*
X54875375Y-79977550D01*
X54914728Y-80031716D01*
X55547037Y-79399408D01*
X55564075Y-79462993D01*
X55629901Y-79577007D01*
X55722993Y-79670099D01*
X55837007Y-79735925D01*
X55900591Y-79752962D01*
X55299971Y-80353581D01*
X55378711Y-80470895D01*
X55379920Y-80474729D01*
X55382844Y-80477491D01*
X55390343Y-80507778D01*
X55399727Y-80537529D01*
X55398671Y-80541408D01*
X55399638Y-80545312D01*
X55389573Y-80574844D01*
X55381383Y-80604947D01*
X55378397Y-80607640D01*
X55377100Y-80611447D01*
X55332051Y-80650483D01*
X55322440Y-80655380D01*
X55268282Y-80694727D01*
X55268282Y-80694728D01*
X55900591Y-81327037D01*
X55837007Y-81344075D01*
X55722993Y-81409901D01*
X55629901Y-81502993D01*
X55564075Y-81617007D01*
X55547037Y-81680591D01*
X54914728Y-81048282D01*
X54914727Y-81048282D01*
X54875380Y-81102439D01*
X54778904Y-81291782D01*
X54713242Y-81493869D01*
X54713242Y-81493872D01*
X54680000Y-81703753D01*
X54680000Y-81916246D01*
X54713242Y-82126127D01*
X54713242Y-82126130D01*
X54778904Y-82328217D01*
X54875375Y-82517550D01*
X54914728Y-82571716D01*
X55547037Y-81939408D01*
X55564075Y-82002993D01*
X55629901Y-82117007D01*
X55722993Y-82210099D01*
X55837007Y-82275925D01*
X55900590Y-82292962D01*
X55268282Y-82925269D01*
X55268282Y-82925270D01*
X55322449Y-82964624D01*
X55511782Y-83061095D01*
X55713870Y-83126757D01*
X55923754Y-83160000D01*
X56136246Y-83160000D01*
X56346127Y-83126757D01*
X56346130Y-83126757D01*
X56548217Y-83061095D01*
X56737554Y-82964622D01*
X56791716Y-82925270D01*
X56791717Y-82925270D01*
X56159408Y-82292962D01*
X56222993Y-82275925D01*
X56337007Y-82210099D01*
X56430099Y-82117007D01*
X56495925Y-82002993D01*
X56512962Y-81939408D01*
X57145270Y-82571717D01*
X57145270Y-82571716D01*
X57184622Y-82517554D01*
X57281095Y-82328217D01*
X57346757Y-82126130D01*
X57346757Y-82126127D01*
X57380000Y-81916246D01*
X57380000Y-81703753D01*
X57346757Y-81493872D01*
X57346757Y-81493869D01*
X57281095Y-81291782D01*
X57184624Y-81102449D01*
X57145270Y-81048282D01*
X57145269Y-81048282D01*
X56512962Y-81680590D01*
X56495925Y-81617007D01*
X56430099Y-81502993D01*
X56337007Y-81409901D01*
X56222993Y-81344075D01*
X56159409Y-81327037D01*
X56791716Y-80694728D01*
X56737550Y-80655375D01*
X56727954Y-80650486D01*
X56677157Y-80602512D01*
X56660361Y-80534692D01*
X56682897Y-80468556D01*
X56727954Y-80429514D01*
X56737554Y-80424622D01*
X56791716Y-80385270D01*
X56791717Y-80385270D01*
X56159408Y-79752962D01*
X56222993Y-79735925D01*
X56337007Y-79670099D01*
X56430099Y-79577007D01*
X56495925Y-79462993D01*
X56512962Y-79399408D01*
X57145270Y-80031717D01*
X57145270Y-80031716D01*
X57184622Y-79977554D01*
X57281095Y-79788217D01*
X57346757Y-79586130D01*
X57346757Y-79586127D01*
X57380000Y-79376246D01*
X57380000Y-79163753D01*
X57346757Y-78953872D01*
X57346757Y-78953869D01*
X57281095Y-78751782D01*
X57184624Y-78562449D01*
X57145270Y-78508282D01*
X57145269Y-78508282D01*
X56512962Y-79140590D01*
X56495925Y-79077007D01*
X56430099Y-78962993D01*
X56337007Y-78869901D01*
X56222993Y-78804075D01*
X56159409Y-78787037D01*
X56791716Y-78154728D01*
X56737550Y-78115375D01*
X56727954Y-78110486D01*
X56677157Y-78062512D01*
X56660361Y-77994692D01*
X56682897Y-77928556D01*
X56727954Y-77889514D01*
X56737554Y-77884622D01*
X56791716Y-77845270D01*
X56791717Y-77845270D01*
X56159408Y-77212962D01*
X56222993Y-77195925D01*
X56337007Y-77130099D01*
X56430099Y-77037007D01*
X56495925Y-76922993D01*
X56512962Y-76859408D01*
X57145270Y-77491717D01*
X57145270Y-77491716D01*
X57184622Y-77437554D01*
X57281095Y-77248217D01*
X57346757Y-77046130D01*
X57346757Y-77046127D01*
X57380000Y-76836246D01*
X57380000Y-76623753D01*
X57346757Y-76413872D01*
X57346757Y-76413869D01*
X57281095Y-76211782D01*
X57184624Y-76022449D01*
X57145270Y-75968282D01*
X57145269Y-75968282D01*
X56512962Y-76600590D01*
X56495925Y-76537007D01*
X56430099Y-76422993D01*
X56337007Y-76329901D01*
X56222993Y-76264075D01*
X56159409Y-76247037D01*
X56791716Y-75614728D01*
X56737550Y-75575375D01*
X56727954Y-75570486D01*
X56677157Y-75522512D01*
X56660361Y-75454692D01*
X56682897Y-75388556D01*
X56727954Y-75349514D01*
X56737554Y-75344622D01*
X56791716Y-75305270D01*
X56791717Y-75305270D01*
X56159408Y-74672962D01*
X56222993Y-74655925D01*
X56337007Y-74590099D01*
X56430099Y-74497007D01*
X56495925Y-74382993D01*
X56512962Y-74319408D01*
X57145270Y-74951717D01*
X57145270Y-74951716D01*
X57184622Y-74897554D01*
X57281095Y-74708217D01*
X57346757Y-74506130D01*
X57346757Y-74506127D01*
X57380000Y-74296246D01*
X57380000Y-74083753D01*
X57346757Y-73873872D01*
X57346757Y-73873869D01*
X57281095Y-73671782D01*
X57184624Y-73482449D01*
X57145270Y-73428282D01*
X57145269Y-73428282D01*
X56512962Y-74060590D01*
X56495925Y-73997007D01*
X56430099Y-73882993D01*
X56337007Y-73789901D01*
X56222993Y-73724075D01*
X56159409Y-73707037D01*
X56791716Y-73074728D01*
X56737550Y-73035375D01*
X56548217Y-72938904D01*
X56346129Y-72873242D01*
X56136246Y-72840000D01*
X55923754Y-72840000D01*
X55713872Y-72873242D01*
X55713869Y-72873242D01*
X55511782Y-72938904D01*
X55322439Y-73035380D01*
X55268282Y-73074727D01*
X55268282Y-73074728D01*
X55900591Y-73707037D01*
X55837007Y-73724075D01*
X55722993Y-73789901D01*
X55629901Y-73882993D01*
X55564075Y-73997007D01*
X55547037Y-74060591D01*
X54914728Y-73428282D01*
X54914727Y-73428282D01*
X54875380Y-73482439D01*
X54778904Y-73671782D01*
X54713242Y-73873869D01*
X54713242Y-73873872D01*
X54680000Y-74083753D01*
X53990500Y-74083753D01*
X53990500Y-67825321D01*
X58349500Y-67825321D01*
X58349500Y-69674678D01*
X58364032Y-69747735D01*
X58364033Y-69747739D01*
X58364034Y-69747740D01*
X58419399Y-69830601D01*
X58488680Y-69876892D01*
X58502260Y-69885966D01*
X58502264Y-69885967D01*
X58575321Y-69900499D01*
X58575324Y-69900500D01*
X58575326Y-69900500D01*
X59342869Y-69900500D01*
X59409908Y-69920185D01*
X59455663Y-69972989D01*
X59465607Y-70042147D01*
X59436582Y-70105703D01*
X59377804Y-70143477D01*
X59362267Y-70146973D01*
X59230589Y-70167829D01*
X59058363Y-70223787D01*
X59058360Y-70223788D01*
X58897002Y-70306006D01*
X58750505Y-70412441D01*
X58750500Y-70412445D01*
X58622445Y-70540500D01*
X58622441Y-70540505D01*
X58516006Y-70687002D01*
X58433788Y-70848360D01*
X58433787Y-70848363D01*
X58377829Y-71020589D01*
X58349500Y-71199448D01*
X58349500Y-71380551D01*
X58377829Y-71559410D01*
X58433787Y-71731636D01*
X58433788Y-71731639D01*
X58473951Y-71810461D01*
X58514157Y-71889370D01*
X58516006Y-71892997D01*
X58622441Y-72039494D01*
X58622445Y-72039499D01*
X58750500Y-72167554D01*
X58750505Y-72167558D01*
X58841079Y-72233363D01*
X58897006Y-72273996D01*
X59002484Y-72327740D01*
X59058360Y-72356211D01*
X59058363Y-72356212D01*
X59107626Y-72372218D01*
X59230591Y-72412171D01*
X59313429Y-72425291D01*
X59409449Y-72440500D01*
X59409454Y-72440500D01*
X59434500Y-72440500D01*
X59501539Y-72460185D01*
X59547294Y-72512989D01*
X59558500Y-72564500D01*
X59558500Y-78143435D01*
X59584090Y-78238938D01*
X59584091Y-78238939D01*
X59584091Y-78238940D01*
X59633526Y-78324563D01*
X60052677Y-78743714D01*
X60086162Y-78805037D01*
X60082927Y-78869713D01*
X60036597Y-79012301D01*
X60026349Y-79077007D01*
X60009500Y-79183389D01*
X60009500Y-79356611D01*
X60036598Y-79527701D01*
X60090127Y-79692445D01*
X60168768Y-79846788D01*
X60270586Y-79986928D01*
X60393072Y-80109414D01*
X60533212Y-80211232D01*
X60687555Y-80289873D01*
X60852299Y-80343402D01*
X61023389Y-80370500D01*
X61023390Y-80370500D01*
X61196610Y-80370500D01*
X61196611Y-80370500D01*
X61367701Y-80343402D01*
X61532445Y-80289873D01*
X61686788Y-80211232D01*
X61826928Y-80109414D01*
X61949414Y-79986928D01*
X62051232Y-79846788D01*
X62129873Y-79692445D01*
X62183402Y-79527701D01*
X62210500Y-79356611D01*
X62210500Y-79183389D01*
X62183402Y-79012299D01*
X62129873Y-78847555D01*
X62051232Y-78693212D01*
X61949414Y-78553072D01*
X61826928Y-78430586D01*
X61686788Y-78328768D01*
X61532445Y-78250127D01*
X61367701Y-78196598D01*
X61367699Y-78196597D01*
X61367698Y-78196597D01*
X61236271Y-78175781D01*
X61196611Y-78169500D01*
X61023389Y-78169500D01*
X60991192Y-78174599D01*
X60852301Y-78196597D01*
X60709713Y-78242927D01*
X60639872Y-78244922D01*
X60583714Y-78212677D01*
X60345819Y-77974782D01*
X60331115Y-77947854D01*
X60314523Y-77922036D01*
X60313631Y-77915835D01*
X60312334Y-77913459D01*
X60309500Y-77887101D01*
X60309500Y-77752059D01*
X60329185Y-77685020D01*
X60381989Y-77639265D01*
X60451147Y-77629321D01*
X60506385Y-77651741D01*
X60519502Y-77661271D01*
X60533210Y-77671231D01*
X60533212Y-77671232D01*
X60687555Y-77749873D01*
X60852299Y-77803402D01*
X61023389Y-77830500D01*
X61023390Y-77830500D01*
X61196610Y-77830500D01*
X61196611Y-77830500D01*
X61367701Y-77803402D01*
X61532445Y-77749873D01*
X61686788Y-77671232D01*
X61826928Y-77569414D01*
X61886819Y-77509523D01*
X61948142Y-77476038D01*
X62017834Y-77481022D01*
X62073767Y-77522894D01*
X62098184Y-77588358D01*
X62098500Y-77597204D01*
X62098500Y-78143435D01*
X62124090Y-78238938D01*
X62124091Y-78238939D01*
X62124091Y-78238940D01*
X62173526Y-78324563D01*
X62592677Y-78743714D01*
X62626162Y-78805037D01*
X62622927Y-78869713D01*
X62576597Y-79012301D01*
X62566349Y-79077007D01*
X62549500Y-79183389D01*
X62549500Y-79356611D01*
X62576598Y-79527701D01*
X62630127Y-79692445D01*
X62708768Y-79846788D01*
X62810586Y-79986928D01*
X62933072Y-80109414D01*
X63073212Y-80211232D01*
X63227555Y-80289873D01*
X63392299Y-80343402D01*
X63563389Y-80370500D01*
X63563390Y-80370500D01*
X63736610Y-80370500D01*
X63736611Y-80370500D01*
X63907701Y-80343402D01*
X64072445Y-80289873D01*
X64226788Y-80211232D01*
X64366928Y-80109414D01*
X64489414Y-79986928D01*
X64591232Y-79846788D01*
X64669873Y-79692445D01*
X64723402Y-79527701D01*
X64750500Y-79356611D01*
X64750500Y-79183389D01*
X64723402Y-79012299D01*
X64669873Y-78847555D01*
X64591232Y-78693212D01*
X64489414Y-78553072D01*
X64366928Y-78430586D01*
X64226788Y-78328768D01*
X64072445Y-78250127D01*
X63907701Y-78196598D01*
X63907699Y-78196597D01*
X63907698Y-78196597D01*
X63776271Y-78175781D01*
X63736611Y-78169500D01*
X63563389Y-78169500D01*
X63531192Y-78174599D01*
X63392301Y-78196597D01*
X63249713Y-78242927D01*
X63179872Y-78244922D01*
X63123714Y-78212677D01*
X62885819Y-77974782D01*
X62871115Y-77947854D01*
X62854523Y-77922036D01*
X62853631Y-77915835D01*
X62852334Y-77913459D01*
X62849500Y-77887101D01*
X62849500Y-77752059D01*
X62869185Y-77685020D01*
X62921989Y-77639265D01*
X62991147Y-77629321D01*
X63046385Y-77651741D01*
X63059502Y-77661271D01*
X63073210Y-77671231D01*
X63073212Y-77671232D01*
X63227555Y-77749873D01*
X63392299Y-77803402D01*
X63563389Y-77830500D01*
X63563390Y-77830500D01*
X63736610Y-77830500D01*
X63736611Y-77830500D01*
X63907701Y-77803402D01*
X64072445Y-77749873D01*
X64226788Y-77671232D01*
X64366928Y-77569414D01*
X64426819Y-77509523D01*
X64488142Y-77476038D01*
X64557834Y-77481022D01*
X64613767Y-77522894D01*
X64638184Y-77588358D01*
X64638500Y-77597204D01*
X64638500Y-78143435D01*
X64664090Y-78238938D01*
X64664091Y-78238939D01*
X64664091Y-78238940D01*
X64713526Y-78324563D01*
X65132677Y-78743714D01*
X65166162Y-78805037D01*
X65162927Y-78869713D01*
X65116597Y-79012301D01*
X65106349Y-79077007D01*
X65089500Y-79183389D01*
X65089500Y-79356611D01*
X65116598Y-79527701D01*
X65170127Y-79692445D01*
X65248768Y-79846788D01*
X65350586Y-79986928D01*
X65473072Y-80109414D01*
X65613212Y-80211232D01*
X65767555Y-80289873D01*
X65932299Y-80343402D01*
X66103389Y-80370500D01*
X66103390Y-80370500D01*
X66276610Y-80370500D01*
X66276611Y-80370500D01*
X66447701Y-80343402D01*
X66612445Y-80289873D01*
X66766788Y-80211232D01*
X66906928Y-80109414D01*
X67029414Y-79986928D01*
X67131232Y-79846788D01*
X67209873Y-79692445D01*
X67263402Y-79527701D01*
X67290500Y-79356611D01*
X67290500Y-79183389D01*
X67263402Y-79012299D01*
X67209873Y-78847555D01*
X67131232Y-78693212D01*
X67029414Y-78553072D01*
X66906928Y-78430586D01*
X66766788Y-78328768D01*
X66612445Y-78250127D01*
X66447701Y-78196598D01*
X66447699Y-78196597D01*
X66447698Y-78196597D01*
X66316271Y-78175781D01*
X66276611Y-78169500D01*
X66103389Y-78169500D01*
X66071192Y-78174599D01*
X65932301Y-78196597D01*
X65789713Y-78242927D01*
X65719872Y-78244922D01*
X65663714Y-78212677D01*
X65425819Y-77974782D01*
X65411115Y-77947854D01*
X65394523Y-77922036D01*
X65393631Y-77915835D01*
X65392334Y-77913459D01*
X65389500Y-77887101D01*
X65389500Y-77752059D01*
X65409185Y-77685020D01*
X65461989Y-77639265D01*
X65531147Y-77629321D01*
X65586385Y-77651741D01*
X65599502Y-77661271D01*
X65613210Y-77671231D01*
X65613212Y-77671232D01*
X65767555Y-77749873D01*
X65932299Y-77803402D01*
X66103389Y-77830500D01*
X66103390Y-77830500D01*
X66276610Y-77830500D01*
X66276611Y-77830500D01*
X66447701Y-77803402D01*
X66612445Y-77749873D01*
X66766788Y-77671232D01*
X66906928Y-77569414D01*
X66966819Y-77509523D01*
X67028142Y-77476038D01*
X67097834Y-77481022D01*
X67153767Y-77522894D01*
X67178184Y-77588358D01*
X67178500Y-77597204D01*
X67178500Y-78143435D01*
X67204090Y-78238938D01*
X67204091Y-78238939D01*
X67204091Y-78238940D01*
X67253526Y-78324563D01*
X67672677Y-78743714D01*
X67706162Y-78805037D01*
X67702927Y-78869713D01*
X67656597Y-79012301D01*
X67646349Y-79077007D01*
X67629500Y-79183389D01*
X67629500Y-79356611D01*
X67656598Y-79527701D01*
X67710127Y-79692445D01*
X67788768Y-79846788D01*
X67890586Y-79986928D01*
X68013072Y-80109414D01*
X68153212Y-80211232D01*
X68307555Y-80289873D01*
X68472299Y-80343402D01*
X68643389Y-80370500D01*
X68643390Y-80370500D01*
X68816610Y-80370500D01*
X68816611Y-80370500D01*
X68987701Y-80343402D01*
X69152445Y-80289873D01*
X69306788Y-80211232D01*
X69446928Y-80109414D01*
X69569414Y-79986928D01*
X69671232Y-79846788D01*
X69749873Y-79692445D01*
X69803402Y-79527701D01*
X69830500Y-79356611D01*
X69830500Y-79183389D01*
X69803402Y-79012299D01*
X69749873Y-78847555D01*
X69671232Y-78693212D01*
X69569414Y-78553072D01*
X69446928Y-78430586D01*
X69306788Y-78328768D01*
X69152445Y-78250127D01*
X68987701Y-78196598D01*
X68987699Y-78196597D01*
X68987698Y-78196597D01*
X68856271Y-78175781D01*
X68816611Y-78169500D01*
X68643389Y-78169500D01*
X68611192Y-78174599D01*
X68472301Y-78196597D01*
X68329713Y-78242927D01*
X68259872Y-78244922D01*
X68203714Y-78212677D01*
X67965819Y-77974782D01*
X67951115Y-77947854D01*
X67934523Y-77922036D01*
X67933631Y-77915835D01*
X67932334Y-77913459D01*
X67929500Y-77887101D01*
X67929500Y-77752059D01*
X67949185Y-77685020D01*
X68001989Y-77639265D01*
X68071147Y-77629321D01*
X68126385Y-77651741D01*
X68139502Y-77661271D01*
X68153210Y-77671231D01*
X68153212Y-77671232D01*
X68307555Y-77749873D01*
X68472299Y-77803402D01*
X68643389Y-77830500D01*
X68643390Y-77830500D01*
X68816610Y-77830500D01*
X68816611Y-77830500D01*
X68987701Y-77803402D01*
X69152445Y-77749873D01*
X69306788Y-77671232D01*
X69446928Y-77569414D01*
X69506819Y-77509523D01*
X69568142Y-77476038D01*
X69637834Y-77481022D01*
X69693767Y-77522894D01*
X69718184Y-77588358D01*
X69718500Y-77597204D01*
X69718500Y-78143435D01*
X69744090Y-78238938D01*
X69744091Y-78238939D01*
X69744091Y-78238940D01*
X69793526Y-78324563D01*
X70212677Y-78743714D01*
X70246162Y-78805037D01*
X70242927Y-78869713D01*
X70196597Y-79012301D01*
X70186349Y-79077007D01*
X70169500Y-79183389D01*
X70169500Y-79356611D01*
X70196598Y-79527701D01*
X70250127Y-79692445D01*
X70328768Y-79846788D01*
X70430586Y-79986928D01*
X70553072Y-80109414D01*
X70693212Y-80211232D01*
X70847555Y-80289873D01*
X71012299Y-80343402D01*
X71183389Y-80370500D01*
X71183390Y-80370500D01*
X71356610Y-80370500D01*
X71356611Y-80370500D01*
X71527701Y-80343402D01*
X71692445Y-80289873D01*
X71846788Y-80211232D01*
X71986928Y-80109414D01*
X72109414Y-79986928D01*
X72211232Y-79846788D01*
X72289873Y-79692445D01*
X72343402Y-79527701D01*
X72370500Y-79356611D01*
X72370500Y-79183389D01*
X72343402Y-79012299D01*
X72289873Y-78847555D01*
X72211232Y-78693212D01*
X72109414Y-78553072D01*
X71986928Y-78430586D01*
X71846788Y-78328768D01*
X71692445Y-78250127D01*
X71527701Y-78196598D01*
X71527699Y-78196597D01*
X71527698Y-78196597D01*
X71396271Y-78175781D01*
X71356611Y-78169500D01*
X71183389Y-78169500D01*
X71151192Y-78174599D01*
X71012301Y-78196597D01*
X70869713Y-78242927D01*
X70799872Y-78244922D01*
X70743714Y-78212677D01*
X70505819Y-77974782D01*
X70491115Y-77947854D01*
X70474523Y-77922036D01*
X70473631Y-77915835D01*
X70472334Y-77913459D01*
X70469500Y-77887101D01*
X70469500Y-77752059D01*
X70489185Y-77685020D01*
X70541989Y-77639265D01*
X70611147Y-77629321D01*
X70666385Y-77651741D01*
X70679502Y-77661271D01*
X70693210Y-77671231D01*
X70693212Y-77671232D01*
X70847555Y-77749873D01*
X71012299Y-77803402D01*
X71183389Y-77830500D01*
X71183390Y-77830500D01*
X71356610Y-77830500D01*
X71356611Y-77830500D01*
X71527701Y-77803402D01*
X71692445Y-77749873D01*
X71846788Y-77671232D01*
X71986928Y-77569414D01*
X72046819Y-77509523D01*
X72108142Y-77476038D01*
X72177834Y-77481022D01*
X72233767Y-77522894D01*
X72258184Y-77588358D01*
X72258500Y-77597204D01*
X72258500Y-78143435D01*
X72284090Y-78238938D01*
X72284091Y-78238939D01*
X72284091Y-78238940D01*
X72333526Y-78324563D01*
X72752677Y-78743714D01*
X72786162Y-78805037D01*
X72782927Y-78869713D01*
X72736597Y-79012301D01*
X72726349Y-79077007D01*
X72709500Y-79183389D01*
X72709500Y-79356611D01*
X72736598Y-79527701D01*
X72790127Y-79692445D01*
X72868768Y-79846788D01*
X72970586Y-79986928D01*
X73093072Y-80109414D01*
X73233212Y-80211232D01*
X73387555Y-80289873D01*
X73552299Y-80343402D01*
X73723389Y-80370500D01*
X73723390Y-80370500D01*
X73896610Y-80370500D01*
X73896611Y-80370500D01*
X74067701Y-80343402D01*
X74232445Y-80289873D01*
X74386788Y-80211232D01*
X74526928Y-80109414D01*
X74649414Y-79986928D01*
X74751232Y-79846788D01*
X74829873Y-79692445D01*
X74883402Y-79527701D01*
X74910500Y-79356611D01*
X74910500Y-79183389D01*
X74883402Y-79012299D01*
X74829873Y-78847555D01*
X74751232Y-78693212D01*
X74649414Y-78553072D01*
X74526928Y-78430586D01*
X74386788Y-78328768D01*
X74232445Y-78250127D01*
X74067701Y-78196598D01*
X74067699Y-78196597D01*
X74067698Y-78196597D01*
X73936271Y-78175781D01*
X73896611Y-78169500D01*
X73723389Y-78169500D01*
X73691192Y-78174599D01*
X73552301Y-78196597D01*
X73409713Y-78242927D01*
X73339872Y-78244922D01*
X73283714Y-78212677D01*
X73045819Y-77974782D01*
X73031115Y-77947854D01*
X73014523Y-77922036D01*
X73013631Y-77915835D01*
X73012334Y-77913459D01*
X73009500Y-77887101D01*
X73009500Y-77752059D01*
X73029185Y-77685020D01*
X73081989Y-77639265D01*
X73151147Y-77629321D01*
X73206385Y-77651741D01*
X73219502Y-77661271D01*
X73233210Y-77671231D01*
X73233212Y-77671232D01*
X73387555Y-77749873D01*
X73552299Y-77803402D01*
X73723389Y-77830500D01*
X73723390Y-77830500D01*
X73896610Y-77830500D01*
X73896611Y-77830500D01*
X74067701Y-77803402D01*
X74232445Y-77749873D01*
X74386788Y-77671232D01*
X74526928Y-77569414D01*
X74586819Y-77509523D01*
X74648142Y-77476038D01*
X74717834Y-77481022D01*
X74773767Y-77522894D01*
X74798184Y-77588358D01*
X74798500Y-77597204D01*
X74798500Y-78143435D01*
X74824090Y-78238938D01*
X74824091Y-78238939D01*
X74824091Y-78238940D01*
X74873526Y-78324563D01*
X75292677Y-78743714D01*
X75326162Y-78805037D01*
X75322927Y-78869713D01*
X75276597Y-79012301D01*
X75266349Y-79077007D01*
X75249500Y-79183389D01*
X75249500Y-79356611D01*
X75276598Y-79527701D01*
X75330127Y-79692445D01*
X75408768Y-79846788D01*
X75510586Y-79986928D01*
X75633072Y-80109414D01*
X75773212Y-80211232D01*
X75927555Y-80289873D01*
X76092299Y-80343402D01*
X76263389Y-80370500D01*
X76263390Y-80370500D01*
X76436610Y-80370500D01*
X76436611Y-80370500D01*
X76607701Y-80343402D01*
X76772445Y-80289873D01*
X76926788Y-80211232D01*
X77066928Y-80109414D01*
X77189414Y-79986928D01*
X77291232Y-79846788D01*
X77369873Y-79692445D01*
X77423402Y-79527701D01*
X77450500Y-79356611D01*
X77450500Y-79183389D01*
X77423402Y-79012299D01*
X77369873Y-78847555D01*
X77291232Y-78693212D01*
X77189414Y-78553072D01*
X77066928Y-78430586D01*
X76926788Y-78328768D01*
X76772445Y-78250127D01*
X76607701Y-78196598D01*
X76607699Y-78196597D01*
X76607698Y-78196597D01*
X76476271Y-78175781D01*
X76436611Y-78169500D01*
X76263389Y-78169500D01*
X76231192Y-78174599D01*
X76092301Y-78196597D01*
X75949713Y-78242927D01*
X75879872Y-78244922D01*
X75823714Y-78212677D01*
X75585819Y-77974782D01*
X75571115Y-77947854D01*
X75554523Y-77922036D01*
X75553631Y-77915835D01*
X75552334Y-77913459D01*
X75549500Y-77887101D01*
X75549500Y-77752059D01*
X75569185Y-77685020D01*
X75621989Y-77639265D01*
X75691147Y-77629321D01*
X75746385Y-77651741D01*
X75759502Y-77661271D01*
X75773210Y-77671231D01*
X75773212Y-77671232D01*
X75927555Y-77749873D01*
X76092299Y-77803402D01*
X76263389Y-77830500D01*
X76263390Y-77830500D01*
X76436610Y-77830500D01*
X76436611Y-77830500D01*
X76607701Y-77803402D01*
X76772445Y-77749873D01*
X76926788Y-77671232D01*
X77066928Y-77569414D01*
X77126819Y-77509523D01*
X77188142Y-77476038D01*
X77257834Y-77481022D01*
X77313767Y-77522894D01*
X77338184Y-77588358D01*
X77338500Y-77597204D01*
X77338500Y-78143435D01*
X77364090Y-78238938D01*
X77364091Y-78238939D01*
X77364091Y-78238940D01*
X77413526Y-78324563D01*
X77832677Y-78743714D01*
X77866162Y-78805037D01*
X77862927Y-78869713D01*
X77816597Y-79012301D01*
X77806349Y-79077007D01*
X77789500Y-79183389D01*
X77789500Y-79356611D01*
X77816598Y-79527701D01*
X77870127Y-79692445D01*
X77948768Y-79846788D01*
X78050586Y-79986928D01*
X78173072Y-80109414D01*
X78313212Y-80211232D01*
X78467555Y-80289873D01*
X78632299Y-80343402D01*
X78803389Y-80370500D01*
X78803390Y-80370500D01*
X78976610Y-80370500D01*
X78976611Y-80370500D01*
X79147701Y-80343402D01*
X79312445Y-80289873D01*
X79466788Y-80211232D01*
X79606928Y-80109414D01*
X79729414Y-79986928D01*
X79831232Y-79846788D01*
X79909873Y-79692445D01*
X79963402Y-79527701D01*
X79990500Y-79356611D01*
X79990500Y-79183389D01*
X79987390Y-79163753D01*
X82620000Y-79163753D01*
X82620000Y-79376246D01*
X82653242Y-79586127D01*
X82653242Y-79586130D01*
X82718904Y-79788217D01*
X82815375Y-79977550D01*
X82854728Y-80031716D01*
X83487037Y-79399408D01*
X83504075Y-79462993D01*
X83569901Y-79577007D01*
X83662993Y-79670099D01*
X83777007Y-79735925D01*
X83840590Y-79752962D01*
X83208282Y-80385269D01*
X83208282Y-80385270D01*
X83262449Y-80424624D01*
X83451782Y-80521095D01*
X83653870Y-80586757D01*
X83863754Y-80620000D01*
X84076246Y-80620000D01*
X84286127Y-80586757D01*
X84286130Y-80586757D01*
X84488217Y-80521095D01*
X84677554Y-80424622D01*
X84731716Y-80385270D01*
X84731717Y-80385270D01*
X84099408Y-79752962D01*
X84162993Y-79735925D01*
X84277007Y-79670099D01*
X84370099Y-79577007D01*
X84435925Y-79462993D01*
X84452962Y-79399408D01*
X85085270Y-80031717D01*
X85085270Y-80031716D01*
X85124622Y-79977554D01*
X85221095Y-79788217D01*
X85286757Y-79586130D01*
X85286757Y-79586127D01*
X85320000Y-79376246D01*
X85320000Y-79163753D01*
X85286757Y-78953872D01*
X85286757Y-78953869D01*
X85221095Y-78751782D01*
X85124624Y-78562449D01*
X85085270Y-78508282D01*
X85085269Y-78508282D01*
X84452962Y-79140590D01*
X84435925Y-79077007D01*
X84370099Y-78962993D01*
X84277007Y-78869901D01*
X84162993Y-78804075D01*
X84099409Y-78787037D01*
X84731716Y-78154728D01*
X84677550Y-78115375D01*
X84578655Y-78064985D01*
X84527859Y-78017010D01*
X84511064Y-77949189D01*
X84533602Y-77883054D01*
X84588317Y-77839603D01*
X84634950Y-77830500D01*
X84844676Y-77830500D01*
X84844677Y-77830499D01*
X84917740Y-77815966D01*
X85000601Y-77760601D01*
X85055966Y-77677740D01*
X85070500Y-77604674D01*
X85070500Y-75855326D01*
X85070500Y-75855323D01*
X85070499Y-75855321D01*
X85055967Y-75782264D01*
X85055966Y-75782260D01*
X85044972Y-75765806D01*
X85000601Y-75699399D01*
X84917740Y-75644034D01*
X84917739Y-75644033D01*
X84917735Y-75644032D01*
X84844677Y-75629500D01*
X84844674Y-75629500D01*
X83095326Y-75629500D01*
X83095323Y-75629500D01*
X83022264Y-75644032D01*
X83022260Y-75644033D01*
X82939399Y-75699399D01*
X82884033Y-75782260D01*
X82884032Y-75782264D01*
X82869500Y-75855321D01*
X82869500Y-77604678D01*
X82884032Y-77677735D01*
X82884033Y-77677739D01*
X82884034Y-77677740D01*
X82939399Y-77760601D01*
X83018691Y-77813581D01*
X83022260Y-77815966D01*
X83022264Y-77815967D01*
X83095321Y-77830499D01*
X83095324Y-77830500D01*
X83305051Y-77830500D01*
X83372090Y-77850185D01*
X83417845Y-77902989D01*
X83427789Y-77972147D01*
X83398764Y-78035703D01*
X83361346Y-78064985D01*
X83262439Y-78115380D01*
X83208282Y-78154727D01*
X83208282Y-78154728D01*
X83840591Y-78787037D01*
X83777007Y-78804075D01*
X83662993Y-78869901D01*
X83569901Y-78962993D01*
X83504075Y-79077007D01*
X83487037Y-79140591D01*
X82854728Y-78508282D01*
X82854727Y-78508282D01*
X82815380Y-78562439D01*
X82718904Y-78751782D01*
X82653242Y-78953869D01*
X82653242Y-78953872D01*
X82620000Y-79163753D01*
X79987390Y-79163753D01*
X79963402Y-79012299D01*
X79909873Y-78847555D01*
X79831232Y-78693212D01*
X79729414Y-78553072D01*
X79606928Y-78430586D01*
X79466788Y-78328768D01*
X79312445Y-78250127D01*
X79147701Y-78196598D01*
X79147699Y-78196597D01*
X79147698Y-78196597D01*
X79016271Y-78175781D01*
X78976611Y-78169500D01*
X78803389Y-78169500D01*
X78771192Y-78174599D01*
X78632301Y-78196597D01*
X78489713Y-78242927D01*
X78419872Y-78244922D01*
X78363714Y-78212677D01*
X78193218Y-78042181D01*
X78159733Y-77980858D01*
X78164717Y-77911166D01*
X78206589Y-77855233D01*
X78272053Y-77830816D01*
X78280899Y-77830500D01*
X79764676Y-77830500D01*
X79764677Y-77830499D01*
X79837740Y-77815966D01*
X79920601Y-77760601D01*
X79975966Y-77677740D01*
X79990500Y-77604674D01*
X79990500Y-75855326D01*
X79990500Y-75855323D01*
X79990499Y-75855321D01*
X79975967Y-75782264D01*
X79975966Y-75782260D01*
X79964972Y-75765806D01*
X79920601Y-75699399D01*
X79837740Y-75644034D01*
X79837739Y-75644033D01*
X79837735Y-75644032D01*
X79764677Y-75629500D01*
X79764674Y-75629500D01*
X78213500Y-75629500D01*
X78146461Y-75609815D01*
X78100706Y-75557011D01*
X78089500Y-75505500D01*
X78089500Y-73016725D01*
X78109185Y-72949686D01*
X78125819Y-72929044D01*
X78657752Y-72397111D01*
X79190474Y-71864389D01*
X79190475Y-71864388D01*
X79239910Y-71778764D01*
X79239910Y-71778761D01*
X79241463Y-71776073D01*
X79292029Y-71727857D01*
X79360636Y-71714633D01*
X79425501Y-71740601D01*
X79459334Y-71781776D01*
X79516004Y-71892995D01*
X79622441Y-72039494D01*
X79622445Y-72039499D01*
X79750500Y-72167554D01*
X79750505Y-72167558D01*
X79841079Y-72233363D01*
X79897006Y-72273996D01*
X80002484Y-72327740D01*
X80058360Y-72356211D01*
X80058363Y-72356212D01*
X80107626Y-72372218D01*
X80230591Y-72412171D01*
X80313429Y-72425291D01*
X80409449Y-72440500D01*
X80409454Y-72440500D01*
X80590551Y-72440500D01*
X80677259Y-72426765D01*
X80769409Y-72412171D01*
X80941639Y-72356211D01*
X81102994Y-72273996D01*
X81249501Y-72167553D01*
X81377553Y-72039501D01*
X81483996Y-71892994D01*
X81566211Y-71731639D01*
X81622171Y-71559409D01*
X81636765Y-71467259D01*
X81650500Y-71380551D01*
X81650500Y-71199448D01*
X81630371Y-71072365D01*
X81622171Y-71020591D01*
X81566211Y-70848361D01*
X81566211Y-70848360D01*
X81514500Y-70746873D01*
X81483996Y-70687006D01*
X81465937Y-70662150D01*
X81377558Y-70540505D01*
X81377554Y-70540500D01*
X81249499Y-70412445D01*
X81249494Y-70412441D01*
X81102997Y-70306006D01*
X81102996Y-70306005D01*
X81102994Y-70306004D01*
X81051300Y-70279664D01*
X80941639Y-70223788D01*
X80941636Y-70223787D01*
X80769410Y-70167829D01*
X80637733Y-70146973D01*
X80574598Y-70117044D01*
X80537667Y-70057732D01*
X80538665Y-69987869D01*
X80577275Y-69929637D01*
X80641239Y-69901523D01*
X80657131Y-69900500D01*
X81424676Y-69900500D01*
X81424677Y-69900499D01*
X81497740Y-69885966D01*
X81580601Y-69830601D01*
X81635966Y-69747740D01*
X81650500Y-69674674D01*
X81650500Y-67825326D01*
X81650500Y-67825323D01*
X81650499Y-67825321D01*
X81635967Y-67752264D01*
X81635966Y-67752260D01*
X81580601Y-67669399D01*
X81497740Y-67614034D01*
X81497739Y-67614033D01*
X81497735Y-67614032D01*
X81424677Y-67599500D01*
X81424674Y-67599500D01*
X79575326Y-67599500D01*
X79575323Y-67599500D01*
X79502264Y-67614032D01*
X79502260Y-67614033D01*
X79474390Y-67632656D01*
X79458388Y-67643347D01*
X79391713Y-67664224D01*
X79324333Y-67645739D01*
X79277643Y-67593760D01*
X79265500Y-67540244D01*
X79265500Y-64890495D01*
X79285185Y-64823456D01*
X79337989Y-64777701D01*
X79407147Y-64767757D01*
X79470703Y-64796782D01*
X79477181Y-64802814D01*
X79490342Y-64815975D01*
X79490345Y-64815977D01*
X79662402Y-64930941D01*
X79853580Y-65010130D01*
X79980999Y-65035475D01*
X80056530Y-65050499D01*
X80056534Y-65050500D01*
X80056535Y-65050500D01*
X80263466Y-65050500D01*
X80263467Y-65050499D01*
X80466420Y-65010130D01*
X80657598Y-64930941D01*
X80829655Y-64815977D01*
X80975977Y-64669655D01*
X81090941Y-64497598D01*
X81170130Y-64306420D01*
X81210500Y-64103465D01*
X81210500Y-63896535D01*
X81170130Y-63693580D01*
X81090941Y-63502402D01*
X80975977Y-63330345D01*
X80975975Y-63330342D01*
X80829657Y-63184024D01*
X80692870Y-63092627D01*
X80657598Y-63069059D01*
X80466420Y-62989870D01*
X80466412Y-62989868D01*
X80263469Y-62949500D01*
X80263465Y-62949500D01*
X80056535Y-62949500D01*
X80056530Y-62949500D01*
X79853587Y-62989868D01*
X79853579Y-62989870D01*
X79662403Y-63069058D01*
X79490342Y-63184024D01*
X79490341Y-63184025D01*
X79477181Y-63197186D01*
X79415858Y-63230671D01*
X79346166Y-63225687D01*
X79290233Y-63183815D01*
X79265816Y-63118351D01*
X79265500Y-63109505D01*
X79265500Y-58659780D01*
X79285185Y-58592741D01*
X79333206Y-58549295D01*
X79466786Y-58481233D01*
X79466785Y-58481233D01*
X79466788Y-58481232D01*
X79606928Y-58379414D01*
X79729414Y-58256928D01*
X79831232Y-58116788D01*
X79909873Y-57962445D01*
X79963402Y-57797701D01*
X79990500Y-57626611D01*
X79990500Y-57453389D01*
X79963402Y-57282299D01*
X79909873Y-57117555D01*
X79831232Y-56963212D01*
X79729414Y-56823072D01*
X79606928Y-56700586D01*
X79466788Y-56598768D01*
X79312445Y-56520127D01*
X79147701Y-56466598D01*
X79147699Y-56466597D01*
X79147698Y-56466597D01*
X79016271Y-56445781D01*
X78976611Y-56439500D01*
X78803389Y-56439500D01*
X78763728Y-56445781D01*
X78632302Y-56466597D01*
X78467552Y-56520128D01*
X78313211Y-56598768D01*
X78233256Y-56656859D01*
X78173072Y-56700586D01*
X78173070Y-56700588D01*
X78173069Y-56700588D01*
X78050588Y-56823069D01*
X78050588Y-56823070D01*
X78050586Y-56823072D01*
X78006859Y-56883256D01*
X77948768Y-56963211D01*
X77870128Y-57117552D01*
X77816597Y-57282302D01*
X77789500Y-57453389D01*
X77789500Y-57626611D01*
X77816598Y-57797701D01*
X77870127Y-57962445D01*
X77948768Y-58116788D01*
X78050586Y-58256928D01*
X78173072Y-58379414D01*
X78278177Y-58455777D01*
X78313213Y-58481233D01*
X78446794Y-58549295D01*
X78497591Y-58597269D01*
X78514500Y-58659780D01*
X78514500Y-63109505D01*
X78494815Y-63176544D01*
X78442011Y-63222299D01*
X78372853Y-63232243D01*
X78309297Y-63203218D01*
X78302819Y-63197186D01*
X78289657Y-63184024D01*
X78152870Y-63092627D01*
X78117598Y-63069059D01*
X77926420Y-62989870D01*
X77926412Y-62989868D01*
X77723469Y-62949500D01*
X77723465Y-62949500D01*
X77516535Y-62949500D01*
X77516530Y-62949500D01*
X77313587Y-62989868D01*
X77313579Y-62989870D01*
X77122403Y-63069058D01*
X76950342Y-63184024D01*
X76950341Y-63184025D01*
X76861181Y-63273186D01*
X76799858Y-63306671D01*
X76730166Y-63301687D01*
X76674233Y-63259815D01*
X76649816Y-63194351D01*
X76649500Y-63185505D01*
X76649500Y-58689911D01*
X76669185Y-58622872D01*
X76721989Y-58577117D01*
X76735172Y-58571983D01*
X76772445Y-58559873D01*
X76926788Y-58481232D01*
X77066928Y-58379414D01*
X77189414Y-58256928D01*
X77291232Y-58116788D01*
X77369873Y-57962445D01*
X77423402Y-57797701D01*
X77450500Y-57626611D01*
X77450500Y-57453389D01*
X77423402Y-57282299D01*
X77369873Y-57117555D01*
X77291232Y-56963212D01*
X77189414Y-56823072D01*
X77066928Y-56700586D01*
X76926788Y-56598768D01*
X76772445Y-56520127D01*
X76607701Y-56466598D01*
X76607699Y-56466597D01*
X76607698Y-56466597D01*
X76476271Y-56445781D01*
X76436611Y-56439500D01*
X76263389Y-56439500D01*
X76223728Y-56445781D01*
X76092302Y-56466597D01*
X75927552Y-56520128D01*
X75773211Y-56598768D01*
X75693256Y-56656859D01*
X75633072Y-56700586D01*
X75633070Y-56700588D01*
X75633069Y-56700588D01*
X75510588Y-56823069D01*
X75510588Y-56823070D01*
X75510586Y-56823072D01*
X75466859Y-56883256D01*
X75408768Y-56963211D01*
X75330128Y-57117552D01*
X75276597Y-57282302D01*
X75249500Y-57453389D01*
X75249500Y-57626611D01*
X75276598Y-57797701D01*
X75330127Y-57962445D01*
X75408768Y-58116788D01*
X75510586Y-58256928D01*
X75633072Y-58379414D01*
X75712186Y-58436894D01*
X75773207Y-58481229D01*
X75773209Y-58481230D01*
X75773212Y-58481232D01*
X75830796Y-58510571D01*
X75881590Y-58558543D01*
X75898500Y-58621055D01*
X75898500Y-63051490D01*
X75878815Y-63118529D01*
X75826011Y-63164284D01*
X75756853Y-63174228D01*
X75705610Y-63154593D01*
X75612860Y-63092620D01*
X75577598Y-63069059D01*
X75386420Y-62989870D01*
X75386412Y-62989868D01*
X75183469Y-62949500D01*
X75183465Y-62949500D01*
X74976535Y-62949500D01*
X74976530Y-62949500D01*
X74773587Y-62989868D01*
X74773579Y-62989870D01*
X74582403Y-63069058D01*
X74410342Y-63184024D01*
X74410341Y-63184025D01*
X74397181Y-63197186D01*
X74335858Y-63230671D01*
X74266166Y-63225687D01*
X74210233Y-63183815D01*
X74185816Y-63118351D01*
X74185500Y-63109505D01*
X74185500Y-58659780D01*
X74205185Y-58592741D01*
X74253206Y-58549295D01*
X74386786Y-58481233D01*
X74386785Y-58481233D01*
X74386788Y-58481232D01*
X74526928Y-58379414D01*
X74649414Y-58256928D01*
X74751232Y-58116788D01*
X74829873Y-57962445D01*
X74883402Y-57797701D01*
X74910500Y-57626611D01*
X74910500Y-57453389D01*
X74883402Y-57282299D01*
X74829873Y-57117555D01*
X74751232Y-56963212D01*
X74649414Y-56823072D01*
X74526928Y-56700586D01*
X74386788Y-56598768D01*
X74232445Y-56520127D01*
X74067701Y-56466598D01*
X74067699Y-56466597D01*
X74067698Y-56466597D01*
X73936271Y-56445781D01*
X73896611Y-56439500D01*
X73723389Y-56439500D01*
X73683728Y-56445781D01*
X73552302Y-56466597D01*
X73387552Y-56520128D01*
X73233211Y-56598768D01*
X73153256Y-56656859D01*
X73093072Y-56700586D01*
X73093070Y-56700588D01*
X73093069Y-56700588D01*
X72970588Y-56823069D01*
X72970588Y-56823070D01*
X72970586Y-56823072D01*
X72926859Y-56883256D01*
X72868768Y-56963211D01*
X72790128Y-57117552D01*
X72736597Y-57282302D01*
X72709500Y-57453389D01*
X72709500Y-57626611D01*
X72736598Y-57797701D01*
X72790127Y-57962445D01*
X72868768Y-58116788D01*
X72970586Y-58256928D01*
X73093072Y-58379414D01*
X73198177Y-58455777D01*
X73233213Y-58481233D01*
X73366794Y-58549295D01*
X73417591Y-58597269D01*
X73434500Y-58659780D01*
X73434500Y-63109505D01*
X73414815Y-63176544D01*
X73362011Y-63222299D01*
X73292853Y-63232243D01*
X73229297Y-63203218D01*
X73222819Y-63197186D01*
X73209657Y-63184024D01*
X73072870Y-63092627D01*
X73037598Y-63069059D01*
X72846420Y-62989870D01*
X72846412Y-62989868D01*
X72643469Y-62949500D01*
X72643465Y-62949500D01*
X72436535Y-62949500D01*
X72436530Y-62949500D01*
X72233587Y-62989868D01*
X72233579Y-62989870D01*
X72042403Y-63069058D01*
X71870342Y-63184024D01*
X71870341Y-63184025D01*
X71857181Y-63197186D01*
X71795858Y-63230671D01*
X71726166Y-63225687D01*
X71670233Y-63183815D01*
X71645816Y-63118351D01*
X71645500Y-63109505D01*
X71645500Y-58659780D01*
X71665185Y-58592741D01*
X71713206Y-58549295D01*
X71846786Y-58481233D01*
X71846785Y-58481233D01*
X71846788Y-58481232D01*
X71986928Y-58379414D01*
X72109414Y-58256928D01*
X72211232Y-58116788D01*
X72289873Y-57962445D01*
X72343402Y-57797701D01*
X72370500Y-57626611D01*
X72370500Y-57453389D01*
X72343402Y-57282299D01*
X72289873Y-57117555D01*
X72211232Y-56963212D01*
X72109414Y-56823072D01*
X71986928Y-56700586D01*
X71846788Y-56598768D01*
X71692445Y-56520127D01*
X71527701Y-56466598D01*
X71527699Y-56466597D01*
X71527698Y-56466597D01*
X71396271Y-56445781D01*
X71356611Y-56439500D01*
X71183389Y-56439500D01*
X71143728Y-56445781D01*
X71012302Y-56466597D01*
X70847552Y-56520128D01*
X70693211Y-56598768D01*
X70613256Y-56656859D01*
X70553072Y-56700586D01*
X70553070Y-56700588D01*
X70553069Y-56700588D01*
X70430588Y-56823069D01*
X70430588Y-56823070D01*
X70430586Y-56823072D01*
X70386859Y-56883256D01*
X70328768Y-56963211D01*
X70250128Y-57117552D01*
X70196597Y-57282302D01*
X70169500Y-57453389D01*
X70169500Y-57626611D01*
X70196598Y-57797701D01*
X70250127Y-57962445D01*
X70328768Y-58116788D01*
X70430586Y-58256928D01*
X70553072Y-58379414D01*
X70658177Y-58455777D01*
X70693213Y-58481233D01*
X70826794Y-58549295D01*
X70877591Y-58597269D01*
X70894500Y-58659780D01*
X70894500Y-63109505D01*
X70874815Y-63176544D01*
X70822011Y-63222299D01*
X70752853Y-63232243D01*
X70689297Y-63203218D01*
X70682819Y-63197186D01*
X70669657Y-63184024D01*
X70532870Y-63092627D01*
X70497598Y-63069059D01*
X70306420Y-62989870D01*
X70306412Y-62989868D01*
X70103469Y-62949500D01*
X70103465Y-62949500D01*
X69896535Y-62949500D01*
X69896530Y-62949500D01*
X69693587Y-62989868D01*
X69693579Y-62989870D01*
X69502403Y-63069058D01*
X69330342Y-63184024D01*
X69330341Y-63184025D01*
X69317181Y-63197186D01*
X69255858Y-63230671D01*
X69186166Y-63225687D01*
X69130233Y-63183815D01*
X69105816Y-63118351D01*
X69105500Y-63109505D01*
X69105500Y-58659780D01*
X69125185Y-58592741D01*
X69173206Y-58549295D01*
X69306786Y-58481233D01*
X69306785Y-58481233D01*
X69306788Y-58481232D01*
X69446928Y-58379414D01*
X69569414Y-58256928D01*
X69671232Y-58116788D01*
X69749873Y-57962445D01*
X69803402Y-57797701D01*
X69830500Y-57626611D01*
X69830500Y-57453389D01*
X69803402Y-57282299D01*
X69749873Y-57117555D01*
X69671232Y-56963212D01*
X69569414Y-56823072D01*
X69446928Y-56700586D01*
X69306788Y-56598768D01*
X69152445Y-56520127D01*
X68987701Y-56466598D01*
X68987699Y-56466597D01*
X68987698Y-56466597D01*
X68856271Y-56445781D01*
X68816611Y-56439500D01*
X68643389Y-56439500D01*
X68603728Y-56445781D01*
X68472302Y-56466597D01*
X68307552Y-56520128D01*
X68153211Y-56598768D01*
X68073256Y-56656859D01*
X68013072Y-56700586D01*
X68013070Y-56700588D01*
X68013069Y-56700588D01*
X67890588Y-56823069D01*
X67890588Y-56823070D01*
X67890586Y-56823072D01*
X67846859Y-56883256D01*
X67788768Y-56963211D01*
X67710128Y-57117552D01*
X67656597Y-57282302D01*
X67629500Y-57453389D01*
X67629500Y-57626611D01*
X67656598Y-57797701D01*
X67710127Y-57962445D01*
X67788768Y-58116788D01*
X67890586Y-58256928D01*
X68013072Y-58379414D01*
X68118177Y-58455777D01*
X68153213Y-58481233D01*
X68286794Y-58549295D01*
X68337591Y-58597269D01*
X68354500Y-58659780D01*
X68354500Y-63109505D01*
X68334815Y-63176544D01*
X68282011Y-63222299D01*
X68212853Y-63232243D01*
X68149297Y-63203218D01*
X68142819Y-63197186D01*
X68129657Y-63184024D01*
X67992870Y-63092627D01*
X67957598Y-63069059D01*
X67766420Y-62989870D01*
X67766412Y-62989868D01*
X67563469Y-62949500D01*
X67563465Y-62949500D01*
X67356535Y-62949500D01*
X67356530Y-62949500D01*
X67153587Y-62989868D01*
X67153579Y-62989870D01*
X66962403Y-63069058D01*
X66790342Y-63184024D01*
X66790341Y-63184025D01*
X66777181Y-63197186D01*
X66715858Y-63230671D01*
X66646166Y-63225687D01*
X66590233Y-63183815D01*
X66565816Y-63118351D01*
X66565500Y-63109505D01*
X66565500Y-58659780D01*
X66585185Y-58592741D01*
X66633206Y-58549295D01*
X66766786Y-58481233D01*
X66766785Y-58481233D01*
X66766788Y-58481232D01*
X66906928Y-58379414D01*
X67029414Y-58256928D01*
X67131232Y-58116788D01*
X67209873Y-57962445D01*
X67263402Y-57797701D01*
X67290500Y-57626611D01*
X67290500Y-57453389D01*
X67263402Y-57282299D01*
X67209873Y-57117555D01*
X67131232Y-56963212D01*
X67029414Y-56823072D01*
X66906928Y-56700586D01*
X66766788Y-56598768D01*
X66612445Y-56520127D01*
X66447701Y-56466598D01*
X66447699Y-56466597D01*
X66447698Y-56466597D01*
X66316271Y-56445781D01*
X66276611Y-56439500D01*
X66103389Y-56439500D01*
X66063728Y-56445781D01*
X65932302Y-56466597D01*
X65767552Y-56520128D01*
X65613211Y-56598768D01*
X65533256Y-56656859D01*
X65473072Y-56700586D01*
X65473070Y-56700588D01*
X65473069Y-56700588D01*
X65350588Y-56823069D01*
X65350588Y-56823070D01*
X65350586Y-56823072D01*
X65306859Y-56883256D01*
X65248768Y-56963211D01*
X65170128Y-57117552D01*
X65116597Y-57282302D01*
X65089500Y-57453389D01*
X65089500Y-57626611D01*
X65116598Y-57797701D01*
X65170127Y-57962445D01*
X65248768Y-58116788D01*
X65350586Y-58256928D01*
X65473072Y-58379414D01*
X65578177Y-58455777D01*
X65613213Y-58481233D01*
X65746794Y-58549295D01*
X65797591Y-58597269D01*
X65814500Y-58659780D01*
X65814500Y-63109505D01*
X65794815Y-63176544D01*
X65742011Y-63222299D01*
X65672853Y-63232243D01*
X65609297Y-63203218D01*
X65602819Y-63197186D01*
X65589657Y-63184024D01*
X65452870Y-63092627D01*
X65417598Y-63069059D01*
X65226420Y-62989870D01*
X65226412Y-62989868D01*
X65023469Y-62949500D01*
X65023465Y-62949500D01*
X64816535Y-62949500D01*
X64816530Y-62949500D01*
X64613587Y-62989868D01*
X64613579Y-62989870D01*
X64422403Y-63069058D01*
X64250342Y-63184024D01*
X64250341Y-63184025D01*
X64237181Y-63197186D01*
X64175858Y-63230671D01*
X64106166Y-63225687D01*
X64050233Y-63183815D01*
X64025816Y-63118351D01*
X64025500Y-63109505D01*
X64025500Y-58659780D01*
X64045185Y-58592741D01*
X64093206Y-58549295D01*
X64226786Y-58481233D01*
X64226785Y-58481233D01*
X64226788Y-58481232D01*
X64366928Y-58379414D01*
X64489414Y-58256928D01*
X64591232Y-58116788D01*
X64669873Y-57962445D01*
X64723402Y-57797701D01*
X64750500Y-57626611D01*
X64750500Y-57453389D01*
X64723402Y-57282299D01*
X64669873Y-57117555D01*
X64591232Y-56963212D01*
X64489414Y-56823072D01*
X64366928Y-56700586D01*
X64226788Y-56598768D01*
X64072445Y-56520127D01*
X63907701Y-56466598D01*
X63907699Y-56466597D01*
X63907698Y-56466597D01*
X63776271Y-56445781D01*
X63736611Y-56439500D01*
X63563389Y-56439500D01*
X63523728Y-56445781D01*
X63392302Y-56466597D01*
X63227552Y-56520128D01*
X63073211Y-56598768D01*
X62993256Y-56656859D01*
X62933072Y-56700586D01*
X62933070Y-56700588D01*
X62933069Y-56700588D01*
X62810588Y-56823069D01*
X62810588Y-56823070D01*
X62810586Y-56823072D01*
X62766859Y-56883256D01*
X62708768Y-56963211D01*
X62630128Y-57117552D01*
X62576597Y-57282302D01*
X62549500Y-57453389D01*
X62549500Y-57626611D01*
X62576598Y-57797701D01*
X62630127Y-57962445D01*
X62708768Y-58116788D01*
X62810586Y-58256928D01*
X62933072Y-58379414D01*
X63038177Y-58455777D01*
X63073213Y-58481233D01*
X63206794Y-58549295D01*
X63257591Y-58597269D01*
X63274500Y-58659780D01*
X63274500Y-63109505D01*
X63254815Y-63176544D01*
X63202011Y-63222299D01*
X63132853Y-63232243D01*
X63069297Y-63203218D01*
X63062819Y-63197186D01*
X63049657Y-63184024D01*
X62912870Y-63092627D01*
X62877598Y-63069059D01*
X62686420Y-62989870D01*
X62686412Y-62989868D01*
X62483469Y-62949500D01*
X62483465Y-62949500D01*
X62276535Y-62949500D01*
X62276530Y-62949500D01*
X62073587Y-62989868D01*
X62073579Y-62989870D01*
X61882403Y-63069058D01*
X61710342Y-63184024D01*
X61710341Y-63184025D01*
X61697181Y-63197186D01*
X61635858Y-63230671D01*
X61566166Y-63225687D01*
X61510233Y-63183815D01*
X61485816Y-63118351D01*
X61485500Y-63109505D01*
X61485500Y-58659780D01*
X61505185Y-58592741D01*
X61553206Y-58549295D01*
X61686786Y-58481233D01*
X61686785Y-58481233D01*
X61686788Y-58481232D01*
X61826928Y-58379414D01*
X61949414Y-58256928D01*
X62051232Y-58116788D01*
X62129873Y-57962445D01*
X62183402Y-57797701D01*
X62210500Y-57626611D01*
X62210500Y-57453389D01*
X62183402Y-57282299D01*
X62129873Y-57117555D01*
X62051232Y-56963212D01*
X61949414Y-56823072D01*
X61826928Y-56700586D01*
X61686788Y-56598768D01*
X61532445Y-56520127D01*
X61367701Y-56466598D01*
X61367699Y-56466597D01*
X61367698Y-56466597D01*
X61236271Y-56445781D01*
X61196611Y-56439500D01*
X61023389Y-56439500D01*
X60983728Y-56445781D01*
X60852302Y-56466597D01*
X60687552Y-56520128D01*
X60533211Y-56598768D01*
X60453256Y-56656859D01*
X60393072Y-56700586D01*
X60393070Y-56700588D01*
X60393069Y-56700588D01*
X60270588Y-56823069D01*
X60270588Y-56823070D01*
X60270586Y-56823072D01*
X60226859Y-56883256D01*
X60168768Y-56963211D01*
X60090128Y-57117552D01*
X60036597Y-57282302D01*
X60009500Y-57453389D01*
X60009500Y-57626611D01*
X60036598Y-57797701D01*
X60090127Y-57962445D01*
X60168768Y-58116788D01*
X60270586Y-58256928D01*
X60393072Y-58379414D01*
X60498177Y-58455777D01*
X60533213Y-58481233D01*
X60666794Y-58549295D01*
X60717591Y-58597269D01*
X60734500Y-58659780D01*
X60734500Y-62576000D01*
X60714815Y-62643039D01*
X60662011Y-62688794D01*
X60610500Y-62700000D01*
X60090000Y-62700000D01*
X60090000Y-63684314D01*
X60085606Y-63679920D01*
X59994394Y-63627259D01*
X59892661Y-63600000D01*
X59787339Y-63600000D01*
X59685606Y-63627259D01*
X59594394Y-63679920D01*
X59590000Y-63684314D01*
X59590000Y-62700000D01*
X58992155Y-62700000D01*
X58932627Y-62706401D01*
X58932620Y-62706403D01*
X58797913Y-62756645D01*
X58797906Y-62756649D01*
X58682812Y-62842809D01*
X58682809Y-62842812D01*
X58596649Y-62957906D01*
X58596645Y-62957913D01*
X58546403Y-63092620D01*
X58546401Y-63092627D01*
X58540000Y-63152155D01*
X58540000Y-63750000D01*
X59524314Y-63750000D01*
X59519920Y-63754394D01*
X59467259Y-63845606D01*
X59440000Y-63947339D01*
X59440000Y-64052661D01*
X59467259Y-64154394D01*
X59519920Y-64245606D01*
X59524314Y-64250000D01*
X58540000Y-64250000D01*
X58540000Y-64847844D01*
X58546401Y-64907372D01*
X58546403Y-64907379D01*
X58596645Y-65042086D01*
X58596649Y-65042093D01*
X58682809Y-65157187D01*
X58682812Y-65157190D01*
X58797906Y-65243350D01*
X58797913Y-65243354D01*
X58932620Y-65293596D01*
X58932627Y-65293598D01*
X58992155Y-65299999D01*
X58992172Y-65300000D01*
X59590000Y-65300000D01*
X59590000Y-64315686D01*
X59594394Y-64320080D01*
X59685606Y-64372741D01*
X59787339Y-64400000D01*
X59892661Y-64400000D01*
X59994394Y-64372741D01*
X60085606Y-64320080D01*
X60090000Y-64315686D01*
X60090000Y-65300000D01*
X60231900Y-65300000D01*
X60298939Y-65319685D01*
X60344694Y-65372489D01*
X60355900Y-65424000D01*
X60355900Y-67475500D01*
X60336215Y-67542539D01*
X60283411Y-67588294D01*
X60231900Y-67599500D01*
X58575323Y-67599500D01*
X58502264Y-67614032D01*
X58502260Y-67614033D01*
X58419399Y-67669399D01*
X58364033Y-67752260D01*
X58364032Y-67752264D01*
X58349500Y-67825321D01*
X53990500Y-67825321D01*
X53990500Y-54913389D01*
X60009500Y-54913389D01*
X60009500Y-55086611D01*
X60036598Y-55257701D01*
X60090127Y-55422445D01*
X60168768Y-55576788D01*
X60270586Y-55716928D01*
X60393072Y-55839414D01*
X60533212Y-55941232D01*
X60687555Y-56019873D01*
X60852299Y-56073402D01*
X61023389Y-56100500D01*
X61023390Y-56100500D01*
X61196610Y-56100500D01*
X61196611Y-56100500D01*
X61367701Y-56073402D01*
X61532445Y-56019873D01*
X61686788Y-55941232D01*
X61826928Y-55839414D01*
X61949414Y-55716928D01*
X62051232Y-55576788D01*
X62129873Y-55422445D01*
X62183402Y-55257701D01*
X62210500Y-55086611D01*
X62210500Y-54913389D01*
X62549500Y-54913389D01*
X62549500Y-55086611D01*
X62576598Y-55257701D01*
X62630127Y-55422445D01*
X62708768Y-55576788D01*
X62810586Y-55716928D01*
X62933072Y-55839414D01*
X63073212Y-55941232D01*
X63227555Y-56019873D01*
X63392299Y-56073402D01*
X63563389Y-56100500D01*
X63563390Y-56100500D01*
X63736610Y-56100500D01*
X63736611Y-56100500D01*
X63907701Y-56073402D01*
X64072445Y-56019873D01*
X64226788Y-55941232D01*
X64366928Y-55839414D01*
X64489414Y-55716928D01*
X64591232Y-55576788D01*
X64669873Y-55422445D01*
X64723402Y-55257701D01*
X64750500Y-55086611D01*
X64750500Y-54913389D01*
X65089500Y-54913389D01*
X65089500Y-55086611D01*
X65116598Y-55257701D01*
X65170127Y-55422445D01*
X65248768Y-55576788D01*
X65350586Y-55716928D01*
X65473072Y-55839414D01*
X65613212Y-55941232D01*
X65767555Y-56019873D01*
X65932299Y-56073402D01*
X66103389Y-56100500D01*
X66103390Y-56100500D01*
X66276610Y-56100500D01*
X66276611Y-56100500D01*
X66447701Y-56073402D01*
X66612445Y-56019873D01*
X66766788Y-55941232D01*
X66906928Y-55839414D01*
X67029414Y-55716928D01*
X67131232Y-55576788D01*
X67209873Y-55422445D01*
X67263402Y-55257701D01*
X67290500Y-55086611D01*
X67290500Y-54913389D01*
X67629500Y-54913389D01*
X67629500Y-55086611D01*
X67656598Y-55257701D01*
X67710127Y-55422445D01*
X67788768Y-55576788D01*
X67890586Y-55716928D01*
X68013072Y-55839414D01*
X68153212Y-55941232D01*
X68307555Y-56019873D01*
X68472299Y-56073402D01*
X68643389Y-56100500D01*
X68643390Y-56100500D01*
X68816610Y-56100500D01*
X68816611Y-56100500D01*
X68987701Y-56073402D01*
X69152445Y-56019873D01*
X69306788Y-55941232D01*
X69446928Y-55839414D01*
X69569414Y-55716928D01*
X69671232Y-55576788D01*
X69749873Y-55422445D01*
X69803402Y-55257701D01*
X69830500Y-55086611D01*
X69830500Y-54913389D01*
X70169500Y-54913389D01*
X70169500Y-55086611D01*
X70196598Y-55257701D01*
X70250127Y-55422445D01*
X70328768Y-55576788D01*
X70430586Y-55716928D01*
X70553072Y-55839414D01*
X70693212Y-55941232D01*
X70847555Y-56019873D01*
X71012299Y-56073402D01*
X71183389Y-56100500D01*
X71183390Y-56100500D01*
X71356610Y-56100500D01*
X71356611Y-56100500D01*
X71527701Y-56073402D01*
X71692445Y-56019873D01*
X71846788Y-55941232D01*
X71986928Y-55839414D01*
X72109414Y-55716928D01*
X72211232Y-55576788D01*
X72289873Y-55422445D01*
X72343402Y-55257701D01*
X72370500Y-55086611D01*
X72370500Y-54913389D01*
X72709500Y-54913389D01*
X72709500Y-55086611D01*
X72736598Y-55257701D01*
X72790127Y-55422445D01*
X72868768Y-55576788D01*
X72970586Y-55716928D01*
X73093072Y-55839414D01*
X73233212Y-55941232D01*
X73387555Y-56019873D01*
X73552299Y-56073402D01*
X73723389Y-56100500D01*
X73723390Y-56100500D01*
X73896610Y-56100500D01*
X73896611Y-56100500D01*
X74067701Y-56073402D01*
X74232445Y-56019873D01*
X74386788Y-55941232D01*
X74526928Y-55839414D01*
X74649414Y-55716928D01*
X74751232Y-55576788D01*
X74829873Y-55422445D01*
X74883402Y-55257701D01*
X74910500Y-55086611D01*
X74910500Y-54913389D01*
X75249500Y-54913389D01*
X75249500Y-55086611D01*
X75276598Y-55257701D01*
X75330127Y-55422445D01*
X75408768Y-55576788D01*
X75510586Y-55716928D01*
X75633072Y-55839414D01*
X75773212Y-55941232D01*
X75927555Y-56019873D01*
X76092299Y-56073402D01*
X76263389Y-56100500D01*
X76263390Y-56100500D01*
X76436610Y-56100500D01*
X76436611Y-56100500D01*
X76607701Y-56073402D01*
X76772445Y-56019873D01*
X76926788Y-55941232D01*
X77066928Y-55839414D01*
X77189414Y-55716928D01*
X77291232Y-55576788D01*
X77369873Y-55422445D01*
X77423402Y-55257701D01*
X77450500Y-55086611D01*
X77450500Y-54913389D01*
X77423402Y-54742299D01*
X77369873Y-54577555D01*
X77291232Y-54423212D01*
X77291230Y-54423209D01*
X77291229Y-54423207D01*
X77290130Y-54421693D01*
X77290128Y-54421692D01*
X77239591Y-54352135D01*
X77789500Y-54352135D01*
X77789500Y-55647870D01*
X77789501Y-55647876D01*
X77795908Y-55707483D01*
X77846202Y-55842328D01*
X77846206Y-55842335D01*
X77932452Y-55957544D01*
X77932455Y-55957547D01*
X78047664Y-56043793D01*
X78047671Y-56043797D01*
X78182517Y-56094091D01*
X78182516Y-56094091D01*
X78189444Y-56094835D01*
X78242127Y-56100500D01*
X79537872Y-56100499D01*
X79597483Y-56094091D01*
X79732331Y-56043796D01*
X79847546Y-55957546D01*
X79933796Y-55842331D01*
X79984091Y-55707483D01*
X79990500Y-55647873D01*
X79990499Y-54352128D01*
X79984091Y-54292517D01*
X79980568Y-54283072D01*
X79933797Y-54157671D01*
X79933793Y-54157664D01*
X79847547Y-54042455D01*
X79847544Y-54042452D01*
X79732335Y-53956206D01*
X79732328Y-53956202D01*
X79597482Y-53905908D01*
X79597483Y-53905908D01*
X79537883Y-53899501D01*
X79537881Y-53899500D01*
X79537873Y-53899500D01*
X79537864Y-53899500D01*
X78242129Y-53899500D01*
X78242123Y-53899501D01*
X78182516Y-53905908D01*
X78047671Y-53956202D01*
X78047664Y-53956206D01*
X77932455Y-54042452D01*
X77932452Y-54042455D01*
X77846206Y-54157664D01*
X77846202Y-54157671D01*
X77795908Y-54292517D01*
X77789501Y-54352116D01*
X77789501Y-54352123D01*
X77789500Y-54352135D01*
X77239591Y-54352135D01*
X77239586Y-54352128D01*
X77189414Y-54283072D01*
X77066928Y-54160586D01*
X76926788Y-54058768D01*
X76772445Y-53980127D01*
X76607701Y-53926598D01*
X76607699Y-53926597D01*
X76607698Y-53926597D01*
X76476271Y-53905781D01*
X76436611Y-53899500D01*
X76263389Y-53899500D01*
X76223728Y-53905781D01*
X76092302Y-53926597D01*
X75927552Y-53980128D01*
X75773211Y-54058768D01*
X75693256Y-54116859D01*
X75633072Y-54160586D01*
X75633070Y-54160588D01*
X75633069Y-54160588D01*
X75510588Y-54283069D01*
X75510588Y-54283070D01*
X75510586Y-54283072D01*
X75503725Y-54292516D01*
X75408768Y-54423211D01*
X75330128Y-54577552D01*
X75276597Y-54742302D01*
X75249500Y-54913389D01*
X74910500Y-54913389D01*
X74883402Y-54742299D01*
X74829873Y-54577555D01*
X74751232Y-54423212D01*
X74649414Y-54283072D01*
X74526928Y-54160586D01*
X74386788Y-54058768D01*
X74232445Y-53980127D01*
X74067701Y-53926598D01*
X74067699Y-53926597D01*
X74067698Y-53926597D01*
X73936271Y-53905781D01*
X73896611Y-53899500D01*
X73723389Y-53899500D01*
X73683728Y-53905781D01*
X73552302Y-53926597D01*
X73387552Y-53980128D01*
X73233211Y-54058768D01*
X73153256Y-54116859D01*
X73093072Y-54160586D01*
X73093070Y-54160588D01*
X73093069Y-54160588D01*
X72970588Y-54283069D01*
X72970588Y-54283070D01*
X72970586Y-54283072D01*
X72963725Y-54292516D01*
X72868768Y-54423211D01*
X72790128Y-54577552D01*
X72736597Y-54742302D01*
X72709500Y-54913389D01*
X72370500Y-54913389D01*
X72343402Y-54742299D01*
X72289873Y-54577555D01*
X72211232Y-54423212D01*
X72109414Y-54283072D01*
X71986928Y-54160586D01*
X71846788Y-54058768D01*
X71692445Y-53980127D01*
X71527701Y-53926598D01*
X71527699Y-53926597D01*
X71527698Y-53926597D01*
X71396271Y-53905781D01*
X71356611Y-53899500D01*
X71183389Y-53899500D01*
X71143728Y-53905781D01*
X71012302Y-53926597D01*
X70847552Y-53980128D01*
X70693211Y-54058768D01*
X70613256Y-54116859D01*
X70553072Y-54160586D01*
X70553070Y-54160588D01*
X70553069Y-54160588D01*
X70430588Y-54283069D01*
X70430588Y-54283070D01*
X70430586Y-54283072D01*
X70423725Y-54292516D01*
X70328768Y-54423211D01*
X70250128Y-54577552D01*
X70196597Y-54742302D01*
X70169500Y-54913389D01*
X69830500Y-54913389D01*
X69803402Y-54742299D01*
X69749873Y-54577555D01*
X69671232Y-54423212D01*
X69569414Y-54283072D01*
X69446928Y-54160586D01*
X69306788Y-54058768D01*
X69152445Y-53980127D01*
X68987701Y-53926598D01*
X68987699Y-53926597D01*
X68987698Y-53926597D01*
X68856271Y-53905781D01*
X68816611Y-53899500D01*
X68643389Y-53899500D01*
X68603728Y-53905781D01*
X68472302Y-53926597D01*
X68307552Y-53980128D01*
X68153211Y-54058768D01*
X68073256Y-54116859D01*
X68013072Y-54160586D01*
X68013070Y-54160588D01*
X68013069Y-54160588D01*
X67890588Y-54283069D01*
X67890588Y-54283070D01*
X67890586Y-54283072D01*
X67883725Y-54292516D01*
X67788768Y-54423211D01*
X67710128Y-54577552D01*
X67656597Y-54742302D01*
X67629500Y-54913389D01*
X67290500Y-54913389D01*
X67263402Y-54742299D01*
X67209873Y-54577555D01*
X67131232Y-54423212D01*
X67029414Y-54283072D01*
X66906928Y-54160586D01*
X66766788Y-54058768D01*
X66612445Y-53980127D01*
X66447701Y-53926598D01*
X66447699Y-53926597D01*
X66447698Y-53926597D01*
X66316271Y-53905781D01*
X66276611Y-53899500D01*
X66103389Y-53899500D01*
X66063728Y-53905781D01*
X65932302Y-53926597D01*
X65767552Y-53980128D01*
X65613211Y-54058768D01*
X65533256Y-54116859D01*
X65473072Y-54160586D01*
X65473070Y-54160588D01*
X65473069Y-54160588D01*
X65350588Y-54283069D01*
X65350588Y-54283070D01*
X65350586Y-54283072D01*
X65343725Y-54292516D01*
X65248768Y-54423211D01*
X65170128Y-54577552D01*
X65116597Y-54742302D01*
X65089500Y-54913389D01*
X64750500Y-54913389D01*
X64723402Y-54742299D01*
X64669873Y-54577555D01*
X64591232Y-54423212D01*
X64489414Y-54283072D01*
X64366928Y-54160586D01*
X64226788Y-54058768D01*
X64072445Y-53980127D01*
X63907701Y-53926598D01*
X63907699Y-53926597D01*
X63907698Y-53926597D01*
X63776271Y-53905781D01*
X63736611Y-53899500D01*
X63563389Y-53899500D01*
X63523728Y-53905781D01*
X63392302Y-53926597D01*
X63227552Y-53980128D01*
X63073211Y-54058768D01*
X62993256Y-54116859D01*
X62933072Y-54160586D01*
X62933070Y-54160588D01*
X62933069Y-54160588D01*
X62810588Y-54283069D01*
X62810588Y-54283070D01*
X62810586Y-54283072D01*
X62803725Y-54292516D01*
X62708768Y-54423211D01*
X62630128Y-54577552D01*
X62576597Y-54742302D01*
X62549500Y-54913389D01*
X62210500Y-54913389D01*
X62183402Y-54742299D01*
X62129873Y-54577555D01*
X62051232Y-54423212D01*
X61949414Y-54283072D01*
X61826928Y-54160586D01*
X61686788Y-54058768D01*
X61532445Y-53980127D01*
X61367701Y-53926598D01*
X61367699Y-53926597D01*
X61367698Y-53926597D01*
X61236271Y-53905781D01*
X61196611Y-53899500D01*
X61023389Y-53899500D01*
X60983728Y-53905781D01*
X60852302Y-53926597D01*
X60687552Y-53980128D01*
X60533211Y-54058768D01*
X60453256Y-54116859D01*
X60393072Y-54160586D01*
X60393070Y-54160588D01*
X60393069Y-54160588D01*
X60270588Y-54283069D01*
X60270588Y-54283070D01*
X60270586Y-54283072D01*
X60263725Y-54292516D01*
X60168768Y-54423211D01*
X60090128Y-54577552D01*
X60036597Y-54742302D01*
X60009500Y-54913389D01*
X53990500Y-54913389D01*
X53990500Y-50624500D01*
X54010185Y-50557461D01*
X54062989Y-50511706D01*
X54114500Y-50500500D01*
X85885500Y-50500500D01*
X85952539Y-50520185D01*
G37*
%TD.AperFunction*%
%TD*%
M02*
