M48
; DRILL file {KiCad 9.0.7} date 2026-07-11T13:50:33+0100
; FORMAT={-:-/ absolute / metric / decimal}
; #@! TF.CreationDate,2026-07-11T13:50:33+01:00
; #@! TF.GenerationSoftware,Kicad,Pcbnew,9.0.7
; #@! TF.FileFunction,MixedPlating,1,2
FMAT,2
METRIC
; #@! TA.AperFunction,Plated,PTH,ComponentDrill
T1C0.800
; #@! TA.AperFunction,Plated,PTH,ComponentDrill
T2C0.900
; #@! TA.AperFunction,Plated,PTH,ComponentDrill
T3C1.000
%
G90
G05
T1
X59.84Y-64.0
X59.84Y-92.0
X62.38Y-64.0
X62.38Y-92.0
X64.92Y-64.0
X64.92Y-92.0
X67.46Y-64.0
X67.46Y-92.0
X70.0Y-64.0
X70.0Y-92.0
X72.54Y-64.0
X72.54Y-92.0
X75.08Y-64.0
X75.08Y-92.0
X77.62Y-64.0
X77.62Y-92.0
X80.16Y-64.0
X80.16Y-92.0
T2
X59.5Y-68.75
X59.5Y-71.29
X59.5Y-84.96
X59.5Y-87.5
X62.5Y-68.75
X62.5Y-71.29
X62.5Y-84.96
X62.5Y-87.5
X65.5Y-68.75
X65.5Y-71.29
X65.5Y-84.96
X65.5Y-87.5
X68.5Y-68.75
X68.5Y-71.29
X68.5Y-84.96
X68.5Y-87.5
X71.5Y-68.75
X71.5Y-71.29
X71.5Y-84.96
X71.5Y-87.5
X74.5Y-68.75
X74.5Y-71.29
X74.5Y-84.96
X74.5Y-87.5
X77.5Y-68.75
X77.5Y-71.29
X77.5Y-84.96
X77.5Y-87.5
X80.5Y-68.75
X80.5Y-71.29
X80.5Y-84.96
X80.5Y-87.5
T3
X56.03Y-74.19
X56.03Y-76.73
X56.03Y-79.27
X56.03Y-81.81
X61.11Y-55.0
X61.11Y-57.54
X61.11Y-76.73
X61.11Y-79.27
X61.11Y-98.46
X61.11Y-101.0
X63.65Y-55.0
X63.65Y-57.54
X63.65Y-76.73
X63.65Y-79.27
X63.65Y-98.46
X63.65Y-101.0
X66.19Y-55.0
X66.19Y-57.54
X66.19Y-76.73
X66.19Y-79.27
X66.19Y-98.46
X66.19Y-101.0
X68.73Y-55.0
X68.73Y-57.54
X68.73Y-76.73
X68.73Y-79.27
X68.73Y-98.46
X68.73Y-101.0
X71.27Y-55.0
X71.27Y-57.54
X71.27Y-76.73
X71.27Y-79.27
X71.27Y-98.46
X71.27Y-101.0
X73.81Y-55.0
X73.81Y-57.54
X73.81Y-76.73
X73.81Y-79.27
X73.81Y-98.46
X73.81Y-101.0
X76.35Y-55.0
X76.35Y-57.54
X76.35Y-76.73
X76.35Y-79.27
X76.35Y-98.46
X76.35Y-101.0
X78.89Y-55.0
X78.89Y-57.54
X78.89Y-76.73
X78.89Y-79.27
X78.89Y-98.46
X78.89Y-101.0
X83.97Y-76.73
X83.97Y-79.27
M30
