M48
; DRILL file {KiCad 9.0.7} date 2026-05-08T14:19:08+0100
; FORMAT={-:-/ absolute / metric / decimal}
; #@! TF.CreationDate,2026-05-08T14:19:08+01:00
; #@! TF.GenerationSoftware,Kicad,Pcbnew,9.0.7
; #@! TF.FileFunction,MixedPlating,1,2
FMAT,2
METRIC
; #@! TA.AperFunction,Plated,PTH,ViaDrill
T1C0.300
; #@! TA.AperFunction,Plated,PTH,ComponentDrill
T2C0.800
; #@! TA.AperFunction,Plated,PTH,ComponentDrill
T3C1.000
; #@! TA.AperFunction,Plated,PTH,ComponentDrill
T4C1.100
%
G90
G05
T1
X55.88Y-99.06
X57.15Y-97.536
X58.42Y-102.87
X59.69Y-101.6
X60.96Y-104.14
X62.349Y-100.33
X66.04Y-105.41
X68.58Y-106.68
X72.39Y-70.485
T2
X52.324Y-65.786
X52.324Y-70.786
X55.88Y-64.77
X55.88Y-72.39
X55.88Y-77.47
X55.88Y-92.71
X58.42Y-64.77
X58.42Y-72.39
X58.42Y-77.47
X58.42Y-92.71
X60.96Y-64.77
X60.96Y-72.39
X60.96Y-77.47
X60.96Y-92.71
X63.5Y-64.77
X63.5Y-72.39
X63.5Y-77.47
X63.5Y-92.71
X66.04Y-64.77
X66.04Y-72.39
X66.04Y-77.47
X66.04Y-92.71
X68.58Y-64.77
X68.58Y-72.39
X68.58Y-77.47
X68.58Y-92.71
X71.12Y-64.77
X71.12Y-72.39
X71.12Y-77.47
X71.12Y-92.71
X73.66Y-64.77
X73.66Y-72.39
X73.66Y-77.47
X73.66Y-92.71
X76.2Y-64.77
X76.2Y-72.39
X76.2Y-77.47
X76.2Y-92.71
X78.74Y-64.77
X78.74Y-72.39
X78.74Y-77.47
X78.74Y-92.71
X81.28Y-77.47
X81.28Y-92.71
X83.82Y-66.08
X83.82Y-71.08
X83.82Y-77.47
X83.82Y-92.71
X86.36Y-77.47
X86.36Y-92.71
X87.63Y-64.77
X87.63Y-72.39
X88.9Y-77.47
X88.9Y-92.71
X90.17Y-64.77
X90.17Y-72.39
X91.44Y-77.47
X91.44Y-92.71
X92.71Y-64.77
X92.71Y-72.39
X93.98Y-77.47
X93.98Y-92.71
X95.25Y-64.77
X95.25Y-72.39
X96.52Y-77.47
X96.52Y-92.71
X97.79Y-64.77
X97.79Y-72.39
X99.06Y-77.47
X99.06Y-92.71
X100.33Y-64.77
X100.33Y-72.39
X101.6Y-77.47
X101.6Y-92.71
X102.87Y-64.77
X102.87Y-72.39
X104.14Y-77.47
X104.14Y-92.71
X107.188Y-80.01
X107.188Y-85.01
X110.0Y-64.77
X110.0Y-72.39
X111.252Y-78.74
X111.252Y-81.28
X111.252Y-83.82
X111.252Y-86.36
X111.252Y-88.9
X111.252Y-91.44
X111.252Y-93.98
X111.252Y-97.536
X111.252Y-105.156
X113.07Y-75.438
X113.5Y-64.77
X113.5Y-72.39
X114.808Y-97.536
X114.808Y-105.156
X117.0Y-64.77
X117.0Y-72.39
X118.07Y-75.438
X118.364Y-97.536
X118.364Y-105.156
X118.872Y-78.74
X118.872Y-81.28
X118.872Y-83.82
X118.872Y-86.36
X118.872Y-88.9
X118.872Y-91.44
X118.872Y-93.98
X120.5Y-64.77
X120.5Y-72.39
T3
X56.134Y-112.38
X56.134Y-117.46
X57.15Y-55.08
X57.15Y-57.62
X58.674Y-112.38
X58.674Y-117.46
X59.69Y-55.08
X59.69Y-57.62
X61.214Y-112.38
X61.214Y-117.46
X62.23Y-55.08
X62.23Y-57.62
X63.754Y-112.38
X63.754Y-117.46
X64.77Y-55.08
X64.77Y-57.62
X66.294Y-112.38
X66.294Y-117.46
X67.31Y-55.08
X67.31Y-57.62
X68.834Y-112.38
X68.834Y-117.46
X69.85Y-55.08
X69.85Y-57.62
X71.374Y-112.38
X71.374Y-117.46
X72.39Y-55.08
X72.39Y-57.62
X73.914Y-112.38
X73.914Y-117.46
X74.93Y-55.08
X74.93Y-57.62
X76.454Y-112.38
X76.454Y-117.46
X78.994Y-112.38
X78.994Y-117.46
X81.534Y-112.38
X81.534Y-117.46
X84.074Y-112.38
X84.074Y-117.46
X86.36Y-54.61
X86.36Y-59.69
X86.614Y-112.38
X86.614Y-117.46
X89.154Y-112.38
X89.154Y-117.46
X90.17Y-54.61
X90.17Y-59.69
X91.694Y-112.38
X91.694Y-117.46
X94.234Y-112.38
X94.234Y-117.46
X96.774Y-112.38
X96.774Y-117.46
X97.79Y-55.88
X99.314Y-112.38
X99.314Y-117.46
X100.33Y-55.88
X101.854Y-112.38
X101.854Y-117.46
X102.87Y-55.88
X104.394Y-112.38
X104.394Y-117.46
X106.934Y-112.38
X106.934Y-117.46
X109.474Y-112.38
X109.474Y-117.46
X112.014Y-112.38
X112.014Y-117.46
X114.554Y-112.38
X114.554Y-117.46
X117.094Y-112.38
X117.094Y-117.46
T4
X111.61Y-53.34
X111.61Y-57.84
X118.11Y-53.34
X118.11Y-57.84
M30
