%TF.GenerationSoftware,KiCad,Pcbnew,9.0.7*%
%TF.CreationDate,2026-05-06T06:57:35+01:00*%
%TF.ProjectId,PDS_PCISA,5044535f-5043-4495-9341-2e6b69636164,rev?*%
%TF.SameCoordinates,Original*%
%TF.FileFunction,Soldermask,Top*%
%TF.FilePolarity,Negative*%
%FSLAX46Y46*%
G04 Gerber Fmt 4.6, Leading zero omitted, Abs format (unit mm)*
G04 Created by KiCad (PCBNEW 9.0.7) date 2026-05-06 06:57:35*
%MOMM*%
%LPD*%
G01*
G04 APERTURE LIST*
G04 Aperture macros list*
%AMRoundRect*
0 Rectangle with rounded corners*
0 $1 Rounding radius*
0 $2 $3 $4 $5 $6 $7 $8 $9 X,Y pos of 4 corners*
0 Add a 4 corners polygon primitive as box body*
4,1,4,$2,$3,$4,$5,$6,$7,$8,$9,$2,$3,0*
0 Add four circle primitives for the rounded corners*
1,1,$1+$1,$2,$3*
1,1,$1+$1,$4,$5*
1,1,$1+$1,$6,$7*
1,1,$1+$1,$8,$9*
0 Add four rect primitives between the rounded corners*
20,1,$1+$1,$2,$3,$4,$5,0*
20,1,$1+$1,$4,$5,$6,$7,0*
20,1,$1+$1,$6,$7,$8,$9,0*
20,1,$1+$1,$8,$9,$2,$3,0*%
G04 Aperture macros list end*
%ADD10RoundRect,0.250000X-0.550000X-0.550000X0.550000X-0.550000X0.550000X0.550000X-0.550000X0.550000X0*%
%ADD11C,1.600000*%
%ADD12RoundRect,0.250000X0.550000X-0.550000X0.550000X0.550000X-0.550000X0.550000X-0.550000X-0.550000X0*%
%ADD13RoundRect,0.250000X-0.600000X-0.600000X0.600000X-0.600000X0.600000X0.600000X-0.600000X0.600000X0*%
%ADD14C,1.700000*%
%ADD15R,1.600000X1.600000*%
%ADD16R,1.780000X7.620000*%
G04 APERTURE END LIST*
D10*
%TO.C,U4*%
X103340000Y-100080000D03*
D11*
X103340000Y-102620000D03*
X103340000Y-105160000D03*
X103340000Y-107700000D03*
X103340000Y-110240000D03*
X103340000Y-112780000D03*
X103340000Y-115320000D03*
X103340000Y-117860000D03*
X103340000Y-120400000D03*
X103340000Y-122940000D03*
X110960000Y-122940000D03*
X110960000Y-120400000D03*
X110960000Y-117860000D03*
X110960000Y-115320000D03*
X110960000Y-112780000D03*
X110960000Y-110240000D03*
X110960000Y-107700000D03*
X110960000Y-105160000D03*
X110960000Y-102620000D03*
X110960000Y-100080000D03*
%TD*%
D12*
%TO.C,U2*%
X57150000Y-142240000D03*
D11*
X59690000Y-142240000D03*
X62230000Y-142240000D03*
X64770000Y-142240000D03*
X67310000Y-142240000D03*
X69850000Y-142240000D03*
X72390000Y-142240000D03*
X74930000Y-142240000D03*
X74930000Y-134620000D03*
X72390000Y-134620000D03*
X69850000Y-134620000D03*
X67310000Y-134620000D03*
X64770000Y-134620000D03*
X62230000Y-134620000D03*
X59690000Y-134620000D03*
X57150000Y-134620000D03*
%TD*%
D10*
%TO.C,U6*%
X121120000Y-77940000D03*
D11*
X121120000Y-80480000D03*
X121120000Y-83020000D03*
X121120000Y-85560000D03*
X121120000Y-88100000D03*
X121120000Y-90640000D03*
X121120000Y-93180000D03*
X121120000Y-95720000D03*
X121120000Y-98260000D03*
X121120000Y-100800000D03*
X128740000Y-100800000D03*
X128740000Y-98260000D03*
X128740000Y-95720000D03*
X128740000Y-93180000D03*
X128740000Y-90640000D03*
X128740000Y-88100000D03*
X128740000Y-85560000D03*
X128740000Y-83020000D03*
X128740000Y-80480000D03*
X128740000Y-77940000D03*
%TD*%
%TO.C,C1*%
X70612000Y-55158000D03*
X70612000Y-60158000D03*
%TD*%
%TO.C,C2*%
X57190000Y-131572000D03*
X62190000Y-131572000D03*
%TD*%
D10*
%TO.C,U5*%
X103340000Y-55080000D03*
D11*
X103340000Y-57620000D03*
X103340000Y-60160000D03*
X103340000Y-62700000D03*
X103340000Y-65240000D03*
X103340000Y-67780000D03*
X103340000Y-70320000D03*
X103340000Y-72860000D03*
X103340000Y-75400000D03*
X103340000Y-77940000D03*
X110960000Y-77940000D03*
X110960000Y-75400000D03*
X110960000Y-72860000D03*
X110960000Y-70320000D03*
X110960000Y-67780000D03*
X110960000Y-65240000D03*
X110960000Y-62700000D03*
X110960000Y-60160000D03*
X110960000Y-57620000D03*
X110960000Y-55080000D03*
%TD*%
%TO.C,C4*%
X110998000Y-97028000D03*
X105998000Y-97028000D03*
%TD*%
%TO.C,C3*%
X85558000Y-70866000D03*
X80558000Y-70866000D03*
%TD*%
%TO.C,C5*%
X114300000Y-73660000D03*
X114300000Y-78660000D03*
%TD*%
D10*
%TO.C,U1*%
X60160000Y-55080000D03*
D11*
X60160000Y-57620000D03*
X60160000Y-60160000D03*
X60160000Y-62700000D03*
X60160000Y-65240000D03*
X60160000Y-67780000D03*
X60160000Y-70320000D03*
X67780000Y-70320000D03*
X67780000Y-67780000D03*
X67780000Y-65240000D03*
X67780000Y-62700000D03*
X67780000Y-60160000D03*
X67780000Y-57620000D03*
X67780000Y-55080000D03*
%TD*%
D13*
%TO.C,J2*%
X143650000Y-60160000D03*
D14*
X146190000Y-60160000D03*
X143650000Y-62700000D03*
X146190000Y-62700000D03*
X143650000Y-65240000D03*
X146190000Y-65240000D03*
X143650000Y-67780000D03*
X146190000Y-67780000D03*
X143650000Y-70320000D03*
X146190000Y-70320000D03*
X143650000Y-72860000D03*
X146190000Y-72860000D03*
X143650000Y-75400000D03*
X146190000Y-75400000D03*
X143650000Y-77940000D03*
X146190000Y-77940000D03*
%TD*%
D11*
%TO.C,C6*%
X128738000Y-74930000D03*
X123738000Y-74930000D03*
%TD*%
D15*
%TO.C,RN1*%
X55080000Y-55080000D03*
D11*
X55080000Y-57620000D03*
X55080000Y-60160000D03*
X55080000Y-62700000D03*
X55080000Y-65240000D03*
X55080000Y-67780000D03*
%TD*%
D13*
%TO.C,J3*%
X143650000Y-108420000D03*
D14*
X146190000Y-108420000D03*
X143650000Y-110960000D03*
X146190000Y-110960000D03*
X143650000Y-113500000D03*
X146190000Y-113500000D03*
X143650000Y-116040000D03*
X146190000Y-116040000D03*
X143650000Y-118580000D03*
X146190000Y-118580000D03*
X143650000Y-121120000D03*
X146190000Y-121120000D03*
X143650000Y-123660000D03*
X146190000Y-123660000D03*
X143650000Y-126200000D03*
X146190000Y-126200000D03*
%TD*%
D10*
%TO.C,U3*%
X75400000Y-57620000D03*
D11*
X75400000Y-60160000D03*
X75400000Y-62700000D03*
X75400000Y-65240000D03*
X75400000Y-67780000D03*
X75400000Y-70320000D03*
X75400000Y-72860000D03*
X75400000Y-75400000D03*
X75400000Y-77940000D03*
X75400000Y-80480000D03*
X75400000Y-83020000D03*
X75400000Y-85560000D03*
X75400000Y-88100000D03*
X75400000Y-90640000D03*
X75400000Y-93180000D03*
X75400000Y-95720000D03*
X75400000Y-98260000D03*
X75400000Y-100800000D03*
X75400000Y-103340000D03*
X75400000Y-105880000D03*
X90640000Y-105880000D03*
X90640000Y-103340000D03*
X90640000Y-100800000D03*
X90640000Y-98260000D03*
X90640000Y-95720000D03*
X90640000Y-93180000D03*
X90640000Y-90640000D03*
X90640000Y-88100000D03*
X90640000Y-85560000D03*
X90640000Y-83020000D03*
X90640000Y-80480000D03*
X90640000Y-77940000D03*
X90640000Y-75400000D03*
X90640000Y-72860000D03*
X90640000Y-70320000D03*
X90640000Y-67780000D03*
X90640000Y-65240000D03*
X90640000Y-62700000D03*
X90640000Y-60160000D03*
X90640000Y-57620000D03*
%TD*%
D16*
%TO.C,J1*%
X131375000Y-155080000D03*
X128835000Y-155080000D03*
X126295000Y-155080000D03*
X123755000Y-155080000D03*
X121215000Y-155080000D03*
X118675000Y-155080000D03*
X116135000Y-155080000D03*
X113595000Y-155080000D03*
X111055000Y-155080000D03*
X108515000Y-155080000D03*
X105975000Y-155080000D03*
X103435000Y-155080000D03*
X100895000Y-155080000D03*
X98355000Y-155080000D03*
X95815000Y-155080000D03*
X93275000Y-155080000D03*
X90735000Y-155080000D03*
X88195000Y-155080000D03*
X85655000Y-155080000D03*
X83115000Y-155080000D03*
X80575000Y-155080000D03*
X78035000Y-155080000D03*
X75495000Y-155080000D03*
X72955000Y-155080000D03*
X70415000Y-155080000D03*
X67875000Y-155080000D03*
X65335000Y-155080000D03*
X62795000Y-155080000D03*
X60255000Y-155080000D03*
X57715000Y-155080000D03*
X55175000Y-155080000D03*
%TD*%
M02*
