%TF.GenerationSoftware,KiCad,Pcbnew,9.0.7*%
%TF.CreationDate,2026-05-06T06:57:35+01:00*%
%TF.ProjectId,PDS_PCISA,5044535f-5043-4495-9341-2e6b69636164,rev?*%
%TF.SameCoordinates,Original*%
%TF.FileFunction,Copper,L1,Top*%
%TF.FilePolarity,Positive*%
%FSLAX46Y46*%
G04 Gerber Fmt 4.6, Leading zero omitted, Abs format (unit mm)*
G04 Created by KiCad (PCBNEW 9.0.7) date 2026-05-06 06:57:35*
%MOMM*%
%LPD*%
G01*
G04 APERTURE LIST*
G04 Aperture macros list*
%AMRoundRect*
0 Rectangle with rounded corners*
0 $1 Rounding radius*
0 $2 $3 $4 $5 $6 $7 $8 $9 X,Y pos of 4 corners*
0 Add a 4 corners polygon primitive as box body*
4,1,4,$2,$3,$4,$5,$6,$7,$8,$9,$2,$3,0*
0 Add four circle primitives for the rounded corners*
1,1,$1+$1,$2,$3*
1,1,$1+$1,$4,$5*
1,1,$1+$1,$6,$7*
1,1,$1+$1,$8,$9*
0 Add four rect primitives between the rounded corners*
20,1,$1+$1,$2,$3,$4,$5,0*
20,1,$1+$1,$4,$5,$6,$7,0*
20,1,$1+$1,$6,$7,$8,$9,0*
20,1,$1+$1,$8,$9,$2,$3,0*%
G04 Aperture macros list end*
%TA.AperFunction,ComponentPad*%
%ADD10RoundRect,0.250000X-0.550000X-0.550000X0.550000X-0.550000X0.550000X0.550000X-0.550000X0.550000X0*%
%TD*%
%TA.AperFunction,ComponentPad*%
%ADD11C,1.600000*%
%TD*%
%TA.AperFunction,ComponentPad*%
%ADD12RoundRect,0.250000X0.550000X-0.550000X0.550000X0.550000X-0.550000X0.550000X-0.550000X-0.550000X0*%
%TD*%
%TA.AperFunction,ComponentPad*%
%ADD13RoundRect,0.250000X-0.600000X-0.600000X0.600000X-0.600000X0.600000X0.600000X-0.600000X0.600000X0*%
%TD*%
%TA.AperFunction,ComponentPad*%
%ADD14C,1.700000*%
%TD*%
%TA.AperFunction,ComponentPad*%
%ADD15R,1.600000X1.600000*%
%TD*%
%TA.AperFunction,ConnectorPad*%
%ADD16R,1.780000X7.620000*%
%TD*%
%TA.AperFunction,ViaPad*%
%ADD17C,0.600000*%
%TD*%
%TA.AperFunction,Conductor*%
%ADD18C,0.300000*%
%TD*%
%TA.AperFunction,Conductor*%
%ADD19C,0.400000*%
%TD*%
%TA.AperFunction,Conductor*%
%ADD20C,1.200000*%
%TD*%
%TA.AperFunction,Conductor*%
%ADD21C,0.600000*%
%TD*%
G04 APERTURE END LIST*
D10*
%TO.P,U4,1,OEa*%
%TO.N,/{slash}PC2*%
X103340000Y-100080000D03*
D11*
%TO.P,U4,2,I0a*%
%TO.N,/PB3*%
X103340000Y-102620000D03*
%TO.P,U4,3,O3b*%
%TO.N,/PA3*%
X103340000Y-105160000D03*
%TO.P,U4,4,I1a*%
%TO.N,/PB2*%
X103340000Y-107700000D03*
%TO.P,U4,5,O2b*%
%TO.N,/PA2*%
X103340000Y-110240000D03*
%TO.P,U4,6,I2a*%
%TO.N,/PB1*%
X103340000Y-112780000D03*
%TO.P,U4,7,O1b*%
%TO.N,/PA1*%
X103340000Y-115320000D03*
%TO.P,U4,8,I3a*%
%TO.N,/PB0*%
X103340000Y-117860000D03*
%TO.P,U4,9,O0b*%
%TO.N,/PA0*%
X103340000Y-120400000D03*
%TO.P,U4,10,GND*%
%TO.N,GND*%
X103340000Y-122940000D03*
%TO.P,U4,11,I0b*%
%TO.N,Net-(J2-Pin_15)*%
X110960000Y-122940000D03*
%TO.P,U4,12,O3a*%
X110960000Y-120400000D03*
%TO.P,U4,13,I1b*%
%TO.N,Net-(J2-Pin_13)*%
X110960000Y-117860000D03*
%TO.P,U4,14,O2a*%
X110960000Y-115320000D03*
%TO.P,U4,15,I2b*%
%TO.N,Net-(J2-Pin_11)*%
X110960000Y-112780000D03*
%TO.P,U4,16,O1a*%
X110960000Y-110240000D03*
%TO.P,U4,17,I3b*%
%TO.N,Net-(J2-Pin_9)*%
X110960000Y-107700000D03*
%TO.P,U4,18,O0a*%
X110960000Y-105160000D03*
%TO.P,U4,19,OEb*%
%TO.N,/PC2*%
X110960000Y-102620000D03*
%TO.P,U4,20,VCC*%
%TO.N,VCC*%
X110960000Y-100080000D03*
%TD*%
D12*
%TO.P,U2,1,A0*%
%TO.N,/AEN*%
X57150000Y-142240000D03*
D11*
%TO.P,U2,2,A1*%
%TO.N,/A5*%
X59690000Y-142240000D03*
%TO.P,U2,3,A2*%
%TO.N,/A9*%
X62230000Y-142240000D03*
%TO.P,U2,4,E1*%
%TO.N,/A7*%
X64770000Y-142240000D03*
%TO.P,U2,5,E2*%
%TO.N,/A6*%
X67310000Y-142240000D03*
%TO.P,U2,6,E3*%
%TO.N,/A8*%
X69850000Y-142240000D03*
%TO.P,U2,7,O7*%
%TO.N,unconnected-(U2-O7-Pad7)*%
X72390000Y-142240000D03*
%TO.P,U2,8,GND*%
%TO.N,GND*%
X74930000Y-142240000D03*
%TO.P,U2,9,O6*%
%TO.N,unconnected-(U2-O6-Pad9)*%
X74930000Y-134620000D03*
%TO.P,U2,10,O5*%
%TO.N,unconnected-(U2-O5-Pad10)*%
X72390000Y-134620000D03*
%TO.P,U2,11,O4*%
%TO.N,Net-(U2-O4)*%
X69850000Y-134620000D03*
%TO.P,U2,12,O3*%
%TO.N,unconnected-(U2-O3-Pad12)*%
X67310000Y-134620000D03*
%TO.P,U2,13,O2*%
%TO.N,unconnected-(U2-O2-Pad13)*%
X64770000Y-134620000D03*
%TO.P,U2,14,O1*%
%TO.N,unconnected-(U2-O1-Pad14)*%
X62230000Y-134620000D03*
%TO.P,U2,15,O0*%
%TO.N,unconnected-(U2-O0-Pad15)*%
X59690000Y-134620000D03*
%TO.P,U2,16,VCC*%
%TO.N,VCC*%
X57150000Y-134620000D03*
%TD*%
D10*
%TO.P,U6,1,OEa*%
%TO.N,GND*%
X121120000Y-77940000D03*
D11*
%TO.P,U6,2,I0a*%
%TO.N,/PC0*%
X121120000Y-80480000D03*
%TO.P,U6,3,O3b*%
%TO.N,/PC7*%
X121120000Y-83020000D03*
%TO.P,U6,4,I1a*%
%TO.N,/PC1*%
X121120000Y-85560000D03*
%TO.P,U6,5,O2b*%
%TO.N,/PC6*%
X121120000Y-88100000D03*
%TO.P,U6,6,I2a*%
%TO.N,/PC2*%
X121120000Y-90640000D03*
%TO.P,U6,7,O1b*%
%TO.N,/PC5*%
X121120000Y-93180000D03*
%TO.P,U6,8,I3a*%
%TO.N,/PC3*%
X121120000Y-95720000D03*
%TO.P,U6,9,O0b*%
%TO.N,/PC4*%
X121120000Y-98260000D03*
%TO.P,U6,10,GND*%
%TO.N,GND*%
X121120000Y-100800000D03*
%TO.P,U6,11,I0b*%
%TO.N,Net-(J2-Pin_12)*%
X128740000Y-100800000D03*
%TO.P,U6,12,O3a*%
%TO.N,Net-(J2-Pin_8)*%
X128740000Y-98260000D03*
%TO.P,U6,13,I1b*%
%TO.N,Net-(J2-Pin_2)*%
X128740000Y-95720000D03*
%TO.P,U6,14,O2a*%
%TO.N,Net-(J2-Pin_6)*%
X128740000Y-93180000D03*
%TO.P,U6,15,I2b*%
%TO.N,Net-(J2-Pin_10)*%
X128740000Y-90640000D03*
%TO.P,U6,16,O1a*%
%TO.N,Net-(J2-Pin_4)*%
X128740000Y-88100000D03*
%TO.P,U6,17,I3b*%
%TO.N,Net-(J3-Pin_10)*%
X128740000Y-85560000D03*
%TO.P,U6,18,O0a*%
%TO.N,Net-(J2-Pin_14)*%
X128740000Y-83020000D03*
%TO.P,U6,19,OEb*%
%TO.N,GND*%
X128740000Y-80480000D03*
%TO.P,U6,20,VCC*%
%TO.N,VCC*%
X128740000Y-77940000D03*
%TD*%
%TO.P,C1,1*%
%TO.N,VCC*%
X70612000Y-55158000D03*
%TO.P,C1,2*%
%TO.N,GND*%
X70612000Y-60158000D03*
%TD*%
%TO.P,C2,1*%
%TO.N,VCC*%
X57190000Y-131572000D03*
%TO.P,C2,2*%
%TO.N,GND*%
X62190000Y-131572000D03*
%TD*%
D10*
%TO.P,U5,1,OEa*%
%TO.N,/{slash}PC2*%
X103340000Y-55080000D03*
D11*
%TO.P,U5,2,I0a*%
%TO.N,/PB7*%
X103340000Y-57620000D03*
%TO.P,U5,3,O3b*%
%TO.N,/PA7*%
X103340000Y-60160000D03*
%TO.P,U5,4,I1a*%
%TO.N,/PB6*%
X103340000Y-62700000D03*
%TO.P,U5,5,O2b*%
%TO.N,/PA6*%
X103340000Y-65240000D03*
%TO.P,U5,6,I2a*%
%TO.N,/PB5*%
X103340000Y-67780000D03*
%TO.P,U5,7,O1b*%
%TO.N,/PA5*%
X103340000Y-70320000D03*
%TO.P,U5,8,I3a*%
%TO.N,/PB4*%
X103340000Y-72860000D03*
%TO.P,U5,9,O0b*%
%TO.N,/PA4*%
X103340000Y-75400000D03*
%TO.P,U5,10,GND*%
%TO.N,GND*%
X103340000Y-77940000D03*
%TO.P,U5,11,I0b*%
%TO.N,Net-(J2-Pin_7)*%
X110960000Y-77940000D03*
%TO.P,U5,12,O3a*%
X110960000Y-75400000D03*
%TO.P,U5,13,I1b*%
%TO.N,Net-(J2-Pin_5)*%
X110960000Y-72860000D03*
%TO.P,U5,14,O2a*%
X110960000Y-70320000D03*
%TO.P,U5,15,I2b*%
%TO.N,Net-(J2-Pin_3)*%
X110960000Y-67780000D03*
%TO.P,U5,16,O1a*%
X110960000Y-65240000D03*
%TO.P,U5,17,I3b*%
%TO.N,Net-(J2-Pin_1)*%
X110960000Y-62700000D03*
%TO.P,U5,18,O0a*%
X110960000Y-60160000D03*
%TO.P,U5,19,OEb*%
%TO.N,/PC2*%
X110960000Y-57620000D03*
%TO.P,U5,20,VCC*%
%TO.N,VCC*%
X110960000Y-55080000D03*
%TD*%
%TO.P,C4,1*%
%TO.N,VCC*%
X110998000Y-97028000D03*
%TO.P,C4,2*%
%TO.N,GND*%
X105998000Y-97028000D03*
%TD*%
%TO.P,C3,1*%
%TO.N,VCC*%
X85558000Y-70866000D03*
%TO.P,C3,2*%
%TO.N,GND*%
X80558000Y-70866000D03*
%TD*%
%TO.P,C5,1*%
%TO.N,VCC*%
X114300000Y-73660000D03*
%TO.P,C5,2*%
%TO.N,GND*%
X114300000Y-78660000D03*
%TD*%
D10*
%TO.P,U1,1*%
%TO.N,Net-(RN1-R1)*%
X60160000Y-55080000D03*
D11*
%TO.P,U1,2*%
%TO.N,unconnected-(U1-Pad2)*%
X60160000Y-57620000D03*
%TO.P,U1,3*%
%TO.N,Net-(RN1-R2)*%
X60160000Y-60160000D03*
%TO.P,U1,4*%
%TO.N,unconnected-(U1-Pad4)*%
X60160000Y-62700000D03*
%TO.P,U1,5*%
%TO.N,Net-(RN1-R3)*%
X60160000Y-65240000D03*
%TO.P,U1,6*%
%TO.N,unconnected-(U1-Pad6)*%
X60160000Y-67780000D03*
%TO.P,U1,7,GND*%
%TO.N,GND*%
X60160000Y-70320000D03*
%TO.P,U1,8*%
%TO.N,unconnected-(U1-Pad8)*%
X67780000Y-70320000D03*
%TO.P,U1,9*%
%TO.N,Net-(RN1-R5)*%
X67780000Y-67780000D03*
%TO.P,U1,10*%
%TO.N,unconnected-(U1-Pad10)*%
X67780000Y-65240000D03*
%TO.P,U1,11*%
%TO.N,Net-(RN1-R4)*%
X67780000Y-62700000D03*
%TO.P,U1,12*%
%TO.N,/{slash}PC2*%
X67780000Y-60160000D03*
%TO.P,U1,13*%
%TO.N,/PC2*%
X67780000Y-57620000D03*
%TO.P,U1,14,VCC*%
%TO.N,VCC*%
X67780000Y-55080000D03*
%TD*%
D13*
%TO.P,J2,1,Pin_1*%
%TO.N,Net-(J2-Pin_1)*%
X143650000Y-60160000D03*
D14*
%TO.P,J2,2,Pin_2*%
%TO.N,Net-(J2-Pin_2)*%
X146190000Y-60160000D03*
%TO.P,J2,3,Pin_3*%
%TO.N,Net-(J2-Pin_3)*%
X143650000Y-62700000D03*
%TO.P,J2,4,Pin_4*%
%TO.N,Net-(J2-Pin_4)*%
X146190000Y-62700000D03*
%TO.P,J2,5,Pin_5*%
%TO.N,Net-(J2-Pin_5)*%
X143650000Y-65240000D03*
%TO.P,J2,6,Pin_6*%
%TO.N,Net-(J2-Pin_6)*%
X146190000Y-65240000D03*
%TO.P,J2,7,Pin_7*%
%TO.N,Net-(J2-Pin_7)*%
X143650000Y-67780000D03*
%TO.P,J2,8,Pin_8*%
%TO.N,Net-(J2-Pin_8)*%
X146190000Y-67780000D03*
%TO.P,J2,9,Pin_9*%
%TO.N,Net-(J2-Pin_9)*%
X143650000Y-70320000D03*
%TO.P,J2,10,Pin_10*%
%TO.N,Net-(J2-Pin_10)*%
X146190000Y-70320000D03*
%TO.P,J2,11,Pin_11*%
%TO.N,Net-(J2-Pin_11)*%
X143650000Y-72860000D03*
%TO.P,J2,12,Pin_12*%
%TO.N,Net-(J2-Pin_12)*%
X146190000Y-72860000D03*
%TO.P,J2,13,Pin_13*%
%TO.N,Net-(J2-Pin_13)*%
X143650000Y-75400000D03*
%TO.P,J2,14,Pin_14*%
%TO.N,Net-(J2-Pin_14)*%
X146190000Y-75400000D03*
%TO.P,J2,15,Pin_15*%
%TO.N,Net-(J2-Pin_15)*%
X143650000Y-77940000D03*
%TO.P,J2,16,Pin_16*%
%TO.N,GND*%
X146190000Y-77940000D03*
%TD*%
D11*
%TO.P,C6,1*%
%TO.N,VCC*%
X128738000Y-74930000D03*
%TO.P,C6,2*%
%TO.N,GND*%
X123738000Y-74930000D03*
%TD*%
D15*
%TO.P,RN1,1,common*%
%TO.N,VCC*%
X55080000Y-55080000D03*
D11*
%TO.P,RN1,2,R1*%
%TO.N,Net-(RN1-R1)*%
X55080000Y-57620000D03*
%TO.P,RN1,3,R2*%
%TO.N,Net-(RN1-R2)*%
X55080000Y-60160000D03*
%TO.P,RN1,4,R3*%
%TO.N,Net-(RN1-R3)*%
X55080000Y-62700000D03*
%TO.P,RN1,5,R4*%
%TO.N,Net-(RN1-R4)*%
X55080000Y-65240000D03*
%TO.P,RN1,6,R5*%
%TO.N,Net-(RN1-R5)*%
X55080000Y-67780000D03*
%TD*%
D13*
%TO.P,J3,1,Pin_1*%
%TO.N,Net-(J2-Pin_1)*%
X143650000Y-108420000D03*
D14*
%TO.P,J3,2,Pin_2*%
%TO.N,Net-(J2-Pin_12)*%
X146190000Y-108420000D03*
%TO.P,J3,3,Pin_3*%
%TO.N,Net-(J2-Pin_3)*%
X143650000Y-110960000D03*
%TO.P,J3,4,Pin_4*%
%TO.N,Net-(J2-Pin_14)*%
X146190000Y-110960000D03*
%TO.P,J3,5,Pin_5*%
%TO.N,Net-(J2-Pin_5)*%
X143650000Y-113500000D03*
%TO.P,J3,6,Pin_6*%
%TO.N,Net-(J2-Pin_6)*%
X146190000Y-113500000D03*
%TO.P,J3,7,Pin_7*%
%TO.N,Net-(J2-Pin_7)*%
X143650000Y-116040000D03*
%TO.P,J3,8,Pin_8*%
%TO.N,Net-(J2-Pin_8)*%
X146190000Y-116040000D03*
%TO.P,J3,9,Pin_9*%
%TO.N,Net-(J2-Pin_9)*%
X143650000Y-118580000D03*
%TO.P,J3,10,Pin_10*%
%TO.N,Net-(J3-Pin_10)*%
X146190000Y-118580000D03*
%TO.P,J3,11,Pin_11*%
%TO.N,Net-(J2-Pin_11)*%
X143650000Y-121120000D03*
%TO.P,J3,12,Pin_12*%
%TO.N,Net-(J2-Pin_2)*%
X146190000Y-121120000D03*
%TO.P,J3,13,Pin_13*%
%TO.N,Net-(J2-Pin_13)*%
X143650000Y-123660000D03*
%TO.P,J3,14,Pin_14*%
%TO.N,Net-(J2-Pin_4)*%
X146190000Y-123660000D03*
%TO.P,J3,15,Pin_15*%
%TO.N,Net-(J2-Pin_15)*%
X143650000Y-126200000D03*
%TO.P,J3,16,Pin_16*%
%TO.N,GND*%
X146190000Y-126200000D03*
%TD*%
D10*
%TO.P,U3,1,PA3*%
%TO.N,/PA3*%
X75400000Y-57620000D03*
D11*
%TO.P,U3,2,PA2*%
%TO.N,/PA2*%
X75400000Y-60160000D03*
%TO.P,U3,3,PA1*%
%TO.N,/PA1*%
X75400000Y-62700000D03*
%TO.P,U3,4,PA0*%
%TO.N,/PA0*%
X75400000Y-65240000D03*
%TO.P,U3,5,~{RD}*%
%TO.N,/IOR*%
X75400000Y-67780000D03*
%TO.P,U3,6,~{CS}*%
%TO.N,Net-(U2-O4)*%
X75400000Y-70320000D03*
%TO.P,U3,7,GND*%
%TO.N,GND*%
X75400000Y-72860000D03*
%TO.P,U3,8,A1*%
%TO.N,/A2*%
X75400000Y-75400000D03*
%TO.P,U3,9,A0*%
%TO.N,/A1*%
X75400000Y-77940000D03*
%TO.P,U3,10,PC7*%
%TO.N,/PC7*%
X75400000Y-80480000D03*
%TO.P,U3,11,PC6*%
%TO.N,/PC6*%
X75400000Y-83020000D03*
%TO.P,U3,12,PC5*%
%TO.N,/PC5*%
X75400000Y-85560000D03*
%TO.P,U3,13,PC4*%
%TO.N,/PC4*%
X75400000Y-88100000D03*
%TO.P,U3,14,PC0*%
%TO.N,/PC0*%
X75400000Y-90640000D03*
%TO.P,U3,15,PC1*%
%TO.N,/PC1*%
X75400000Y-93180000D03*
%TO.P,U3,16,PC2*%
%TO.N,/PC2*%
X75400000Y-95720000D03*
%TO.P,U3,17,PC3*%
%TO.N,/PC3*%
X75400000Y-98260000D03*
%TO.P,U3,18,PB0*%
%TO.N,/PB0*%
X75400000Y-100800000D03*
%TO.P,U3,19,PB1*%
%TO.N,/PB1*%
X75400000Y-103340000D03*
%TO.P,U3,20,PB2*%
%TO.N,/PB2*%
X75400000Y-105880000D03*
%TO.P,U3,21,PB3*%
%TO.N,/PB3*%
X90640000Y-105880000D03*
%TO.P,U3,22,PB4*%
%TO.N,/PB4*%
X90640000Y-103340000D03*
%TO.P,U3,23,PB5*%
%TO.N,/PB5*%
X90640000Y-100800000D03*
%TO.P,U3,24,PB6*%
%TO.N,/PB6*%
X90640000Y-98260000D03*
%TO.P,U3,25,PB7*%
%TO.N,/PB7*%
X90640000Y-95720000D03*
%TO.P,U3,26,VCC*%
%TO.N,VCC*%
X90640000Y-93180000D03*
%TO.P,U3,27,D7*%
%TO.N,/D7*%
X90640000Y-90640000D03*
%TO.P,U3,28,D6*%
%TO.N,/D6*%
X90640000Y-88100000D03*
%TO.P,U3,29,D5*%
%TO.N,/D5*%
X90640000Y-85560000D03*
%TO.P,U3,30,D4*%
%TO.N,/D4*%
X90640000Y-83020000D03*
%TO.P,U3,31,D3*%
%TO.N,/D3*%
X90640000Y-80480000D03*
%TO.P,U3,32,D2*%
%TO.N,/D2*%
X90640000Y-77940000D03*
%TO.P,U3,33,D1*%
%TO.N,/D1*%
X90640000Y-75400000D03*
%TO.P,U3,34,D0*%
%TO.N,/D0*%
X90640000Y-72860000D03*
%TO.P,U3,35,RESET*%
%TO.N,/RESET*%
X90640000Y-70320000D03*
%TO.P,U3,36,~{WR}*%
%TO.N,/IOW*%
X90640000Y-67780000D03*
%TO.P,U3,37,PA7*%
%TO.N,/PA7*%
X90640000Y-65240000D03*
%TO.P,U3,38,PA6*%
%TO.N,/PA6*%
X90640000Y-62700000D03*
%TO.P,U3,39,PA5*%
%TO.N,/PA5*%
X90640000Y-60160000D03*
%TO.P,U3,40,PA4*%
%TO.N,/PA4*%
X90640000Y-57620000D03*
%TD*%
D16*
%TO.P,J1,32,IO*%
%TO.N,unconnected-(J1-IO-Pad32)*%
X131375000Y-155080000D03*
%TO.P,J1,33,DB7*%
%TO.N,/D7*%
X128835000Y-155080000D03*
%TO.P,J1,34,DB6*%
%TO.N,/D6*%
X126295000Y-155080000D03*
%TO.P,J1,35,DB5*%
%TO.N,/D5*%
X123755000Y-155080000D03*
%TO.P,J1,36,DB4*%
%TO.N,/D4*%
X121215000Y-155080000D03*
%TO.P,J1,37,DB3*%
%TO.N,/D3*%
X118675000Y-155080000D03*
%TO.P,J1,38,DB2*%
%TO.N,/D2*%
X116135000Y-155080000D03*
%TO.P,J1,39,DB1*%
%TO.N,/D1*%
X113595000Y-155080000D03*
%TO.P,J1,40,DB0*%
%TO.N,/D0*%
X111055000Y-155080000D03*
%TO.P,J1,41,IO_READY*%
%TO.N,unconnected-(J1-IO_READY-Pad41)*%
X108515000Y-155080000D03*
%TO.P,J1,42,AEN*%
%TO.N,/AEN*%
X105975000Y-155080000D03*
%TO.P,J1,43,BA19*%
%TO.N,unconnected-(J1-BA19-Pad43)*%
X103435000Y-155080000D03*
%TO.P,J1,44,BA18*%
%TO.N,unconnected-(J1-BA18-Pad44)*%
X100895000Y-155080000D03*
%TO.P,J1,45,BA17*%
%TO.N,unconnected-(J1-BA17-Pad45)*%
X98355000Y-155080000D03*
%TO.P,J1,46,BA16*%
%TO.N,unconnected-(J1-BA16-Pad46)*%
X95815000Y-155080000D03*
%TO.P,J1,47,BA15*%
%TO.N,unconnected-(J1-BA15-Pad47)*%
X93275000Y-155080000D03*
%TO.P,J1,48,BA14*%
%TO.N,unconnected-(J1-BA14-Pad48)*%
X90735000Y-155080000D03*
%TO.P,J1,49,BA13*%
%TO.N,unconnected-(J1-BA13-Pad49)*%
X88195000Y-155080000D03*
%TO.P,J1,50,BA12*%
%TO.N,unconnected-(J1-BA12-Pad50)*%
X85655000Y-155080000D03*
%TO.P,J1,51,BA11*%
%TO.N,unconnected-(J1-BA11-Pad51)*%
X83115000Y-155080000D03*
%TO.P,J1,52,BA10*%
%TO.N,unconnected-(J1-BA10-Pad52)*%
X80575000Y-155080000D03*
%TO.P,J1,53,BA09*%
%TO.N,/A9*%
X78035000Y-155080000D03*
%TO.P,J1,54,BA08*%
%TO.N,/A8*%
X75495000Y-155080000D03*
%TO.P,J1,55,BA07*%
%TO.N,/A7*%
X72955000Y-155080000D03*
%TO.P,J1,56,BA06*%
%TO.N,/A6*%
X70415000Y-155080000D03*
%TO.P,J1,57,BA05*%
%TO.N,/A5*%
X67875000Y-155080000D03*
%TO.P,J1,58,BA04*%
%TO.N,unconnected-(J1-BA04-Pad58)*%
X65335000Y-155080000D03*
%TO.P,J1,59,BA03*%
%TO.N,unconnected-(J1-BA03-Pad59)*%
X62795000Y-155080000D03*
%TO.P,J1,60,BA02*%
%TO.N,/A2*%
X60255000Y-155080000D03*
%TO.P,J1,61,BA01*%
%TO.N,/A1*%
X57715000Y-155080000D03*
%TO.P,J1,62,BA00*%
%TO.N,unconnected-(J1-BA00-Pad62)*%
X55175000Y-155080000D03*
%TD*%
D17*
%TO.N,VCC*%
X59690000Y-148590000D03*
X95250000Y-111125000D03*
%TO.N,/RESET*%
X92710000Y-108458000D03*
%TO.N,/IOW*%
X100895000Y-149860000D03*
X100965000Y-147320000D03*
X95250000Y-109728000D03*
%TO.N,/A2*%
X59690000Y-125730000D03*
%TO.N,/IOR*%
X98425000Y-147320000D03*
X98355000Y-149860000D03*
%TO.N,/PA2*%
X97536000Y-107315000D03*
%TO.N,/PB7*%
X99060000Y-92710000D03*
%TO.N,/PA0*%
X97790000Y-109855000D03*
%TO.N,/PB5*%
X102616000Y-92710000D03*
%TO.N,/PB4*%
X105156000Y-92964000D03*
%TO.N,/PC0*%
X116586000Y-90805000D03*
%TO.N,/PA1*%
X97790000Y-108585000D03*
%TO.N,/PB6*%
X100330000Y-92710000D03*
%TO.N,/PC5*%
X116586000Y-93180000D03*
%TO.N,Net-(J2-Pin_6)*%
X136144000Y-93218000D03*
X136144000Y-112014000D03*
%TO.N,Net-(J2-Pin_2)*%
X134112000Y-119888000D03*
X134620000Y-95758000D03*
%TO.N,Net-(J2-Pin_8)*%
X136906000Y-98298000D03*
X136906000Y-114808000D03*
%TO.N,Net-(J2-Pin_4)*%
X135382000Y-122428000D03*
X135382000Y-88138000D03*
%TO.N,Net-(J2-Pin_12)*%
X139954000Y-100711000D03*
%TO.N,Net-(J2-Pin_14)*%
X141478000Y-109108000D03*
X141425000Y-83020000D03*
%TO.N,Net-(J2-Pin_10)*%
X138430000Y-90678000D03*
%TO.N,Net-(J2-Pin_5)*%
X132334000Y-113500000D03*
%TO.N,Net-(J2-Pin_3)*%
X133096000Y-110960000D03*
%TO.N,Net-(J2-Pin_7)*%
X131572000Y-116040000D03*
%TO.N,Net-(J2-Pin_1)*%
X133858000Y-108420000D03*
%TD*%
D18*
%TO.N,/RESET*%
X91910000Y-70320000D02*
X90640000Y-70320000D01*
X92710000Y-71120000D02*
X91910000Y-70320000D01*
X92710000Y-91440000D02*
X92710000Y-71120000D01*
X92121000Y-92029000D02*
X92710000Y-91440000D01*
X89581000Y-92029000D02*
X92121000Y-92029000D01*
X88900000Y-92710000D02*
X89581000Y-92029000D01*
X88900000Y-96520000D02*
X88900000Y-92710000D01*
X92710000Y-97790000D02*
X92029000Y-97109000D01*
X92710000Y-108458000D02*
X92710000Y-97790000D01*
X89489000Y-97109000D02*
X88900000Y-96520000D01*
X92029000Y-97109000D02*
X89489000Y-97109000D01*
D19*
%TO.N,GND*%
X122466000Y-100800000D02*
X123738000Y-99528000D01*
X123738000Y-99528000D02*
X123738000Y-74930000D01*
X121120000Y-100800000D02*
X122466000Y-100800000D01*
%TO.N,VCC*%
X95250000Y-111125000D02*
X98425000Y-111125000D01*
X93980000Y-109855000D02*
X95250000Y-111125000D01*
X92075000Y-69119000D02*
X93980000Y-71024000D01*
X85598000Y-69119000D02*
X92075000Y-69119000D01*
X93980000Y-71024000D02*
X93980000Y-109855000D01*
%TO.N,GND*%
X77216000Y-72860000D02*
X79210000Y-70866000D01*
X79210000Y-70866000D02*
X80558000Y-70866000D01*
X77216000Y-72860000D02*
X75400000Y-72860000D01*
%TO.N,VCC*%
X85558000Y-69159000D02*
X85598000Y-69119000D01*
X85558000Y-70866000D02*
X85558000Y-69159000D01*
D18*
%TO.N,/D7*%
X128835000Y-137160000D02*
X128835000Y-155080000D01*
X127565000Y-135890000D02*
X128835000Y-137160000D01*
X71120000Y-113665000D02*
X93345000Y-135890000D01*
X71120000Y-98425000D02*
X71120000Y-113665000D01*
X85890000Y-90640000D02*
X79421000Y-97109000D01*
X90640000Y-90640000D02*
X85890000Y-90640000D01*
X79421000Y-97109000D02*
X72436000Y-97109000D01*
X72436000Y-97109000D02*
X71120000Y-98425000D01*
X93345000Y-135890000D02*
X127565000Y-135890000D01*
%TO.N,/PC5*%
X116586000Y-93180000D02*
X121120000Y-93180000D01*
%TO.N,/PC0*%
X117386000Y-80480000D02*
X121120000Y-80480000D01*
X116586000Y-90805000D02*
X116586000Y-81280000D01*
X116586000Y-81280000D02*
X117386000Y-80480000D01*
D19*
%TO.N,VCC*%
X114300000Y-76200000D02*
X114300000Y-73660000D01*
X112776000Y-77724000D02*
X114300000Y-76200000D01*
X112776000Y-78740000D02*
X112776000Y-77724000D01*
X108585000Y-55880000D02*
X108585000Y-79375000D01*
X108585000Y-79375000D02*
X109220000Y-80010000D01*
X109385000Y-55080000D02*
X108585000Y-55880000D01*
X109220000Y-80010000D02*
X111506000Y-80010000D01*
X110960000Y-55080000D02*
X109385000Y-55080000D01*
X111506000Y-80010000D02*
X112776000Y-78740000D01*
X127468000Y-73660000D02*
X128738000Y-74930000D01*
X114300000Y-73660000D02*
X127468000Y-73660000D01*
D18*
%TO.N,Net-(J2-Pin_7)*%
X112522000Y-74676000D02*
X111798000Y-75400000D01*
X112522000Y-73152000D02*
X112522000Y-74676000D01*
X111798000Y-75400000D02*
X110960000Y-75400000D01*
X113284000Y-72390000D02*
X112522000Y-73152000D01*
X130302000Y-72390000D02*
X113284000Y-72390000D01*
X131572000Y-73660000D02*
X130302000Y-72390000D01*
X131572000Y-116040000D02*
X131572000Y-73660000D01*
D19*
%TO.N,GND*%
X70612000Y-60158000D02*
X70612000Y-72860000D01*
D20*
X70612000Y-72860000D02*
X75400000Y-72860000D01*
D19*
%TO.N,VCC*%
X72929000Y-69119000D02*
X85598000Y-69119000D01*
X71813000Y-56359000D02*
X71813000Y-68003000D01*
X70612000Y-55158000D02*
X71813000Y-56359000D01*
X71813000Y-68003000D02*
X72929000Y-69119000D01*
D21*
X66611600Y-55080000D02*
X67780000Y-55080000D01*
D19*
X90640000Y-93180000D02*
X92202000Y-93180000D01*
X54610000Y-137160000D02*
X54610000Y-147320000D01*
X98425000Y-111125000D02*
X99695000Y-109855000D01*
X57150000Y-134620000D02*
X54610000Y-137160000D01*
X107315000Y-100965000D02*
X108200000Y-100080000D01*
X99695000Y-109855000D02*
X99695000Y-107950000D01*
D18*
X128738000Y-74930000D02*
X128738000Y-77938000D01*
D19*
X107315000Y-105410000D02*
X107315000Y-100965000D01*
X99695000Y-107950000D02*
X101146000Y-106499000D01*
X101146000Y-106499000D02*
X106226000Y-106499000D01*
D21*
X64465200Y-52933600D02*
X66611600Y-55080000D01*
D19*
X92202000Y-93180000D02*
X93942000Y-93180000D01*
D18*
X128738000Y-77938000D02*
X128740000Y-77940000D01*
D21*
X55080000Y-55080000D02*
X57226400Y-52933600D01*
D19*
X113834000Y-55080000D02*
X113872000Y-55118000D01*
X106226000Y-106499000D02*
X107315000Y-105410000D01*
X110960000Y-55080000D02*
X113834000Y-55080000D01*
D21*
X57226400Y-52933600D02*
X64465200Y-52933600D01*
D19*
X67780000Y-55080000D02*
X70955000Y-55080000D01*
X108200000Y-100080000D02*
X110960000Y-100080000D01*
X110960000Y-97066000D02*
X110998000Y-97028000D01*
X55880000Y-148590000D02*
X59690000Y-148590000D01*
X54610000Y-147320000D02*
X55880000Y-148590000D01*
X110960000Y-100080000D02*
X110960000Y-97066000D01*
D20*
%TO.N,GND*%
X62700000Y-72860000D02*
X70612000Y-72860000D01*
X60160000Y-70320000D02*
X62700000Y-72860000D01*
D18*
%TO.N,/AEN*%
X88265000Y-146050000D02*
X104140000Y-146050000D01*
X105975000Y-148025000D02*
X105975000Y-155080000D01*
X106045000Y-147955000D02*
X105975000Y-148025000D01*
X104140000Y-146050000D02*
X106045000Y-147955000D01*
X81280000Y-139065000D02*
X88265000Y-146050000D01*
X58420000Y-139065000D02*
X81280000Y-139065000D01*
X57150000Y-140335000D02*
X58420000Y-139065000D01*
X57150000Y-142240000D02*
X57150000Y-140335000D01*
%TO.N,/D2*%
X64770000Y-116840000D02*
X64770000Y-85679000D01*
X80056000Y-84409000D02*
X86525000Y-77940000D01*
X114935000Y-142240000D02*
X90170000Y-142240000D01*
X116135000Y-143440000D02*
X114935000Y-142240000D01*
X66040000Y-84409000D02*
X80056000Y-84409000D01*
X64770000Y-85679000D02*
X66040000Y-84409000D01*
X116135000Y-155080000D02*
X116135000Y-143440000D01*
X90170000Y-142240000D02*
X64770000Y-116840000D01*
X86525000Y-77940000D02*
X90640000Y-77940000D01*
%TO.N,/D4*%
X68864000Y-89251000D02*
X67310000Y-90805000D01*
X121215000Y-140900000D02*
X121215000Y-155080000D01*
X120015000Y-139700000D02*
X121215000Y-140900000D01*
X86525000Y-83020000D02*
X80294000Y-89251000D01*
X67310000Y-115570000D02*
X91440000Y-139700000D01*
X67310000Y-90805000D02*
X67310000Y-115570000D01*
X80294000Y-89251000D02*
X68864000Y-89251000D01*
X91440000Y-139700000D02*
X120015000Y-139700000D01*
X90640000Y-83020000D02*
X86525000Y-83020000D01*
%TO.N,/A9*%
X62230000Y-140970000D02*
X63500000Y-139700000D01*
X63500000Y-139700000D02*
X68937760Y-139700000D01*
X62230000Y-142240000D02*
X62230000Y-140970000D01*
X78035000Y-150425000D02*
X78035000Y-155080000D01*
X68937760Y-139700000D02*
X71156760Y-141919000D01*
X71156760Y-141919000D02*
X71156760Y-143546760D01*
X71156760Y-143546760D02*
X78035000Y-150425000D01*
%TO.N,/D0*%
X107950000Y-144780000D02*
X111055000Y-147885000D01*
X80056000Y-79329000D02*
X63500000Y-79329000D01*
X62230000Y-80645000D02*
X62230000Y-118110000D01*
X90640000Y-72860000D02*
X86525000Y-72860000D01*
X63500000Y-79329000D02*
X63500000Y-79375000D01*
X63500000Y-79375000D02*
X62230000Y-80645000D01*
X111055000Y-147885000D02*
X111055000Y-155080000D01*
X88900000Y-144780000D02*
X107950000Y-144780000D01*
X62230000Y-118110000D02*
X88900000Y-144780000D01*
X86525000Y-72860000D02*
X80056000Y-79329000D01*
%TO.N,/D6*%
X90640000Y-88100000D02*
X86525000Y-88100000D01*
X126295000Y-138360000D02*
X126295000Y-155080000D01*
X80294000Y-94331000D02*
X71404000Y-94331000D01*
X92710000Y-137160000D02*
X125095000Y-137160000D01*
X69850000Y-114300000D02*
X92710000Y-137160000D01*
X125095000Y-137160000D02*
X126295000Y-138360000D01*
X69850000Y-95885000D02*
X69850000Y-114300000D01*
X86525000Y-88100000D02*
X80294000Y-94331000D01*
X71404000Y-94331000D02*
X69850000Y-95885000D01*
%TO.N,/D1*%
X80056000Y-81869000D02*
X64816000Y-81869000D01*
X89535000Y-143510000D02*
X111760000Y-143510000D01*
X113595000Y-145345000D02*
X113595000Y-155080000D01*
X64816000Y-81869000D02*
X63500000Y-83185000D01*
X86525000Y-75400000D02*
X80056000Y-81869000D01*
X63500000Y-83185000D02*
X63500000Y-117475000D01*
X111760000Y-143510000D02*
X113595000Y-145345000D01*
X90640000Y-75400000D02*
X86525000Y-75400000D01*
X63500000Y-117475000D02*
X89535000Y-143510000D01*
%TO.N,/A6*%
X67310000Y-143510000D02*
X70415000Y-146615000D01*
X70415000Y-146615000D02*
X70415000Y-155080000D01*
X67310000Y-142240000D02*
X67310000Y-143510000D01*
%TO.N,/A5*%
X60960000Y-144780000D02*
X59690000Y-143510000D01*
X66040000Y-144780000D02*
X60960000Y-144780000D01*
X67875000Y-146615000D02*
X66040000Y-144780000D01*
X59690000Y-143510000D02*
X59690000Y-142240000D01*
X67875000Y-155080000D02*
X67875000Y-146615000D01*
%TO.N,/A7*%
X68580000Y-141605000D02*
X67310000Y-140335000D01*
X72955000Y-147885000D02*
X68580000Y-143510000D01*
X68580000Y-143510000D02*
X68580000Y-141605000D01*
X72955000Y-155080000D02*
X72955000Y-147885000D01*
X64770000Y-141605000D02*
X64770000Y-142240000D01*
X66040000Y-140335000D02*
X64770000Y-141605000D01*
X67310000Y-140335000D02*
X66040000Y-140335000D01*
%TO.N,/IOW*%
X100965000Y-147320000D02*
X100965000Y-149790000D01*
X93942000Y-67780000D02*
X90640000Y-67780000D01*
X100965000Y-149790000D02*
X100895000Y-149860000D01*
X95250000Y-109728000D02*
X95250000Y-69088000D01*
X95250000Y-69088000D02*
X93942000Y-67780000D01*
%TO.N,/A1*%
X54775000Y-77940000D02*
X53340000Y-79375000D01*
X53340000Y-79375000D02*
X53340000Y-147955000D01*
X55245000Y-149860000D02*
X57150000Y-149860000D01*
X57150000Y-149860000D02*
X57715000Y-150425000D01*
X53340000Y-147955000D02*
X55245000Y-149860000D01*
X57715000Y-150425000D02*
X57715000Y-155080000D01*
X75400000Y-77940000D02*
X54775000Y-77940000D01*
%TO.N,/A2*%
X55880000Y-138430000D02*
X58420000Y-135890000D01*
X57150000Y-146050000D02*
X55880000Y-144780000D01*
X58420000Y-135890000D02*
X58420000Y-127000000D01*
X60255000Y-155080000D02*
X60341000Y-154994000D01*
X59055000Y-146050000D02*
X57150000Y-146050000D01*
X60341000Y-154994000D02*
X60341000Y-147336000D01*
X60341000Y-147336000D02*
X59055000Y-146050000D01*
X55880000Y-144780000D02*
X55880000Y-138430000D01*
X58420000Y-127000000D02*
X59690000Y-125730000D01*
%TO.N,/D3*%
X66040000Y-88582500D02*
X66040000Y-116205000D01*
X67627500Y-86995000D02*
X66040000Y-88582500D01*
X90640000Y-80480000D02*
X86525000Y-80480000D01*
X117475000Y-140970000D02*
X118745000Y-142240000D01*
X80056000Y-86949000D02*
X74341000Y-86949000D01*
X66040000Y-116205000D02*
X90805000Y-140970000D01*
X74341000Y-86949000D02*
X74295000Y-86995000D01*
X118745000Y-142240000D02*
X118675000Y-142310000D01*
X86525000Y-80480000D02*
X80056000Y-86949000D01*
X90805000Y-140970000D02*
X117475000Y-140970000D01*
X118675000Y-142310000D02*
X118675000Y-155080000D01*
X74295000Y-86995000D02*
X67627500Y-86995000D01*
%TO.N,/A8*%
X69850000Y-143510000D02*
X75495000Y-149155000D01*
X75495000Y-149155000D02*
X75495000Y-155080000D01*
X69850000Y-142240000D02*
X69850000Y-143510000D01*
%TO.N,/IOR*%
X98425000Y-147320000D02*
X98425000Y-149790000D01*
X98425000Y-149790000D02*
X98355000Y-149860000D01*
%TO.N,/D5*%
X68580000Y-114935000D02*
X92075000Y-138430000D01*
X86525000Y-85560000D02*
X80056000Y-92029000D01*
X69896000Y-92029000D02*
X68580000Y-93345000D01*
X68580000Y-93345000D02*
X68580000Y-114935000D01*
X80056000Y-92029000D02*
X69896000Y-92029000D01*
X122555000Y-138430000D02*
X123825000Y-139700000D01*
X92075000Y-138430000D02*
X122555000Y-138430000D01*
X123755000Y-139770000D02*
X123755000Y-155080000D01*
X90640000Y-85560000D02*
X86525000Y-85560000D01*
X123825000Y-139700000D02*
X123755000Y-139770000D01*
%TO.N,Net-(RN1-R4)*%
X67780000Y-62700000D02*
X64089000Y-66391000D01*
X64089000Y-66391000D02*
X56231000Y-66391000D01*
X56231000Y-66391000D02*
X55080000Y-65240000D01*
%TO.N,Net-(RN1-R3)*%
X57620000Y-62700000D02*
X60160000Y-65240000D01*
X55080000Y-62700000D02*
X57620000Y-62700000D01*
%TO.N,Net-(RN1-R1)*%
X57620000Y-55080000D02*
X55080000Y-57620000D01*
X60160000Y-55080000D02*
X57620000Y-55080000D01*
%TO.N,Net-(RN1-R5)*%
X66629000Y-68931000D02*
X56231000Y-68931000D01*
X67780000Y-67780000D02*
X66629000Y-68931000D01*
X56231000Y-68931000D02*
X55080000Y-67780000D01*
%TO.N,Net-(RN1-R2)*%
X55080000Y-60160000D02*
X60160000Y-60160000D01*
%TO.N,/{slash}PC2*%
X105118000Y-55080000D02*
X103340000Y-55080000D01*
X106172000Y-56134000D02*
X105118000Y-55080000D01*
X103340000Y-97066000D02*
X106172000Y-94234000D01*
X103340000Y-100080000D02*
X103340000Y-97066000D01*
X106172000Y-94234000D02*
X106172000Y-56134000D01*
%TO.N,/PA2*%
X86525000Y-60160000D02*
X87676000Y-59009000D01*
X97536000Y-59944000D02*
X97536000Y-107315000D01*
X96601000Y-59009000D02*
X97536000Y-59944000D01*
X75400000Y-60160000D02*
X86525000Y-60160000D01*
X87676000Y-59009000D02*
X96601000Y-59009000D01*
%TO.N,/PB7*%
X99060000Y-58636000D02*
X100076000Y-57620000D01*
X100076000Y-57620000D02*
X103340000Y-57620000D01*
X99060000Y-92710000D02*
X99060000Y-58636000D01*
%TO.N,/PA0*%
X96012000Y-65278000D02*
X94823000Y-64089000D01*
X87676000Y-64089000D02*
X86525000Y-65240000D01*
X86525000Y-65240000D02*
X75400000Y-65240000D01*
X94823000Y-64089000D02*
X87676000Y-64089000D01*
X96012000Y-108712000D02*
X96012000Y-65278000D01*
X97155000Y-109855000D02*
X97790000Y-109855000D01*
X96012000Y-108712000D02*
X97155000Y-109855000D01*
%TO.N,/PB1*%
X73660000Y-112395000D02*
X73660000Y-105080000D01*
X73660000Y-105080000D02*
X75400000Y-103340000D01*
X103120000Y-112780000D02*
X99695000Y-116205000D01*
X99695000Y-116205000D02*
X77470000Y-116205000D01*
X77470000Y-116205000D02*
X73660000Y-112395000D01*
X103340000Y-112780000D02*
X103120000Y-112780000D01*
%TO.N,/PB0*%
X103340000Y-117860000D02*
X77220000Y-117860000D01*
X72390000Y-113030000D02*
X72390000Y-103810000D01*
X72390000Y-103810000D02*
X75400000Y-100800000D01*
X77220000Y-117860000D02*
X72390000Y-113030000D01*
%TO.N,/PB5*%
X101765000Y-67780000D02*
X103340000Y-67780000D01*
X100584000Y-90678000D02*
X100584000Y-68961000D01*
X102616000Y-92710000D02*
X100584000Y-90678000D01*
X100584000Y-68961000D02*
X101765000Y-67780000D01*
%TO.N,/PB4*%
X101346000Y-89154000D02*
X105156000Y-92964000D01*
X103340000Y-72860000D02*
X101346000Y-74854000D01*
X101346000Y-74854000D02*
X101346000Y-89154000D01*
%TO.N,/PA1*%
X97282000Y-108585000D02*
X97790000Y-108585000D01*
X75400000Y-62700000D02*
X86525000Y-62700000D01*
X95585000Y-61549000D02*
X96774000Y-62738000D01*
X96774000Y-108077000D02*
X97282000Y-108585000D01*
X87676000Y-61549000D02*
X95585000Y-61549000D01*
X96774000Y-62738000D02*
X96774000Y-108077000D01*
X86525000Y-62700000D02*
X87676000Y-61549000D01*
%TO.N,/PB6*%
X101092000Y-62700000D02*
X103340000Y-62700000D01*
X99822000Y-92202000D02*
X99822000Y-63970000D01*
X99822000Y-63970000D02*
X101092000Y-62700000D01*
X100330000Y-92710000D02*
X99822000Y-92202000D01*
%TO.N,/PB2*%
X101600000Y-107700000D02*
X103340000Y-107700000D01*
X75400000Y-105880000D02*
X75400000Y-112230000D01*
X100464000Y-108836000D02*
X101600000Y-107700000D01*
X75400000Y-112230000D02*
X78105000Y-114935000D01*
X78105000Y-114935000D02*
X99060000Y-114935000D01*
X100464000Y-113531000D02*
X100464000Y-108836000D01*
X99060000Y-114935000D02*
X100464000Y-113531000D01*
%TO.N,/PA3*%
X97363000Y-56469000D02*
X98298000Y-57404000D01*
X86525000Y-57620000D02*
X87676000Y-56469000D01*
X98298000Y-57404000D02*
X98298000Y-104398000D01*
X87676000Y-56469000D02*
X97363000Y-56469000D01*
X99060000Y-105160000D02*
X103340000Y-105160000D01*
X75400000Y-57620000D02*
X86525000Y-57620000D01*
X98298000Y-104398000D02*
X99060000Y-105160000D01*
%TO.N,Net-(J2-Pin_6)*%
X136144000Y-67711000D02*
X136144000Y-93218000D01*
X136144000Y-93218000D02*
X136144000Y-112014000D01*
X146190000Y-65240000D02*
X144989000Y-66441000D01*
X144989000Y-66441000D02*
X137414000Y-66441000D01*
X136144000Y-112014000D02*
X136144000Y-112141000D01*
X137414000Y-66441000D02*
X136144000Y-67711000D01*
%TO.N,Net-(J2-Pin_2)*%
X134620000Y-95758000D02*
X134620000Y-119380000D01*
X144851000Y-61499000D02*
X146190000Y-60160000D01*
X134620000Y-62992000D02*
X136113000Y-61499000D01*
X134620000Y-95758000D02*
X134620000Y-62992000D01*
X136113000Y-61499000D02*
X144851000Y-61499000D01*
X134620000Y-119380000D02*
X134112000Y-119888000D01*
%TO.N,Net-(J2-Pin_8)*%
X136906000Y-69997000D02*
X137922000Y-68981000D01*
X144989000Y-68981000D02*
X146190000Y-67780000D01*
X136906000Y-113919000D02*
X136906000Y-98298000D01*
X137922000Y-68981000D02*
X144989000Y-68981000D01*
X136906000Y-98298000D02*
X136906000Y-69997000D01*
X136906000Y-113919000D02*
X136906000Y-114808000D01*
%TO.N,Net-(J2-Pin_4)*%
X135382000Y-119253000D02*
X135382000Y-119634000D01*
X135382000Y-88138000D02*
X135382000Y-65532000D01*
X135382000Y-88138000D02*
X135382000Y-119253000D01*
X135382000Y-65532000D02*
X136875000Y-64039000D01*
X135382000Y-119634000D02*
X135382000Y-122428000D01*
X136875000Y-64039000D02*
X144851000Y-64039000D01*
X144851000Y-64039000D02*
X146190000Y-62700000D01*
%TO.N,Net-(J2-Pin_12)*%
X144989000Y-74061000D02*
X142113000Y-74061000D01*
X139954000Y-75184000D02*
X141077000Y-74061000D01*
X139954000Y-100711000D02*
X139954000Y-75184000D01*
X142113000Y-74061000D02*
X141224000Y-74061000D01*
X146190000Y-72860000D02*
X144989000Y-74061000D01*
%TO.N,Net-(J2-Pin_14)*%
X141508000Y-109108000D02*
X141478000Y-109108000D01*
X141478000Y-82967000D02*
X141478000Y-77363000D01*
X141425000Y-83020000D02*
X141425000Y-83244000D01*
X141478000Y-83297000D02*
X141478000Y-109108000D01*
X141605000Y-109205000D02*
X141508000Y-109108000D01*
X142240000Y-76601000D02*
X144989000Y-76601000D01*
X141425000Y-83020000D02*
X141478000Y-82967000D01*
X141478000Y-77363000D02*
X142240000Y-76601000D01*
X144989000Y-76601000D02*
X146190000Y-75400000D01*
X141425000Y-83244000D02*
X141478000Y-83297000D01*
%TO.N,Net-(J2-Pin_10)*%
X138430000Y-89916000D02*
X138430000Y-72283000D01*
X138430000Y-72283000D02*
X139192000Y-71521000D01*
X139192000Y-71521000D02*
X144989000Y-71521000D01*
X138430000Y-89916000D02*
X138430000Y-90678000D01*
X144989000Y-71521000D02*
X146190000Y-70320000D01*
%TO.N,Net-(J2-Pin_11)*%
X136906000Y-124714000D02*
X139192000Y-122428000D01*
X118872000Y-124714000D02*
X136906000Y-124714000D01*
X140208000Y-72860000D02*
X143650000Y-72860000D01*
X116840000Y-114300000D02*
X116840000Y-122682000D01*
X116840000Y-122682000D02*
X118872000Y-124714000D01*
X110960000Y-112780000D02*
X115320000Y-112780000D01*
X115320000Y-112780000D02*
X116840000Y-114300000D01*
X139192000Y-122428000D02*
X139192000Y-73876000D01*
X139192000Y-73876000D02*
X140208000Y-72860000D01*
%TO.N,Net-(J2-Pin_5)*%
X132334000Y-72644000D02*
X130010000Y-70320000D01*
X130010000Y-70320000D02*
X110960000Y-70320000D01*
X132334000Y-113500000D02*
X132334000Y-72644000D01*
%TO.N,Net-(J2-Pin_3)*%
X133096000Y-67526000D02*
X130810000Y-65240000D01*
X133096000Y-110960000D02*
X133096000Y-67526000D01*
X130810000Y-65240000D02*
X110960000Y-65240000D01*
%TO.N,Net-(J2-Pin_13)*%
X110960000Y-117860000D02*
X114685000Y-117860000D01*
X140716000Y-122682000D02*
X140716000Y-76543000D01*
X140716000Y-76543000D02*
X141859000Y-75400000D01*
X117602000Y-125222000D02*
X138176000Y-125222000D01*
X138176000Y-125222000D02*
X140716000Y-122682000D01*
X114685000Y-117860000D02*
X115570000Y-118745000D01*
X115570000Y-123190000D02*
X117602000Y-125222000D01*
X141859000Y-75400000D02*
X143650000Y-75400000D01*
X115570000Y-118745000D02*
X115570000Y-123190000D01*
%TO.N,Net-(J2-Pin_15)*%
X138430000Y-125730000D02*
X142240000Y-121920000D01*
X113750000Y-125730000D02*
X138430000Y-125730000D01*
X110960000Y-122940000D02*
X113750000Y-125730000D01*
X142240000Y-79350000D02*
X143650000Y-77940000D01*
X142240000Y-121920000D02*
X142240000Y-79350000D01*
%TO.N,Net-(J2-Pin_9)*%
X118110000Y-122174000D02*
X120142000Y-124206000D01*
X118110000Y-109220000D02*
X118110000Y-122174000D01*
X116590000Y-107700000D02*
X118110000Y-109220000D01*
X137668000Y-71374000D02*
X138722000Y-70320000D01*
X135636000Y-124206000D02*
X137668000Y-122174000D01*
X137668000Y-122174000D02*
X137668000Y-71374000D01*
X138722000Y-70320000D02*
X143650000Y-70320000D01*
X110960000Y-107700000D02*
X116590000Y-107700000D01*
X120142000Y-124206000D02*
X135636000Y-124206000D01*
%TO.N,Net-(J2-Pin_1)*%
X131445000Y-60160000D02*
X110960000Y-60160000D01*
X133858000Y-62573000D02*
X131445000Y-60160000D01*
X133858000Y-108420000D02*
X133858000Y-62573000D01*
%TD*%
M02*
